<?xml version="1.0" encoding="UTF-8" standalone="no"?>
<!DOCTYPE svg PUBLIC "-//W3C//DTD SVG 1.1//EN"
 "http://www.w3.org/Graphics/SVG/1.1/DTD/svg11.dtd">
<!-- Generated by graphviz version 8.1.0 (20230707.0739)
 -->
<!-- Title: G Pages: 1 -->
<svg width="580pt" height="408pt"
 viewBox="0.00 0.00 580.27 408.00" xmlns="http://www.w3.org/2000/svg" xmlns:xlink="http://www.w3.org/1999/xlink">
<g id="graph0" class="graph" transform="scale(1 1) rotate(0) translate(4 404)">
<title>G</title>
<polygon fill="white" stroke="none" points="-4,4 -4,-404 576.27,-404 576.27,4 -4,4"/>
<g id="clust1" class="cluster">
<title>cluster_super_scientific_phenomena</title>
<polygon fill="none" stroke="lightblue" points="383.02,-200 383.02,-330 564.27,-330 564.27,-200 383.02,-200"/>
<text text-anchor="middle" x="473.65" y="-312.7" font-family="Times New Roman,serif" font-size="14.00">SuperScientificPhenomena</text>
</g>
<g id="clust2" class="cluster">
<title>cluster_quantum_circuit</title>
<polygon fill="none" stroke="lightblue" points="411.59,-8 411.59,-192 535.71,-192 535.71,-8 411.59,-8"/>
<text text-anchor="middle" x="473.65" y="-174.7" font-family="Times New Roman,serif" font-size="14.00">QuantumCircuit</text>
</g>
<!-- Phenomena -->
<g id="node1" class="node">
<title>Phenomena</title>
<polygon fill="none" stroke="black" points="556.27,-298 391.02,-298 391.02,-262 556.27,-262 556.27,-298"/>
<text text-anchor="middle" x="473.65" y="-274.57" font-family="Times New Roman,serif" font-size="14.00">SuperScientificPhenomena</text>
</g>
<!-- validate -->
<g id="node2" class="node">
<title>validate</title>
<ellipse fill="none" stroke="black" cx="473.65" cy="-226" rx="44.58" ry="18"/>
<text text-anchor="middle" x="473.65" y="-220.57" font-family="Times New Roman,serif" font-size="14.00">validate()</text>
</g>
<!-- Circuit -->
<g id="node3" class="node">
<title>Circuit</title>
<polygon fill="none" stroke="black" points="525.9,-160 421.4,-160 421.4,-124 525.9,-124 525.9,-160"/>
<text text-anchor="middle" x="473.65" y="-136.57" font-family="Times New Roman,serif" font-size="14.00">QuantumCircuit</text>
</g>
<!-- fry -->
<g id="node4" class="node">
<title>fry</title>
<ellipse fill="none" stroke="black" cx="473.65" cy="-88" rx="27.11" ry="18"/>
<text text-anchor="middle" x="473.65" y="-82.58" font-family="Times New Roman,serif" font-size="14.00">fry()</text>
</g>
<!-- get_status -->
<g id="node5" class="node">
<title>get_status</title>
<ellipse fill="none" stroke="black" cx="473.65" cy="-34" rx="54.06" ry="18"/>
<text text-anchor="middle" x="473.65" y="-28.57" font-family="Times New Roman,serif" font-size="14.00">get_status()</text>
</g>
<!-- main -->
<g id="node6" class="node">
<title>main</title>
<ellipse fill="none" stroke="green" cx="34.1" cy="-274" rx="34.1" ry="18"/>
<text text-anchor="middle" x="34.1" y="-268.57" font-family="Times New Roman,serif" font-size="14.00">main()</text>
</g>
<!-- super_reductionism_pyramid -->
<g id="node7" class="node">
<title>super_reductionism_pyramid</title>
<ellipse fill="none" stroke="black" cx="229.61" cy="-382" rx="125.41" ry="18"/>
<text text-anchor="middle" x="229.61" y="-376.57" font-family="Times New Roman,serif" font-size="14.00">super_reductionism_pyramid()</text>
</g>
<!-- main&#45;&gt;super_reductionism_pyramid -->
<g id="edge1" class="edge">
<title>main&#45;&gt;super_reductionism_pyramid</title>
<path fill="none" stroke="black" d="M45.16,-291.49C56.88,-310.22 78.02,-339.34 104.2,-355 111.33,-359.27 119.06,-362.87 127.04,-365.9"/>
<polygon fill="black" stroke="black" points="125.68,-369.47 136.27,-369.44 127.97,-362.86 125.68,-369.47"/>
</g>
<!-- super_relativity -->
<g id="node8" class="node">
<title>super_relativity</title>
<ellipse fill="none" stroke="black" cx="229.61" cy="-328" rx="73.02" ry="18"/>
<text text-anchor="middle" x="229.61" y="-322.57" font-family="Times New Roman,serif" font-size="14.00">super_relativity()</text>
</g>
<!-- main&#45;&gt;super_relativity -->
<g id="edge2" class="edge">
<title>main&#45;&gt;super_relativity</title>
<path fill="none" stroke="black" d="M61.33,-285.39C74.1,-290.63 89.77,-296.65 104.2,-301 121.8,-306.31 141.11,-311.02 159.14,-314.96"/>
<polygon fill="black" stroke="black" points="158.38,-318.59 168.89,-317.26 159.84,-311.75 158.38,-318.59"/>
</g>
<!-- super_string_theory -->
<g id="node9" class="node">
<title>super_string_theory</title>
<ellipse fill="none" stroke="black" cx="229.61" cy="-274" rx="90.98" ry="18"/>
<text text-anchor="middle" x="229.61" y="-268.57" font-family="Times New Roman,serif" font-size="14.00">super_string_theory()</text>
</g>
<!-- main&#45;&gt;super_string_theory -->
<g id="edge3" class="edge">
<title>main&#45;&gt;super_string_theory</title>
<path fill="none" stroke="black" d="M68.36,-274C85,-274 106.13,-274 127.54,-274"/>
<polygon fill="black" stroke="black" points="127.39,-277.5 137.39,-274 127.39,-270.5 127.39,-277.5"/>
</g>
<!-- scientific_phenomena_validate -->
<g id="node10" class="node">
<title>scientific_phenomena_validate</title>
<polygon fill="none" stroke="lightblue" points="297.61,-237.75 161.61,-237.75 161.61,-198.25 297.61,-198.25 297.61,-237.75"/>
<text text-anchor="middle" x="229.61" y="-220.45" font-family="Times New Roman,serif" font-size="14.00">Scientific Phenomena</text>
<text text-anchor="middle" x="229.61" y="-204.7" font-family="Times New Roman,serif" font-size="14.00">.validate()</text>
</g>
<!-- main&#45;&gt;scientific_phenomena_validate -->
<g id="edge4" class="edge">
<title>main&#45;&gt;scientific_phenomena_validate</title>
<path fill="none" stroke="green" d="M61.36,-262.71C74.13,-257.49 89.8,-251.46 104.2,-247 119.08,-242.38 135.17,-238.11 150.68,-234.35"/>
<polygon fill="green" stroke="green" points="151.39,-237.55 160.31,-231.83 149.77,-230.73 151.39,-237.55"/>
</g>
<!-- quantum_circuit_fry -->
<g id="node11" class="node">
<title>quantum_circuit_fry</title>
<polygon fill="none" stroke="lightblue" points="283.74,-167.75 175.49,-167.75 175.49,-128.25 283.74,-128.25 283.74,-167.75"/>
<text text-anchor="middle" x="229.61" y="-150.45" font-family="Times New Roman,serif" font-size="14.00">Quantum Circuit</text>
<text text-anchor="middle" x="229.61" y="-134.7" font-family="Times New Roman,serif" font-size="14.00">.fry()</text>
</g>
<!-- main&#45;&gt;quantum_circuit_fry -->
<g id="edge5" class="edge">
<title>main&#45;&gt;quantum_circuit_fry</title>
<path fill="none" stroke="green" d="M45.07,-256.51C56.86,-237.33 78.2,-206.91 104.2,-189 122.14,-176.64 144.07,-167.79 164.5,-161.55"/>
<polygon fill="green" stroke="green" points="165.38,-164.65 174.02,-158.52 163.44,-157.93 165.38,-164.65"/>
</g>
<!-- super_reductionism_pyramid&#45;&gt;Phenomena -->
<g id="edge6" class="edge">
<title>super_reductionism_pyramid&#45;&gt;Phenomena</title>
<path fill="none" stroke="black" d="M313.51,-368.31C327.63,-364.77 341.94,-360.39 355.02,-355 385.93,-342.27 417.69,-321.48 440.41,-305.01"/>
<polygon fill="black" stroke="black" points="442.29,-307.23 448.26,-298.48 438.13,-301.6 442.29,-307.23"/>
</g>
<!-- super_relativity&#45;&gt;Phenomena -->
<g id="edge7" class="edge">
<title>super_relativity&#45;&gt;Phenomena</title>
<path fill="none" stroke="black" d="M287.66,-316.69C315.29,-311.21 349.15,-304.49 380.32,-298.31"/>
<polygon fill="black" stroke="black" points="380.65,-301.61 389.78,-296.24 379.29,-294.75 380.65,-301.61"/>
</g>
<!-- super_string_theory&#45;&gt;Phenomena -->
<g id="edge8" class="edge">
<title>super_string_theory&#45;&gt;Phenomena</title>
<path fill="none" stroke="black" d="M320.39,-276.23C339.71,-276.7 360.18,-277.21 379.62,-277.69"/>
<polygon fill="black" stroke="black" points="379.53,-281.22 389.61,-277.97 379.7,-274.22 379.53,-281.22"/>
</g>
<!-- scientific_phenomena_validate&#45;&gt;Phenomena -->
<g id="edge9" class="edge">
<title>scientific_phenomena_validate&#45;&gt;Phenomena</title>
<path fill="none" stroke="black" d="M297.9,-233.11C316.45,-237.43 336.55,-242.26 355.02,-247 369.16,-250.63 384.19,-254.69 398.62,-258.69"/>
<polygon fill="black" stroke="black" points="397.42,-262.27 408,-261.58 399.3,-255.53 397.42,-262.27"/>
</g>
<!-- scientific_phenomena_validate&#45;&gt;validate -->
<g id="edge12" class="edge">
<title>scientific_phenomena_validate&#45;&gt;validate</title>
<path fill="none" stroke="green" d="M298.03,-220.23C335.93,-221.48 382.63,-223.02 418.19,-224.2"/>
<polygon fill="green" stroke="green" points="417.74,-227.72 427.85,-224.55 417.97,-220.72 417.74,-227.72"/>
</g>
<!-- quantum_circuit_fry&#45;&gt;Circuit -->
<g id="edge10" class="edge">
<title>quantum_circuit_fry&#45;&gt;Circuit</title>
<path fill="none" stroke="black" d="M284.03,-146.68C321.23,-145.75 370.99,-144.52 410.06,-143.55"/>
<polygon fill="black" stroke="black" points="410.12,-147.03 420.03,-143.28 409.95,-140.03 410.12,-147.03"/>
</g>
<!-- quantum_circuit_get_status -->
<g id="node12" class="node">
<title>quantum_circuit_get_status</title>
<polygon fill="none" stroke="lightblue" points="283.74,-84.75 175.49,-84.75 175.49,-45.25 283.74,-45.25 283.74,-84.75"/>
<text text-anchor="middle" x="229.61" y="-67.45" font-family="Times New Roman,serif" font-size="14.00">Quantum Circuit</text>
<text text-anchor="middle" x="229.61" y="-51.7" font-family="Times New Roman,serif" font-size="14.00">.get_status()</text>
</g>
<!-- quantum_circuit_get_status&#45;&gt;Circuit -->
<g id="edge11" class="edge">
<title>quantum_circuit_get_status&#45;&gt;Circuit</title>
<path fill="none" stroke="black" d="M284.12,-82.91C313.3,-92.58 350.08,-104.64 383.02,-115 391.92,-117.8 401.34,-120.7 410.59,-123.52"/>
<polygon fill="black" stroke="black" points="409.34,-127.1 419.92,-126.65 411.37,-120.4 409.34,-127.1"/>
</g>
<!-- quantum_circuit_get_status&#45;&gt;get_status -->
<g id="edge13" class="edge">
<title>quantum_circuit_get_status&#45;&gt;get_status</title>
<path fill="none" stroke="green" d="M284.03,-58.16C321.82,-53.32 372.56,-46.82 411.9,-41.78"/>
<polygon fill="green" stroke="green" points="412.2,-45.14 421.67,-40.4 411.31,-38.2 412.2,-45.14"/>
</g>
</g>
</svg>
