<?xml version="1.0" encoding="UTF-8" standalone="no"?>
<!DOCTYPE svg PUBLIC "-//W3C//DTD SVG 1.1//EN"
 "http://www.w3.org/Graphics/SVG/1.1/DTD/svg11.dtd">
<!-- Generated by graphviz version 8.1.0 (20230707.0739)
 -->
<!-- Title: CodeGraph Pages: 1 -->
<svg width="2615pt" height="188pt"
 viewBox="0.00 0.00 2614.56 188.00" xmlns="http://www.w3.org/2000/svg" xmlns:xlink="http://www.w3.org/1999/xlink">
<g id="graph0" class="graph" transform="scale(1 1) rotate(0) translate(4 184)">
<title>CodeGraph</title>
<polygon fill="white" stroke="none" points="-4,4 -4,-184 2610.56,-184 2610.56,4 -4,4"/>
<!-- initial_phrase -->
<g id="node1" class="node">
<title>initial_phrase</title>
<ellipse fill="none" stroke="black" cx="59.05" cy="-18" rx="59.05" ry="18"/>
<text text-anchor="middle" x="59.05" y="-12.57" font-family="Times New Roman,serif" font-size="14.00">initial_phrase</text>
</g>
<!-- inner_expression -->
<g id="node2" class="node">
<title>inner_expression</title>
<ellipse fill="none" stroke="black" cx="210.05" cy="-18" rx="73.52" ry="18"/>
<text text-anchor="middle" x="210.05" y="-12.57" font-family="Times New Roman,serif" font-size="14.00">inner_expression</text>
</g>
<!-- parameters -->
<g id="node3" class="node">
<title>parameters</title>
<ellipse fill="none" stroke="black" cx="353.05" cy="-18" rx="51.06" ry="18"/>
<text text-anchor="middle" x="353.05" y="-12.57" font-family="Times New Roman,serif" font-size="14.00">parameters</text>
</g>
<!-- multiple_phrases -->
<g id="node4" class="node">
<title>multiple_phrases</title>
<ellipse fill="none" stroke="black" cx="495.05" cy="-18" rx="73.02" ry="18"/>
<text text-anchor="middle" x="495.05" y="-12.57" font-family="Times New Roman,serif" font-size="14.00">multiple_phrases</text>
</g>
<!-- sql_parse -->
<g id="node5" class="node">
<title>sql_parse</title>
<ellipse fill="none" stroke="black" cx="633.05" cy="-18" rx="46.57" ry="18"/>
<text text-anchor="middle" x="633.05" y="-12.57" font-family="Times New Roman,serif" font-size="14.00">sql_parse</text>
</g>
<!-- inch_on_phrases -->
<g id="node6" class="node">
<title>inch_on_phrases</title>
<ellipse fill="none" stroke="black" cx="772.05" cy="-18" rx="74.02" ry="18"/>
<text text-anchor="middle" x="772.05" y="-12.57" font-family="Times New Roman,serif" font-size="14.00">inch_on_phrases</text>
</g>
<!-- hildr_likes_lockheed -->
<g id="node7" class="node">
<title>hildr_likes_lockheed</title>
<ellipse fill="none" stroke="black" cx="951.05" cy="-18" rx="86.99" ry="18"/>
<text text-anchor="middle" x="951.05" y="-12.57" font-family="Times New Roman,serif" font-size="14.00">hildr_likes_lockheed</text>
</g>
<!-- multiple_phrases_with_brackets -->
<g id="node8" class="node">
<title>multiple_phrases_with_brackets</title>
<ellipse fill="none" stroke="black" cx="1186.05" cy="-18" rx="129.91" ry="18"/>
<text text-anchor="middle" x="1186.05" y="-12.57" font-family="Times New Roman,serif" font-size="14.00">multiple_phrases_with_brackets</text>
</g>
<!-- end_go_on_expression -->
<g id="node9" class="node">
<title>end_go_on_expression</title>
<ellipse fill="none" stroke="black" cx="1432.05" cy="-18" rx="97.97" ry="18"/>
<text text-anchor="middle" x="1432.05" y="-12.57" font-family="Times New Roman,serif" font-size="14.00">end_go_on_expression</text>
</g>
<!-- gol_expression -->
<g id="node10" class="node">
<title>gol_expression</title>
<ellipse fill="none" stroke="black" cx="1615.05" cy="-18" rx="67.03" ry="18"/>
<text text-anchor="middle" x="1615.05" y="-12.57" font-family="Times New Roman,serif" font-size="14.00">gol_expression</text>
</g>
<!-- jester_phrases -->
<g id="node11" class="node">
<title>jester_phrases</title>
<ellipse fill="none" stroke="black" cx="1764.05" cy="-18" rx="63.54" ry="18"/>
<text text-anchor="middle" x="1764.05" y="-12.57" font-family="Times New Roman,serif" font-size="14.00">jester_phrases</text>
</g>
<!-- renaissance_expression -->
<g id="node12" class="node">
<title>renaissance_expression</title>
<ellipse fill="none" stroke="black" cx="1944.05" cy="-18" rx="97.97" ry="18"/>
<text text-anchor="middle" x="1944.05" y="-12.57" font-family="Times New Roman,serif" font-size="14.00">renaissance_expression</text>
</g>
<!-- for_loop_expression -->
<g id="node13" class="node">
<title>for_loop_expression</title>
<ellipse fill="none" stroke="black" cx="2148.05" cy="-18" rx="88.49" ry="18"/>
<text text-anchor="middle" x="2148.05" y="-12.57" font-family="Times New Roman,serif" font-size="14.00">for_loop_expression</text>
</g>
<!-- knight_fudge_phrases -->
<g id="node14" class="node">
<title>knight_fudge_phrases</title>
<ellipse fill="none" stroke="black" cx="2347.05" cy="-18" rx="92.48" ry="18"/>
<text text-anchor="middle" x="2347.05" y="-12.57" font-family="Times New Roman,serif" font-size="14.00">knight_fudge_phrases</text>
</g>
<!-- point_expression -->
<g id="node15" class="node">
<title>point_expression</title>
<ellipse fill="none" stroke="black" cx="2532.05" cy="-18" rx="74.52" ry="18"/>
<text text-anchor="middle" x="2532.05" y="-12.57" font-family="Times New Roman,serif" font-size="14.00">point_expression</text>
</g>
<!-- complete_statement -->
<g id="node16" class="node">
<title>complete_statement</title>
<ellipse fill="none" stroke="black" cx="1186.05" cy="-90" rx="84.5" ry="18"/>
<text text-anchor="middle" x="1186.05" y="-84.58" font-family="Times New Roman,serif" font-size="14.00">complete_statement</text>
</g>
<!-- complete_statement&#45;&gt;initial_phrase -->
<g id="edge1" class="edge">
<title>complete_statement&#45;&gt;initial_phrase</title>
<path fill="none" stroke="black" d="M1102.49,-86.92C886.73,-81.22 314.71,-63.88 127.05,-36 122.05,-35.26 116.87,-34.31 111.72,-33.24"/>
<polygon fill="black" stroke="black" points="112.75,-29.66 102.23,-30.9 111.23,-36.49 112.75,-29.66"/>
</g>
<!-- complete_statement&#45;&gt;inner_expression -->
<g id="edge2" class="edge">
<title>complete_statement&#45;&gt;inner_expression</title>
<path fill="none" stroke="black" d="M1101.64,-88C942.72,-85.22 588.5,-74.82 293.05,-36 286.54,-35.14 279.78,-34.07 273.05,-32.88"/>
<polygon fill="black" stroke="black" points="274.02,-29.32 263.55,-30.93 272.74,-36.2 274.02,-29.32"/>
</g>
<!-- complete_statement&#45;&gt;parameters -->
<g id="edge3" class="edge">
<title>complete_statement&#45;&gt;parameters</title>
<path fill="none" stroke="black" d="M1101.29,-88.92C958.3,-87.5 660.54,-79.06 413.05,-36 408.91,-35.28 404.64,-34.39 400.38,-33.39"/>
<polygon fill="black" stroke="black" points="401.45,-29.8 390.9,-30.74 399.73,-36.58 401.45,-29.8"/>
</g>
<!-- complete_statement&#45;&gt;multiple_phrases -->
<g id="edge4" class="edge">
<title>complete_statement&#45;&gt;multiple_phrases</title>
<path fill="none" stroke="black" d="M1104.43,-84.95C987.24,-78.45 764.75,-63.53 577.05,-36 570.87,-35.09 564.46,-34.01 558.07,-32.84"/>
<polygon fill="black" stroke="black" points="558.86,-29.24 548.38,-30.8 557.55,-36.12 558.86,-29.24"/>
</g>
<!-- complete_statement&#45;&gt;sql_parse -->
<g id="edge5" class="edge">
<title>complete_statement&#45;&gt;sql_parse</title>
<path fill="none" stroke="black" d="M1104.41,-85.02C1005.34,-79.11 833.61,-65.38 689.05,-36 685.4,-35.26 681.65,-34.38 677.91,-33.42"/>
<polygon fill="black" stroke="black" points="679.01,-29.82 668.44,-30.55 677.16,-36.57 679.01,-29.82"/>
</g>
<!-- complete_statement&#45;&gt;inch_on_phrases -->
<g id="edge6" class="edge">
<title>complete_statement&#45;&gt;inch_on_phrases</title>
<path fill="none" stroke="black" d="M1118.07,-78.99C1051.05,-68.92 945.79,-52.55 855.05,-36 849.26,-34.94 843.25,-33.8 837.24,-32.63"/>
<polygon fill="black" stroke="black" points="837.94,-29 827.45,-30.49 836.58,-35.87 837.94,-29"/>
</g>
<!-- complete_statement&#45;&gt;hildr_likes_lockheed -->
<g id="edge7" class="edge">
<title>complete_statement&#45;&gt;hildr_likes_lockheed</title>
<path fill="none" stroke="black" d="M1138.21,-74.75C1101,-63.67 1049.22,-48.24 1009.55,-36.43"/>
<polygon fill="black" stroke="black" points="1010.81,-32.85 1000.22,-33.35 1008.81,-39.56 1010.81,-32.85"/>
</g>
<!-- complete_statement&#45;&gt;multiple_phrases_with_brackets -->
<g id="edge8" class="edge">
<title>complete_statement&#45;&gt;multiple_phrases_with_brackets</title>
<path fill="none" stroke="black" d="M1186.05,-71.7C1186.05,-64.24 1186.05,-55.32 1186.05,-46.97"/>
<polygon fill="black" stroke="black" points="1189.55,-47.1 1186.05,-37.1 1182.55,-47.1 1189.55,-47.1"/>
</g>
<!-- complete_statement&#45;&gt;end_go_on_expression -->
<g id="edge9" class="edge">
<title>complete_statement&#45;&gt;end_go_on_expression</title>
<path fill="none" stroke="black" d="M1235.24,-75C1274.02,-63.97 1328.33,-48.51 1370.07,-36.64"/>
<polygon fill="black" stroke="black" points="1370.74,-39.8 1379.4,-33.7 1368.82,-33.07 1370.74,-39.8"/>
</g>
<!-- complete_statement&#45;&gt;gol_expression -->
<g id="edge10" class="edge">
<title>complete_statement&#45;&gt;gol_expression</title>
<path fill="none" stroke="black" d="M1256.95,-79.86C1328.41,-70.3 1441.73,-54.17 1539.05,-36 1544.31,-35.02 1549.77,-33.93 1555.23,-32.8"/>
<polygon fill="black" stroke="black" points="1555.63,-36.08 1564.69,-30.58 1554.18,-29.23 1555.63,-36.08"/>
</g>
<!-- complete_statement&#45;&gt;jester_phrases -->
<g id="edge11" class="edge">
<title>complete_statement&#45;&gt;jester_phrases</title>
<path fill="none" stroke="black" d="M1265.62,-83.72C1365.47,-76.39 1541.74,-61.12 1691.05,-36 1696.37,-35.11 1701.87,-34.05 1707.37,-32.92"/>
<polygon fill="black" stroke="black" points="1707.84,-36.19 1716.88,-30.66 1706.37,-29.34 1707.84,-36.19"/>
</g>
<!-- complete_statement&#45;&gt;renaissance_expression -->
<g id="edge12" class="edge">
<title>complete_statement&#45;&gt;renaissance_expression</title>
<path fill="none" stroke="black" d="M1266.93,-84.41C1390.21,-76.95 1632.42,-60.55 1837.05,-36 1845.55,-34.98 1854.4,-33.79 1863.22,-32.51"/>
<polygon fill="black" stroke="black" points="1863.56,-35.85 1872.94,-30.92 1862.53,-28.93 1863.56,-35.85"/>
</g>
<!-- complete_statement&#45;&gt;for_loop_expression -->
<g id="edge13" class="edge">
<title>complete_statement&#45;&gt;for_loop_expression</title>
<path fill="none" stroke="black" d="M1269.83,-86.99C1424.61,-82.59 1765.65,-69.64 2051.05,-36 2058.69,-35.1 2066.65,-33.99 2074.57,-32.77"/>
<polygon fill="black" stroke="black" points="2075,-36.09 2084.32,-31.05 2073.9,-29.17 2075,-36.09"/>
</g>
<!-- complete_statement&#45;&gt;knight_fudge_phrases -->
<g id="edge14" class="edge">
<title>complete_statement&#45;&gt;knight_fudge_phrases</title>
<path fill="none" stroke="black" d="M1270.39,-88.07C1450.09,-85.37 1883.81,-75.01 2245.05,-36 2253.33,-35.11 2261.96,-33.98 2270.54,-32.73"/>
<polygon fill="black" stroke="black" points="2270.99,-36.05 2280.36,-31.09 2269.95,-29.13 2270.99,-36.05"/>
</g>
<!-- complete_statement&#45;&gt;point_expression -->
<g id="edge15" class="edge">
<title>complete_statement&#45;&gt;point_expression</title>
<path fill="none" stroke="black" d="M1269.76,-87.21C1513.34,-81.72 2218.93,-63.82 2448.05,-36 2454.74,-35.19 2461.69,-34.13 2468.6,-32.94"/>
<polygon fill="black" stroke="black" points="2469.17,-36.21 2478.38,-30.98 2467.91,-29.33 2469.17,-36.21"/>
</g>
<!-- main -->
<g id="node17" class="node">
<title>main</title>
<ellipse fill="none" stroke="black" cx="1186.05" cy="-162" rx="28.11" ry="18"/>
<text text-anchor="middle" x="1186.05" y="-156.57" font-family="Times New Roman,serif" font-size="14.00">main</text>
</g>
<!-- main&#45;&gt;complete_statement -->
<g id="edge16" class="edge">
<title>main&#45;&gt;complete_statement</title>
<path fill="none" stroke="black" d="M1186.05,-143.7C1186.05,-136.24 1186.05,-127.32 1186.05,-118.97"/>
<polygon fill="black" stroke="black" points="1189.55,-119.1 1186.05,-109.1 1182.55,-119.1 1189.55,-119.1"/>
</g>
</g>
</svg>
