<?xml version="1.0" encoding="UTF-8" standalone="no"?>
<!DOCTYPE svg PUBLIC "-//W3C//DTD SVG 1.1//EN"
 "http://www.w3.org/Graphics/SVG/1.1/DTD/svg11.dtd">
<!-- Generated by graphviz version 8.1.0 (20230707.0739)
 -->
<!-- Title: Program10 Pages: 1 -->
<svg width="285pt" height="594pt"
 viewBox="0.00 0.00 285.38 593.50" xmlns="http://www.w3.org/2000/svg" xmlns:xlink="http://www.w3.org/1999/xlink">
<g id="graph0" class="graph" transform="scale(1 1) rotate(0) translate(4 589.5)">
<title>Program10</title>
<polygon fill="white" stroke="none" points="-4,4 -4,-589.5 281.38,-589.5 281.38,4 -4,4"/>
<!-- ExtraterrestrialSubspecies -->
<g id="node1" class="node">
<title>ExtraterrestrialSubspecies</title>
<polygon fill="none" stroke="black" points="94.88,-438 94.88,-585 277.38,-585 277.38,-438 94.88,-438"/>
<text text-anchor="middle" x="186.12" y="-567.7" font-family="Arial" font-size="14.00">ExtraterrestrialSubspecies</text>
<polyline fill="none" stroke="black" points="94.88,-560.5 277.38,-560.5"/>
<text text-anchor="middle" x="186.12" y="-543.2" font-family="Arial" font-size="14.00">+ name: str</text>
<polyline fill="none" stroke="black" points="94.88,-536 277.38,-536"/>
<text text-anchor="middle" x="186.12" y="-518.7" font-family="Arial" font-size="14.00">+ alternate_names: list</text>
<polyline fill="none" stroke="black" points="94.88,-511.5 277.38,-511.5"/>
<text text-anchor="middle" x="186.12" y="-494.2" font-family="Arial" font-size="14.00">+ description: str</text>
<polyline fill="none" stroke="black" points="94.88,-487 277.38,-487"/>
<text text-anchor="middle" x="186.12" y="-469.7" font-family="Arial" font-size="14.00">&#45;&#45;&#45;</text>
<polyline fill="none" stroke="black" points="94.88,-462.5 277.38,-462.5"/>
<text text-anchor="middle" x="186.12" y="-445.2" font-family="Arial" font-size="14.00">+ provide_insight(): void</text>
</g>
<!-- CelestialAsteroid -->
<g id="node2" class="node">
<title>CelestialAsteroid</title>
<polygon fill="none" stroke="black" points="34.12,-287.25 34.12,-385.25 218.12,-385.25 218.12,-287.25 34.12,-287.25"/>
<text text-anchor="middle" x="126.12" y="-367.95" font-family="Arial" font-size="14.00">CelestialAsteroid</text>
<polyline fill="none" stroke="black" points="34.12,-360.75 218.12,-360.75"/>
<text text-anchor="middle" x="126.12" y="-343.45" font-family="Arial" font-size="14.00">+ asteroid_blocks: list</text>
<polyline fill="none" stroke="black" points="34.12,-336.25 218.12,-336.25"/>
<text text-anchor="middle" x="126.12" y="-318.95" font-family="Arial" font-size="14.00">&#45;&#45;&#45;</text>
<polyline fill="none" stroke="black" points="34.12,-311.75 218.12,-311.75"/>
<text text-anchor="middle" x="126.12" y="-294.45" font-family="Arial" font-size="14.00">+ showcase_blocks(): void</text>
</g>
<!-- ExtraterrestrialSubspecies&#45;&gt;CelestialAsteroid -->
<g id="edge1" class="edge">
<title>ExtraterrestrialSubspecies&#45;&gt;CelestialAsteroid</title>
<path fill="none" stroke="black" d="M161.03,-438.03C156.09,-423.77 150.97,-408.98 146.22,-395.27"/>
<polygon fill="black" stroke="black" points="149.25,-394.33 142.67,-386.02 142.64,-396.62 149.25,-394.33"/>
<text text-anchor="middle" x="183.62" y="-406.2" font-family="Times New Roman,serif" font-size="14.00">represents</text>
</g>
<!-- execute_program -->
<g id="node4" class="node">
<title>execute_program</title>
<polygon fill="none" stroke="black" points="139.75,-0.5 139.75,-74 276.5,-74 276.5,-0.5 139.75,-0.5"/>
<text text-anchor="middle" x="208.12" y="-56.7" font-family="Arial" font-size="14.00">execute_program()</text>
<polyline fill="none" stroke="black" points="139.75,-49.5 276.5,-49.5"/>
<text text-anchor="middle" x="208.12" y="-32.2" font-family="Arial" font-size="14.00">&#45;&#45;&#45;</text>
<polyline fill="none" stroke="black" points="139.75,-25 276.5,-25"/>
<text text-anchor="middle" x="208.12" y="-7.7" font-family="Arial" font-size="14.00"> </text>
</g>
<!-- ExtraterrestrialSubspecies&#45;&gt;execute_program -->
<g id="edge3" class="edge">
<title>ExtraterrestrialSubspecies&#45;&gt;execute_program</title>
<path fill="none" stroke="black" d="M214.19,-438.25C219.56,-421.28 224.37,-403.09 227.12,-385.75 233.65,-344.67 229.69,-137.42 223.12,-92.5 222.74,-89.83 222.26,-87.11 221.71,-84.38"/>
<polygon fill="black" stroke="black" points="224.95,-83.85 219.33,-74.87 218.13,-85.4 224.95,-83.85"/>
</g>
<!-- ComplexContiguousBlock -->
<g id="node3" class="node">
<title>ComplexContiguousBlock</title>
<polygon fill="none" stroke="black" points="0,-112 0,-234.5 180.25,-234.5 180.25,-112 0,-112"/>
<text text-anchor="middle" x="90.12" y="-217.2" font-family="Arial" font-size="14.00">ComplexContiguousBlock</text>
<polyline fill="none" stroke="black" points="0,-210 180.25,-210"/>
<text text-anchor="middle" x="90.12" y="-192.7" font-family="Arial" font-size="14.00">+ block_category: str</text>
<polyline fill="none" stroke="black" points="0,-185.5 180.25,-185.5"/>
<text text-anchor="middle" x="90.12" y="-168.2" font-family="Arial" font-size="14.00">+ block_values: list</text>
<polyline fill="none" stroke="black" points="0,-161 180.25,-161"/>
<text text-anchor="middle" x="90.12" y="-143.7" font-family="Arial" font-size="14.00">&#45;&#45;&#45;</text>
<polyline fill="none" stroke="black" points="0,-136.5 180.25,-136.5"/>
<text text-anchor="middle" x="90.12" y="-119.2" font-family="Arial" font-size="14.00">+ visualize_block(): void</text>
</g>
<!-- CelestialAsteroid&#45;&gt;ComplexContiguousBlock -->
<g id="edge2" class="edge">
<title>CelestialAsteroid&#45;&gt;ComplexContiguousBlock</title>
<path fill="none" stroke="black" d="M115.42,-287.38C112.42,-273.95 109.09,-259.07 105.86,-244.63"/>
<polygon fill="black" stroke="black" points="109.13,-244.21 103.53,-235.22 102.3,-245.74 109.13,-244.21"/>
<text text-anchor="middle" x="134.38" y="-255.45" font-family="Times New Roman,serif" font-size="14.00">contains</text>
</g>
<!-- CelestialAsteroid&#45;&gt;execute_program -->
<g id="edge4" class="edge">
<title>CelestialAsteroid&#45;&gt;execute_program</title>
<path fill="none" stroke="black" d="M162.55,-287.34C172.85,-271.47 182.92,-253.19 189.12,-235 205.98,-185.57 209.51,-125.37 209.6,-84.68"/>
<polygon fill="black" stroke="black" points="213.1,-84.73 209.54,-74.75 206.1,-84.77 213.1,-84.73"/>
</g>
<!-- ComplexContiguousBlock&#45;&gt;execute_program -->
<g id="edge5" class="edge">
<title>ComplexContiguousBlock&#45;&gt;execute_program</title>
<path fill="none" stroke="black" d="M142.91,-112.3C151.84,-102.17 160.95,-91.82 169.43,-82.2"/>
<polygon fill="black" stroke="black" points="171.71,-84.76 175.69,-74.95 166.46,-80.14 171.71,-84.76"/>
</g>
</g>
</svg>
