<?xml version="1.0" encoding="UTF-8" standalone="no"?>
<!DOCTYPE svg PUBLIC "-//W3C//DTD SVG 1.1//EN"
 "http://www.w3.org/Graphics/SVG/1.1/DTD/svg11.dtd">
<!-- Generated by graphviz version 8.1.0 (20230707.0739)
 -->
<!-- Title: G Pages: 1 -->
<svg width="897pt" height="469pt"
 viewBox="0.00 0.00 896.83 469.00" xmlns="http://www.w3.org/2000/svg" xmlns:xlink="http://www.w3.org/1999/xlink">
<g id="graph0" class="graph" transform="scale(1 1) rotate(0) translate(4 465)">
<title>G</title>
<polygon fill="white" stroke="none" points="-4,4 -4,-465 892.83,-465 892.83,4 -4,4"/>
<g id="clust4" class="cluster">
<title>cluster_special_person</title>
<polygon fill="none" stroke="black" points="44.93,-260 44.93,-336 193.99,-336 193.99,-260 44.93,-260"/>
<text text-anchor="middle" x="119.46" y="-318.7" font-family="Times New Roman,serif" font-size="14.00">SpecialPerson</text>
</g>
<g id="clust1" class="cluster">
<title>cluster_person</title>
<polygon fill="none" stroke="black" points="37.44,-8 37.44,-84 880.83,-84 880.83,-8 37.44,-8"/>
<text text-anchor="middle" x="459.13" y="-66.7" font-family="Times New Roman,serif" font-size="14.00">Person</text>
</g>
<g id="clust2" class="cluster">
<title>cluster_event</title>
<polygon fill="none" stroke="black" points="8,-92 8,-168 470.84,-168 470.84,-92 8,-92"/>
<text text-anchor="middle" x="239.42" y="-150.7" font-family="Times New Roman,serif" font-size="14.00">Event</text>
</g>
<g id="clust3" class="cluster">
<title>cluster_company</title>
<polygon fill="none" stroke="black" points="48.42,-176 48.42,-252 190.5,-252 190.5,-176 48.42,-176"/>
<text text-anchor="middle" x="119.46" y="-234.7" font-family="Times New Roman,serif" font-size="14.00">Company</text>
</g>
<!-- hawthorne_hrishi -->
<g id="node1" class="node">
<title>hawthorne_hrishi</title>
<ellipse fill="none" stroke="black" cx="119.46" cy="-34" rx="74.02" ry="18"/>
<text text-anchor="middle" x="119.46" y="-28.57" font-family="Times New Roman,serif" font-size="14.00">hawthorne_hrishi</text>
</g>
<!-- adolf_hitler_son -->
<g id="node2" class="node">
<title>adolf_hitler_son</title>
<ellipse fill="none" stroke="black" cx="360.88" cy="-34" rx="71.02" ry="18"/>
<text text-anchor="middle" x="360.88" y="-28.57" font-family="Times New Roman,serif" font-size="14.00">adolf_hitler_son</text>
</g>
<!-- hawthorne_hrishi&#45;&gt;adolf_hitler_son -->
<g id="edge1" class="edge">
<title>hawthorne_hrishi&#45;&gt;adolf_hitler_son</title>
<path fill="none" stroke="black" d="M193.92,-34C220.74,-34 251.22,-34 278.67,-34"/>
<polygon fill="black" stroke="black" points="278.43,-37.5 288.43,-34 278.43,-30.5 278.43,-37.5"/>
</g>
<!-- new_canada_president -->
<g id="node3" class="node">
<title>new_canada_president</title>
<ellipse fill="none" stroke="black" cx="594.31" cy="-34" rx="95.47" ry="18"/>
<text text-anchor="middle" x="594.31" y="-28.57" font-family="Times New Roman,serif" font-size="14.00">new_canada_president</text>
</g>
<!-- adolf_hitler_son&#45;&gt;new_canada_president -->
<g id="edge2" class="edge">
<title>adolf_hitler_son&#45;&gt;new_canada_president</title>
<path fill="none" stroke="black" d="M432.26,-34C449.71,-34 468.8,-34 487.54,-34"/>
<polygon fill="black" stroke="black" points="487.52,-37.5 497.52,-34 487.52,-30.5 487.52,-37.5"/>
</g>
<!-- financial_advisor -->
<g id="node4" class="node">
<title>financial_advisor</title>
<ellipse fill="none" stroke="black" cx="799.31" cy="-34" rx="73.52" ry="18"/>
<text text-anchor="middle" x="799.31" y="-28.57" font-family="Times New Roman,serif" font-size="14.00">financial_advisor</text>
</g>
<!-- new_canada_president&#45;&gt;financial_advisor -->
<g id="edge3" class="edge">
<title>new_canada_president&#45;&gt;financial_advisor</title>
<path fill="none" stroke="black" d="M690.27,-34C698.43,-34 706.65,-34 714.71,-34"/>
<polygon fill="black" stroke="black" points="714.58,-37.5 724.58,-34 714.58,-30.5 714.58,-37.5"/>
</g>
<!-- lunar_labs_incorporation -->
<g id="node5" class="node">
<title>lunar_labs_incorporation</title>
<ellipse fill="none" stroke="black" cx="119.46" cy="-118" rx="103.46" ry="18"/>
<text text-anchor="middle" x="119.46" y="-112.58" font-family="Times New Roman,serif" font-size="14.00">lunar_labs_incorporation</text>
</g>
<!-- new_canada_declaration -->
<g id="node6" class="node">
<title>new_canada_declaration</title>
<ellipse fill="none" stroke="black" cx="360.88" cy="-118" rx="101.96" ry="18"/>
<text text-anchor="middle" x="360.88" y="-112.58" font-family="Times New Roman,serif" font-size="14.00">new_canada_declaration</text>
</g>
<!-- lunar_labs_incorporation&#45;&gt;new_canada_declaration -->
<g id="edge4" class="edge">
<title>lunar_labs_incorporation&#45;&gt;new_canada_declaration</title>
<path fill="none" stroke="black" d="M223.38,-118C231.4,-118 239.52,-118 247.59,-118"/>
<polygon fill="black" stroke="black" points="247.56,-121.5 257.56,-118 247.56,-114.5 247.56,-121.5"/>
</g>
<!-- lunar_labs_bv -->
<g id="node7" class="node">
<title>lunar_labs_bv</title>
<ellipse fill="none" stroke="black" cx="119.46" cy="-202" rx="63.04" ry="18"/>
<text text-anchor="middle" x="119.46" y="-196.57" font-family="Times New Roman,serif" font-size="14.00">lunar_labs_bv</text>
</g>
<!-- special_person -->
<g id="node8" class="node">
<title>special_person</title>
<ellipse fill="none" stroke="black" cx="119.46" cy="-286" rx="66.53" ry="18"/>
<text text-anchor="middle" x="119.46" y="-280.57" font-family="Times New Roman,serif" font-size="14.00">special_person</text>
</g>
<!-- main -->
<g id="node9" class="node">
<title>main</title>
<ellipse fill="none" stroke="black" cx="119.46" cy="-362" rx="28.11" ry="18"/>
<text text-anchor="middle" x="119.46" y="-356.57" font-family="Times New Roman,serif" font-size="14.00">main</text>
</g>
<!-- cluster_person -->
<g id="node10" class="node">
<title>cluster_person</title>
<ellipse fill="none" stroke="black" cx="360.88" cy="-443" rx="65.53" ry="18"/>
<text text-anchor="middle" x="360.88" y="-437.57" font-family="Times New Roman,serif" font-size="14.00">cluster_person</text>
</g>
<!-- main&#45;&gt;cluster_person -->
<g id="edge5" class="edge">
<title>main&#45;&gt;cluster_person</title>
<path fill="none" stroke="black" d="M143.21,-371.77C170.41,-383.24 217.48,-402.42 258.92,-416 272.24,-420.37 286.73,-424.56 300.46,-428.28"/>
<polygon fill="black" stroke="black" points="299.21,-431.84 309.77,-431.03 301.01,-425.07 299.21,-431.84"/>
</g>
<!-- cluster_event -->
<g id="node11" class="node">
<title>cluster_event</title>
<ellipse fill="none" stroke="black" cx="360.88" cy="-389" rx="59.55" ry="18"/>
<text text-anchor="middle" x="360.88" y="-383.57" font-family="Times New Roman,serif" font-size="14.00">cluster_event</text>
</g>
<!-- main&#45;&gt;cluster_event -->
<g id="edge6" class="edge">
<title>main&#45;&gt;cluster_event</title>
<path fill="none" stroke="black" d="M147.46,-365.04C182.7,-369.02 245.58,-376.11 293.8,-381.55"/>
<polygon fill="black" stroke="black" points="293.15,-385.11 303.48,-382.75 293.93,-378.15 293.15,-385.11"/>
</g>
<!-- cluster_company -->
<g id="node12" class="node">
<title>cluster_company</title>
<ellipse fill="none" stroke="black" cx="360.88" cy="-335" rx="74.52" ry="18"/>
<text text-anchor="middle" x="360.88" y="-329.57" font-family="Times New Roman,serif" font-size="14.00">cluster_company</text>
</g>
<!-- main&#45;&gt;cluster_company -->
<g id="edge7" class="edge">
<title>main&#45;&gt;cluster_company</title>
<path fill="none" stroke="black" d="M147.46,-358.96C179.84,-355.3 235.54,-349.02 281.77,-343.81"/>
<polygon fill="black" stroke="black" points="282.15,-347.17 291.7,-342.58 281.37,-340.22 282.15,-347.17"/>
</g>
<!-- cluster_special_person -->
<g id="node13" class="node">
<title>cluster_special_person</title>
<ellipse fill="none" stroke="black" cx="360.88" cy="-281" rx="95.97" ry="18"/>
<text text-anchor="middle" x="360.88" y="-275.57" font-family="Times New Roman,serif" font-size="14.00">cluster_special_person</text>
</g>
<!-- main&#45;&gt;cluster_special_person -->
<g id="edge8" class="edge">
<title>main&#45;&gt;cluster_special_person</title>
<path fill="none" stroke="black" d="M147.83,-359.96C169.23,-357.47 199.22,-352.01 222.92,-340 242.01,-330.32 240.07,-318.15 258.92,-308 266.47,-303.93 274.68,-300.45 283.04,-297.47"/>
<polygon fill="black" stroke="black" points="283.88,-300.54 292.28,-294.08 281.69,-293.9 283.88,-300.54"/>
</g>
</g>
</svg>
