<?xml version="1.0" encoding="UTF-8" standalone="no"?>
<!DOCTYPE svg PUBLIC "-//W3C//DTD SVG 1.1//EN"
 "http://www.w3.org/Graphics/SVG/1.1/DTD/svg11.dtd">
<!-- Generated by graphviz version 8.1.0 (20230707.0739)
 -->
<!-- Title: G Pages: 1 -->
<svg width="1258pt" height="161pt"
 viewBox="0.00 0.00 1258.25 160.75" xmlns="http://www.w3.org/2000/svg" xmlns:xlink="http://www.w3.org/1999/xlink">
<g id="graph0" class="graph" transform="scale(1 1) rotate(0) translate(4 156.75)">
<title>G</title>
<polygon fill="white" stroke="none" points="-4,4 -4,-156.75 1254.25,-156.75 1254.25,4 -4,4"/>
<!-- Person -->
<g id="node1" class="node">
<title>Person</title>
<polygon fill="none" stroke="black" points="450.5,-31.5 450.5,-67.5 669,-67.5 669,-31.5 450.5,-31.5"/>
<text text-anchor="middle" x="478" y="-44.2" font-family="Times New Roman,serif" font-size="14.00">Person</text>
<polyline fill="none" stroke="black" points="505.5,-31.75 505.5,-67.5"/>
<text text-anchor="middle" x="531.88" y="-44.2" font-family="Times New Roman,serif" font-size="14.00">_name</text>
<polyline fill="none" stroke="black" points="558.25,-31.75 558.25,-67.5"/>
<text text-anchor="middle" x="579.75" y="-44.2" font-family="Times New Roman,serif" font-size="14.00">_title</text>
<polyline fill="none" stroke="black" points="601.25,-31.75 601.25,-67.5"/>
<text text-anchor="middle" x="635.12" y="-44.2" font-family="Times New Roman,serif" font-size="14.00">_location</text>
</g>
<!-- Person&#45;&gt;Person -->
<g id="edge3" class="edge">
<title>Person&#45;&gt;Person</title>
<path fill="none" stroke="black" d="M533.35,-67.15C528.42,-76.96 537.22,-86 559.75,-86 573.48,-86 582.11,-82.64 585.64,-77.8"/>
<polygon fill="black" stroke="black" points="589.17,-78.31 586.15,-68.15 582.18,-77.97 589.17,-78.31"/>
<text text-anchor="middle" x="559.75" y="-88.45" font-family="Times New Roman,serif" font-size="14.00">Association</text>
</g>
<!-- Event -->
<g id="node2" class="node">
<title>Event</title>
<polygon fill="none" stroke="black" points="771,-82.5 771,-118.5 951,-118.5 951,-82.5 771,-82.5"/>
<text text-anchor="middle" x="794.75" y="-95.2" font-family="Times New Roman,serif" font-size="14.00">Event</text>
<polyline fill="none" stroke="black" points="818.5,-82.75 818.5,-118.5"/>
<text text-anchor="middle" x="841.88" y="-95.2" font-family="Times New Roman,serif" font-size="14.00">_date</text>
<polyline fill="none" stroke="black" points="865.25,-82.75 865.25,-118.5"/>
<text text-anchor="middle" x="908.12" y="-95.2" font-family="Times New Roman,serif" font-size="14.00">_description</text>
</g>
<!-- Person&#45;&gt;Event -->
<g id="edge1" class="edge">
<title>Person&#45;&gt;Event</title>
<path fill="none" stroke="black" d="M666.25,-67.48C696.96,-72.71 730.39,-78.41 760.7,-83.58"/>
<polygon fill="black" stroke="black" points="759.84,-87.15 770.28,-85.38 761.01,-80.25 759.84,-87.15"/>
<text text-anchor="middle" x="720" y="-82.95" font-family="Times New Roman,serif" font-size="14.00">Inherits</text>
</g>
<!-- Company -->
<g id="node3" class="node">
<title>Company</title>
<polygon fill="none" stroke="black" points="1053,-30.5 1053,-66.5 1250.25,-66.5 1250.25,-30.5 1053,-30.5"/>
<text text-anchor="middle" x="1088.38" y="-43.2" font-family="Times New Roman,serif" font-size="14.00">Company</text>
<polyline fill="none" stroke="black" points="1123.75,-30.75 1123.75,-66.5"/>
<text text-anchor="middle" x="1150.12" y="-43.2" font-family="Times New Roman,serif" font-size="14.00">_name</text>
<polyline fill="none" stroke="black" points="1176.5,-30.75 1176.5,-66.5"/>
<text text-anchor="middle" x="1213.38" y="-43.2" font-family="Times New Roman,serif" font-size="14.00">_objective</text>
</g>
<!-- Person&#45;&gt;Company -->
<g id="edge6" class="edge">
<title>Person&#45;&gt;Company</title>
<path fill="none" stroke="black" d="M668.94,-49.32C775.22,-49.14 936.45,-48.86 1042.65,-48.68"/>
<polygon fill="black" stroke="black" points="1042.4,-52.18 1052.39,-48.66 1042.38,-45.18 1042.4,-52.18"/>
<text text-anchor="middle" x="861" y="-50.95" font-family="Times New Roman,serif" font-size="14.00">Association</text>
</g>
<!-- Event&#45;&gt;Event -->
<g id="edge4" class="edge">
<title>Event&#45;&gt;Event</title>
<path fill="none" stroke="black" d="M835.83,-118.15C831.13,-127.96 839.52,-137 861,-137 874.09,-137 882.32,-133.64 885.69,-128.8"/>
<polygon fill="black" stroke="black" points="889.21,-129.3 886.17,-119.15 882.22,-128.98 889.21,-129.3"/>
<text text-anchor="middle" x="861" y="-139.45" font-family="Times New Roman,serif" font-size="14.00">Association</text>
</g>
<!-- Event&#45;&gt;Company -->
<g id="edge7" class="edge">
<title>Event&#45;&gt;Company</title>
<path fill="none" stroke="black" d="M950.95,-84.47C979.92,-79.26 1012.39,-73.4 1042.6,-67.96"/>
<polygon fill="black" stroke="black" points="1042.96,-71.27 1052.18,-66.06 1041.72,-64.39 1042.96,-71.27"/>
<text text-anchor="middle" x="1002" y="-82.95" font-family="Times New Roman,serif" font-size="14.00">Association</text>
</g>
<!-- Company&#45;&gt;Company -->
<g id="edge5" class="edge">
<title>Company&#45;&gt;Company</title>
<path fill="none" stroke="black" d="M1124.91,-66.15C1119.93,-75.96 1128.83,-85 1151.62,-85 1165.52,-85 1174.25,-81.64 1177.82,-76.8"/>
<polygon fill="black" stroke="black" points="1181.35,-77.31 1178.34,-67.15 1174.36,-76.97 1181.35,-77.31"/>
<text text-anchor="middle" x="1151.62" y="-87.45" font-family="Times New Roman,serif" font-size="14.00">Association</text>
</g>
<!-- SpecialPerson -->
<g id="node4" class="node">
<title>SpecialPerson</title>
<polygon fill="none" stroke="black" points="0,-0.5 0,-36.5 373.25,-36.5 373.25,-0.5 0,-0.5"/>
<text text-anchor="middle" x="47.75" y="-13.2" font-family="Times New Roman,serif" font-size="14.00">SpecialPerson</text>
<polyline fill="none" stroke="black" points="95.5,-0.75 95.5,-36.5"/>
<text text-anchor="middle" x="121.88" y="-13.2" font-family="Times New Roman,serif" font-size="14.00">_name</text>
<polyline fill="none" stroke="black" points="148.25,-0.75 148.25,-36.5"/>
<text text-anchor="middle" x="169.75" y="-13.2" font-family="Times New Roman,serif" font-size="14.00">_title</text>
<polyline fill="none" stroke="black" points="191.25,-0.75 191.25,-36.5"/>
<text text-anchor="middle" x="225.12" y="-13.2" font-family="Times New Roman,serif" font-size="14.00">_location</text>
<polyline fill="none" stroke="black" points="259,-0.75 259,-36.5"/>
<text text-anchor="middle" x="316.12" y="-13.2" font-family="Times New Roman,serif" font-size="14.00">_special_attribute</text>
</g>
<!-- SpecialPerson&#45;&gt;Person -->
<g id="edge2" class="edge">
<title>SpecialPerson&#45;&gt;Person</title>
<path fill="none" stroke="black" d="M373.19,-34C395.98,-35.9 418.76,-37.81 440.18,-39.6"/>
<polygon fill="black" stroke="black" points="439.65,-43.15 449.91,-40.49 440.23,-36.17 439.65,-43.15"/>
<text text-anchor="middle" x="411.88" y="-40.95" font-family="Times New Roman,serif" font-size="14.00">Inherits</text>
</g>
<!-- SpecialPerson&#45;&gt;Company -->
<g id="edge8" class="edge">
<title>SpecialPerson&#45;&gt;Company</title>
<path fill="none" stroke="black" d="M373.11,-18.07C462.55,-18.36 571.37,-19.46 669,-22.5 797.47,-26.5 945.03,-35.05 1042.6,-41.26"/>
<polygon fill="black" stroke="black" points="1042.16,-44.8 1052.36,-41.94 1042.6,-37.81 1042.16,-44.8"/>
<text text-anchor="middle" x="720" y="-26.95" font-family="Times New Roman,serif" font-size="14.00">Association</text>
</g>
</g>
</svg>
