<?xml version="1.0" encoding="UTF-8" standalone="no"?>
<!DOCTYPE svg PUBLIC "-//W3C//DTD SVG 1.1//EN"
 "http://www.w3.org/Graphics/SVG/1.1/DTD/svg11.dtd">
<!-- Generated by graphviz version 8.1.0 (20230707.0739)
 -->
<!-- Title: G Pages: 1 -->
<svg width="1084pt" height="433pt"
 viewBox="0.00 0.00 1084.20 433.00" xmlns="http://www.w3.org/2000/svg" xmlns:xlink="http://www.w3.org/1999/xlink">
<g id="graph0" class="graph" transform="scale(1 1) rotate(0) translate(4 429)">
<title>G</title>
<polygon fill="white" stroke="none" points="-4,4 -4,-429 1080.2,-429 1080.2,4 -4,4"/>
<!-- classPermutationGenerator -->
<g id="node1" class="node">
<title>classPermutationGenerator</title>
<polygon fill="none" stroke="black" points="56.57,-139 56.57,-237 479.07,-237 479.07,-139 56.57,-139"/>
<text text-anchor="middle" x="267.82" y="-219.7" font-family="Arial" font-size="14.00">PermutationGenerator</text>
<polyline fill="none" stroke="black" points="56.57,-212.5 479.07,-212.5"/>
<text text-anchor="middle" x="267.82" y="-195.2" font-family="Arial" font-size="14.00">+__init__(directions, choices)</text>
<polyline fill="none" stroke="black" points="56.57,-188 479.07,-188"/>
<text text-anchor="middle" x="267.82" y="-170.7" font-family="Arial" font-size="14.00">+generate_permutations(item_type, item_count)</text>
<polyline fill="none" stroke="black" points="56.57,-163.5 479.07,-163.5"/>
<text text-anchor="middle" x="267.82" y="-146.2" font-family="Arial" font-size="14.00">+generate_permutation(item_type, item_count, direction, choice)</text>
</g>
<!-- sentencePermutations -->
<g id="node5" class="node">
<title>sentencePermutations</title>
<polygon fill="none" stroke="black" points="71.57,-0.5 71.57,-74 242.07,-74 242.07,-0.5 71.57,-0.5"/>
<text text-anchor="middle" x="156.82" y="-56.7" font-family="Arial" font-size="14.00">Sentence Permutations</text>
<polyline fill="none" stroke="black" points="71.57,-49.5 242.07,-49.5"/>
<text text-anchor="middle" x="156.82" y="-32.2" font-family="Arial" font-size="14.00">+generate_permutations</text>
<polyline fill="none" stroke="black" points="71.57,-25 242.07,-25"/>
<text text-anchor="middle" x="156.82" y="-7.7" font-family="Arial" font-size="14.00">+generate_permutation</text>
</g>
<!-- classPermutationGenerator&#45;&gt;sentencePermutations -->
<g id="edge4" class="edge">
<title>classPermutationGenerator&#45;&gt;sentencePermutations</title>
<path fill="none" stroke="black" d="M232.09,-139.12C218.47,-120.87 203.03,-100.18 189.69,-82.3"/>
<polygon fill="none" stroke="black" points="192.12,-80.7 183.33,-74.78 186.51,-84.88 192.12,-80.7"/>
<text text-anchor="middle" x="222.2" y="-94.95" font-family="Times New Roman,serif" font-size="14.00">uses</text>
</g>
<!-- wordPermutations -->
<g id="node7" class="node">
<title>wordPermutations</title>
<polygon fill="none" stroke="black" points="292.57,-0.5 292.57,-74 463.07,-74 463.07,-0.5 292.57,-0.5"/>
<text text-anchor="middle" x="377.82" y="-56.7" font-family="Arial" font-size="14.00">Word Permutations</text>
<polyline fill="none" stroke="black" points="292.57,-49.5 463.07,-49.5"/>
<text text-anchor="middle" x="377.82" y="-32.2" font-family="Arial" font-size="14.00">+generate_permutations</text>
<polyline fill="none" stroke="black" points="292.57,-25 463.07,-25"/>
<text text-anchor="middle" x="377.82" y="-7.7" font-family="Arial" font-size="14.00">+generate_permutation</text>
</g>
<!-- classPermutationGenerator&#45;&gt;wordPermutations -->
<g id="edge7" class="edge">
<title>classPermutationGenerator&#45;&gt;wordPermutations</title>
<path fill="none" stroke="black" d="M303.23,-139.12C316.72,-120.87 332.03,-100.18 345.24,-82.3"/>
<polygon fill="none" stroke="black" points="348.42,-84.9 351.55,-74.78 342.79,-80.74 348.42,-84.9"/>
<text text-anchor="middle" x="349.2" y="-94.95" font-family="Times New Roman,serif" font-size="14.00">uses</text>
</g>
<!-- classEnhancedPermutationGenerator -->
<g id="node2" class="node">
<title>classEnhancedPermutationGenerator</title>
<polygon fill="none" stroke="black" points="367.57,-302 367.57,-424.5 790.07,-424.5 790.07,-302 367.57,-302"/>
<text text-anchor="middle" x="578.82" y="-407.2" font-family="Arial" font-size="14.00">EnhancedPermutationGenerator</text>
<polyline fill="none" stroke="black" points="367.57,-400 790.07,-400"/>
<text text-anchor="middle" x="578.82" y="-382.7" font-family="Arial" font-size="14.00">+__init__(directions, choices)</text>
<polyline fill="none" stroke="black" points="367.57,-375.5 790.07,-375.5"/>
<text text-anchor="middle" x="578.82" y="-358.2" font-family="Arial" font-size="14.00">+generate_permutations(item_type, item_count)</text>
<polyline fill="none" stroke="black" points="367.57,-351 790.07,-351"/>
<text text-anchor="middle" x="578.82" y="-333.7" font-family="Arial" font-size="14.00">+generate_permutation(item_type, item_count, direction, choice)</text>
<polyline fill="none" stroke="black" points="367.57,-326.5 790.07,-326.5"/>
<text text-anchor="middle" x="578.82" y="-309.2" font-family="Arial" font-size="14.00">+generate_combinations(items)</text>
</g>
<!-- classEnhancedPermutationGenerator&#45;&gt;classPermutationGenerator -->
<g id="edge1" class="edge">
<title>classEnhancedPermutationGenerator&#45;&gt;classPermutationGenerator</title>
<path fill="none" stroke="black" d="M470.92,-302.14C435.96,-282.67 397.45,-261.21 363.45,-242.27"/>
<polygon fill="none" stroke="black" points="365.42,-238.81 354.98,-237 362.02,-244.92 365.42,-238.81"/>
<text text-anchor="middle" x="452.7" y="-270.2" font-family="Times New Roman,serif" font-size="14.00">inherits</text>
</g>
<!-- mainFunction -->
<g id="node3" class="node">
<title>mainFunction</title>
<polygon fill="none" stroke="black" points="748.45,-126.75 748.45,-249.25 885.2,-249.25 885.2,-126.75 748.45,-126.75"/>
<text text-anchor="middle" x="816.82" y="-231.95" font-family="Arial" font-size="14.00">main()</text>
<polyline fill="none" stroke="black" points="748.45,-224.75 885.2,-224.75"/>
<text text-anchor="middle" x="816.82" y="-207.45" font-family="Arial" font-size="14.00">+text</text>
<polyline fill="none" stroke="black" points="748.45,-200.25 885.2,-200.25"/>
<text text-anchor="middle" x="816.82" y="-182.95" font-family="Arial" font-size="14.00">+aryas_text</text>
<polyline fill="none" stroke="black" points="748.45,-175.75 885.2,-175.75"/>
<text text-anchor="middle" x="816.82" y="-158.45" font-family="Arial" font-size="14.00">+formula_text</text>
<polyline fill="none" stroke="black" points="748.45,-151.25 885.2,-151.25"/>
<text text-anchor="middle" x="816.82" y="-133.95" font-family="Arial" font-size="14.00">+permutations_text</text>
</g>
<!-- classEnhancedPermutationGenerator&#45;&gt;mainFunction -->
<g id="edge2" class="edge">
<title>classEnhancedPermutationGenerator&#45;&gt;mainFunction</title>
<path fill="none" stroke="black" d="M666.15,-302C689.89,-285.31 715.49,-267.02 738.82,-249.75 739.12,-249.53 739.42,-249.31 739.71,-249.09"/>
<polygon fill="none" stroke="black" points="741.57,-251.32 747.48,-242.53 737.38,-245.72 741.57,-251.32"/>
<text text-anchor="middle" x="726.2" y="-270.2" font-family="Times New Roman,serif" font-size="14.00">uses</text>
</g>
<!-- classEnhancedPermutationGenerator&#45;&gt;sentencePermutations -->
<g id="edge5" class="edge">
<title>classEnhancedPermutationGenerator&#45;&gt;sentencePermutations</title>
<path fill="none" stroke="black" d="M367.89,-346.86C229.68,-331.89 66.81,-303.23 23.07,-249.75 -11.68,-207.26 -2.98,-174.57 23.07,-126.25 33.16,-107.54 49.16,-92.15 66.63,-79.77"/>
<polygon fill="none" stroke="black" points="67.97,-82.42 74.31,-73.94 64.06,-76.61 67.97,-82.42"/>
<text text-anchor="middle" x="36.2" y="-182.57" font-family="Times New Roman,serif" font-size="14.00">uses</text>
</g>
<!-- sentenceCombinations -->
<g id="node6" class="node">
<title>sentenceCombinations</title>
<polygon fill="none" stroke="black" points="557.45,-163.5 557.45,-212.5 730.2,-212.5 730.2,-163.5 557.45,-163.5"/>
<text text-anchor="middle" x="643.82" y="-195.2" font-family="Arial" font-size="14.00">Sentence Combinations</text>
<polyline fill="none" stroke="black" points="557.45,-188 730.2,-188"/>
<text text-anchor="middle" x="643.82" y="-170.7" font-family="Arial" font-size="14.00">+generate_combinations</text>
</g>
<!-- classEnhancedPermutationGenerator&#45;&gt;sentenceCombinations -->
<g id="edge6" class="edge">
<title>classEnhancedPermutationGenerator&#45;&gt;sentenceCombinations</title>
<path fill="none" stroke="black" d="M601.37,-302.14C611.37,-275.48 622.77,-245.11 631.23,-222.55"/>
<polygon fill="none" stroke="black" points="634.78,-224.06 635.02,-213.47 628.23,-221.6 634.78,-224.06"/>
<text text-anchor="middle" x="626.2" y="-270.2" font-family="Times New Roman,serif" font-size="14.00">uses</text>
</g>
<!-- classEnhancedPermutationGenerator&#45;&gt;wordPermutations -->
<g id="edge8" class="edge">
<title>classEnhancedPermutationGenerator&#45;&gt;wordPermutations</title>
<path fill="none" stroke="black" d="M547.23,-302.06C539.11,-285.37 530.77,-267.07 524.07,-249.75 503.43,-196.4 519.68,-173.76 487.82,-126.25 476.22,-108.95 460.17,-93.43 443.9,-80.41"/>
<polygon fill="none" stroke="black" points="446.45,-77.18 436.4,-73.83 442.17,-82.72 446.45,-77.18"/>
<text text-anchor="middle" x="537.2" y="-182.57" font-family="Times New Roman,serif" font-size="14.00">uses</text>
</g>
<!-- wordCombinations -->
<g id="node8" class="node">
<title>wordCombinations</title>
<polygon fill="none" stroke="black" points="903.45,-163.5 903.45,-212.5 1076.2,-212.5 1076.2,-163.5 903.45,-163.5"/>
<text text-anchor="middle" x="989.82" y="-195.2" font-family="Arial" font-size="14.00">Word Combinations</text>
<polyline fill="none" stroke="black" points="903.45,-188 1076.2,-188"/>
<text text-anchor="middle" x="989.82" y="-170.7" font-family="Arial" font-size="14.00">+generate_combinations</text>
</g>
<!-- classEnhancedPermutationGenerator&#45;&gt;wordCombinations -->
<g id="edge9" class="edge">
<title>classEnhancedPermutationGenerator&#45;&gt;wordCombinations</title>
<path fill="none" stroke="black" d="M768.6,-302.14C810.56,-286.75 854.28,-269.03 893.82,-249.75 912.37,-240.71 931.79,-228.91 948.27,-218.12"/>
<polygon fill="none" stroke="black" points="949.71,-220.7 956.11,-212.25 945.84,-214.87 949.71,-220.7"/>
<text text-anchor="middle" x="865.2" y="-270.2" font-family="Times New Roman,serif" font-size="14.00">uses</text>
</g>
<!-- directionsAndChoices -->
<g id="node4" class="node">
<title>directionsAndChoices</title>
<polygon fill="none" stroke="black" points="735.32,-0.5 735.32,-74 898.32,-74 898.32,-0.5 735.32,-0.5"/>
<text text-anchor="middle" x="816.82" y="-56.7" font-family="Arial" font-size="14.00">Directions and Choices</text>
<polyline fill="none" stroke="black" points="735.32,-49.5 898.32,-49.5"/>
<text text-anchor="middle" x="816.82" y="-32.2" font-family="Arial" font-size="14.00">+directions</text>
<polyline fill="none" stroke="black" points="735.32,-25 898.32,-25"/>
<text text-anchor="middle" x="816.82" y="-7.7" font-family="Arial" font-size="14.00">+choices</text>
</g>
<!-- mainFunction&#45;&gt;directionsAndChoices -->
<g id="edge3" class="edge">
<title>mainFunction&#45;&gt;directionsAndChoices</title>
<path fill="none" stroke="black" d="M816.82,-126.93C816.82,-112.82 816.82,-97.99 816.82,-84.59"/>
<polygon fill="none" stroke="black" points="820.32,-84.71 816.82,-74.71 813.32,-84.71 820.32,-84.71"/>
<text text-anchor="middle" x="829.2" y="-94.95" font-family="Times New Roman,serif" font-size="14.00">uses</text>
</g>
</g>
</svg>
