<?xml version="1.0" encoding="UTF-8" standalone="no"?>
<!DOCTYPE svg PUBLIC "-//W3C//DTD SVG 1.1//EN"
 "http://www.w3.org/Graphics/SVG/1.1/DTD/svg11.dtd">
<!-- Generated by graphviz version 8.1.0 (20230707.0739)
 -->
<!-- Title: G Pages: 1 -->
<svg width="639pt" height="746pt"
 viewBox="0.00 0.00 638.95 746.00" xmlns="http://www.w3.org/2000/svg" xmlns:xlink="http://www.w3.org/1999/xlink">
<g id="graph0" class="graph" transform="scale(1 1) rotate(0) translate(4 742)">
<title>G</title>
<polygon fill="white" stroke="none" points="-4,4 -4,-742 634.95,-742 634.95,4 -4,4"/>
<!-- class -->
<g id="node1" class="node">
<title>class</title>
<ellipse fill="none" stroke="black" cx="63.04" cy="-126" rx="29.11" ry="18"/>
<text text-anchor="middle" x="63.04" y="-120.58" font-family="Times New Roman,serif" font-size="14.00">class</text>
</g>
<!-- BuilderRoyalty -->
<g id="node2" class="node">
<title>BuilderRoyalty</title>
<ellipse fill="none" stroke="black" cx="427.29" cy="-342" rx="66.03" ry="18"/>
<text text-anchor="middle" x="427.29" y="-336.57" font-family="Times New Roman,serif" font-size="14.00">BuilderRoyalty</text>
</g>
<!-- Entity -->
<g id="node5" class="node">
<title>Entity</title>
<ellipse fill="none" stroke="black" cx="598.85" cy="-180" rx="32.1" ry="18"/>
<text text-anchor="middle" x="598.85" y="-174.57" font-family="Times New Roman,serif" font-size="14.00">Entity</text>
</g>
<!-- BuilderRoyalty&#45;&gt;Entity -->
<g id="edge8" class="edge">
<title>BuilderRoyalty&#45;&gt;Entity</title>
<path fill="none" stroke="black" d="M488.31,-334.81C503.03,-330.8 517.93,-324.59 529.75,-315 563.51,-287.59 582.1,-239.13 591.01,-208.33"/>
<polygon fill="black" stroke="black" points="594.61,-209.43 593.86,-198.86 587.86,-207.59 594.61,-209.43"/>
</g>
<!-- _builder_state -->
<g id="node3" class="node">
<title>_builder_state</title>
<ellipse fill="none" stroke="black" cx="63.04" cy="-234" rx="63.04" ry="18"/>
<text text-anchor="middle" x="63.04" y="-228.57" font-family="Times New Roman,serif" font-size="14.00">_builder_state</text>
</g>
<!-- _royalty_state -->
<g id="node4" class="node">
<title>_royalty_state</title>
<ellipse fill="none" stroke="black" cx="63.04" cy="-288" rx="63.04" ry="18"/>
<text text-anchor="middle" x="63.04" y="-282.57" font-family="Times New Roman,serif" font-size="14.00">_royalty_state</text>
</g>
<!-- Legend -->
<g id="node6" class="node">
<title>Legend</title>
<ellipse fill="none" stroke="black" cx="427.29" cy="-288" rx="38.09" ry="18"/>
<text text-anchor="middle" x="427.29" y="-282.57" font-family="Times New Roman,serif" font-size="14.00">Legend</text>
</g>
<!-- Legend&#45;&gt;Entity -->
<g id="edge9" class="edge">
<title>Legend&#45;&gt;Entity</title>
<path fill="none" stroke="black" d="M464.73,-283.8C485.09,-280.15 510.21,-273.41 529.75,-261 551.54,-247.16 569.93,-224.11 582.08,-206.13"/>
<polygon fill="black" stroke="black" points="585.33,-208.56 587.85,-198.27 579.46,-204.74 585.33,-208.56"/>
</g>
<!-- _symbols -->
<g id="node7" class="node">
<title>_symbols</title>
<ellipse fill="none" stroke="black" cx="63.04" cy="-342" rx="47.07" ry="18"/>
<text text-anchor="middle" x="63.04" y="-336.57" font-family="Times New Roman,serif" font-size="14.00">_symbols</text>
</g>
<!-- ImplicativeArray -->
<g id="node8" class="node">
<title>ImplicativeArray</title>
<ellipse fill="none" stroke="black" cx="427.29" cy="-234" rx="72.02" ry="18"/>
<text text-anchor="middle" x="427.29" y="-228.57" font-family="Times New Roman,serif" font-size="14.00">ImplicativeArray</text>
</g>
<!-- ImplicativeArray&#45;&gt;Entity -->
<g id="edge10" class="edge">
<title>ImplicativeArray&#45;&gt;Entity</title>
<path fill="none" stroke="black" d="M480.25,-221.43C496.24,-217.22 513.83,-212.26 529.75,-207 540.53,-203.44 552.07,-199.08 562.53,-194.91"/>
<polygon fill="black" stroke="black" points="563.61,-197.85 571.56,-190.85 560.98,-191.36 563.61,-197.85"/>
</g>
<!-- _array_name -->
<g id="node9" class="node">
<title>_array_name</title>
<ellipse fill="none" stroke="black" cx="63.04" cy="-396" rx="58.55" ry="18"/>
<text text-anchor="middle" x="63.04" y="-390.57" font-family="Times New Roman,serif" font-size="14.00">_array_name</text>
</g>
<!-- _elements -->
<g id="node10" class="node">
<title>_elements</title>
<ellipse fill="none" stroke="black" cx="63.04" cy="-450" rx="47.57" ry="18"/>
<text text-anchor="middle" x="63.04" y="-444.57" font-family="Times New Roman,serif" font-size="14.00">_elements</text>
</g>
<!-- City -->
<g id="node11" class="node">
<title>City</title>
<ellipse fill="none" stroke="black" cx="427.29" cy="-180" rx="27" ry="18"/>
<text text-anchor="middle" x="427.29" y="-174.57" font-family="Times New Roman,serif" font-size="14.00">City</text>
</g>
<!-- City&#45;&gt;Entity -->
<g id="edge11" class="edge">
<title>City&#45;&gt;Entity</title>
<path fill="none" stroke="black" d="M454.78,-180C481.78,-180 524.06,-180 555.66,-180"/>
<polygon fill="black" stroke="black" points="555.36,-183.5 565.36,-180 555.36,-176.5 555.36,-183.5"/>
</g>
<!-- _name -->
<g id="node12" class="node">
<title>_name</title>
<ellipse fill="none" stroke="black" cx="63.04" cy="-504" rx="35.1" ry="18"/>
<text text-anchor="middle" x="63.04" y="-498.57" font-family="Times New Roman,serif" font-size="14.00">_name</text>
</g>
<!-- _cleanliness -->
<g id="node13" class="node">
<title>_cleanliness</title>
<ellipse fill="none" stroke="black" cx="63.04" cy="-558" rx="55.06" ry="18"/>
<text text-anchor="middle" x="63.04" y="-552.58" font-family="Times New Roman,serif" font-size="14.00">_cleanliness</text>
</g>
<!-- LanguageKnowledge -->
<g id="node14" class="node">
<title>LanguageKnowledge</title>
<ellipse fill="none" stroke="black" cx="427.29" cy="-126" rx="87.99" ry="18"/>
<text text-anchor="middle" x="427.29" y="-120.58" font-family="Times New Roman,serif" font-size="14.00">LanguageKnowledge</text>
</g>
<!-- LanguageKnowledge&#45;&gt;Entity -->
<g id="edge12" class="edge">
<title>LanguageKnowledge&#45;&gt;Entity</title>
<path fill="none" stroke="black" d="M485.25,-139.9C499.86,-143.81 515.47,-148.29 529.75,-153 540.53,-156.56 552.07,-160.92 562.53,-165.09"/>
<polygon fill="black" stroke="black" points="560.98,-168.64 571.56,-169.15 563.61,-162.15 560.98,-168.64"/>
</g>
<!-- _language -->
<g id="node15" class="node">
<title>_language</title>
<ellipse fill="none" stroke="black" cx="63.04" cy="-612" rx="47.57" ry="18"/>
<text text-anchor="middle" x="63.04" y="-606.58" font-family="Times New Roman,serif" font-size="14.00">_language</text>
</g>
<!-- _knowledge -->
<g id="node16" class="node">
<title>_knowledge</title>
<ellipse fill="none" stroke="black" cx="63.04" cy="-666" rx="55.55" ry="18"/>
<text text-anchor="middle" x="63.04" y="-660.58" font-family="Times New Roman,serif" font-size="14.00">_knowledge</text>
</g>
<!-- Person -->
<g id="node17" class="node">
<title>Person</title>
<ellipse fill="none" stroke="black" cx="427.29" cy="-72" rx="36.59" ry="18"/>
<text text-anchor="middle" x="427.29" y="-66.58" font-family="Times New Roman,serif" font-size="14.00">Person</text>
</g>
<!-- Person&#45;&gt;Entity -->
<g id="edge13" class="edge">
<title>Person&#45;&gt;Entity</title>
<path fill="none" stroke="black" d="M463.29,-75.95C483.9,-79.53 509.75,-86.3 529.75,-99 551.54,-112.84 569.93,-135.89 582.08,-153.87"/>
<polygon fill="black" stroke="black" points="579.46,-155.26 587.85,-161.73 585.33,-151.44 579.46,-155.26"/>
</g>
<!-- EnhancedBuilderRoyalty -->
<g id="node18" class="node">
<title>EnhancedBuilderRoyalty</title>
<ellipse fill="none" stroke="black" cx="427.29" cy="-18" rx="102.46" ry="18"/>
<text text-anchor="middle" x="427.29" y="-12.57" font-family="Times New Roman,serif" font-size="14.00">EnhancedBuilderRoyalty</text>
</g>
<!-- EnhancedBuilderRoyalty&#45;&gt;Entity -->
<g id="edge14" class="edge">
<title>EnhancedBuilderRoyalty&#45;&gt;Entity</title>
<path fill="none" stroke="black" d="M503.84,-30.32C513.18,-34.01 522.11,-38.8 529.75,-45 563.51,-72.41 582.1,-120.87 591.01,-151.67"/>
<polygon fill="black" stroke="black" points="587.86,-152.41 593.86,-161.14 594.61,-150.57 587.86,-152.41"/>
</g>
<!-- _bonus_state -->
<g id="node19" class="node">
<title>_bonus_state</title>
<ellipse fill="none" stroke="black" cx="63.04" cy="-720" rx="60.54" ry="18"/>
<text text-anchor="middle" x="63.04" y="-714.58" font-family="Times New Roman,serif" font-size="14.00">_bonus_state</text>
</g>
<!-- main -->
<g id="node20" class="node">
<title>main</title>
<polygon fill="none" stroke="black" points="90.04,-198 36.04,-198 36.04,-162 90.04,-162 90.04,-198"/>
<text text-anchor="middle" x="63.04" y="-174.57" font-family="Times New Roman,serif" font-size="14.00">main()</text>
</g>
<!-- main&#45;&gt;BuilderRoyalty -->
<g id="edge1" class="edge">
<title>main&#45;&gt;BuilderRoyalty</title>
<path fill="none" stroke="black" d="M90.49,-185.46C103.07,-189.39 117.25,-196.01 126.08,-207 152.17,-239.48 114.01,-270.16 144.08,-299 200.47,-353.07 294.41,-356.86 358.28,-351.78"/>
<polygon fill="black" stroke="black" points="358.41,-355.2 368.05,-350.82 357.78,-348.22 358.41,-355.2"/>
<text text-anchor="middle" x="225.45" y="-355.45" font-family="Times New Roman,serif" font-size="14.00">builder_royalty.describe()</text>
</g>
<!-- main&#45;&gt;Legend -->
<g id="edge2" class="edge">
<title>main&#45;&gt;Legend</title>
<path fill="none" stroke="black" d="M90.49,-187.03C102.47,-191.26 116.14,-197.68 126.08,-207 138.84,-218.96 129.93,-231.71 144.08,-242 180.62,-268.57 307.86,-280.61 378.35,-285.35"/>
<polygon fill="black" stroke="black" points="377.95,-288.9 388.16,-286.05 378.41,-281.91 377.95,-288.9"/>
<text text-anchor="middle" x="225.45" y="-281.45" font-family="Times New Roman,serif" font-size="14.00">legend.describe()</text>
</g>
<!-- main&#45;&gt;ImplicativeArray -->
<g id="edge3" class="edge">
<title>main&#45;&gt;ImplicativeArray</title>
<path fill="none" stroke="black" d="M90.54,-187.51C106.04,-191.67 126.05,-196.67 144.08,-200 212.47,-212.61 291.08,-221.64 347.93,-227.21"/>
<polygon fill="black" stroke="black" points="347.36,-230.77 357.65,-228.25 348.03,-223.8 347.36,-230.77"/>
<text text-anchor="middle" x="225.45" y="-224.45" font-family="Times New Roman,serif" font-size="14.00">implicative_array.describe()</text>
</g>
<!-- main&#45;&gt;City -->
<g id="edge4" class="edge">
<title>main&#45;&gt;City</title>
<path fill="none" stroke="black" d="M90.38,-180C153.9,-180 315.65,-180 389.05,-180"/>
<polygon fill="black" stroke="black" points="389.04,-183.5 399.04,-180 389.04,-176.5 389.04,-183.5"/>
<text text-anchor="middle" x="225.45" y="-182.45" font-family="Times New Roman,serif" font-size="14.00">city.describe()</text>
</g>
<!-- main&#45;&gt;LanguageKnowledge -->
<g id="edge5" class="edge">
<title>main&#45;&gt;LanguageKnowledge</title>
<path fill="none" stroke="black" d="M90.18,-172.7C105.74,-168.57 125.92,-163.58 144.08,-160.25 207.45,-148.63 279.58,-139.95 335.05,-134.24"/>
<polygon fill="black" stroke="black" points="335.32,-137.63 344.92,-133.14 334.62,-130.67 335.32,-137.63"/>
<text text-anchor="middle" x="225.45" y="-162.45" font-family="Times New Roman,serif" font-size="14.00">french_knowledge.describe()</text>
</g>
<!-- main&#45;&gt;Person -->
<g id="edge6" class="edge">
<title>main&#45;&gt;Person</title>
<path fill="none" stroke="black" d="M90.53,-173.01C102.51,-168.78 116.18,-162.36 126.08,-153 139.01,-140.78 129.72,-127.75 144.08,-117.25 214.2,-65.94 320.43,-63.65 380.56,-67.33"/>
<polygon fill="black" stroke="black" points="380.02,-70.87 390.24,-68.08 380.5,-63.89 380.02,-70.87"/>
<text text-anchor="middle" x="225.45" y="-119.45" font-family="Times New Roman,serif" font-size="14.00">person.describe()</text>
</g>
<!-- main&#45;&gt;EnhancedBuilderRoyalty -->
<g id="edge7" class="edge">
<title>main&#45;&gt;EnhancedBuilderRoyalty</title>
<path fill="none" stroke="black" d="M90.28,-174.72C102.97,-170.83 117.31,-164.18 126.08,-153 155.24,-115.83 109.64,-80.58 144.08,-48.25 197.49,1.88 284.03,3.99 347.21,-3.05"/>
<polygon fill="black" stroke="black" points="346.58,-6.62 356.93,-4.36 347.43,0.32 346.58,-6.62"/>
<text text-anchor="middle" x="225.45" y="-51.45" font-family="Times New Roman,serif" font-size="14.00">builder_royalty.describe()</text>
</g>
</g>
</svg>
