<?xml version="1.0" encoding="UTF-8" standalone="no"?>
<!DOCTYPE svg PUBLIC "-//W3C//DTD SVG 1.1//EN"
 "http://www.w3.org/Graphics/SVG/1.1/DTD/svg11.dtd">
<!-- Generated by graphviz version 8.1.0 (20230707.0739)
 -->
<!-- Title: ContractOfferDiagram Pages: 1 -->
<svg width="181pt" height="261pt"
 viewBox="0.00 0.00 180.75 261.00" xmlns="http://www.w3.org/2000/svg" xmlns:xlink="http://www.w3.org/1999/xlink">
<g id="graph0" class="graph" transform="scale(1 1) rotate(0) translate(4 257)">
<title>ContractOfferDiagram</title>
<polygon fill="white" stroke="none" points="-4,4 -4,-257 176.75,-257 176.75,4 -4,4"/>
<!-- ContractOffer -->
<g id="node1" class="node">
<title>ContractOffer</title>
<polygon fill="none" stroke="black" points="1.88,-0.5 1.88,-172.5 170.88,-172.5 170.88,-0.5 1.88,-0.5"/>
<text text-anchor="middle" x="86.38" y="-157.1" font-family="Arial" font-size="12.00">ContractOffer</text>
<polyline fill="none" stroke="black" points="1.88,-151 170.88,-151"/>
<text text-anchor="middle" x="86.38" y="-135.6" font-family="Arial" font-size="12.00">+ host_name: str</text>
<polyline fill="none" stroke="black" points="1.88,-129.5 170.88,-129.5"/>
<text text-anchor="middle" x="86.38" y="-114.1" font-family="Arial" font-size="12.00">+ attendant_name: str</text>
<polyline fill="none" stroke="black" points="1.88,-108 170.88,-108"/>
<text text-anchor="middle" x="86.38" y="-92.6" font-family="Arial" font-size="12.00">+ address: str</text>
<polyline fill="none" stroke="black" points="1.88,-86.5 170.88,-86.5"/>
<text text-anchor="middle" x="86.38" y="-71.1" font-family="Arial" font-size="12.00">+ annual_salary: int</text>
<polyline fill="none" stroke="black" points="1.88,-65 170.88,-65"/>
<text text-anchor="middle" x="86.38" y="-49.6" font-family="Arial" font-size="12.00">+ start_year: int</text>
<polyline fill="none" stroke="black" points="1.88,-43.5 170.88,-43.5"/>
<text text-anchor="middle" x="86.38" y="-28.1" font-family="Arial" font-size="12.00">+ end_year: int</text>
<polyline fill="none" stroke="black" points="1.88,-22 170.88,-22"/>
<text text-anchor="middle" x="86.38" y="-6.6" font-family="Arial" font-size="12.00">+ display_offer_details(): void</text>
</g>
<!-- main -->
<g id="node2" class="node">
<title>main</title>
<polygon fill="none" stroke="black" points="0,-209.5 0,-252.5 172.75,-252.5 172.75,-209.5 0,-209.5"/>
<text text-anchor="middle" x="86.38" y="-237.1" font-family="Arial" font-size="12.00">main()</text>
<polyline fill="none" stroke="black" points="0,-231 172.75,-231"/>
<text text-anchor="middle" x="86.38" y="-215.6" font-family="Arial" font-size="12.00">+ contract_offer: ContractOffer</text>
</g>
<!-- main&#45;&gt;ContractOffer -->
<g id="edge1" class="edge">
<title>main&#45;&gt;ContractOffer</title>
<path fill="none" stroke="black" d="M86.38,-209.58C86.38,-199.35 86.38,-186.19 86.38,-172.32"/>
</g>
</g>
</svg>
