<?xml version="1.0" encoding="UTF-8" standalone="no"?>
<!DOCTYPE svg PUBLIC "-//W3C//DTD SVG 1.1//EN"
 "http://www.w3.org/Graphics/SVG/1.1/DTD/svg11.dtd">
<!-- Generated by graphviz version 8.1.0 (20230707.0739)
 -->
<!-- Title: batman_program Pages: 1 -->
<svg width="606pt" height="274pt"
 viewBox="0.00 0.00 605.88 274.00" xmlns="http://www.w3.org/2000/svg" xmlns:xlink="http://www.w3.org/1999/xlink">
<g id="graph0" class="graph" transform="scale(1 1) rotate(0) translate(4 270)">
<title>batman_program</title>
<polygon fill="white" stroke="none" points="-4,4 -4,-270 601.88,-270 601.88,4 -4,4"/>
<!-- DarkCity -->
<g id="node1" class="node">
<title>DarkCity</title>
<path fill="none" stroke="black" d="M215.88,-266C215.88,-266 37.88,-266 37.88,-266 31.88,-266 25.88,-260 25.88,-254 25.88,-254 25.88,-238.5 25.88,-238.5 25.88,-232.5 31.88,-226.5 37.88,-226.5 37.88,-226.5 215.88,-226.5 215.88,-226.5 221.88,-226.5 227.88,-232.5 227.88,-238.5 227.88,-238.5 227.88,-254 227.88,-254 227.88,-260 221.88,-266 215.88,-266"/>
<text text-anchor="middle" x="126.88" y="-248.7" font-family="Times New Roman,serif" font-size="14.00">DarkCity</text>
<text text-anchor="middle" x="126.88" y="-232.95" font-family="Times New Roman,serif" font-size="14.00">(city_name, tormentors, demons)</text>
</g>
<!-- DarkVigilante -->
<g id="node2" class="node">
<title>DarkVigilante</title>
<path fill="none" stroke="black" d="M241.75,-190.5C241.75,-190.5 12,-190.5 12,-190.5 6,-190.5 0,-184.5 0,-178.5 0,-178.5 0,-163 0,-163 0,-157 6,-151 12,-151 12,-151 241.75,-151 241.75,-151 247.75,-151 253.75,-157 253.75,-163 253.75,-163 253.75,-178.5 253.75,-178.5 253.75,-184.5 247.75,-190.5 241.75,-190.5"/>
<text text-anchor="middle" x="126.88" y="-173.2" font-family="Times New Roman,serif" font-size="14.00">DarkVigilante</text>
<text text-anchor="middle" x="126.88" y="-157.45" font-family="Times New Roman,serif" font-size="14.00">(name, chase_speed, sister, arch_nemesis)</text>
</g>
<!-- DarkCity&#45;&gt;DarkVigilante -->
<g id="edge1" class="edge">
<title>DarkCity&#45;&gt;DarkVigilante</title>
<path fill="none" stroke="black" d="M126.88,-226.32C126.88,-218.84 126.88,-210.05 126.88,-201.74"/>
<polygon fill="black" stroke="black" points="130.38,-201.87 126.88,-191.87 123.38,-201.87 130.38,-201.87"/>
</g>
<!-- GothamHeroes -->
<g id="node3" class="node">
<title>GothamHeroes</title>
<path fill="none" stroke="black" d="M165.25,-115C165.25,-115 88.5,-115 88.5,-115 82.5,-115 76.5,-109 76.5,-103 76.5,-103 76.5,-87.5 76.5,-87.5 76.5,-81.5 82.5,-75.5 88.5,-75.5 88.5,-75.5 165.25,-75.5 165.25,-75.5 171.25,-75.5 177.25,-81.5 177.25,-87.5 177.25,-87.5 177.25,-103 177.25,-103 177.25,-109 171.25,-115 165.25,-115"/>
<text text-anchor="middle" x="126.88" y="-97.7" font-family="Times New Roman,serif" font-size="14.00">GothamHeroes</text>
<text text-anchor="middle" x="126.88" y="-81.95" font-family="Times New Roman,serif" font-size="14.00">(hero_names)</text>
</g>
<!-- DarkVigilante&#45;&gt;GothamHeroes -->
<g id="edge2" class="edge">
<title>DarkVigilante&#45;&gt;GothamHeroes</title>
<path fill="none" stroke="black" d="M126.88,-150.82C126.88,-143.34 126.88,-134.55 126.88,-126.24"/>
<polygon fill="black" stroke="black" points="130.38,-126.37 126.88,-116.37 123.38,-126.37 130.38,-126.37"/>
</g>
<!-- CityEvents -->
<g id="node4" class="node">
<title>CityEvents</title>
<path fill="none" stroke="black" d="M196.38,-39.5C196.38,-39.5 57.38,-39.5 57.38,-39.5 51.38,-39.5 45.38,-33.5 45.38,-27.5 45.38,-27.5 45.38,-12 45.38,-12 45.38,-6 51.38,0 57.38,0 57.38,0 196.38,0 196.38,0 202.38,0 208.38,-6 208.38,-12 208.38,-12 208.38,-27.5 208.38,-27.5 208.38,-33.5 202.38,-39.5 196.38,-39.5"/>
<text text-anchor="middle" x="126.88" y="-22.2" font-family="Times New Roman,serif" font-size="14.00">CityEvents</text>
<text text-anchor="middle" x="126.88" y="-6.45" font-family="Times New Roman,serif" font-size="14.00">(event_name, participants)</text>
</g>
<!-- GothamHeroes&#45;&gt;CityEvents -->
<g id="edge3" class="edge">
<title>GothamHeroes&#45;&gt;CityEvents</title>
<path fill="none" stroke="black" d="M126.88,-75.32C126.88,-67.84 126.88,-59.05 126.88,-50.74"/>
<polygon fill="black" stroke="black" points="130.38,-50.87 126.88,-40.87 123.38,-50.87 130.38,-50.87"/>
</g>
<!-- gotham_city -->
<g id="node5" class="node">
<title>gotham_city</title>
<path fill="none" stroke="black" d="M585.88,-266C585.88,-266 257.88,-266 257.88,-266 251.88,-266 245.88,-260 245.88,-254 245.88,-254 245.88,-238.5 245.88,-238.5 245.88,-232.5 251.88,-226.5 257.88,-226.5 257.88,-226.5 585.88,-226.5 585.88,-226.5 591.88,-226.5 597.88,-232.5 597.88,-238.5 597.88,-238.5 597.88,-254 597.88,-254 597.88,-260 591.88,-266 585.88,-266"/>
<text text-anchor="middle" x="421.88" y="-248.7" font-family="Times New Roman,serif" font-size="14.00">gotham_city</text>
<text text-anchor="middle" x="421.88" y="-232.95" font-family="Times New Roman,serif" font-size="14.00">(Gotham, predecessors of the Nineteenth Era, own demons)</text>
</g>
<!-- dark_knight -->
<g id="node6" class="node">
<title>dark_knight</title>
<path fill="none" stroke="black" d="M542,-190.5C542,-190.5 301.75,-190.5 301.75,-190.5 295.75,-190.5 289.75,-184.5 289.75,-178.5 289.75,-178.5 289.75,-163 289.75,-163 289.75,-157 295.75,-151 301.75,-151 301.75,-151 542,-151 542,-151 548,-151 554,-157 554,-163 554,-163 554,-178.5 554,-178.5 554,-184.5 548,-190.5 542,-190.5"/>
<text text-anchor="middle" x="421.88" y="-173.2" font-family="Times New Roman,serif" font-size="14.00">dark_knight</text>
<text text-anchor="middle" x="421.88" y="-157.45" font-family="Times New Roman,serif" font-size="14.00">(Bruce Wayne, unprecedented, Clara, Joker)</text>
</g>
<!-- gotham_city&#45;&gt;dark_knight -->
<g id="edge4" class="edge">
<title>gotham_city&#45;&gt;dark_knight</title>
<path fill="none" stroke="black" d="M421.88,-226.32C421.88,-218.84 421.88,-210.05 421.88,-201.74"/>
<polygon fill="black" stroke="black" points="425.38,-201.87 421.88,-191.87 418.38,-201.87 425.38,-201.87"/>
</g>
<!-- heroes_assemble -->
<g id="node7" class="node">
<title>heroes_assemble</title>
<path fill="none" stroke="black" d="M558.5,-115C558.5,-115 285.25,-115 285.25,-115 279.25,-115 273.25,-109 273.25,-103 273.25,-103 273.25,-87.5 273.25,-87.5 273.25,-81.5 279.25,-75.5 285.25,-75.5 285.25,-75.5 558.5,-75.5 558.5,-75.5 564.5,-75.5 570.5,-81.5 570.5,-87.5 570.5,-87.5 570.5,-103 570.5,-103 570.5,-109 564.5,-115 558.5,-115"/>
<text text-anchor="middle" x="421.88" y="-97.7" font-family="Times New Roman,serif" font-size="14.00">heroes_assemble</text>
<text text-anchor="middle" x="421.88" y="-81.95" font-family="Times New Roman,serif" font-size="14.00">([&#39;Batman&#39;, &#39;Robin&#39;, &#39;Catwoman&#39;, &#39;Gordon&#45;Levitt&#39;])</text>
</g>
<!-- dark_knight&#45;&gt;heroes_assemble -->
<g id="edge5" class="edge">
<title>dark_knight&#45;&gt;heroes_assemble</title>
<path fill="none" stroke="black" d="M421.88,-150.82C421.88,-143.34 421.88,-134.55 421.88,-126.24"/>
<polygon fill="black" stroke="black" points="425.38,-126.37 421.88,-116.37 418.38,-126.37 425.38,-126.37"/>
</g>
<!-- city_conversation -->
<g id="node8" class="node">
<title>city_conversation</title>
<path fill="none" stroke="black" d="M545.75,-39.5C545.75,-39.5 298,-39.5 298,-39.5 292,-39.5 286,-33.5 286,-27.5 286,-27.5 286,-12 286,-12 286,-6 292,0 298,0 298,0 545.75,0 545.75,0 551.75,0 557.75,-6 557.75,-12 557.75,-12 557.75,-27.5 557.75,-27.5 557.75,-33.5 551.75,-39.5 545.75,-39.5"/>
<text text-anchor="middle" x="421.88" y="-22.2" font-family="Times New Roman,serif" font-size="14.00">city_conversation</text>
<text text-anchor="middle" x="421.88" y="-6.45" font-family="Times New Roman,serif" font-size="14.00">(&#39;City Conversations&#39;, [&#39;Christina&#39;, &#39;Anthony&#39;])</text>
</g>
<!-- heroes_assemble&#45;&gt;city_conversation -->
<g id="edge6" class="edge">
<title>heroes_assemble&#45;&gt;city_conversation</title>
<path fill="none" stroke="black" d="M421.88,-75.32C421.88,-67.84 421.88,-59.05 421.88,-50.74"/>
<polygon fill="black" stroke="black" points="425.38,-50.87 421.88,-40.87 418.38,-50.87 425.38,-50.87"/>
</g>
</g>
</svg>
