<?xml version="1.0" encoding="UTF-8" standalone="no"?>
<!DOCTYPE svg PUBLIC "-//W3C//DTD SVG 1.1//EN"
 "http://www.w3.org/Graphics/SVG/1.1/DTD/svg11.dtd">
<!-- Generated by graphviz version 8.1.0 (20230707.0739)
 -->
<!-- Title: DAAssistantDiagram Pages: 1 -->
<svg width="213pt" height="277pt"
 viewBox="0.00 0.00 213.25 276.75" xmlns="http://www.w3.org/2000/svg" xmlns:xlink="http://www.w3.org/1999/xlink">
<g id="graph0" class="graph" transform="scale(1 1) rotate(0) translate(4 272.75)">
<title>DAAssistantDiagram</title>
<polygon fill="white" stroke="none" points="-4,4 -4,-272.75 209.25,-272.75 209.25,4 -4,4"/>
<!-- class_ClockStatus -->
<g id="node1" class="node">
<title>class_ClockStatus</title>
<polygon fill="none" stroke="black" stroke-dasharray="5,2" points="34.5,-0.5 34.5,-65 142,-65 142,-0.5 34.5,-0.5"/>
<text text-anchor="middle" x="88.25" y="-49.6" font-family="Arial" font-size="12.00">ClockStatus</text>
<polyline fill="none" stroke="black" stroke-dasharray="5,2" points="34.5,-43.5 142,-43.5"/>
<text text-anchor="middle" x="88.25" y="-28.1" font-family="Arial" font-size="12.00">&#45; status : str</text>
<polyline fill="none" stroke="black" stroke-dasharray="5,2" points="34.5,-22 142,-22"/>
<text text-anchor="middle" x="88.25" y="-6.6" font-family="Arial" font-size="12.00">+ display_status()</text>
</g>
<!-- class_DAAssistant -->
<g id="node2" class="node">
<title>class_DAAssistant</title>
<polygon fill="none" stroke="black" points="0,-117.75 0,-268.25 176.5,-268.25 176.5,-117.75 0,-117.75"/>
<text text-anchor="middle" x="88.25" y="-252.85" font-family="Arial" font-size="12.00">DAAssistant</text>
<polyline fill="none" stroke="black" points="0,-246.75 176.5,-246.75"/>
<text text-anchor="middle" x="88.25" y="-231.35" font-family="Arial" font-size="12.00">&#45; constable_name : str</text>
<polyline fill="none" stroke="black" points="0,-225.25 176.5,-225.25"/>
<text text-anchor="middle" x="88.25" y="-209.85" font-family="Arial" font-size="12.00">&#45; clock_status : ClockStatus</text>
<polyline fill="none" stroke="black" points="0,-203.75 176.5,-203.75"/>
<text text-anchor="middle" x="88.25" y="-188.35" font-family="Arial" font-size="12.00">&#45; brotherly_status : ClockStatus</text>
<polyline fill="none" stroke="black" points="0,-182.25 176.5,-182.25"/>
<text text-anchor="middle" x="88.25" y="-166.85" font-family="Arial" font-size="12.00">&#45; clara_status : str</text>
<polyline fill="none" stroke="black" points="0,-160.75 176.5,-160.75"/>
<text text-anchor="middle" x="88.25" y="-145.35" font-family="Arial" font-size="12.00">&#45; remarks : str</text>
<polyline fill="none" stroke="black" points="0,-139.25 176.5,-139.25"/>
<text text-anchor="middle" x="88.25" y="-123.85" font-family="Arial" font-size="12.00">+ display_status()</text>
</g>
<!-- class_DAAssistant&#45;&gt;class_ClockStatus -->
<g id="edge1" class="edge">
<title>class_DAAssistant&#45;&gt;class_ClockStatus</title>
<path fill="none" stroke="black" d="M41.07,-117.8C38.45,-106.35 38.42,-94.64 42.75,-83.5 44.28,-79.55 46.3,-75.72 48.62,-72.06"/>
<ellipse fill="none" stroke="black" cx="51.17" cy="-68.46" rx="4" ry="4"/>
<text text-anchor="middle" x="78.5" y="-85.95" font-family="Times New Roman,serif" font-size="14.00">clock_status</text>
</g>
<!-- class_DAAssistant&#45;&gt;class_ClockStatus -->
<g id="edge2" class="edge">
<title>class_DAAssistant&#45;&gt;class_ClockStatus</title>
<path fill="none" stroke="black" d="M114.55,-117.85C115.97,-106.34 115.88,-94.6 113.25,-83.5 112.41,-79.96 111.27,-76.38 109.95,-72.85"/>
<ellipse fill="none" stroke="black" cx="108.3" cy="-68.91" rx="4" ry="4"/>
<text text-anchor="middle" x="160.25" y="-85.95" font-family="Times New Roman,serif" font-size="14.00">brotherly_status</text>
</g>
</g>
</svg>
