<?xml version="1.0" encoding="UTF-8" standalone="no"?>
<!DOCTYPE svg PUBLIC "-//W3C//DTD SVG 1.1//EN"
 "http://www.w3.org/Graphics/SVG/1.1/DTD/svg11.dtd">
<!-- Generated by graphviz version 8.1.0 (20230707.0739)
 -->
<!-- Title: ProgramGraph Pages: 1 -->
<svg width="742pt" height="116pt"
 viewBox="0.00 0.00 742.12 116.00" xmlns="http://www.w3.org/2000/svg" xmlns:xlink="http://www.w3.org/1999/xlink">
<g id="graph0" class="graph" transform="scale(1 1) rotate(0) translate(4 112)">
<title>ProgramGraph</title>
<polygon fill="white" stroke="none" points="-4,4 -4,-112 738.12,-112 738.12,4 -4,4"/>
<!-- DominionTavern -->
<g id="node1" class="node">
<title>DominionTavern</title>
<polygon fill="none" stroke="black" points="115.75,-108 6,-108 6,-72 115.75,-72 115.75,-108"/>
<text text-anchor="middle" x="60.88" y="-84.58" font-family="Times New Roman,serif" font-size="14.00">DominionTavern</text>
</g>
<!-- provide_beverages -->
<g id="node5" class="node">
<title>provide_beverages</title>
<polygon fill="none" stroke="black" points="121.75,-36 0,-36 0,0 121.75,0 121.75,-36"/>
<text text-anchor="middle" x="60.88" y="-12.57" font-family="Times New Roman,serif" font-size="14.00">provide_beverages</text>
</g>
<!-- DominionTavern&#45;&gt;provide_beverages -->
<g id="edge1" class="edge">
<title>DominionTavern&#45;&gt;provide_beverages</title>
<path fill="none" stroke="black" d="M60.88,-71.7C60.88,-64.24 60.88,-55.32 60.88,-46.97"/>
<polygon fill="black" stroke="black" points="64.38,-47.1 60.88,-37.1 57.38,-47.1 64.38,-47.1"/>
</g>
<!-- CuttingEdgeMoonBase -->
<g id="node2" class="node">
<title>CuttingEdgeMoonBase</title>
<polygon fill="none" stroke="black" points="325.75,-108 180,-108 180,-72 325.75,-72 325.75,-108"/>
<text text-anchor="middle" x="252.88" y="-84.58" font-family="Times New Roman,serif" font-size="14.00">CuttingEdgeMoonBase</text>
</g>
<!-- construct_state_of_the_art_residence -->
<g id="node6" class="node">
<title>construct_state_of_the_art_residence</title>
<polygon fill="none" stroke="black" points="366.25,-36 139.5,-36 139.5,0 366.25,0 366.25,-36"/>
<text text-anchor="middle" x="252.88" y="-12.57" font-family="Times New Roman,serif" font-size="14.00">construct_state_of_the_art_residence</text>
</g>
<!-- CuttingEdgeMoonBase&#45;&gt;construct_state_of_the_art_residence -->
<g id="edge2" class="edge">
<title>CuttingEdgeMoonBase&#45;&gt;construct_state_of_the_art_residence</title>
<path fill="none" stroke="black" d="M252.88,-71.7C252.88,-64.24 252.88,-55.32 252.88,-46.97"/>
<polygon fill="black" stroke="black" points="256.38,-47.1 252.88,-37.1 249.38,-47.1 256.38,-47.1"/>
</g>
<!-- HighTechPlanetarySystem -->
<g id="node3" class="node">
<title>HighTechPlanetarySystem</title>
<polygon fill="none" stroke="black" points="555.38,-108 392.38,-108 392.38,-72 555.38,-72 555.38,-108"/>
<text text-anchor="middle" x="473.88" y="-84.58" font-family="Times New Roman,serif" font-size="14.00">HighTechPlanetarySystem</text>
</g>
<!-- synchronize_celestial_bodies -->
<g id="node7" class="node">
<title>synchronize_celestial_bodies</title>
<polygon fill="none" stroke="black" points="563.25,-36 384.5,-36 384.5,0 563.25,0 563.25,-36"/>
<text text-anchor="middle" x="473.88" y="-12.57" font-family="Times New Roman,serif" font-size="14.00">synchronize_celestial_bodies</text>
</g>
<!-- HighTechPlanetarySystem&#45;&gt;synchronize_celestial_bodies -->
<g id="edge3" class="edge">
<title>HighTechPlanetarySystem&#45;&gt;synchronize_celestial_bodies</title>
<path fill="none" stroke="black" d="M473.88,-71.7C473.88,-64.24 473.88,-55.32 473.88,-46.97"/>
<polygon fill="black" stroke="black" points="477.38,-47.1 473.88,-37.1 470.38,-47.1 477.38,-47.1"/>
</g>
<!-- AdvancedSpacecraft -->
<g id="node4" class="node">
<title>AdvancedSpacecraft</title>
<polygon fill="none" stroke="black" points="724.38,-108 591.38,-108 591.38,-72 724.38,-72 724.38,-108"/>
<text text-anchor="middle" x="657.88" y="-84.58" font-family="Times New Roman,serif" font-size="14.00">AdvancedSpacecraft</text>
</g>
<!-- optimize_seat_alignment -->
<g id="node8" class="node">
<title>optimize_seat_alignment</title>
<polygon fill="none" stroke="black" points="734.12,-36 581.62,-36 581.62,0 734.12,0 734.12,-36"/>
<text text-anchor="middle" x="657.88" y="-12.57" font-family="Times New Roman,serif" font-size="14.00">optimize_seat_alignment</text>
</g>
<!-- AdvancedSpacecraft&#45;&gt;optimize_seat_alignment -->
<g id="edge4" class="edge">
<title>AdvancedSpacecraft&#45;&gt;optimize_seat_alignment</title>
<path fill="none" stroke="black" d="M657.88,-71.7C657.88,-64.24 657.88,-55.32 657.88,-46.97"/>
<polygon fill="black" stroke="black" points="661.38,-47.1 657.88,-37.1 654.38,-47.1 661.38,-47.1"/>
</g>
</g>
</svg>
