<?xml version="1.0" encoding="UTF-8" standalone="no"?>
<!DOCTYPE svg PUBLIC "-//W3C//DTD SVG 1.1//EN"
 "http://www.w3.org/Graphics/SVG/1.1/DTD/svg11.dtd">
<!-- Generated by graphviz version 8.1.0 (20230707.0739)
 -->
<!-- Title: G Pages: 1 -->
<svg width="3417pt" height="282pt"
 viewBox="0.00 0.00 3416.75 282.25" xmlns="http://www.w3.org/2000/svg" xmlns:xlink="http://www.w3.org/1999/xlink">
<g id="graph0" class="graph" transform="scale(1 1) rotate(0) translate(4 278.25)">
<title>G</title>
<polygon fill="white" stroke="none" points="-4,4 -4,-278.25 3412.75,-278.25 3412.75,4 -4,4"/>
<!-- MetaphysicalEntity -->
<g id="node1" class="node">
<title>MetaphysicalEntity</title>
<polygon fill="none" stroke="black" points="1539.25,-163.5 1539.25,-261.5 1693.25,-261.5 1693.25,-163.5 1539.25,-163.5"/>
<text text-anchor="middle" x="1616.25" y="-244.2" font-family="Arial" font-size="14.00">MetaphysicalEntity</text>
<polyline fill="none" stroke="black" points="1539.25,-237 1693.25,-237"/>
<text text-anchor="middle" x="1616.25" y="-219.7" font-family="Arial" font-size="14.00">essence: str</text>
<polyline fill="none" stroke="black" points="1539.25,-212.5 1693.25,-212.5"/>
<text text-anchor="middle" x="1616.25" y="-195.2" font-family="Arial" font-size="14.00">existence: str</text>
<polyline fill="none" stroke="black" points="1539.25,-188 1693.25,-188"/>
<text text-anchor="middle" x="1616.25" y="-170.7" font-family="Arial" font-size="14.00">manifest_entity(): void</text>
</g>
<!-- HyperEvent -->
<g id="node2" class="node">
<title>HyperEvent</title>
<polygon fill="none" stroke="black" points="1772,-151.25 1772,-273.75 1978.5,-273.75 1978.5,-151.25 1772,-151.25"/>
<text text-anchor="middle" x="1875.25" y="-256.45" font-family="Arial" font-size="14.00">HyperEvent</text>
<polyline fill="none" stroke="black" points="1772,-249.25 1978.5,-249.25"/>
<text text-anchor="middle" x="1875.25" y="-231.95" font-family="Arial" font-size="14.00">description: str</text>
<polyline fill="none" stroke="black" points="1772,-224.75 1978.5,-224.75"/>
<text text-anchor="middle" x="1875.25" y="-207.45" font-family="Arial" font-size="14.00">date: str</text>
<polyline fill="none" stroke="black" points="1772,-200.25 1978.5,-200.25"/>
<text text-anchor="middle" x="1875.25" y="-182.95" font-family="Arial" font-size="14.00">location: str</text>
<polyline fill="none" stroke="black" points="1772,-175.75 1978.5,-175.75"/>
<text text-anchor="middle" x="1875.25" y="-158.45" font-family="Arial" font-size="14.00">announce_hyper_event(): void</text>
</g>
<!-- MetaphysicalEntity&#45;&gt;HyperEvent -->
<g id="edge1" class="edge">
<title>MetaphysicalEntity&#45;&gt;HyperEvent</title>
</g>
<!-- hyper_event_1 -->
<g id="node3" class="node">
<title>hyper_event_1</title>
<polygon fill="none" stroke="black" points="602.12,-0.5 602.12,-98.5 932.38,-98.5 932.38,-0.5 602.12,-0.5"/>
<text text-anchor="middle" x="767.25" y="-81.2" font-family="Arial" font-size="14.00">HyperEvent</text>
<polyline fill="none" stroke="black" points="602.12,-74 932.38,-74"/>
<text text-anchor="middle" x="767.25" y="-56.7" font-family="Arial" font-size="14.00">description: &quot;Quantum Entanglement Symposium&quot;</text>
<polyline fill="none" stroke="black" points="602.12,-49.5 932.38,-49.5"/>
<text text-anchor="middle" x="767.25" y="-32.2" font-family="Arial" font-size="14.00">date: &quot;September 19, 2022&quot;</text>
<polyline fill="none" stroke="black" points="602.12,-25 932.38,-25"/>
<text text-anchor="middle" x="767.25" y="-7.7" font-family="Arial" font-size="14.00">location: &quot;Nexus of Realities&quot;</text>
</g>
<!-- hyper_event_1&#45;&gt;HyperEvent -->
<g id="edge2" class="edge">
<title>hyper_event_1&#45;&gt;HyperEvent</title>
<path fill="none" stroke="black" d="M931.91,-97.15C935.38,-97.81 938.83,-98.42 942.25,-99 1065.21,-119.76 1098.02,-106.18 1222.25,-117 1286.06,-122.56 1301.66,-127.54 1365.5,-132.75 1514.88,-144.94 1555.23,-121.63 1702.25,-150.75 1721.93,-154.65 1742.4,-160.31 1762.08,-166.63"/>
<polygon fill="black" stroke="black" points="1760.7,-170.19 1771.3,-169.98 1762.89,-163.54 1760.7,-170.19"/>
<text text-anchor="middle" x="1396.62" y="-119.45" font-family="Times New Roman,serif" font-size="14.00">Inheritance</text>
</g>
<!-- hyper_event_2 -->
<g id="node4" class="node">
<title>hyper_event_2</title>
<polygon fill="none" stroke="black" points="0,-0.5 0,-98.5 326.5,-98.5 326.5,-0.5 0,-0.5"/>
<text text-anchor="middle" x="163.25" y="-81.2" font-family="Arial" font-size="14.00">HyperEvent</text>
<polyline fill="none" stroke="black" points="0,-74 326.5,-74"/>
<text text-anchor="middle" x="163.25" y="-56.7" font-family="Arial" font-size="14.00">description: &quot;Transcendence Meditation Session&quot;</text>
<polyline fill="none" stroke="black" points="0,-49.5 326.5,-49.5"/>
<text text-anchor="middle" x="163.25" y="-32.2" font-family="Arial" font-size="14.00">date: &quot;September 16, 2022&quot;</text>
<polyline fill="none" stroke="black" points="0,-25 326.5,-25"/>
<text text-anchor="middle" x="163.25" y="-7.7" font-family="Arial" font-size="14.00">location: &quot;Interstellar Sanctuary&quot;</text>
</g>
<!-- hyper_event_2&#45;&gt;HyperEvent -->
<g id="edge3" class="edge">
<title>hyper_event_2&#45;&gt;HyperEvent</title>
<path fill="none" stroke="black" d="M326.49,-97.26C329.76,-97.87 333.02,-98.45 336.25,-99 464.9,-120.73 499.16,-107.02 629.25,-117 705.46,-122.84 724.19,-128.48 800.5,-132.75 900.56,-138.34 1603.63,-132.92 1702.25,-150.75 1721.99,-154.32 1742.49,-159.81 1762.19,-166.06"/>
<polygon fill="black" stroke="black" points="1760.82,-169.62 1771.41,-169.4 1762.99,-162.97 1760.82,-169.62"/>
<text text-anchor="middle" x="831.62" y="-119.45" font-family="Times New Roman,serif" font-size="14.00">Inheritance</text>
</g>
<!-- hyper_event_3 -->
<g id="node5" class="node">
<title>hyper_event_3</title>
<polygon fill="none" stroke="black" points="344.88,-0.5 344.88,-98.5 583.62,-98.5 583.62,-0.5 344.88,-0.5"/>
<text text-anchor="middle" x="464.25" y="-81.2" font-family="Arial" font-size="14.00">HyperEvent</text>
<polyline fill="none" stroke="black" points="344.88,-74 583.62,-74"/>
<text text-anchor="middle" x="464.25" y="-56.7" font-family="Arial" font-size="14.00">description: &quot;Cosmic Unity Summit&quot;</text>
<polyline fill="none" stroke="black" points="344.88,-49.5 583.62,-49.5"/>
<text text-anchor="middle" x="464.25" y="-32.2" font-family="Arial" font-size="14.00">date: &quot;September 16, 2022&quot;</text>
<polyline fill="none" stroke="black" points="344.88,-25 583.62,-25"/>
<text text-anchor="middle" x="464.25" y="-7.7" font-family="Arial" font-size="14.00">location: &quot;Celestial Nexus&quot;</text>
</g>
<!-- hyper_event_3&#45;&gt;HyperEvent -->
<g id="edge4" class="edge">
<title>hyper_event_3&#45;&gt;HyperEvent</title>
<path fill="none" stroke="black" d="M583.34,-96.75C586.66,-97.56 589.97,-98.32 593.25,-99 745.3,-130.7 787.39,-105.06 942.25,-117 1010.52,-122.27 1027.18,-128.23 1095.5,-132.75 1230.1,-141.65 1569.63,-126.11 1702.25,-150.75 1721.97,-154.41 1742.47,-159.95 1762.16,-166.23"/>
<polygon fill="black" stroke="black" points="1760.78,-169.79 1771.38,-169.57 1762.96,-163.13 1760.78,-169.79"/>
<text text-anchor="middle" x="1126.62" y="-119.45" font-family="Times New Roman,serif" font-size="14.00">Inheritance</text>
</g>
<!-- hyper_event_4 -->
<g id="node6" class="node">
<title>hyper_event_4</title>
<polygon fill="none" stroke="black" points="950.88,-0.5 950.88,-98.5 1243.62,-98.5 1243.62,-0.5 950.88,-0.5"/>
<text text-anchor="middle" x="1097.25" y="-81.2" font-family="Arial" font-size="14.00">HyperEvent</text>
<polyline fill="none" stroke="black" points="950.88,-74 1243.62,-74"/>
<text text-anchor="middle" x="1097.25" y="-56.7" font-family="Arial" font-size="14.00">description: &quot;Ethereal Harmonics Gathering&quot;</text>
<polyline fill="none" stroke="black" points="950.88,-49.5 1243.62,-49.5"/>
<text text-anchor="middle" x="1097.25" y="-32.2" font-family="Arial" font-size="14.00">date: &quot;August 18, 2023&quot;</text>
<polyline fill="none" stroke="black" points="950.88,-25 1243.62,-25"/>
<text text-anchor="middle" x="1097.25" y="-7.7" font-family="Arial" font-size="14.00">location: &quot;Astral Confluence&quot;</text>
</g>
<!-- hyper_event_4&#45;&gt;HyperEvent -->
<g id="edge5" class="edge">
<title>hyper_event_4&#45;&gt;HyperEvent</title>
<path fill="none" stroke="black" d="M1243.47,-97.21C1246.41,-97.84 1249.34,-98.44 1252.25,-99 1351.17,-118.16 1379.64,-96.27 1478.25,-117 1499.09,-121.38 1502.71,-128.15 1523.5,-132.75 1601.46,-149.99 1624.31,-133.4 1702.25,-150.75 1721.83,-155.11 1742.25,-161 1761.92,-167.41"/>
<polygon fill="black" stroke="black" points="1760.53,-170.97 1771.12,-170.8 1762.74,-164.33 1760.53,-170.97"/>
<text text-anchor="middle" x="1554.62" y="-119.45" font-family="Times New Roman,serif" font-size="14.00">Inheritance</text>
</g>
<!-- hyper_event_5 -->
<g id="node7" class="node">
<title>hyper_event_5</title>
<polygon fill="none" stroke="black" points="1261.75,-0.5 1261.75,-98.5 1556.75,-98.5 1556.75,-0.5 1261.75,-0.5"/>
<text text-anchor="middle" x="1409.25" y="-81.2" font-family="Arial" font-size="14.00">HyperEvent</text>
<polyline fill="none" stroke="black" points="1261.75,-74 1556.75,-74"/>
<text text-anchor="middle" x="1409.25" y="-56.7" font-family="Arial" font-size="14.00">description: &quot;Fear Confrontation Workshop&quot;</text>
<polyline fill="none" stroke="black" points="1261.75,-49.5 1556.75,-49.5"/>
<text text-anchor="middle" x="1409.25" y="-32.2" font-family="Arial" font-size="14.00">date: &quot;August 20, 2022&quot;</text>
<polyline fill="none" stroke="black" points="1261.75,-25 1556.75,-25"/>
<text text-anchor="middle" x="1409.25" y="-7.7" font-family="Arial" font-size="14.00">location: &quot;Multiverse Nexus, Alpha Quadrant&quot;</text>
</g>
<!-- hyper_event_5&#45;&gt;HyperEvent -->
<g id="edge6" class="edge">
<title>hyper_event_5&#45;&gt;HyperEvent</title>
<path fill="none" stroke="black" d="M1556.61,-96.58C1559.85,-97.41 1563.06,-98.22 1566.25,-99 1609.26,-109.55 1621.96,-103.86 1664.25,-117 1696.85,-127.13 1731.07,-140.96 1762.25,-154.91"/>
<polygon fill="black" stroke="black" points="1760.7,-158.51 1771.26,-159.44 1763.59,-152.13 1760.7,-158.51"/>
<text text-anchor="middle" x="1736.62" y="-119.45" font-family="Times New Roman,serif" font-size="14.00">Inheritance</text>
</g>
<!-- hyper_event_6 -->
<g id="node8" class="node">
<title>hyper_event_6</title>
<polygon fill="none" stroke="black" points="1575.25,-0.5 1575.25,-98.5 1861.25,-98.5 1861.25,-0.5 1575.25,-0.5"/>
<text text-anchor="middle" x="1718.25" y="-81.2" font-family="Arial" font-size="14.00">HyperEvent</text>
<polyline fill="none" stroke="black" points="1575.25,-74 1861.25,-74"/>
<text text-anchor="middle" x="1718.25" y="-56.7" font-family="Arial" font-size="14.00">description: &quot;Meta&#45;awareness Symposium&quot;</text>
<polyline fill="none" stroke="black" points="1575.25,-49.5 1861.25,-49.5"/>
<text text-anchor="middle" x="1718.25" y="-32.2" font-family="Arial" font-size="14.00">date: &quot;June 2, 2022&quot;</text>
<polyline fill="none" stroke="black" points="1575.25,-25 1861.25,-25"/>
<text text-anchor="middle" x="1718.25" y="-7.7" font-family="Arial" font-size="14.00">location: &quot;Cosmic Web Observatory&quot;</text>
</g>
<!-- hyper_event_6&#45;&gt;HyperEvent -->
<g id="edge7" class="edge">
<title>hyper_event_6&#45;&gt;HyperEvent</title>
<path fill="none" stroke="black" d="M1825.96,-98.45C1833.03,-104.06 1839.57,-110.23 1845.25,-117 1851.28,-124.19 1856.1,-132.6 1859.95,-141.38"/>
<polygon fill="black" stroke="black" points="1856.98,-142.39 1863.91,-150.41 1863.5,-139.83 1856.98,-142.39"/>
<text text-anchor="middle" x="1886.62" y="-119.45" font-family="Times New Roman,serif" font-size="14.00">Inheritance</text>
</g>
<!-- hyper_event_7 -->
<g id="node9" class="node">
<title>hyper_event_7</title>
<polygon fill="none" stroke="black" points="1879.12,-0.5 1879.12,-98.5 2161.38,-98.5 2161.38,-0.5 1879.12,-0.5"/>
<text text-anchor="middle" x="2020.25" y="-81.2" font-family="Arial" font-size="14.00">HyperEvent</text>
<polyline fill="none" stroke="black" points="1879.12,-74 2161.38,-74"/>
<text text-anchor="middle" x="2020.25" y="-56.7" font-family="Arial" font-size="14.00">description: &quot;Temporal Nexus Exploration&quot;</text>
<polyline fill="none" stroke="black" points="1879.12,-49.5 2161.38,-49.5"/>
<text text-anchor="middle" x="2020.25" y="-32.2" font-family="Arial" font-size="14.00">date: &quot;June 2, 2022&quot;</text>
<polyline fill="none" stroke="black" points="1879.12,-25 2161.38,-25"/>
<text text-anchor="middle" x="2020.25" y="-7.7" font-family="Arial" font-size="14.00">location: &quot;Eternal Void Junction&quot;</text>
</g>
<!-- hyper_event_7&#45;&gt;HyperEvent -->
<g id="edge8" class="edge">
<title>hyper_event_7&#45;&gt;HyperEvent</title>
<path fill="none" stroke="black" d="M2013.06,-98.42C2009.66,-110.42 2004.64,-122.72 1997.25,-132.75 1993.84,-137.38 1990.07,-141.81 1986.02,-146.04"/>
<polygon fill="black" stroke="black" points="1984.17,-142.93 1979.48,-152.43 1989.07,-147.93 1984.17,-142.93"/>
<text text-anchor="middle" x="2036.62" y="-119.45" font-family="Times New Roman,serif" font-size="14.00">Inheritance</text>
</g>
<!-- hyper_event_8 -->
<g id="node10" class="node">
<title>hyper_event_8</title>
<polygon fill="none" stroke="black" points="2179.75,-0.5 2179.75,-98.5 2486.75,-98.5 2486.75,-0.5 2179.75,-0.5"/>
<text text-anchor="middle" x="2333.25" y="-81.2" font-family="Arial" font-size="14.00">HyperEvent</text>
<polyline fill="none" stroke="black" points="2179.75,-74 2486.75,-74"/>
<text text-anchor="middle" x="2333.25" y="-56.7" font-family="Arial" font-size="14.00">description: &quot;Transcendent Empire Assembly&quot;</text>
<polyline fill="none" stroke="black" points="2179.75,-49.5 2486.75,-49.5"/>
<text text-anchor="middle" x="2333.25" y="-32.2" font-family="Arial" font-size="14.00">date: &quot;May 31, 2022&quot;</text>
<polyline fill="none" stroke="black" points="2179.75,-25 2486.75,-25"/>
<text text-anchor="middle" x="2333.25" y="-7.7" font-family="Arial" font-size="14.00">location: &quot;Celestial Capital&quot;</text>
</g>
<!-- hyper_event_8&#45;&gt;HyperEvent -->
<g id="edge9" class="edge">
<title>hyper_event_8&#45;&gt;HyperEvent</title>
<path fill="none" stroke="black" d="M2283.22,-98.42C2267.59,-111.22 2249.6,-123.93 2231.25,-132.75 2154.85,-169.48 2060.97,-189.33 1988.8,-199.91"/>
<polygon fill="black" stroke="black" points="1988.72,-196.53 1979.31,-201.41 1989.71,-203.46 1988.72,-196.53"/>
<text text-anchor="middle" x="2286.62" y="-119.45" font-family="Times New Roman,serif" font-size="14.00">Inheritance</text>
</g>
<!-- hyper_event_9 -->
<g id="node11" class="node">
<title>hyper_event_9</title>
<polygon fill="none" stroke="black" points="2504.88,-0.5 2504.88,-98.5 2797.62,-98.5 2797.62,-0.5 2504.88,-0.5"/>
<text text-anchor="middle" x="2651.25" y="-81.2" font-family="Arial" font-size="14.00">HyperEvent</text>
<polyline fill="none" stroke="black" points="2504.88,-74 2797.62,-74"/>
<text text-anchor="middle" x="2651.25" y="-56.7" font-family="Arial" font-size="14.00">description: &quot;Quantum Principles Congress&quot;</text>
<polyline fill="none" stroke="black" points="2504.88,-49.5 2797.62,-49.5"/>
<text text-anchor="middle" x="2651.25" y="-32.2" font-family="Arial" font-size="14.00">date: &quot;August 18, 2023&quot;</text>
<polyline fill="none" stroke="black" points="2504.88,-25 2797.62,-25"/>
<text text-anchor="middle" x="2651.25" y="-7.7" font-family="Arial" font-size="14.00">location: &quot;Quantum Realm Hub&quot;</text>
</g>
<!-- hyper_event_9&#45;&gt;HyperEvent -->
<g id="edge10" class="edge">
<title>hyper_event_9&#45;&gt;HyperEvent</title>
<path fill="none" stroke="black" d="M2590.71,-98.39C2571.15,-111.59 2548.69,-124.53 2526.25,-132.75 2430.31,-167.9 2148.85,-192.47 1989.2,-204.02"/>
<polygon fill="black" stroke="black" points="1989.12,-200.59 1979.39,-204.8 1989.62,-207.57 1989.12,-200.59"/>
<text text-anchor="middle" x="2590.62" y="-119.45" font-family="Times New Roman,serif" font-size="14.00">Inheritance</text>
</g>
<!-- hyper_event_10 -->
<g id="node12" class="node">
<title>hyper_event_10</title>
<polygon fill="none" stroke="black" points="2815.25,-0.5 2815.25,-98.5 3077.25,-98.5 3077.25,-0.5 2815.25,-0.5"/>
<text text-anchor="middle" x="2946.25" y="-81.2" font-family="Arial" font-size="14.00">HyperEvent</text>
<polyline fill="none" stroke="black" points="2815.25,-74 3077.25,-74"/>
<text text-anchor="middle" x="2946.25" y="-56.7" font-family="Arial" font-size="14.00">description: &quot;Reality Matrix Analysis&quot;</text>
<polyline fill="none" stroke="black" points="2815.25,-49.5 3077.25,-49.5"/>
<text text-anchor="middle" x="2946.25" y="-32.2" font-family="Arial" font-size="14.00">date: &quot;May 19, 2022&quot;</text>
<polyline fill="none" stroke="black" points="2815.25,-25 3077.25,-25"/>
<text text-anchor="middle" x="2946.25" y="-7.7" font-family="Arial" font-size="14.00">location: &quot;Akashic Records Auditorium&quot;</text>
</g>
<!-- hyper_event_10&#45;&gt;HyperEvent -->
<g id="edge11" class="edge">
<title>hyper_event_10&#45;&gt;HyperEvent</title>
<path fill="none" stroke="black" d="M2892.11,-98.3C2873.95,-111.75 2852.8,-124.85 2831.25,-132.75 2679.51,-188.4 2208.3,-204.93 1989.29,-209.68"/>
<polygon fill="black" stroke="black" points="1989.34,-206.19 1979.42,-209.91 1989.49,-213.19 1989.34,-206.19"/>
<text text-anchor="middle" x="2893.62" y="-119.45" font-family="Times New Roman,serif" font-size="14.00">Inheritance</text>
</g>
<!-- hyper_event_11 -->
<g id="node13" class="node">
<title>hyper_event_11</title>
<polygon fill="none" stroke="black" points="3095.75,-0.5 3095.75,-98.5 3408.75,-98.5 3408.75,-0.5 3095.75,-0.5"/>
<text text-anchor="middle" x="3252.25" y="-81.2" font-family="Arial" font-size="14.00">HyperEvent</text>
<polyline fill="none" stroke="black" points="3095.75,-74 3408.75,-74"/>
<text text-anchor="middle" x="3252.25" y="-56.7" font-family="Arial" font-size="14.00">description: &quot;Cosmic Confederation Assembly&quot;</text>
<polyline fill="none" stroke="black" points="3095.75,-49.5 3408.75,-49.5"/>
<text text-anchor="middle" x="3252.25" y="-32.2" font-family="Arial" font-size="14.00">date: &quot;August 19, 2023&quot;</text>
<polyline fill="none" stroke="black" points="3095.75,-25 3408.75,-25"/>
<text text-anchor="middle" x="3252.25" y="-7.7" font-family="Arial" font-size="14.00">location: &quot;Galactic Nexus&quot;</text>
</g>
<!-- hyper_event_11&#45;&gt;HyperEvent -->
<g id="edge12" class="edge">
<title>hyper_event_11&#45;&gt;HyperEvent</title>
<path fill="none" stroke="black" d="M3095.8,-97.34C3043.06,-111.22 2983.54,-124.81 2928.25,-132.75 2588.53,-181.51 2182.55,-201.07 1988.9,-208.06"/>
<polygon fill="black" stroke="black" points="1989.01,-204.59 1979.14,-208.44 1989.26,-211.58 1989.01,-204.59"/>
<text text-anchor="middle" x="3039.62" y="-119.45" font-family="Times New Roman,serif" font-size="14.00">Inheritance</text>
</g>
<!-- hyper_events -->
<g id="node14" class="node">
<title>hyper_events</title>
<text text-anchor="middle" x="1455.25" y="-215.7" font-family="Arial" font-size="14.00">hyper_events</text>
<text text-anchor="middle" x="1455.25" y="-199.2" font-family="Arial" font-size="14.00">List of HyperEvent</text>
</g>
<!-- hyper_events&#45;&gt;hyper_event_1 -->
<g id="edge13" class="edge">
<title>hyper_events&#45;&gt;hyper_event_1</title>
<path fill="none" stroke="black" d="M1389.49,-210.82C1283.41,-207.84 1069.31,-193.96 900.25,-132.75 880.38,-125.55 860.29,-115.13 841.96,-104.1"/>
<polygon fill="black" stroke="black" points="844.18,-100.74 833.83,-98.48 840.51,-106.7 844.18,-100.74"/>
<text text-anchor="middle" x="921.25" y="-119.45" font-family="Times New Roman,serif" font-size="14.00">Index 0</text>
</g>
<!-- hyper_events&#45;&gt;hyper_event_2 -->
<g id="edge14" class="edge">
<title>hyper_events&#45;&gt;hyper_event_2</title>
<path fill="none" stroke="black" d="M1389.24,-208.53C1234.65,-201.03 837.3,-178.57 508.25,-132.75 434.26,-122.45 413.7,-117.45 336.39,-99"/>
<polygon fill="black" stroke="black" points="337.69,-95.47 327.15,-96.56 336.06,-102.28 337.69,-95.47"/>
<text text-anchor="middle" x="529.25" y="-119.45" font-family="Times New Roman,serif" font-size="14.00">Index 1</text>
</g>
<!-- hyper_events&#45;&gt;hyper_event_3 -->
<g id="edge15" class="edge">
<title>hyper_events&#45;&gt;hyper_event_3</title>
<path fill="none" stroke="black" d="M1389.21,-209.72C1213.02,-204.3 735.16,-185.06 587.25,-132.75 568.07,-125.97 548.99,-115.51 531.77,-104.3"/>
<polygon fill="black" stroke="black" points="534.21,-101.05 523.95,-98.38 530.31,-106.86 534.21,-101.05"/>
<text text-anchor="middle" x="608.25" y="-119.45" font-family="Times New Roman,serif" font-size="14.00">Index 2</text>
</g>
<!-- hyper_events&#45;&gt;hyper_event_4 -->
<g id="edge16" class="edge">
<title>hyper_events&#45;&gt;hyper_event_4</title>
<path fill="none" stroke="black" d="M1389.36,-202.16C1331.24,-191.78 1245.81,-171.15 1180.25,-132.75 1167.71,-125.41 1155.7,-115.74 1144.89,-105.61"/>
<polygon fill="black" stroke="black" points="1147.85,-103.64 1138.24,-99.19 1142.98,-108.67 1147.85,-103.64"/>
<text text-anchor="middle" x="1201.25" y="-119.45" font-family="Times New Roman,serif" font-size="14.00">Index 3</text>
</g>
<!-- hyper_events&#45;&gt;hyper_event_5 -->
<g id="edge17" class="edge">
<title>hyper_events&#45;&gt;hyper_event_5</title>
<path fill="none" stroke="black" d="M1449.7,-192.08C1443.83,-171.52 1434.27,-138.07 1425.92,-108.84"/>
<polygon fill="black" stroke="black" points="1429.02,-107.95 1422.91,-99.3 1422.29,-109.87 1429.02,-107.95"/>
<text text-anchor="middle" x="1453.25" y="-119.45" font-family="Times New Roman,serif" font-size="14.00">Index 4</text>
</g>
<!-- hyper_events&#45;&gt;hyper_event_6 -->
<g id="edge18" class="edge">
<title>hyper_events&#45;&gt;hyper_event_6</title>
<path fill="none" stroke="black" d="M1474.75,-192.2C1489.07,-178.94 1509.56,-161.81 1530.25,-150.75 1554.05,-138.03 1563.74,-144.06 1588.25,-132.75 1605.84,-124.63 1623.91,-114.5 1640.76,-104.16"/>
<polygon fill="black" stroke="black" points="1642.36,-106.67 1648.99,-98.4 1638.66,-100.73 1642.36,-106.67"/>
<text text-anchor="middle" x="1639.25" y="-119.45" font-family="Times New Roman,serif" font-size="14.00">Index 5</text>
</g>
<!-- hyper_events&#45;&gt;hyper_event_7 -->
<g id="edge19" class="edge">
<title>hyper_events&#45;&gt;hyper_event_7</title>
<path fill="none" stroke="black" d="M1472.59,-192.19C1486.6,-178.01 1507.67,-159.71 1530.25,-150.75 1630.09,-111.14 1668.43,-163.82 1771.25,-132.75 1784.92,-128.62 1785.99,-122.3 1799.25,-117 1826.64,-106.05 1837.01,-107.56 1868.81,-99.25"/>
<polygon fill="black" stroke="black" points="1869.7,-102.36 1878.41,-96.33 1867.84,-95.61 1869.7,-102.36"/>
<text text-anchor="middle" x="1820.25" y="-119.45" font-family="Times New Roman,serif" font-size="14.00">Index 6</text>
</g>
<!-- hyper_events&#45;&gt;hyper_event_8 -->
<g id="edge20" class="edge">
<title>hyper_events&#45;&gt;hyper_event_8</title>
<path fill="none" stroke="black" d="M1472.51,-192.01C1486.49,-177.73 1507.54,-159.39 1530.25,-150.75 1611.55,-119.83 1837.3,-155.51 1921.25,-132.75 1935.78,-128.81 1936.79,-121.2 1951.25,-117 2041.83,-90.69 2072.19,-115.22 2169.33,-98.97"/>
<polygon fill="black" stroke="black" points="2169.67,-102.29 2178.9,-97.09 2168.44,-95.4 2169.67,-102.29"/>
<text text-anchor="middle" x="1972.25" y="-119.45" font-family="Times New Roman,serif" font-size="14.00">Index 7</text>
</g>
<!-- hyper_events&#45;&gt;hyper_event_9 -->
<g id="edge21" class="edge">
<title>hyper_events&#45;&gt;hyper_event_9</title>
<path fill="none" stroke="black" d="M1472.2,-192.23C1486.16,-177.86 1507.33,-159.3 1530.25,-150.75 1586.6,-129.73 2011.32,-137.87 2071.25,-132.75 2122.21,-128.39 2134.35,-121.99 2185.25,-117 2319.25,-103.87 2357.6,-122.71 2494.48,-98.98"/>
<polygon fill="black" stroke="black" points="2494.72,-102.32 2503.95,-97.12 2493.49,-95.43 2494.72,-102.32"/>
<text text-anchor="middle" x="2206.25" y="-119.45" font-family="Times New Roman,serif" font-size="14.00">Index 8</text>
</g>
<!-- hyper_events&#45;&gt;hyper_event_10 -->
<g id="edge22" class="edge">
<title>hyper_events&#45;&gt;hyper_event_10</title>
<path fill="none" stroke="black" d="M1472.17,-192.16C1486.12,-177.75 1507.28,-159.18 1530.25,-150.75 1571.51,-135.6 2277.38,-135.42 2321.25,-132.75 2392.13,-128.44 2409.45,-122.46 2480.25,-117 2621.54,-106.11 2661.99,-126.05 2804.93,-99.09"/>
<polygon fill="black" stroke="black" points="2805.24,-102.4 2814.4,-97.07 2803.92,-95.53 2805.24,-102.4"/>
<text text-anchor="middle" x="2501.25" y="-119.45" font-family="Times New Roman,serif" font-size="14.00">Index 9</text>
</g>
<!-- hyper_events&#45;&gt;hyper_event_11 -->
<g id="edge23" class="edge">
<title>hyper_events&#45;&gt;hyper_event_11</title>
<path fill="none" stroke="black" d="M1472.16,-192.12C1486.1,-177.69 1507.26,-159.11 1530.25,-150.75 1587.43,-129.97 2564.52,-136.36 2625.25,-132.75 2693.6,-128.68 2710.25,-122.5 2778.5,-117 2911.6,-106.27 2949.34,-121.55 3085.26,-99.03"/>
<polygon fill="black" stroke="black" points="3085.81,-102.32 3095.09,-97.19 3084.64,-95.42 3085.81,-102.32"/>
<text text-anchor="middle" x="2803.62" y="-119.45" font-family="Times New Roman,serif" font-size="14.00">Index 10</text>
</g>
</g>
</svg>
