<?xml version="1.0" encoding="UTF-8" standalone="no"?>
<!DOCTYPE svg PUBLIC "-//W3C//DTD SVG 1.1//EN"
 "http://www.w3.org/Graphics/SVG/1.1/DTD/svg11.dtd">
<!-- Generated by graphviz version 8.1.0 (20230707.0739)
 -->
<!-- Title: G Pages: 1 -->
<svg width="1059pt" height="204pt"
 viewBox="0.00 0.00 1058.88 204.25" xmlns="http://www.w3.org/2000/svg" xmlns:xlink="http://www.w3.org/1999/xlink">
<g id="graph0" class="graph" transform="scale(1 1) rotate(0) translate(4 200.25)">
<title>G</title>
<polygon fill="white" stroke="none" points="-4,4 -4,-200.25 1054.88,-200.25 1054.88,4 -4,4"/>
<!-- class -->
<g id="node1" class="node">
<title>class</title>
<polygon fill="none" stroke="black" points="0,-130.25 0,-166.25 54,-166.25 54,-130.25 0,-130.25"/>
<text text-anchor="middle" x="26.88" y="-142.82" font-family="Times New Roman,serif" font-size="14.00">class</text>
</g>
<!-- ComplexWindowOfOpportunity -->
<g id="node2" class="node">
<title>ComplexWindowOfOpportunity</title>
<polygon fill="none" stroke="black" points="71.88,-100.75 71.88,-195.75 270.12,-195.75 270.12,-100.75 71.88,-100.75"/>
<text text-anchor="middle" x="171" y="-178.45" font-family="Times New Roman,serif" font-size="14.00">ComplexWindowOfOpportunity</text>
<polyline fill="none" stroke="black" points="71.88,-172 270.12,-172"/>
<text text-anchor="middle" x="171" y="-154.7" font-family="Times New Roman,serif" font-size="14.00">frame: str</text>
<polyline fill="none" stroke="black" points="71.88,-148.25 270.12,-148.25"/>
<text text-anchor="middle" x="171" y="-130.95" font-family="Times New Roman,serif" font-size="14.00">reference: str</text>
<polyline fill="none" stroke="black" points="71.88,-124.5 270.12,-124.5"/>
<text text-anchor="middle" x="171" y="-107.2" font-family="Times New Roman,serif" font-size="14.00">recursive: str</text>
</g>
<!-- chainable_method -->
<g id="node9" class="node">
<title>chainable_method</title>
<polygon fill="none" stroke="black" points="56.12,-0.5 56.12,-48 285.88,-48 285.88,-0.5 56.12,-0.5"/>
<text text-anchor="middle" x="171" y="-30.7" font-family="Times New Roman,serif" font-size="14.00">chainable_method</text>
<polyline fill="none" stroke="black" points="56.12,-24.25 285.88,-24.25"/>
<text text-anchor="middle" x="171" y="-6.95" font-family="Times New Roman,serif" font-size="14.00">wrapper(self, *args, **kwargs): object</text>
</g>
<!-- ComplexWindowOfOpportunity&#45;&gt;chainable_method -->
<g id="edge1" class="edge">
<title>ComplexWindowOfOpportunity&#45;&gt;chainable_method</title>
<path fill="none" stroke="black" d="M72,-103.34C59.82,-96.1 50.24,-88.83 46.25,-82.25 42.62,-76.26 42.15,-72.17 46.25,-66.5 49.42,-62.11 53.08,-58.18 57.11,-54.66"/>
<polygon fill="black" stroke="black" points="59.02,-56.84 64.85,-48 54.77,-51.27 59.02,-56.84"/>
<text text-anchor="middle" x="98.38" y="-68.95" font-family="Times New Roman,serif" font-size="14.00">show_opportunity</text>
</g>
<!-- ComplexWindowOfOpportunity&#45;&gt;chainable_method -->
<g id="edge2" class="edge">
<title>ComplexWindowOfOpportunity&#45;&gt;chainable_method</title>
<path fill="none" stroke="black" d="M171,-100.78C171,-86.72 171,-71.56 171,-58.54"/>
<polygon fill="black" stroke="black" points="174.5,-58.73 171,-48.73 167.5,-58.73 174.5,-58.73"/>
<text text-anchor="middle" x="222.75" y="-68.95" font-family="Times New Roman,serif" font-size="14.00">recursive_function</text>
</g>
<!-- ComplexWindowOfOpportunity&#45;&gt;chainable_method -->
<g id="edge3" class="edge">
<title>ComplexWindowOfOpportunity&#45;&gt;chainable_method</title>
<path fill="none" stroke="black" d="M269.75,-103.72C280.98,-92.9 285.45,-80.37 276,-66.5 272.99,-62.08 269.42,-58.13 265.46,-54.61"/>
<polygon fill="black" stroke="black" points="267.87,-51.28 257.8,-47.95 263.6,-56.83 267.87,-51.28"/>
<text text-anchor="middle" x="357.38" y="-68.95" font-family="Times New Roman,serif" font-size="14.00">cached_recursive_function</text>
</g>
<!-- frame -->
<g id="node3" class="node">
<title>frame</title>
<polygon fill="none" stroke="black" points="288,-130.25 288,-166.25 342,-166.25 342,-130.25 288,-130.25"/>
<text text-anchor="middle" x="314.75" y="-142.82" font-family="Times New Roman,serif" font-size="14.00">frame</text>
</g>
<!-- reference -->
<g id="node4" class="node">
<title>reference</title>
<polygon fill="none" stroke="black" points="360.5,-130.25 360.5,-166.25 427.5,-166.25 427.5,-130.25 360.5,-130.25"/>
<text text-anchor="middle" x="394" y="-142.82" font-family="Times New Roman,serif" font-size="14.00">reference</text>
</g>
<!-- recursive -->
<g id="node5" class="node">
<title>recursive</title>
<polygon fill="none" stroke="black" points="445.88,-130.25 445.88,-166.25 512.12,-166.25 512.12,-130.25 445.88,-130.25"/>
<text text-anchor="middle" x="479" y="-142.82" font-family="Times New Roman,serif" font-size="14.00">recursive</text>
</g>
<!-- show_opportunity -->
<g id="node6" class="node">
<title>show_opportunity</title>
<polygon fill="none" stroke="black" points="530.62,-130.25 530.62,-166.25 649.38,-166.25 649.38,-130.25 530.62,-130.25"/>
<text text-anchor="middle" x="590" y="-142.82" font-family="Times New Roman,serif" font-size="14.00">show_opportunity</text>
</g>
<!-- recursive_function -->
<g id="node7" class="node">
<title>recursive_function</title>
<polygon fill="none" stroke="black" points="667.25,-130.25 667.25,-166.25 786.75,-166.25 786.75,-130.25 667.25,-130.25"/>
<text text-anchor="middle" x="727" y="-142.82" font-family="Times New Roman,serif" font-size="14.00">recursive_function</text>
</g>
<!-- cached_recursive_function -->
<g id="node8" class="node">
<title>cached_recursive_function</title>
<polygon fill="none" stroke="black" points="804.62,-130.25 804.62,-166.25 971.38,-166.25 971.38,-130.25 804.62,-130.25"/>
<text text-anchor="middle" x="888" y="-142.82" font-family="Times New Roman,serif" font-size="14.00">cached_recursive_function</text>
</g>
<!-- wrapper -->
<g id="node10" class="node">
<title>wrapper</title>
<polygon fill="none" stroke="black" points="989.12,-130.25 989.12,-166.25 1050.88,-166.25 1050.88,-130.25 989.12,-130.25"/>
<text text-anchor="middle" x="1020" y="-142.82" font-family="Times New Roman,serif" font-size="14.00">wrapper</text>
</g>
</g>
</svg>
