<?xml version="1.0" encoding="UTF-8" standalone="no"?>
<!DOCTYPE svg PUBLIC "-//W3C//DTD SVG 1.1//EN"
 "http://www.w3.org/Graphics/SVG/1.1/DTD/svg11.dtd">
<!-- Generated by graphviz version 8.1.0 (20230707.0739)
 -->
<!-- Title: G Pages: 1 -->
<svg width="450pt" height="429pt"
 viewBox="0.00 0.00 450.12 428.75" xmlns="http://www.w3.org/2000/svg" xmlns:xlink="http://www.w3.org/1999/xlink">
<g id="graph0" class="graph" transform="scale(1 1) rotate(0) translate(4 424.75)">
<title>G</title>
<polygon fill="white" stroke="none" points="-4,4 -4,-424.75 446.12,-424.75 446.12,4 -4,4"/>
<!-- ClassStructure -->
<g id="node1" class="node">
<title>ClassStructure</title>
<polygon fill="none" stroke="black" points="69.62,-372.75 69.62,-420.25 267.12,-420.25 267.12,-372.75 69.62,-372.75"/>
<text text-anchor="middle" x="168.38" y="-402.95" font-family="Times New Roman,serif" font-size="14.00">ClassStructure</text>
<polyline fill="none" stroke="black" points="69.62,-396.5 267.12,-396.5"/>
<text text-anchor="middle" x="168.38" y="-379.2" font-family="Times New Roman,serif" font-size="14.00">inner_realm: List[AbstractEntity]</text>
</g>
<!-- AbstractEntity -->
<g id="node2" class="node">
<title>AbstractEntity</title>
<polygon fill="none" stroke="black" points="132,-264.5 132,-335.75 334.75,-335.75 334.75,-264.5 132,-264.5"/>
<text text-anchor="middle" x="233.38" y="-318.45" font-family="Times New Roman,serif" font-size="14.00">AbstractEntity</text>
<polyline fill="none" stroke="black" points="132,-312 334.75,-312"/>
<text text-anchor="middle" x="233.38" y="-294.7" font-family="Times New Roman,serif" font-size="14.00">name: str</text>
<polyline fill="none" stroke="black" points="132,-288.25 334.75,-288.25"/>
<text text-anchor="middle" x="233.38" y="-270.95" font-family="Times New Roman,serif" font-size="14.00">perform_action(action_name: str)</text>
</g>
<!-- ClassStructure&#45;&gt;AbstractEntity -->
<g id="edge1" class="edge">
<title>ClassStructure&#45;&gt;AbstractEntity</title>
<path fill="none" stroke="black" d="M183.78,-373.13C191.51,-361.91 201.05,-348.06 209.69,-335.51"/>
</g>
<!-- LunarLander -->
<g id="node4" class="node">
<title>LunarLander</title>
<polygon fill="none" stroke="black" points="124.75,-156.25 124.75,-203.75 212,-203.75 212,-156.25 124.75,-156.25"/>
<text text-anchor="middle" x="168.38" y="-186.45" font-family="Times New Roman,serif" font-size="14.00">LunarLander</text>
<polyline fill="none" stroke="black" points="124.75,-180 212,-180"/>
<text text-anchor="middle" x="168.38" y="-162.7" font-family="Times New Roman,serif" font-size="14.00">position: str</text>
</g>
<!-- ClassStructure&#45;&gt;LunarLander -->
<g id="edge9" class="edge">
<title>ClassStructure&#45;&gt;LunarLander</title>
<path fill="none" stroke="black" d="M145.58,-372.81C136.85,-362.55 127.91,-349.72 123.38,-336.25 113.13,-305.82 115.48,-295.13 123.38,-264 128.94,-242.07 141.58,-219.67 152.05,-203.67"/>
</g>
<!-- CalgaryNebula -->
<g id="node5" class="node">
<title>CalgaryNebula</title>
<polygon fill="none" stroke="black" points="0,-132.5 0,-227.5 106.75,-227.5 106.75,-132.5 0,-132.5"/>
<text text-anchor="middle" x="53.38" y="-210.2" font-family="Times New Roman,serif" font-size="14.00">CalgaryNebula</text>
<polyline fill="none" stroke="black" points="0,-203.75 106.75,-203.75"/>
<text text-anchor="middle" x="53.38" y="-186.45" font-family="Times New Roman,serif" font-size="14.00">composition: str</text>
<polyline fill="none" stroke="black" points="0,-180 106.75,-180"/>
<text text-anchor="middle" x="53.38" y="-162.7" font-family="Times New Roman,serif" font-size="14.00">under_womb()</text>
<polyline fill="none" stroke="black" points="0,-156.25 106.75,-156.25"/>
<text text-anchor="middle" x="53.38" y="-138.95" font-family="Times New Roman,serif" font-size="14.00">above_worn()</text>
</g>
<!-- ClassStructure&#45;&gt;CalgaryNebula -->
<g id="edge10" class="edge">
<title>ClassStructure&#45;&gt;CalgaryNebula</title>
<path fill="none" stroke="black" d="M142.86,-372.82C132.36,-362.47 120.72,-349.56 112.38,-336.25 91.08,-302.3 75.52,-259.44 65.74,-227.37"/>
</g>
<!-- Motivator -->
<g id="node6" class="node">
<title>Motivator</title>
<polygon fill="none" stroke="black" points="268.62,-132.5 268.62,-227.5 442.12,-227.5 442.12,-132.5 268.62,-132.5"/>
<text text-anchor="middle" x="355.38" y="-210.2" font-family="Times New Roman,serif" font-size="14.00">Motivator</text>
<polyline fill="none" stroke="black" points="268.62,-203.75 442.12,-203.75"/>
<text text-anchor="middle" x="355.38" y="-186.45" font-family="Times New Roman,serif" font-size="14.00">type: str</text>
<polyline fill="none" stroke="black" points="268.62,-180 442.12,-180"/>
<text text-anchor="middle" x="355.38" y="-162.7" font-family="Times New Roman,serif" font-size="14.00">activation_function: Callable</text>
<polyline fill="none" stroke="black" points="268.62,-156.25 442.12,-156.25"/>
<text text-anchor="middle" x="355.38" y="-138.95" font-family="Times New Roman,serif" font-size="14.00">motivate()</text>
</g>
<!-- ClassStructure&#45;&gt;Motivator -->
<g id="edge11" class="edge">
<title>ClassStructure&#45;&gt;Motivator</title>
<path fill="none" stroke="black" d="M266.77,-383.22C295.75,-374.67 324.67,-360.31 343.38,-336.25 367.1,-305.73 368.06,-260.86 364.29,-227.2"/>
</g>
<!-- ActionMixin -->
<g id="node3" class="node">
<title>ActionMixin</title>
<polygon fill="none" stroke="black" points="112.75,-0.5 112.75,-95.5 224,-95.5 224,-0.5 112.75,-0.5"/>
<text text-anchor="middle" x="168.38" y="-78.2" font-family="Times New Roman,serif" font-size="14.00">ActionMixin</text>
<polyline fill="none" stroke="black" points="112.75,-71.75 224,-71.75"/>
<text text-anchor="middle" x="168.38" y="-54.45" font-family="Times New Roman,serif" font-size="14.00">collapse_solar()</text>
<polyline fill="none" stroke="black" points="112.75,-48 224,-48"/>
<text text-anchor="middle" x="168.38" y="-30.7" font-family="Times New Roman,serif" font-size="14.00">oedipial_sunset()</text>
<polyline fill="none" stroke="black" points="112.75,-24.25 224,-24.25"/>
<text text-anchor="middle" x="168.38" y="-6.95" font-family="Times New Roman,serif" font-size="14.00">freudian_renna()</text>
</g>
<!-- AbstractEntity&#45;&gt;ActionMixin -->
<g id="edge2" class="edge">
<title>AbstractEntity&#45;&gt;ActionMixin</title>
<path fill="none" stroke="black" d="M235.77,-264.56C237.04,-230.08 235.97,-176.04 221.38,-132 217.18,-119.34 210.62,-106.69 203.53,-95.22"/>
</g>
<!-- AbstractEntity&#45;&gt;LunarLander -->
<g id="edge3" class="edge">
<title>AbstractEntity&#45;&gt;LunarLander</title>
<path fill="none" stroke="black" d="M214.4,-264.64C203.53,-244.89 190.21,-220.68 180.7,-203.4"/>
</g>
<!-- AbstractEntity&#45;&gt;CalgaryNebula -->
<g id="edge4" class="edge">
<title>AbstractEntity&#45;&gt;CalgaryNebula</title>
<path fill="none" stroke="black" d="M173.18,-264.52C154.4,-253.28 133.79,-240.48 115.38,-228 112.47,-226.03 109.51,-223.98 106.55,-221.87"/>
</g>
<!-- AbstractEntity&#45;&gt;Motivator -->
<g id="edge5" class="edge">
<title>AbstractEntity&#45;&gt;Motivator</title>
<path fill="none" stroke="black" d="M262.79,-264.64C274.33,-252.93 287.92,-239.65 301.09,-227.17"/>
</g>
<!-- LunarLander&#45;&gt;ActionMixin -->
<g id="edge6" class="edge">
<title>LunarLander&#45;&gt;ActionMixin</title>
<path fill="none" stroke="black" d="M168.38,-156.36C168.38,-139.55 168.38,-116.06 168.38,-95.33"/>
</g>
<!-- CalgaryNebula&#45;&gt;ActionMixin -->
<g id="edge7" class="edge">
<title>CalgaryNebula&#45;&gt;ActionMixin</title>
<path fill="none" stroke="black" d="M94.24,-132.8C104.96,-120.69 116.52,-107.62 127.25,-95.49"/>
</g>
<!-- Motivator&#45;&gt;AbstractEntity -->
<g id="edge8" class="edge">
<title>Motivator&#45;&gt;AbstractEntity</title>
<path fill="none" stroke="black" d="M314.3,-227.17C301.7,-239.65 287.84,-252.93 275.19,-264.64"/>
</g>
</g>
</svg>
