<?xml version="1.0" encoding="UTF-8" standalone="no"?>
<!DOCTYPE svg PUBLIC "-//W3C//DTD SVG 1.1//EN"
 "http://www.w3.org/Graphics/SVG/1.1/DTD/svg11.dtd">
<!-- Generated by graphviz version 8.1.0 (20230707.0739)
 -->
<!-- Title: ProgramGraph Pages: 1 -->
<svg width="491pt" height="311pt"
 viewBox="0.00 0.00 490.50 310.75" xmlns="http://www.w3.org/2000/svg" xmlns:xlink="http://www.w3.org/1999/xlink">
<g id="graph0" class="graph" transform="scale(1 1) rotate(0) translate(4 306.75)">
<title>ProgramGraph</title>
<polygon fill="white" stroke="none" points="-4,4 -4,-306.75 486.5,-306.75 486.5,4 -4,4"/>
<!-- class_Synchronizable -->
<g id="node1" class="node">
<title>class_Synchronizable</title>
<polygon fill="none" stroke="black" points="322.5,-215 189.5,-215 189.5,-179 322.5,-179 322.5,-215"/>
<text text-anchor="middle" x="256" y="-191.57" font-family="Times New Roman,serif" font-size="14.00">class Synchronizable</text>
</g>
<!-- class_Thread -->
<g id="node6" class="node">
<title>class_Thread</title>
<polygon fill="none" stroke="black" points="281.38,-127.25 156.62,-127.25 156.62,-87.75 281.38,-87.75 281.38,-127.25"/>
<text text-anchor="middle" x="219" y="-109.95" font-family="Times New Roman,serif" font-size="14.00">class Thread</text>
<text text-anchor="middle" x="219" y="-94.2" font-family="Times New Roman,serif" font-size="14.00">(Threading.Thread)</text>
</g>
<!-- class_Synchronizable&#45;&gt;class_Thread -->
<g id="edge1" class="edge">
<title>class_Synchronizable&#45;&gt;class_Thread</title>
<path fill="none" stroke="black" d="M252.53,-178.66C250.21,-168.65 246.71,-155.96 242,-145.25 240.75,-142.41 239.31,-139.53 237.76,-136.69"/>
<polygon fill="black" stroke="black" points="240.36,-135.21 232.27,-128.37 234.33,-138.77 240.36,-135.21"/>
<text text-anchor="middle" x="269.38" y="-147.7" font-family="Times New Roman,serif" font-size="14.00">extends</text>
</g>
<!-- class_Prometheus -->
<g id="node2" class="node">
<title>class_Prometheus</title>
<polygon fill="none" stroke="black" points="287.75,-36 174.25,-36 174.25,0 287.75,0 287.75,-36"/>
<text text-anchor="middle" x="231" y="-12.57" font-family="Times New Roman,serif" font-size="14.00">class Prometheus</text>
</g>
<!-- class_Prometheus&#45;&gt;class_Thread -->
<g id="edge2" class="edge">
<title>class_Prometheus&#45;&gt;class_Thread</title>
<path fill="none" stroke="black" d="M270.96,-36.34C285.14,-45.12 295.84,-56.69 288,-69.75 285.6,-73.74 282.61,-77.33 279.22,-80.54"/>
<polygon fill="black" stroke="black" points="277.31,-78.38 271.7,-87.37 281.69,-83.85 277.31,-78.38"/>
<text text-anchor="middle" x="312.38" y="-56.45" font-family="Times New Roman,serif" font-size="14.00">extends</text>
</g>
<!-- class_ReverseArray -->
<g id="node3" class="node">
<title>class_ReverseArray</title>
<polygon fill="none" stroke="black" points="124,-36 0,-36 0,0 124,0 124,-36"/>
<text text-anchor="middle" x="62" y="-12.57" font-family="Times New Roman,serif" font-size="14.00">class ReverseArray</text>
</g>
<!-- class_ReverseArray&#45;&gt;class_Thread -->
<g id="edge3" class="edge">
<title>class_ReverseArray&#45;&gt;class_Thread</title>
<path fill="none" stroke="black" d="M97.35,-36.34C108.22,-41.84 120.18,-48.04 131,-54 146.72,-62.66 163.72,-72.65 178.55,-81.58"/>
<polygon fill="black" stroke="black" points="176.57,-85.08 186.94,-87.26 180.2,-79.09 176.57,-85.08"/>
<text text-anchor="middle" x="179.38" y="-56.45" font-family="Times New Roman,serif" font-size="14.00">extends</text>
</g>
<!-- class_Amountable -->
<g id="node4" class="node">
<title>class_Amountable</title>
<polygon fill="none" stroke="black" points="466.5,-36 351.5,-36 351.5,0 466.5,0 466.5,-36"/>
<text text-anchor="middle" x="409" y="-12.57" font-family="Times New Roman,serif" font-size="14.00">class Amountable</text>
</g>
<!-- class_Amountable&#45;&gt;class_Thread -->
<g id="edge4" class="edge">
<title>class_Amountable&#45;&gt;class_Thread</title>
<path fill="none" stroke="black" d="M388.39,-36.45C374.79,-47.25 356.19,-60.74 338,-69.75 323.54,-76.92 307.39,-83.03 291.77,-88.09"/>
<polygon fill="black" stroke="black" points="291.11,-84.94 282.61,-91.27 293.2,-91.63 291.11,-84.94"/>
<text text-anchor="middle" x="384.38" y="-56.45" font-family="Times New Roman,serif" font-size="14.00">extends</text>
</g>
<!-- class_MainProgram -->
<g id="node5" class="node">
<title>class_MainProgram</title>
<polygon fill="none" stroke="black" points="190.62,-302.75 67.38,-302.75 67.38,-266.75 190.62,-266.75 190.62,-302.75"/>
<text text-anchor="middle" x="129" y="-279.32" font-family="Times New Roman,serif" font-size="14.00">class MainProgram</text>
</g>
<!-- class_MainProgram&#45;&gt;class_Synchronizable -->
<g id="edge6" class="edge">
<title>class_MainProgram&#45;&gt;class_Synchronizable</title>
<path fill="none" stroke="black" d="M154.7,-266.4C173.89,-253.44 200.33,-235.59 221.39,-221.37"/>
<polygon fill="black" stroke="black" points="223.01,-223.82 229.34,-215.33 219.09,-218.02 223.01,-223.82"/>
<text text-anchor="middle" x="216.38" y="-235.45" font-family="Times New Roman,serif" font-size="14.00">uses</text>
</g>
<!-- class_MainProgram&#45;&gt;class_ReverseArray -->
<g id="edge7" class="edge">
<title>class_MainProgram&#45;&gt;class_ReverseArray</title>
<path fill="none" stroke="black" d="M120.24,-266.3C102.84,-230.54 64.44,-145.88 51,-69.75 49.69,-62.32 50.41,-54.33 51.97,-46.93"/>
<polygon fill="black" stroke="black" points="55.61,-47.88 54.84,-37.32 48.86,-46.06 55.61,-47.88"/>
<text text-anchor="middle" x="88.38" y="-147.7" font-family="Times New Roman,serif" font-size="14.00">uses</text>
</g>
<!-- class_MainProgram&#45;&gt;class_Thread -->
<g id="edge5" class="edge">
<title>class_MainProgram&#45;&gt;class_Thread</title>
<path fill="none" stroke="black" d="M127.35,-266.38C125.99,-245.02 125.84,-208.03 137.25,-179 144.47,-160.63 159.59,-145.44 174.88,-133.92"/>
<polygon fill="black" stroke="black" points="176.71,-136.21 182.85,-127.57 172.66,-130.5 176.71,-136.21"/>
<text text-anchor="middle" x="159.38" y="-191.57" font-family="Times New Roman,serif" font-size="14.00">extends</text>
</g>
<!-- class_Thread&#45;&gt;class_Synchronizable -->
<g id="edge8" class="edge">
<title>class_Thread&#45;&gt;class_Synchronizable</title>
<path fill="none" stroke="black" d="M184.15,-127.71C171.68,-137.15 162.48,-149.05 170.5,-161 173.42,-165.35 176.98,-169.16 180.98,-172.49"/>
<polygon fill="black" stroke="black" points="178.55,-175.77 188.74,-178.7 182.6,-170.06 178.55,-175.77"/>
<text text-anchor="middle" x="204.75" y="-147.7" font-family="Times New Roman,serif" font-size="14.00">has instance</text>
</g>
<!-- class_Thread&#45;&gt;class_Prometheus -->
<g id="edge9" class="edge">
<title>class_Thread&#45;&gt;class_Prometheus</title>
<path fill="none" stroke="black" d="M215.88,-87.38C214.79,-77.35 214.33,-64.92 216.5,-54 217,-51.5 217.68,-48.95 218.47,-46.42"/>
<polygon fill="black" stroke="black" points="222.01,-47.97 222.23,-37.38 215.45,-45.52 222.01,-47.97"/>
<text text-anchor="middle" x="250.75" y="-56.45" font-family="Times New Roman,serif" font-size="14.00">has instance</text>
</g>
<!-- class_Thread&#45;&gt;class_ReverseArray -->
<g id="edge10" class="edge">
<title>class_Thread&#45;&gt;class_ReverseArray</title>
<path fill="none" stroke="black" d="M156.36,-100.05C117.1,-94.57 71.71,-85.09 59.5,-69.75 54.44,-63.39 53.35,-55.04 54.02,-46.95"/>
<polygon fill="black" stroke="black" points="57.6,-47.73 55.82,-37.29 50.7,-46.56 57.6,-47.73"/>
<text text-anchor="middle" x="93.75" y="-56.45" font-family="Times New Roman,serif" font-size="14.00">has instance</text>
</g>
<!-- class_Thread&#45;&gt;class_Amountable -->
<g id="edge11" class="edge">
<title>class_Thread&#45;&gt;class_Amountable</title>
<path fill="none" stroke="black" d="M281.83,-102.86C331.07,-98.54 393.87,-89.28 410,-69.75 415.17,-63.49 416.49,-55.16 416.06,-47.07"/>
<polygon fill="black" stroke="black" points="419.42,-46.82 414.59,-37.39 412.49,-47.77 419.42,-46.82"/>
<text text-anchor="middle" x="448.75" y="-56.45" font-family="Times New Roman,serif" font-size="14.00">has instance</text>
</g>
</g>
</svg>
