<?xml version="1.0" encoding="UTF-8" standalone="no"?>
<!DOCTYPE svg PUBLIC "-//W3C//DTD SVG 1.1//EN"
 "http://www.w3.org/Graphics/SVG/1.1/DTD/svg11.dtd">
<!-- Generated by graphviz version 8.1.0 (20230707.0739)
 -->
<!-- Title: qd1d2 Pages: 1 -->
<svg width="1465pt" height="548pt"
 viewBox="0.00 0.00 1465.02 548.00" xmlns="http://www.w3.org/2000/svg" xmlns:xlink="http://www.w3.org/1999/xlink">
<g id="graph0" class="graph" transform="scale(1 1) rotate(0) translate(4 544)">
<title>qd1d2</title>
<polygon fill="white" stroke="none" points="-4,4 -4,-544 1461.02,-544 1461.02,4 -4,4"/>
<!-- GlobalSystemDynamics -->
<g id="node1" class="node">
<title>GlobalSystemDynamics</title>
<ellipse fill="none" stroke="black" cx="124.42" cy="-72" rx="99.97" ry="18"/>
<text text-anchor="middle" x="124.42" y="-66.58" font-family="Times New Roman,serif" font-size="14.00">GlobalSystemDynamics</text>
</g>
<!-- EnvironmentalInfluences -->
<g id="node2" class="node">
<title>EnvironmentalInfluences</title>
<ellipse fill="none" stroke="black" cx="401.76" cy="-126" rx="101.46" ry="18"/>
<text text-anchor="middle" x="401.76" y="-120.58" font-family="Times New Roman,serif" font-size="14.00">EnvironmentalInfluences</text>
</g>
<!-- GlobalSystemDynamics&#45;&gt;EnvironmentalInfluences -->
<g id="edge1" class="edge">
<title>GlobalSystemDynamics&#45;&gt;EnvironmentalInfluences</title>
<path fill="none" stroke="black" d="M193.48,-85.35C232.22,-92.95 280.94,-102.5 321.41,-110.44"/>
<polygon fill="black" stroke="black" points="320.56,-114.03 331.05,-112.52 321.91,-107.17 320.56,-114.03"/>
</g>
<!-- SocietalImpact -->
<g id="node3" class="node">
<title>SocietalImpact</title>
<ellipse fill="none" stroke="black" cx="401.76" cy="-72" rx="66.03" ry="18"/>
<text text-anchor="middle" x="401.76" y="-66.58" font-family="Times New Roman,serif" font-size="14.00">SocietalImpact</text>
</g>
<!-- GlobalSystemDynamics&#45;&gt;SocietalImpact -->
<g id="edge2" class="edge">
<title>GlobalSystemDynamics&#45;&gt;SocietalImpact</title>
<path fill="none" stroke="black" d="M224.82,-72C257.76,-72 293.86,-72 324.75,-72"/>
<polygon fill="black" stroke="black" points="324.44,-75.5 334.44,-72 324.44,-68.5 324.44,-75.5"/>
</g>
<!-- HighLevelCharacteristics -->
<g id="node4" class="node">
<title>HighLevelCharacteristics</title>
<ellipse fill="none" stroke="black" cx="401.76" cy="-18" rx="102.96" ry="18"/>
<text text-anchor="middle" x="401.76" y="-12.57" font-family="Times New Roman,serif" font-size="14.00">HighLevelCharacteristics</text>
</g>
<!-- GlobalSystemDynamics&#45;&gt;HighLevelCharacteristics -->
<g id="edge3" class="edge">
<title>GlobalSystemDynamics&#45;&gt;HighLevelCharacteristics</title>
<path fill="none" stroke="black" d="M193.48,-58.65C232.07,-51.08 280.57,-41.57 320.95,-33.65"/>
<polygon fill="black" stroke="black" points="321.43,-36.93 330.57,-31.57 320.08,-30.06 321.43,-36.93"/>
</g>
<!-- EconomicSubsystem -->
<g id="node5" class="node">
<title>EconomicSubsystem</title>
<ellipse fill="none" stroke="black" cx="1006.86" cy="-396" rx="89.49" ry="18"/>
<text text-anchor="middle" x="1006.86" y="-390.57" font-family="Times New Roman,serif" font-size="14.00">EconomicSubsystem</text>
</g>
<!-- TechnologicalInfrastructure -->
<g id="node6" class="node">
<title>TechnologicalInfrastructure</title>
<ellipse fill="none" stroke="black" cx="1319.13" cy="-450" rx="112.94" ry="18"/>
<text text-anchor="middle" x="1319.13" y="-444.57" font-family="Times New Roman,serif" font-size="14.00">TechnologicalInfrastructure</text>
</g>
<!-- EconomicSubsystem&#45;&gt;TechnologicalInfrastructure -->
<g id="edge4" class="edge">
<title>EconomicSubsystem&#45;&gt;TechnologicalInfrastructure</title>
<path fill="none" stroke="black" d="M1075.95,-407.85C1121.4,-415.76 1181.6,-426.24 1230.6,-434.77"/>
<polygon fill="black" stroke="black" points="1229.75,-438.34 1240.2,-436.61 1230.95,-431.45 1229.75,-438.34"/>
</g>
<!-- PoliticalStructures -->
<g id="node7" class="node">
<title>PoliticalStructures</title>
<ellipse fill="none" stroke="black" cx="1319.13" cy="-342" rx="78.01" ry="18"/>
<text text-anchor="middle" x="1319.13" y="-336.57" font-family="Times New Roman,serif" font-size="14.00">PoliticalStructures</text>
</g>
<!-- EconomicSubsystem&#45;&gt;PoliticalStructures -->
<g id="edge5" class="edge">
<title>EconomicSubsystem&#45;&gt;PoliticalStructures</title>
<path fill="none" stroke="black" d="M1075.95,-384.15C1126,-375.44 1193.91,-363.62 1245.09,-354.71"/>
<polygon fill="black" stroke="black" points="1245.49,-358.02 1254.74,-352.86 1244.29,-351.13 1245.49,-358.02"/>
</g>
<!-- CulturalSocialInfluences -->
<g id="node8" class="node">
<title>CulturalSocialInfluences</title>
<ellipse fill="none" stroke="black" cx="1319.13" cy="-207" rx="100.46" ry="18"/>
<text text-anchor="middle" x="1319.13" y="-201.57" font-family="Times New Roman,serif" font-size="14.00">CulturalSocialInfluences</text>
</g>
<!-- EconomicSubsystem&#45;&gt;CulturalSocialInfluences -->
<g id="edge6" class="edge">
<title>EconomicSubsystem&#45;&gt;CulturalSocialInfluences</title>
<path fill="none" stroke="black" d="M1092.24,-390.18C1110.8,-386.06 1129.58,-379.46 1145.25,-369 1169.24,-352.99 1161.68,-336.2 1181.25,-315 1211.63,-282.08 1252.63,-251.13 1281.82,-230.88"/>
<polygon fill="black" stroke="black" points="1283.58,-233.23 1289.85,-224.69 1279.62,-227.45 1283.58,-233.23"/>
</g>
<!-- InteractionsAmongGlobalSystems -->
<g id="node9" class="node">
<title>InteractionsAmongGlobalSystems</title>
<ellipse fill="none" stroke="black" cx="1319.13" cy="-396" rx="137.89" ry="18"/>
<text text-anchor="middle" x="1319.13" y="-390.57" font-family="Times New Roman,serif" font-size="14.00">InteractionsAmongGlobalSystems</text>
</g>
<!-- EconomicSubsystem&#45;&gt;InteractionsAmongGlobalSystems -->
<g id="edge7" class="edge">
<title>EconomicSubsystem&#45;&gt;InteractionsAmongGlobalSystems</title>
<path fill="none" stroke="black" d="M1096.77,-396C1119.73,-396 1145.06,-396 1170.15,-396"/>
<polygon fill="black" stroke="black" points="1169.88,-399.5 1179.88,-396 1169.88,-392.5 1169.88,-399.5"/>
</g>
<!-- EconomicSubsystemMarket -->
<g id="node10" class="node">
<title>EconomicSubsystemMarket</title>
<ellipse fill="none" stroke="black" cx="693.58" cy="-450" rx="115.43" ry="18"/>
<text text-anchor="middle" x="693.58" y="-444.57" font-family="Times New Roman,serif" font-size="14.00">EconomicSubsystemMarket</text>
</g>
<!-- EconomicSubsystemMarket&#45;&gt;EconomicSubsystem -->
<g id="edge8" class="edge">
<title>EconomicSubsystemMarket&#45;&gt;EconomicSubsystem</title>
<path fill="none" stroke="black" d="M772.33,-436.51C819.52,-428.33 879.59,-417.9 926.99,-409.68"/>
<polygon fill="black" stroke="black" points="927.57,-412.96 936.82,-407.8 926.37,-406.06 927.57,-412.96"/>
</g>
<!-- EconomicSubsystemLabor -->
<g id="node11" class="node">
<title>EconomicSubsystemLabor</title>
<ellipse fill="none" stroke="black" cx="693.58" cy="-396" rx="111.94" ry="18"/>
<text text-anchor="middle" x="693.58" y="-390.57" font-family="Times New Roman,serif" font-size="14.00">EconomicSubsystemLabor</text>
</g>
<!-- EconomicSubsystemLabor&#45;&gt;EconomicSubsystem -->
<g id="edge9" class="edge">
<title>EconomicSubsystemLabor&#45;&gt;EconomicSubsystem</title>
<path fill="none" stroke="black" d="M805.64,-396C838.58,-396 874.43,-396 906.58,-396"/>
<polygon fill="black" stroke="black" points="906.33,-399.5 916.33,-396 906.33,-392.5 906.33,-399.5"/>
</g>
<!-- TechnologicalInfrastructureInfo -->
<g id="node12" class="node">
<title>TechnologicalInfrastructureInfo</title>
<ellipse fill="none" stroke="black" cx="1006.86" cy="-504" rx="128.41" ry="18"/>
<text text-anchor="middle" x="1006.86" y="-498.57" font-family="Times New Roman,serif" font-size="14.00">TechnologicalInfrastructureInfo</text>
</g>
<!-- TechnologicalInfrastructureInfo&#45;&gt;TechnologicalInfrastructure -->
<g id="edge10" class="edge">
<title>TechnologicalInfrastructureInfo&#45;&gt;TechnologicalInfrastructure</title>
<path fill="none" stroke="black" d="M1089.38,-489.81C1132.76,-482.26 1186.13,-472.97 1230.4,-465.27"/>
<polygon fill="black" stroke="black" points="1230.91,-468.56 1240.16,-463.4 1229.71,-461.66 1230.91,-468.56"/>
</g>
<!-- TechnologicalInfrastructureComm -->
<g id="node13" class="node">
<title>TechnologicalInfrastructureComm</title>
<ellipse fill="none" stroke="black" cx="1006.86" cy="-450" rx="138.39" ry="18"/>
<text text-anchor="middle" x="1006.86" y="-444.57" font-family="Times New Roman,serif" font-size="14.00">TechnologicalInfrastructureComm</text>
</g>
<!-- TechnologicalInfrastructureComm&#45;&gt;TechnologicalInfrastructure -->
<g id="edge11" class="edge">
<title>TechnologicalInfrastructureComm&#45;&gt;TechnologicalInfrastructure</title>
<path fill="none" stroke="black" d="M1145.3,-450C1161.93,-450 1178.82,-450 1195.22,-450"/>
<polygon fill="black" stroke="black" points="1194.91,-453.5 1204.91,-450 1194.91,-446.5 1194.91,-453.5"/>
</g>
<!-- PoliticalStructuresGov -->
<g id="node14" class="node">
<title>PoliticalStructuresGov</title>
<ellipse fill="none" stroke="black" cx="1006.86" cy="-342" rx="94.48" ry="18"/>
<text text-anchor="middle" x="1006.86" y="-336.57" font-family="Times New Roman,serif" font-size="14.00">PoliticalStructuresGov</text>
</g>
<!-- PoliticalStructuresGov&#45;&gt;PoliticalStructures -->
<g id="edge12" class="edge">
<title>PoliticalStructuresGov&#45;&gt;PoliticalStructures</title>
<path fill="none" stroke="black" d="M1101.79,-342C1142.48,-342 1189.85,-342 1229.87,-342"/>
<polygon fill="black" stroke="black" points="1229.68,-345.5 1239.68,-342 1229.68,-338.5 1229.68,-345.5"/>
</g>
<!-- PoliticalStructuresIntl -->
<g id="node15" class="node">
<title>PoliticalStructuresIntl</title>
<ellipse fill="none" stroke="black" cx="1006.86" cy="-288" rx="89.99" ry="18"/>
<text text-anchor="middle" x="1006.86" y="-282.57" font-family="Times New Roman,serif" font-size="14.00">PoliticalStructuresIntl</text>
</g>
<!-- PoliticalStructuresIntl&#45;&gt;PoliticalStructures -->
<g id="edge13" class="edge">
<title>PoliticalStructuresIntl&#45;&gt;PoliticalStructures</title>
<path fill="none" stroke="black" d="M1075.95,-299.85C1126,-308.56 1193.91,-320.38 1245.09,-329.29"/>
<polygon fill="black" stroke="black" points="1244.29,-332.87 1254.74,-331.14 1245.49,-325.98 1244.29,-332.87"/>
</g>
<!-- SocialInfluencesCultural -->
<g id="node16" class="node">
<title>SocialInfluencesCultural</title>
<ellipse fill="none" stroke="black" cx="1006.86" cy="-234" rx="100.46" ry="18"/>
<text text-anchor="middle" x="1006.86" y="-228.57" font-family="Times New Roman,serif" font-size="14.00">SocialInfluencesCultural</text>
</g>
<!-- SocialInfluencesCultural&#45;&gt;CulturalSocialInfluences -->
<g id="edge14" class="edge">
<title>SocialInfluencesCultural&#45;&gt;CulturalSocialInfluences</title>
<path fill="none" stroke="black" d="M1098.02,-226.15C1135.39,-222.9 1178.9,-219.12 1217.32,-215.77"/>
<polygon fill="black" stroke="black" points="1217.36,-219.2 1227.02,-214.84 1216.75,-212.22 1217.36,-219.2"/>
</g>
<!-- SocialInfluencesDemographic -->
<g id="node17" class="node">
<title>SocialInfluencesDemographic</title>
<ellipse fill="none" stroke="black" cx="1006.86" cy="-180" rx="121.42" ry="18"/>
<text text-anchor="middle" x="1006.86" y="-174.57" font-family="Times New Roman,serif" font-size="14.00">SocialInfluencesDemographic</text>
</g>
<!-- SocialInfluencesDemographic&#45;&gt;CulturalSocialInfluences -->
<g id="edge15" class="edge">
<title>SocialInfluencesDemographic&#45;&gt;CulturalSocialInfluences</title>
<path fill="none" stroke="black" d="M1112.47,-189.1C1146.28,-192.05 1183.69,-195.3 1217.23,-198.22"/>
<polygon fill="black" stroke="black" points="1216.71,-201.77 1226.98,-199.15 1217.32,-194.8 1216.71,-201.77"/>
</g>
<!-- InteractionsLocalizedMicro -->
<g id="node18" class="node">
<title>InteractionsLocalizedMicro</title>
<ellipse fill="none" stroke="black" cx="1006.86" cy="-126" rx="112.44" ry="18"/>
<text text-anchor="middle" x="1006.86" y="-120.58" font-family="Times New Roman,serif" font-size="14.00">InteractionsLocalizedMicro</text>
</g>
<!-- InteractionsLocalizedMicro&#45;&gt;CulturalSocialInfluences -->
<g id="edge16" class="edge">
<title>InteractionsLocalizedMicro&#45;&gt;CulturalSocialInfluences</title>
<path fill="none" stroke="black" d="M1084.13,-139.46C1104.11,-143.4 1125.57,-148.01 1145.25,-153 1184.33,-162.91 1227.64,-176.44 1261.14,-187.48"/>
<polygon fill="black" stroke="black" points="1259.61,-190.99 1270.2,-190.82 1261.81,-184.35 1259.61,-190.99"/>
</g>
<!-- MarketDynamicsSpecific -->
<g id="node19" class="node">
<title>MarketDynamicsSpecific</title>
<ellipse fill="none" stroke="black" cx="401.76" cy="-450" rx="103.96" ry="18"/>
<text text-anchor="middle" x="401.76" y="-444.57" font-family="Times New Roman,serif" font-size="14.00">MarketDynamicsSpecific</text>
</g>
<!-- MarketDynamicsSpecific&#45;&gt;EconomicSubsystemMarket -->
<g id="edge17" class="edge">
<title>MarketDynamicsSpecific&#45;&gt;EconomicSubsystemMarket</title>
<path fill="none" stroke="black" d="M506.17,-450C525.87,-450 546.7,-450 567,-450"/>
<polygon fill="black" stroke="black" points="566.89,-453.5 576.89,-450 566.89,-446.5 566.89,-453.5"/>
</g>
<!-- InfoSystemsIndividual -->
<g id="node20" class="node">
<title>InfoSystemsIndividual</title>
<ellipse fill="none" stroke="black" cx="693.58" cy="-504" rx="93.98" ry="18"/>
<text text-anchor="middle" x="693.58" y="-498.57" font-family="Times New Roman,serif" font-size="14.00">InfoSystemsIndividual</text>
</g>
<!-- InfoSystemsIndividual&#45;&gt;TechnologicalInfrastructureInfo -->
<g id="edge18" class="edge">
<title>InfoSystemsIndividual&#45;&gt;TechnologicalInfrastructureInfo</title>
<path fill="none" stroke="black" d="M787.98,-504C812.95,-504 840.49,-504 867.34,-504"/>
<polygon fill="black" stroke="black" points="866.99,-507.5 876.99,-504 866.99,-500.5 866.99,-507.5"/>
</g>
<!-- GovPoliciesSpecific -->
<g id="node21" class="node">
<title>GovPoliciesSpecific</title>
<ellipse fill="none" stroke="black" cx="693.58" cy="-342" rx="86.49" ry="18"/>
<text text-anchor="middle" x="693.58" y="-336.57" font-family="Times New Roman,serif" font-size="14.00">GovPoliciesSpecific</text>
</g>
<!-- GovPoliciesSpecific&#45;&gt;PoliticalStructuresGov -->
<g id="edge19" class="edge">
<title>GovPoliciesSpecific&#45;&gt;PoliticalStructuresGov</title>
<path fill="none" stroke="black" d="M780.46,-342C817.8,-342 861.89,-342 901.13,-342"/>
<polygon fill="black" stroke="black" points="901.06,-345.5 911.06,-342 901.06,-338.5 901.06,-345.5"/>
</g>
<!-- CulturalNormsSpecific -->
<g id="node22" class="node">
<title>CulturalNormsSpecific</title>
<ellipse fill="none" stroke="black" cx="693.58" cy="-234" rx="95.47" ry="18"/>
<text text-anchor="middle" x="693.58" y="-228.57" font-family="Times New Roman,serif" font-size="14.00">CulturalNormsSpecific</text>
</g>
<!-- CulturalNormsSpecific&#45;&gt;SocialInfluencesCultural -->
<g id="edge20" class="edge">
<title>CulturalNormsSpecific&#45;&gt;SocialInfluencesCultural</title>
<path fill="none" stroke="black" d="M789.24,-234C822.72,-234 860.66,-234 895.33,-234"/>
<polygon fill="black" stroke="black" points="894.98,-237.5 904.98,-234 894.98,-230.5 894.98,-237.5"/>
</g>
<!-- DemographicSpecific -->
<g id="node23" class="node">
<title>DemographicSpecific</title>
<ellipse fill="none" stroke="black" cx="693.58" cy="-180" rx="90.98" ry="18"/>
<text text-anchor="middle" x="693.58" y="-174.57" font-family="Times New Roman,serif" font-size="14.00">DemographicSpecific</text>
</g>
<!-- DemographicSpecific&#45;&gt;SocialInfluencesDemographic -->
<g id="edge21" class="edge">
<title>DemographicSpecific&#45;&gt;SocialInfluencesDemographic</title>
<path fill="none" stroke="black" d="M785.03,-180C812.85,-180 844.06,-180 874.06,-180"/>
<polygon fill="black" stroke="black" points="874.05,-183.5 884.05,-180 874.05,-176.5 874.05,-183.5"/>
</g>
<!-- InteractionsMolecularComponents -->
<g id="node24" class="node">
<title>InteractionsMolecularComponents</title>
<ellipse fill="none" stroke="black" cx="693.58" cy="-126" rx="138.89" ry="18"/>
<text text-anchor="middle" x="693.58" y="-120.58" font-family="Times New Roman,serif" font-size="14.00">InteractionsMolecularComponents</text>
</g>
<!-- InteractionsMolecularComponents&#45;&gt;InteractionsLocalizedMicro -->
<g id="edge22" class="edge">
<title>InteractionsMolecularComponents&#45;&gt;InteractionsLocalizedMicro</title>
<path fill="none" stroke="black" d="M832.92,-126C849.71,-126 866.76,-126 883.29,-126"/>
<polygon fill="black" stroke="black" points="883.07,-129.5 893.07,-126 883.07,-122.5 883.07,-129.5"/>
</g>
<!-- EconomicIndicatorsMetrics -->
<g id="node25" class="node">
<title>EconomicIndicatorsMetrics</title>
<ellipse fill="none" stroke="black" cx="124.42" cy="-450" rx="113.94" ry="18"/>
<text text-anchor="middle" x="124.42" y="-444.57" font-family="Times New Roman,serif" font-size="14.00">EconomicIndicatorsMetrics</text>
</g>
<!-- EconomicIndicatorsMetrics&#45;&gt;MarketDynamicsSpecific -->
<g id="edge23" class="edge">
<title>EconomicIndicatorsMetrics&#45;&gt;MarketDynamicsSpecific</title>
<path fill="none" stroke="black" d="M238.6,-450C254.51,-450 270.87,-450 286.79,-450"/>
<polygon fill="black" stroke="black" points="286.74,-453.5 296.74,-450 286.74,-446.5 286.74,-453.5"/>
</g>
<!-- InfoSystemsSourceCode -->
<g id="node26" class="node">
<title>InfoSystemsSourceCode</title>
<ellipse fill="none" stroke="black" cx="401.76" cy="-504" rx="104.46" ry="18"/>
<text text-anchor="middle" x="401.76" y="-498.57" font-family="Times New Roman,serif" font-size="14.00">InfoSystemsSourceCode</text>
</g>
<!-- InfoSystemsSourceCode&#45;&gt;InfoSystemsIndividual -->
<g id="edge24" class="edge">
<title>InfoSystemsSourceCode&#45;&gt;InfoSystemsIndividual</title>
<path fill="none" stroke="black" d="M506.58,-504C533.13,-504 561.69,-504 588.27,-504"/>
<polygon fill="black" stroke="black" points="588.13,-507.5 598.13,-504 588.13,-500.5 588.13,-507.5"/>
</g>
<!-- LegislativeTextsFrameworks -->
<g id="node27" class="node">
<title>LegislativeTextsFrameworks</title>
<ellipse fill="none" stroke="black" cx="401.76" cy="-342" rx="116.93" ry="18"/>
<text text-anchor="middle" x="401.76" y="-336.57" font-family="Times New Roman,serif" font-size="14.00">LegislativeTextsFrameworks</text>
</g>
<!-- LegislativeTextsFrameworks&#45;&gt;GovPoliciesSpecific -->
<g id="edge25" class="edge">
<title>LegislativeTextsFrameworks&#45;&gt;GovPoliciesSpecific</title>
<path fill="none" stroke="black" d="M518.97,-342C544.49,-342 571.24,-342 595.89,-342"/>
<polygon fill="black" stroke="black" points="595.69,-345.5 605.69,-342 595.69,-338.5 595.69,-345.5"/>
</g>
<!-- CulturalPracticesTraditions -->
<g id="node28" class="node">
<title>CulturalPracticesTraditions</title>
<ellipse fill="none" stroke="black" cx="401.76" cy="-234" rx="111.44" ry="18"/>
<text text-anchor="middle" x="401.76" y="-228.57" font-family="Times New Roman,serif" font-size="14.00">CulturalPracticesTraditions</text>
</g>
<!-- CulturalPracticesTraditions&#45;&gt;CulturalNormsSpecific -->
<g id="edge26" class="edge">
<title>CulturalPracticesTraditions&#45;&gt;CulturalNormsSpecific</title>
<path fill="none" stroke="black" d="M513.57,-234C537.68,-234 563.13,-234 587.03,-234"/>
<polygon fill="black" stroke="black" points="586.9,-237.5 596.9,-234 586.9,-230.5 586.9,-237.5"/>
</g>
<!-- GeneticBiologicalFactors -->
<g id="node29" class="node">
<title>GeneticBiologicalFactors</title>
<ellipse fill="none" stroke="black" cx="401.76" cy="-180" rx="104.46" ry="18"/>
<text text-anchor="middle" x="401.76" y="-174.57" font-family="Times New Roman,serif" font-size="14.00">GeneticBiologicalFactors</text>
</g>
<!-- GeneticBiologicalFactors&#45;&gt;DemographicSpecific -->
<g id="edge27" class="edge">
<title>GeneticBiologicalFactors&#45;&gt;DemographicSpecific</title>
<path fill="none" stroke="black" d="M506.58,-180C534.25,-180 564.1,-180 591.62,-180"/>
<polygon fill="black" stroke="black" points="591.45,-183.5 601.45,-180 591.45,-176.5 591.45,-183.5"/>
</g>
<!-- IndividualInteractionsInfluence -->
<g id="node30" class="node">
<title>IndividualInteractionsInfluence</title>
<ellipse fill="none" stroke="black" cx="124.42" cy="-504" rx="124.42" ry="18"/>
<text text-anchor="middle" x="124.42" y="-498.57" font-family="Times New Roman,serif" font-size="14.00">IndividualInteractionsInfluence</text>
</g>
<!-- IndividualInteractionsInfluence&#45;&gt;IndividualInteractionsInfluence -->
<g id="edge28" class="edge">
<title>IndividualInteractionsInfluence&#45;&gt;IndividualInteractionsInfluence</title>
<path fill="none" stroke="black" d="M75.66,-520.66C64.83,-530.62 81.08,-540 124.42,-540 150.82,-540 167.17,-536.52 173.47,-531.54"/>
<polygon fill="black" stroke="black" points="176.94,-531.56 173.17,-521.66 169.94,-531.76 176.94,-531.56"/>
</g>
</g>
</svg>
