<?xml version="1.0" encoding="UTF-8" standalone="no"?>
<!DOCTYPE svg PUBLIC "-//W3C//DTD SVG 1.1//EN"
 "http://www.w3.org/Graphics/SVG/1.1/DTD/svg11.dtd">
<!-- Generated by graphviz version 8.1.0 (20230707.0739)
 -->
<!-- Title: G Pages: 1 -->
<svg width="306pt" height="260pt"
 viewBox="0.00 0.00 306.16 260.00" xmlns="http://www.w3.org/2000/svg" xmlns:xlink="http://www.w3.org/1999/xlink">
<g id="graph0" class="graph" transform="scale(1 1) rotate(0) translate(4 256)">
<title>G</title>
<polygon fill="white" stroke="none" points="-4,4 -4,-256 302.16,-256 302.16,4 -4,4"/>
<!-- main -->
<g id="node1" class="node">
<title>main</title>
<ellipse fill="none" stroke="black" cx="158.55" cy="-234" rx="28.11" ry="18"/>
<text text-anchor="middle" x="158.55" y="-228.57" font-family="Times New Roman,serif" font-size="14.00">main</text>
</g>
<!-- parse -->
<g id="node2" class="node">
<title>parse</title>
<ellipse fill="none" stroke="black" cx="114.55" cy="-162" rx="30.61" ry="18"/>
<text text-anchor="middle" x="114.55" y="-156.57" font-family="Times New Roman,serif" font-size="14.00">parse</text>
</g>
<!-- main&#45;&gt;parse -->
<g id="edge1" class="edge">
<title>main&#45;&gt;parse</title>
<path fill="none" stroke="black" d="M148.35,-216.76C143.02,-208.28 136.38,-197.71 130.39,-188.2"/>
<polygon fill="black" stroke="black" points="132.99,-186.75 124.7,-180.15 127.06,-190.48 132.99,-186.75"/>
</g>
<!-- init -->
<g id="node4" class="node">
<title>init</title>
<ellipse fill="none" stroke="black" cx="55.55" cy="-90" rx="27" ry="18"/>
<text text-anchor="middle" x="55.55" y="-84.58" font-family="Times New Roman,serif" font-size="14.00">init</text>
</g>
<!-- main&#45;&gt;init -->
<g id="edge3" class="edge">
<title>main&#45;&gt;init</title>
<path fill="none" stroke="black" d="M134.5,-224.01C115.3,-215.57 89.26,-201.07 74.55,-180 62.13,-162.19 57.57,-137.84 56.01,-119.11"/>
<polygon fill="black" stroke="black" points="59.46,-119.07 55.38,-109.29 52.47,-119.48 59.46,-119.07"/>
</g>
<!-- cleanup -->
<g id="node5" class="node">
<title>cleanup</title>
<ellipse fill="none" stroke="black" cx="202.55" cy="-162" rx="39.09" ry="18"/>
<text text-anchor="middle" x="202.55" y="-156.57" font-family="Times New Roman,serif" font-size="14.00">cleanup</text>
</g>
<!-- main&#45;&gt;cleanup -->
<g id="edge4" class="edge">
<title>main&#45;&gt;cleanup</title>
<path fill="none" stroke="black" d="M168.76,-216.76C173.96,-208.49 180.41,-198.23 186.27,-188.9"/>
<polygon fill="black" stroke="black" points="189.74,-190.96 192.1,-180.63 183.81,-187.24 189.74,-190.96"/>
</g>
<!-- printf -->
<g id="node7" class="node">
<title>printf</title>
<ellipse fill="none" stroke="black" cx="267.55" cy="-18" rx="30.61" ry="18"/>
<text text-anchor="middle" x="267.55" y="-12.57" font-family="Times New Roman,serif" font-size="14.00">printf</text>
</g>
<!-- main&#45;&gt;printf -->
<g id="edge8" class="edge">
<title>main&#45;&gt;printf</title>
<path fill="none" stroke="black" d="M183.78,-225.65C205.32,-217.96 235.18,-203.64 250.55,-180 276.85,-139.57 275.53,-81 271.8,-46.78"/>
<polygon fill="black" stroke="black" points="275.19,-46.66 270.48,-37.16 268.25,-47.52 275.19,-46.66"/>
</g>
<!-- execute -->
<g id="node3" class="node">
<title>execute</title>
<ellipse fill="none" stroke="black" cx="156.55" cy="-90" rx="38.59" ry="18"/>
<text text-anchor="middle" x="156.55" y="-84.58" font-family="Times New Roman,serif" font-size="14.00">execute</text>
</g>
<!-- parse&#45;&gt;execute -->
<g id="edge2" class="edge">
<title>parse&#45;&gt;execute</title>
<path fill="none" stroke="black" d="M124.3,-144.76C129.26,-136.49 135.42,-126.23 141.01,-116.9"/>
<polygon fill="black" stroke="black" points="144.43,-119.01 146.57,-108.63 138.43,-115.41 144.43,-119.01"/>
</g>
<!-- make_string -->
<g id="node6" class="node">
<title>make_string</title>
<ellipse fill="none" stroke="black" cx="55.55" cy="-18" rx="55.55" ry="18"/>
<text text-anchor="middle" x="55.55" y="-12.57" font-family="Times New Roman,serif" font-size="14.00">make_string</text>
</g>
<!-- execute&#45;&gt;make_string -->
<g id="edge5" class="edge">
<title>execute&#45;&gt;make_string</title>
<path fill="none" stroke="black" d="M135.63,-74.5C121.62,-64.79 102.93,-51.83 87.12,-40.88"/>
<polygon fill="black" stroke="black" points="89.42,-37.52 79.21,-34.7 85.44,-43.28 89.42,-37.52"/>
</g>
<!-- execute&#45;&gt;printf -->
<g id="edge6" class="edge">
<title>execute&#45;&gt;printf</title>
<path fill="none" stroke="black" d="M178.75,-75C195.78,-64.27 219.43,-49.35 238.05,-37.61"/>
<polygon fill="black" stroke="black" points="239.67,-40.09 246.27,-31.79 235.94,-34.17 239.67,-40.09"/>
</g>
<!-- compare -->
<g id="node8" class="node">
<title>compare</title>
<ellipse fill="none" stroke="black" cx="172.55" cy="-18" rx="43.08" ry="18"/>
<text text-anchor="middle" x="172.55" y="-12.57" font-family="Times New Roman,serif" font-size="14.00">compare</text>
</g>
<!-- execute&#45;&gt;compare -->
<g id="edge9" class="edge">
<title>execute&#45;&gt;compare</title>
<path fill="none" stroke="black" d="M160.51,-71.7C162.23,-64.15 164.3,-55.12 166.23,-46.68"/>
<polygon fill="black" stroke="black" points="169.83,-47.63 168.65,-37.1 163,-46.07 169.83,-47.63"/>
</g>
<!-- init&#45;&gt;make_string -->
<g id="edge7" class="edge">
<title>init&#45;&gt;make_string</title>
<path fill="none" stroke="black" d="M55.55,-71.7C55.55,-64.24 55.55,-55.32 55.55,-46.97"/>
<polygon fill="black" stroke="black" points="59.05,-47.1 55.55,-37.1 52.05,-47.1 59.05,-47.1"/>
</g>
</g>
</svg>
