<?xml version="1.0" encoding="UTF-8" standalone="no"?>
<!DOCTYPE svg PUBLIC "-//W3C//DTD SVG 1.1//EN"
 "http://www.w3.org/Graphics/SVG/1.1/DTD/svg11.dtd">
<!-- Generated by graphviz version 8.1.0 (20230707.0739)
 -->
<!-- Title: Limb Pages: 1 -->
<svg width="2260pt" height="116pt"
 viewBox="0.00 0.00 2259.75 116.00" xmlns="http://www.w3.org/2000/svg" xmlns:xlink="http://www.w3.org/1999/xlink">
<g id="graph0" class="graph" transform="scale(1 1) rotate(0) translate(4 112)">
<title>Limb</title>
<polygon fill="white" stroke="none" points="-4,4 -4,-112 2255.75,-112 2255.75,4 -4,4"/>
<!-- struct_limb -->
<g id="node1" class="node">
<title>struct_limb</title>
<polygon fill="none" stroke="black" points="256.38,-7.12 256.38,-28.88 349.38,-28.88 349.38,-7.12 256.38,-7.12"/>
<text text-anchor="start" x="259.38" y="-12.57" font-family="Times New Roman,serif" font-size="14.00">inflection_point</text>
<polygon fill="none" stroke="black" points="349.38,-7.12 349.38,-28.88 461.88,-28.88 461.88,-7.12 349.38,-7.12"/>
<text text-anchor="start" x="352.38" y="-12.57" font-family="Times New Roman,serif" font-size="14.00">relativistic_theories</text>
<polygon fill="none" stroke="black" points="461.88,-7.12 461.88,-28.88 579.62,-28.88 579.62,-7.12 461.88,-7.12"/>
<text text-anchor="start" x="464.88" y="-12.57" font-family="Times New Roman,serif" font-size="14.00">global_function_mv</text>
<polygon fill="none" stroke="black" points="579.62,-7.12 579.62,-28.88 659.88,-28.88 659.88,-7.12 579.62,-7.12"/>
<text text-anchor="start" x="582.62" y="-12.57" font-family="Times New Roman,serif" font-size="14.00">circuit_status</text>
<polygon fill="none" stroke="black" points="659.88,-7.12 659.88,-28.88 767.88,-28.88 767.88,-7.12 659.88,-7.12"/>
<text text-anchor="start" x="662.88" y="-12.57" font-family="Times New Roman,serif" font-size="14.00">hello_moto_signal</text>
<polygon fill="none" stroke="black" points="767.88,-7.12 767.88,-28.88 826.38,-28.88 826.38,-7.12 767.88,-7.12"/>
<text text-anchor="start" x="770.88" y="-12.57" font-family="Times New Roman,serif" font-size="14.00">jedi_base</text>
<polygon fill="none" stroke="black" points="826.38,-7.12 826.38,-28.88 894.62,-28.88 894.62,-7.12 826.38,-7.12"/>
<text text-anchor="start" x="829.38" y="-12.57" font-family="Times New Roman,serif" font-size="14.00">exploration</text>
<polygon fill="none" stroke="black" points="894.62,-7.12 894.62,-28.88 994.38,-28.88 994.38,-7.12 894.62,-7.12"/>
<text text-anchor="start" x="897.62" y="-12.57" font-family="Times New Roman,serif" font-size="14.00">links_presidency</text>
<polygon fill="none" stroke="black" points="994.38,-7.12 994.38,-28.88 1058.88,-28.88 1058.88,-7.12 994.38,-7.12"/>
<text text-anchor="start" x="997.38" y="-12.57" font-family="Times New Roman,serif" font-size="14.00">on_human</text>
<polygon fill="none" stroke="black" points="1058.88,-7.12 1058.88,-28.88 1136.12,-28.88 1136.12,-7.12 1058.88,-7.12"/>
<text text-anchor="start" x="1061.88" y="-12.57" font-family="Times New Roman,serif" font-size="14.00">mars_station</text>
<polygon fill="none" stroke="black" points="1136.12,-7.12 1136.12,-28.88 1268.88,-28.88 1268.88,-7.12 1136.12,-7.12"/>
<text text-anchor="start" x="1139.12" y="-12.57" font-family="Times New Roman,serif" font-size="14.00">dark_knight_execution</text>
<polygon fill="none" stroke="black" points="1268.88,-7.12 1268.88,-28.88 1355.88,-28.88 1355.88,-7.12 1268.88,-7.12"/>
<text text-anchor="start" x="1271.88" y="-12.57" font-family="Times New Roman,serif" font-size="14.00">hildr_approval</text>
<polygon fill="none" stroke="black" points="1355.88,-7.12 1355.88,-28.88 1436.12,-28.88 1436.12,-7.12 1355.88,-7.12"/>
<text text-anchor="start" x="1358.88" y="-12.57" font-family="Times New Roman,serif" font-size="14.00">heroic_return</text>
<polygon fill="none" stroke="black" points="1436.12,-7.12 1436.12,-28.88 1484.88,-28.88 1484.88,-7.12 1436.12,-7.12"/>
<text text-anchor="start" x="1439.12" y="-12.57" font-family="Times New Roman,serif" font-size="14.00">farewell</text>
<polygon fill="none" stroke="black" points="1484.88,-7.12 1484.88,-28.88 1555.38,-28.88 1555.38,-7.12 1484.88,-7.12"/>
<text text-anchor="start" x="1487.88" y="-12.57" font-family="Times New Roman,serif" font-size="14.00">tether_ware</text>
<polygon fill="none" stroke="black" points="1555.38,-7.12 1555.38,-28.88 1644.62,-28.88 1644.62,-7.12 1555.38,-7.12"/>
<text text-anchor="start" x="1558.38" y="-12.57" font-family="Times New Roman,serif" font-size="14.00">heroic_journey</text>
<polygon fill="none" stroke="black" points="1644.62,-7.12 1644.62,-28.88 1740.62,-28.88 1740.62,-7.12 1644.62,-7.12"/>
<text text-anchor="start" x="1647.62" y="-12.57" font-family="Times New Roman,serif" font-size="14.00">sweet_moments</text>
<polygon fill="none" stroke="black" points="1740.62,-7.12 1740.62,-28.88 1856.12,-28.88 1856.12,-7.12 1740.62,-7.12"/>
<text text-anchor="start" x="1743.62" y="-12.57" font-family="Times New Roman,serif" font-size="14.00">point_accumulation</text>
<polygon fill="none" stroke="black" points="1856.12,-7.12 1856.12,-28.88 1992.62,-28.88 1992.62,-7.12 1856.12,-7.12"/>
<text text-anchor="start" x="1859.12" y="-12.57" font-family="Times New Roman,serif" font-size="14.00">permutation_correction</text>
</g>
<!-- inflection_point -->
<g id="node2" class="node">
<title>inflection_point</title>
<text text-anchor="middle" x="51.5" y="-84.58" font-family="Times New Roman,serif" font-size="14.00">inflection_point</text>
</g>
<!-- inflection_point&#45;&gt;struct_limb -->
<g id="edge1" class="edge">
<title>inflection_point&#45;&gt;struct_limb:inflection_point</title>
<path fill="none" stroke="black" d="M80.14,-72.17C116.54,-52.33 182.18,-21.59 244.69,-18.29"/>
<polygon fill="black" stroke="black" points="244.6,-21.77 254.5,-18 244.41,-14.77 244.6,-21.77"/>
</g>
<!-- relativistic_theories -->
<g id="node3" class="node">
<title>relativistic_theories</title>
<text text-anchor="middle" x="182.5" y="-84.58" font-family="Times New Roman,serif" font-size="14.00">relativistic_theories</text>
</g>
<!-- relativistic_theories&#45;&gt;struct_limb -->
<g id="edge2" class="edge">
<title>relativistic_theories&#45;&gt;struct_limb:relativistic_theories</title>
<path fill="none" stroke="black" d="M243.73,-73.55C296.85,-60.06 369.23,-41.44 395.48,-33.59"/>
<polygon fill="black" stroke="black" points="396.26,-36.67 404.5,-30 393.91,-30.07 396.26,-36.67"/>
</g>
<!-- global_function_mv -->
<g id="node4" class="node">
<title>global_function_mv</title>
<text text-anchor="middle" x="325.5" y="-84.58" font-family="Times New Roman,serif" font-size="14.00">global_function_mv</text>
</g>
<!-- global_function_mv&#45;&gt;struct_limb -->
<g id="edge3" class="edge">
<title>global_function_mv&#45;&gt;struct_limb:global_function_mv</title>
<path fill="none" stroke="black" d="M389.35,-72.75C434.22,-60.97 489.94,-45.51 511.45,-36.08"/>
<polygon fill="black" stroke="black" points="513.15,-38.48 519.5,-30 509.25,-32.67 513.15,-38.48"/>
</g>
<!-- circuit_status -->
<g id="node5" class="node">
<title>circuit_status</title>
<text text-anchor="middle" x="452.5" y="-84.58" font-family="Times New Roman,serif" font-size="14.00">circuit_status</text>
</g>
<!-- circuit_status&#45;&gt;struct_limb -->
<g id="edge4" class="edge">
<title>circuit_status&#45;&gt;struct_limb:circuit_status</title>
<path fill="none" stroke="black" d="M497.25,-74.31C535.71,-61.57 588.25,-43.82 609.74,-35.03"/>
<polygon fill="black" stroke="black" points="611.21,-37.69 618.5,-30 608.01,-31.47 611.21,-37.69"/>
</g>
<!-- hello_moto_signal -->
<g id="node6" class="node">
<title>hello_moto_signal</title>
<text text-anchor="middle" x="574.5" y="-84.58" font-family="Times New Roman,serif" font-size="14.00">hello_moto_signal</text>
</g>
<!-- hello_moto_signal&#45;&gt;struct_limb -->
<g id="edge5" class="edge">
<title>hello_moto_signal&#45;&gt;struct_limb:hello_moto_signal</title>
<path fill="none" stroke="black" d="M626.26,-72.09C656.52,-61.61 691.58,-48.27 706.36,-38.18"/>
<polygon fill="black" stroke="black" points="709.56,-40.83 713.5,-31 704.28,-36.23 709.56,-40.83"/>
</g>
<!-- jedi_base -->
<g id="node7" class="node">
<title>jedi_base</title>
<text text-anchor="middle" x="685.5" y="-84.58" font-family="Times New Roman,serif" font-size="14.00">jedi_base</text>
</g>
<!-- jedi_base&#45;&gt;struct_limb -->
<g id="edge6" class="edge">
<title>jedi_base&#45;&gt;struct_limb:jedi_base</title>
<path fill="none" stroke="black" d="M719.71,-74.58C744.67,-63.65 776.47,-48.8 790.41,-38.37"/>
<polygon fill="black" stroke="black" points="793.71,-40.89 797.5,-31 788.37,-36.37 793.71,-40.89"/>
</g>
<!-- exploration -->
<g id="node8" class="node">
<title>exploration</title>
<text text-anchor="middle" x="776.5" y="-84.58" font-family="Times New Roman,serif" font-size="14.00">exploration</text>
</g>
<!-- exploration&#45;&gt;struct_limb -->
<g id="edge7" class="edge">
<title>exploration&#45;&gt;struct_limb:exploration</title>
<path fill="none" stroke="black" d="M811.15,-72.11C828.69,-62.67 847.98,-50.67 856.3,-39.87"/>
<polygon fill="black" stroke="black" points="859.81,-41.57 860.5,-31 853.37,-38.83 859.81,-41.57"/>
</g>
<!-- links_presidency -->
<g id="node9" class="node">
<title>links_presidency</title>
<text text-anchor="middle" x="888.5" y="-84.58" font-family="Times New Roman,serif" font-size="14.00">links_presidency</text>
</g>
<!-- links_presidency&#45;&gt;struct_limb -->
<g id="edge8" class="edge">
<title>links_presidency&#45;&gt;struct_limb:links_presidency</title>
<path fill="none" stroke="black" d="M917.81,-72.09C928.5,-64.05 938.94,-53.4 942.87,-40.65"/>
<polygon fill="black" stroke="black" points="946.44,-41.42 944.5,-31 939.52,-40.35 946.44,-41.42"/>
</g>
<!-- on_human -->
<g id="node10" class="node">
<title>on_human</title>
<text text-anchor="middle" x="998.5" y="-84.58" font-family="Times New Roman,serif" font-size="14.00">on_human</text>
</g>
<!-- on_human&#45;&gt;struct_limb -->
<g id="edge9" class="edge">
<title>on_human&#45;&gt;struct_limb:on_human</title>
<path fill="none" stroke="black" d="M1011.35,-72.18C1016.99,-63.52 1022.87,-52.37 1025.32,-40.75"/>
<polygon fill="black" stroke="black" points="1028.89,-41.32 1026.5,-31 1021.93,-40.56 1028.89,-41.32"/>
</g>
<!-- mars_station -->
<g id="node11" class="node">
<title>mars_station</title>
<text text-anchor="middle" x="1097.5" y="-84.58" font-family="Times New Roman,serif" font-size="14.00">mars_station</text>
</g>
<!-- mars_station&#45;&gt;struct_limb -->
<g id="edge10" class="edge">
<title>mars_station&#45;&gt;struct_limb:mars_station</title>
<path fill="none" stroke="black" d="M1097.5,-72.22C1097.5,-63.36 1097.5,-52.05 1097.5,-40.94"/>
<polygon fill="black" stroke="black" points="1101,-41 1097.5,-31 1094,-41 1101,-41"/>
</g>
<!-- dark_knight_execution -->
<g id="node12" class="node">
<title>dark_knight_execution</title>
<text text-anchor="middle" x="1230.5" y="-84.58" font-family="Times New Roman,serif" font-size="14.00">dark_knight_execution</text>
</g>
<!-- dark_knight_execution&#45;&gt;struct_limb -->
<g id="edge11" class="edge">
<title>dark_knight_execution&#45;&gt;struct_limb:dark_knight_execution</title>
<path fill="none" stroke="black" d="M1217.65,-72.18C1212.01,-63.52 1206.13,-52.37 1203.68,-40.75"/>
<polygon fill="black" stroke="black" points="1207.07,-40.56 1202.5,-31 1200.11,-41.32 1207.07,-40.56"/>
</g>
<!-- hildr_approval -->
<g id="node13" class="node">
<title>hildr_approval</title>
<text text-anchor="middle" x="1368.5" y="-84.58" font-family="Times New Roman,serif" font-size="14.00">hildr_approval</text>
</g>
<!-- hildr_approval&#45;&gt;struct_limb -->
<g id="edge12" class="edge">
<title>hildr_approval&#45;&gt;struct_limb:hildr_approval</title>
<path fill="none" stroke="black" d="M1339.19,-72.09C1328.5,-64.05 1318.06,-53.4 1314.13,-40.65"/>
<polygon fill="black" stroke="black" points="1317.48,-40.35 1312.5,-31 1310.56,-41.42 1317.48,-40.35"/>
</g>
<!-- heroic_return -->
<g id="node14" class="node">
<title>heroic_return</title>
<text text-anchor="middle" x="1480.5" y="-84.58" font-family="Times New Roman,serif" font-size="14.00">heroic_return</text>
</g>
<!-- heroic_return&#45;&gt;struct_limb -->
<g id="edge13" class="edge">
<title>heroic_return&#45;&gt;struct_limb:heroic_return</title>
<path fill="none" stroke="black" d="M1435.55,-75.3C1419.01,-67.73 1403.08,-56.54 1398.1,-40.57"/>
<polygon fill="black" stroke="black" points="1401.46,-40.36 1396.5,-31 1394.53,-41.41 1401.46,-40.36"/>
</g>
<!-- farewell -->
<g id="node15" class="node">
<title>farewell</title>
<text text-anchor="middle" x="1573.5" y="-84.58" font-family="Times New Roman,serif" font-size="14.00">farewell</text>
</g>
<!-- farewell&#45;&gt;struct_limb -->
<g id="edge14" class="edge">
<title>farewell&#45;&gt;struct_limb:farewell</title>
<path fill="none" stroke="black" d="M1544.4,-75.37C1519.29,-63.44 1484.65,-46.55 1468.9,-36.85"/>
<polygon fill="black" stroke="black" points="1471.46,-33.61 1461.5,-30 1467.04,-39.03 1471.46,-33.61"/>
</g>
<!-- tether_ware -->
<g id="node16" class="node">
<title>tether_ware</title>
<text text-anchor="middle" x="1661.5" y="-84.58" font-family="Times New Roman,serif" font-size="14.00">tether_ware</text>
</g>
<!-- tether_ware&#45;&gt;struct_limb -->
<g id="edge15" class="edge">
<title>tether_ware&#45;&gt;struct_limb:tether_ware</title>
<path fill="none" stroke="black" d="M1621.47,-74.29C1589.56,-62.34 1547.32,-45.95 1529.28,-36.46"/>
<polygon fill="black" stroke="black" points="1531.63,-33.11 1521.5,-30 1527.48,-38.74 1531.63,-33.11"/>
</g>
<!-- heroic_journey -->
<g id="node17" class="node">
<title>heroic_journey</title>
<text text-anchor="middle" x="1769.5" y="-84.58" font-family="Times New Roman,serif" font-size="14.00">heroic_journey</text>
</g>
<!-- heroic_journey&#45;&gt;struct_limb -->
<g id="edge16" class="edge">
<title>heroic_journey&#45;&gt;struct_limb:heroic_journey</title>
<path fill="none" stroke="black" d="M1720.16,-74.23C1681,-62.22 1629.57,-45.74 1609.27,-36.12"/>
<polygon fill="black" stroke="black" points="1611.7,-32.85 1601.5,-30 1607.7,-38.59 1611.7,-32.85"/>
</g>
<!-- sweet_moments -->
<g id="node18" class="node">
<title>sweet_moments</title>
<text text-anchor="middle" x="1890.5" y="-84.58" font-family="Times New Roman,serif" font-size="14.00">sweet_moments</text>
</g>
<!-- sweet_moments&#45;&gt;struct_limb -->
<g id="edge17" class="edge">
<title>sweet_moments&#45;&gt;struct_limb:sweet_moments</title>
<path fill="none" stroke="black" d="M1837.7,-73.92C1791.19,-60.56 1727.14,-41.96 1702.61,-33.89"/>
<polygon fill="black" stroke="black" points="1704.09,-30.32 1693.5,-30 1701.58,-36.86 1704.09,-30.32"/>
</g>
<!-- point_accumulation -->
<g id="node19" class="node">
<title>point_accumulation</title>
<text text-anchor="middle" x="2024.5" y="-84.58" font-family="Times New Roman,serif" font-size="14.00">point_accumulation</text>
</g>
<!-- point_accumulation&#45;&gt;struct_limb -->
<g id="edge18" class="edge">
<title>point_accumulation&#45;&gt;struct_limb:point_accumulation</title>
<path fill="none" stroke="black" d="M1961.85,-74.17C1907.76,-61.19 1834.34,-43.09 1808.22,-34.4"/>
<polygon fill="black" stroke="black" points="1810.05,-30.94 1799.5,-30 1807.17,-37.31 1810.05,-30.94"/>
</g>
<!-- permutation_correction -->
<g id="node20" class="node">
<title>permutation_correction</title>
<text text-anchor="middle" x="2178.5" y="-84.58" font-family="Times New Roman,serif" font-size="14.00">permutation_correction</text>
</g>
<!-- permutation_correction&#45;&gt;struct_limb -->
<g id="edge19" class="edge">
<title>permutation_correction&#45;&gt;struct_limb:permutation_correction</title>
<path fill="none" stroke="black" d="M2152.74,-72.17C2120.15,-52.45 2061.39,-21.97 2004.47,-18.35"/>
<polygon fill="black" stroke="black" points="2004.61,-14.83 1994.5,-18 2004.38,-21.82 2004.61,-14.83"/>
</g>
</g>
</svg>
