<?xml version="1.0" encoding="UTF-8" standalone="no"?>
<!DOCTYPE svg PUBLIC "-//W3C//DTD SVG 1.1//EN"
 "http://www.w3.org/Graphics/SVG/1.1/DTD/svg11.dtd">
<!-- Generated by graphviz version 8.1.0 (20230707.0739)
 -->
<!-- Title: qd1d2Components Pages: 1 -->
<svg width="433pt" height="311pt"
 viewBox="0.00 0.00 433.25 310.75" xmlns="http://www.w3.org/2000/svg" xmlns:xlink="http://www.w3.org/1999/xlink">
<g id="graph0" class="graph" transform="scale(1 1) rotate(0) translate(4 306.75)">
<title>qd1d2Components</title>
<polygon fill="white" stroke="none" points="-4,4 -4,-306.75 429.25,-306.75 429.25,4 -4,4"/>
<!-- qd1d2 -->
<g id="node1" class="node">
<title>qd1d2</title>
<polygon fill="none" stroke="black" points="126,-302.75 72,-302.75 72,-263.25 126,-263.25 126,-302.75"/>
<text text-anchor="middle" x="99" y="-285.45" font-family="Times New Roman,serif" font-size="14.00">qd1d2</text>
<text text-anchor="middle" x="99" y="-269.7" font-family="Times New Roman,serif" font-size="14.00">Robot</text>
</g>
<!-- component_Brain -->
<g id="node2" class="node">
<title>component_Brain</title>
<polygon fill="none" stroke="black" points="54,-211.5 0,-211.5 0,-175.5 54,-175.5 54,-211.5"/>
<text text-anchor="middle" x="27" y="-188.07" font-family="Times New Roman,serif" font-size="14.00">Brain</text>
</g>
<!-- qd1d2&#45;&gt;component_Brain -->
<g id="edge1" class="edge">
<title>qd1d2&#45;&gt;component_Brain</title>
<path fill="none" stroke="black" d="M83.38,-263.01C73.03,-250.44 59.34,-233.81 48.04,-220.07"/>
<polygon fill="black" stroke="black" points="50.43,-218.46 41.37,-212.96 45.02,-222.91 50.43,-218.46"/>
<text text-anchor="middle" x="77.38" y="-231.95" font-family="Times New Roman,serif" font-size="14.00">has</text>
</g>
<!-- component_Limbs -->
<g id="node3" class="node">
<title>component_Limbs</title>
<polygon fill="none" stroke="black" points="126,-211.5 72,-211.5 72,-175.5 126,-175.5 126,-211.5"/>
<text text-anchor="middle" x="99" y="-188.07" font-family="Times New Roman,serif" font-size="14.00">Limbs</text>
</g>
<!-- qd1d2&#45;&gt;component_Limbs -->
<g id="edge2" class="edge">
<title>qd1d2&#45;&gt;component_Limbs</title>
<path fill="none" stroke="black" d="M99,-263.01C99,-251.27 99,-235.99 99,-222.83"/>
<polygon fill="black" stroke="black" points="102.5,-222.96 99,-212.96 95.5,-222.96 102.5,-222.96"/>
<text text-anchor="middle" x="108.38" y="-231.95" font-family="Times New Roman,serif" font-size="14.00">has</text>
</g>
<!-- component_Sensors -->
<g id="node4" class="node">
<title>component_Sensors</title>
<polygon fill="none" stroke="black" points="205.5,-211.5 144.5,-211.5 144.5,-175.5 205.5,-175.5 205.5,-211.5"/>
<text text-anchor="middle" x="175" y="-188.07" font-family="Times New Roman,serif" font-size="14.00">Sensors</text>
</g>
<!-- qd1d2&#45;&gt;component_Sensors -->
<g id="edge3" class="edge">
<title>qd1d2&#45;&gt;component_Sensors</title>
<path fill="none" stroke="black" d="M115.49,-263.01C126.41,-250.44 140.86,-233.81 152.79,-220.07"/>
<polygon fill="black" stroke="black" points="155.92,-222.81 159.83,-212.96 150.63,-218.22 155.92,-222.81"/>
<text text-anchor="middle" x="153.38" y="-231.95" font-family="Times New Roman,serif" font-size="14.00">has</text>
</g>
<!-- component_Arms -->
<g id="node7" class="node">
<title>component_Arms</title>
<polygon fill="none" stroke="black" points="56,-123.75 2,-123.75 2,-87.75 56,-87.75 56,-123.75"/>
<text text-anchor="middle" x="29" y="-100.33" font-family="Times New Roman,serif" font-size="14.00">Arms</text>
</g>
<!-- component_Limbs&#45;&gt;component_Arms -->
<g id="edge4" class="edge">
<title>component_Limbs&#45;&gt;component_Arms</title>
<path fill="none" stroke="black" d="M84.83,-175.15C74.78,-162.83 61.11,-146.09 49.82,-132.25"/>
<polygon fill="black" stroke="black" points="52.18,-130.61 43.14,-125.08 46.76,-135.04 52.18,-130.61"/>
<text text-anchor="middle" x="80.38" y="-144.2" font-family="Times New Roman,serif" font-size="14.00">has</text>
</g>
<!-- component_Legs -->
<g id="node8" class="node">
<title>component_Legs</title>
<polygon fill="none" stroke="black" points="128,-123.75 74,-123.75 74,-87.75 128,-87.75 128,-123.75"/>
<text text-anchor="middle" x="101" y="-100.33" font-family="Times New Roman,serif" font-size="14.00">Legs</text>
</g>
<!-- component_Limbs&#45;&gt;component_Legs -->
<g id="edge5" class="edge">
<title>component_Limbs&#45;&gt;component_Legs</title>
<path fill="none" stroke="black" d="M99.4,-175.15C99.67,-163.64 100.03,-148.28 100.34,-135.03"/>
<polygon fill="black" stroke="black" points="103.86,-135.16 100.6,-125.08 96.86,-134.99 103.86,-135.16"/>
<text text-anchor="middle" x="110.38" y="-144.2" font-family="Times New Roman,serif" font-size="14.00">has</text>
</g>
<!-- component_Camera -->
<g id="node9" class="node">
<title>component_Camera</title>
<polygon fill="none" stroke="black" points="204.38,-123.75 145.62,-123.75 145.62,-87.75 204.38,-87.75 204.38,-123.75"/>
<text text-anchor="middle" x="175" y="-100.33" font-family="Times New Roman,serif" font-size="14.00">Camera</text>
</g>
<!-- component_Sensors&#45;&gt;component_Camera -->
<g id="edge6" class="edge">
<title>component_Sensors&#45;&gt;component_Camera</title>
<path fill="none" stroke="black" d="M175,-175.15C175,-163.64 175,-148.28 175,-135.03"/>
<polygon fill="black" stroke="black" points="178.5,-135.08 175,-125.08 171.5,-135.08 178.5,-135.08"/>
<text text-anchor="middle" x="184.38" y="-144.2" font-family="Times New Roman,serif" font-size="14.00">has</text>
</g>
<!-- component_Microphones -->
<g id="node10" class="node">
<title>component_Microphones</title>
<polygon fill="none" stroke="black" points="313.12,-123.75 222.88,-123.75 222.88,-87.75 313.12,-87.75 313.12,-123.75"/>
<text text-anchor="middle" x="268" y="-100.33" font-family="Times New Roman,serif" font-size="14.00">Microphones</text>
</g>
<!-- component_Sensors&#45;&gt;component_Microphones -->
<g id="edge7" class="edge">
<title>component_Sensors&#45;&gt;component_Microphones</title>
<path fill="none" stroke="black" d="M193.82,-175.15C207.43,-162.59 226.02,-145.45 241.19,-131.47"/>
<polygon fill="black" stroke="black" points="243.23,-134.43 248.21,-125.08 238.48,-129.28 243.23,-134.43"/>
<text text-anchor="middle" x="239.38" y="-144.2" font-family="Times New Roman,serif" font-size="14.00">has</text>
</g>
<!-- component_PowerSystem -->
<g id="node5" class="node">
<title>component_PowerSystem</title>
<polygon fill="none" stroke="black" points="299.5,-301 202.5,-301 202.5,-265 299.5,-265 299.5,-301"/>
<text text-anchor="middle" x="251" y="-277.57" font-family="Times New Roman,serif" font-size="14.00">Power System</text>
</g>
<!-- component_Battery -->
<g id="node11" class="node">
<title>component_Battery</title>
<polygon fill="none" stroke="black" points="278.88,-211.5 223.12,-211.5 223.12,-175.5 278.88,-175.5 278.88,-211.5"/>
<text text-anchor="middle" x="251" y="-188.07" font-family="Times New Roman,serif" font-size="14.00">Battery</text>
</g>
<!-- component_PowerSystem&#45;&gt;component_Battery -->
<g id="edge8" class="edge">
<title>component_PowerSystem&#45;&gt;component_Battery</title>
<path fill="none" stroke="black" d="M251,-264.71C251,-252.73 251,-236.5 251,-222.66"/>
<polygon fill="black" stroke="black" points="254.5,-222.75 251,-212.75 247.5,-222.75 254.5,-222.75"/>
<text text-anchor="middle" x="260.38" y="-231.95" font-family="Times New Roman,serif" font-size="14.00">has</text>
</g>
<!-- component_Communication -->
<g id="node6" class="node">
<title>component_Communication</title>
<polygon fill="none" stroke="black" points="422.25,-301 317.75,-301 317.75,-265 422.25,-265 422.25,-301"/>
<text text-anchor="middle" x="370" y="-277.57" font-family="Times New Roman,serif" font-size="14.00">Communication</text>
</g>
<!-- component_WirelessModule -->
<g id="node12" class="node">
<title>component_WirelessModule</title>
<polygon fill="none" stroke="black" points="425.25,-211.5 314.75,-211.5 314.75,-175.5 425.25,-175.5 425.25,-211.5"/>
<text text-anchor="middle" x="370" y="-188.07" font-family="Times New Roman,serif" font-size="14.00">Wireless Module</text>
</g>
<!-- component_Communication&#45;&gt;component_WirelessModule -->
<g id="edge9" class="edge">
<title>component_Communication&#45;&gt;component_WirelessModule</title>
<path fill="none" stroke="black" d="M370,-264.71C370,-252.73 370,-236.5 370,-222.66"/>
<polygon fill="black" stroke="black" points="373.5,-222.75 370,-212.75 366.5,-222.75 373.5,-222.75"/>
<text text-anchor="middle" x="379.38" y="-231.95" font-family="Times New Roman,serif" font-size="14.00">has</text>
</g>
<!-- component_Hands -->
<g id="node13" class="node">
<title>component_Hands</title>
<polygon fill="none" stroke="black" points="56,-36 2,-36 2,0 56,0 56,-36"/>
<text text-anchor="middle" x="29" y="-12.57" font-family="Times New Roman,serif" font-size="14.00">Hands</text>
</g>
<!-- component_Arms&#45;&gt;component_Hands -->
<g id="edge10" class="edge">
<title>component_Arms&#45;&gt;component_Hands</title>
<path fill="none" stroke="black" d="M29,-87.4C29,-75.89 29,-60.53 29,-47.28"/>
<polygon fill="black" stroke="black" points="32.5,-47.33 29,-37.33 25.5,-47.33 32.5,-47.33"/>
<text text-anchor="middle" x="38.38" y="-56.45" font-family="Times New Roman,serif" font-size="14.00">has</text>
</g>
<!-- component_Feet -->
<g id="node14" class="node">
<title>component_Feet</title>
<polygon fill="none" stroke="black" points="128,-36 74,-36 74,0 128,0 128,-36"/>
<text text-anchor="middle" x="101" y="-12.57" font-family="Times New Roman,serif" font-size="14.00">Feet</text>
</g>
<!-- component_Legs&#45;&gt;component_Feet -->
<g id="edge11" class="edge">
<title>component_Legs&#45;&gt;component_Feet</title>
<path fill="none" stroke="black" d="M101,-87.4C101,-75.89 101,-60.53 101,-47.28"/>
<polygon fill="black" stroke="black" points="104.5,-47.33 101,-37.33 97.5,-47.33 104.5,-47.33"/>
<text text-anchor="middle" x="110.38" y="-56.45" font-family="Times New Roman,serif" font-size="14.00">has</text>
</g>
</g>
</svg>
