<?xml version="1.0" encoding="UTF-8" standalone="no"?>
<!DOCTYPE svg PUBLIC "-//W3C//DTD SVG 1.1//EN"
 "http://www.w3.org/Graphics/SVG/1.1/DTD/svg11.dtd">
<!-- Generated by graphviz version 8.1.0 (20230707.0739)
 -->
<!-- Title: MatrixS Pages: 1 -->
<svg width="833pt" height="204pt"
 viewBox="0.00 0.00 833.00 204.25" xmlns="http://www.w3.org/2000/svg" xmlns:xlink="http://www.w3.org/1999/xlink">
<g id="graph0" class="graph" transform="scale(1 1) rotate(0) translate(4 200.25)">
<title>MatrixS</title>
<polygon fill="white" stroke="none" points="-4,4 -4,-200.25 829,-200.25 829,4 -4,4"/>
<!-- struct_MatrixS -->
<g id="node1" class="node">
<title>struct_MatrixS</title>
<polygon fill="none" stroke="black" points="282.5,-100.75 282.5,-195.75 450,-195.75 450,-100.75 282.5,-100.75"/>
<text text-anchor="middle" x="366.25" y="-178.45" font-family="Times New Roman,serif" font-size="14.00">MatrixS</text>
<polyline fill="none" stroke="black" points="282.5,-172 450,-172"/>
<text text-anchor="middle" x="366.25" y="-154.7" font-family="Times New Roman,serif" font-size="14.00">+ rows: int</text>
<polyline fill="none" stroke="black" points="282.5,-148.25 450,-148.25"/>
<text text-anchor="middle" x="366.25" y="-130.95" font-family="Times New Roman,serif" font-size="14.00">+ cols: int</text>
<polyline fill="none" stroke="black" points="282.5,-124.5 450,-124.5"/>
<text text-anchor="middle" x="366.25" y="-107.2" font-family="Times New Roman,serif" font-size="14.00">+ elements: List[List[float]]</text>
</g>
<!-- method_get_rows -->
<g id="node2" class="node">
<title>method_get_rows</title>
<polygon fill="none" stroke="black" points="0,-0.5 0,-48 86.5,-48 86.5,-0.5 0,-0.5"/>
<text text-anchor="middle" x="43.25" y="-30.7" font-family="Times New Roman,serif" font-size="14.00">get_rows()</text>
<polyline fill="none" stroke="black" points="0,-24.25 86.5,-24.25"/>
<text text-anchor="middle" x="43.25" y="-6.95" font-family="Times New Roman,serif" font-size="14.00">+ returns: int</text>
</g>
<!-- struct_MatrixS&#45;&gt;method_get_rows -->
<g id="edge1" class="edge">
<title>struct_MatrixS&#45;&gt;method_get_rows</title>
<path fill="none" stroke="black" d="M282.72,-118.23C231.63,-100.11 164.81,-75.79 96.36,-48.44"/>
<polygon fill="black" stroke="black" points="97.84,-44.86 87.25,-44.38 95.23,-51.36 97.84,-44.86"/>
<text text-anchor="middle" x="190.62" y="-68.95" font-family="Times New Roman,serif" font-size="14.00">uses</text>
</g>
<!-- method_get_cols -->
<g id="node3" class="node">
<title>method_get_cols</title>
<polygon fill="none" stroke="black" points="105,-0.5 105,-48 191.5,-48 191.5,-0.5 105,-0.5"/>
<text text-anchor="middle" x="148.25" y="-30.7" font-family="Times New Roman,serif" font-size="14.00">get_cols()</text>
<polyline fill="none" stroke="black" points="105,-24.25 191.5,-24.25"/>
<text text-anchor="middle" x="148.25" y="-6.95" font-family="Times New Roman,serif" font-size="14.00">+ returns: int</text>
</g>
<!-- struct_MatrixS&#45;&gt;method_get_cols -->
<g id="edge2" class="edge">
<title>struct_MatrixS&#45;&gt;method_get_cols</title>
<path fill="none" stroke="black" d="M283.21,-100.78C254.51,-84.72 223.26,-67.23 198.06,-53.13"/>
<polygon fill="black" stroke="black" points="200.16,-49.73 189.72,-47.9 196.74,-55.84 200.16,-49.73"/>
<text text-anchor="middle" x="256.62" y="-68.95" font-family="Times New Roman,serif" font-size="14.00">uses</text>
</g>
<!-- method_get_elements -->
<g id="node4" class="node">
<title>method_get_elements</title>
<polygon fill="none" stroke="black" points="209.38,-0.5 209.38,-48 367.12,-48 367.12,-0.5 209.38,-0.5"/>
<text text-anchor="middle" x="288.25" y="-30.7" font-family="Times New Roman,serif" font-size="14.00">get_elements()</text>
<polyline fill="none" stroke="black" points="209.38,-24.25 367.12,-24.25"/>
<text text-anchor="middle" x="288.25" y="-6.95" font-family="Times New Roman,serif" font-size="14.00">+ returns: List[List[float]]</text>
</g>
<!-- struct_MatrixS&#45;&gt;method_get_elements -->
<g id="edge3" class="edge">
<title>struct_MatrixS&#45;&gt;method_get_elements</title>
<path fill="none" stroke="black" d="M336.54,-100.78C327.19,-86.15 317.07,-70.33 308.53,-56.98"/>
<polygon fill="black" stroke="black" points="310.96,-55.27 302.63,-48.73 305.06,-59.04 310.96,-55.27"/>
<text text-anchor="middle" x="335.62" y="-68.95" font-family="Times New Roman,serif" font-size="14.00">uses</text>
</g>
<!-- method_transpose -->
<g id="node5" class="node">
<title>method_transpose</title>
<polygon fill="none" stroke="black" points="385.62,-0.5 385.62,-48 502.88,-48 502.88,-0.5 385.62,-0.5"/>
<text text-anchor="middle" x="444.25" y="-30.7" font-family="Times New Roman,serif" font-size="14.00">transpose()</text>
<polyline fill="none" stroke="black" points="385.62,-24.25 502.88,-24.25"/>
<text text-anchor="middle" x="444.25" y="-6.95" font-family="Times New Roman,serif" font-size="14.00">+ returns: MatrixS</text>
</g>
<!-- struct_MatrixS&#45;&gt;method_transpose -->
<g id="edge4" class="edge">
<title>struct_MatrixS&#45;&gt;method_transpose</title>
<path fill="none" stroke="black" d="M395.96,-100.78C405.31,-86.15 415.43,-70.33 423.97,-56.98"/>
<polygon fill="black" stroke="black" points="427.44,-59.04 429.87,-48.73 421.54,-55.27 427.44,-59.04"/>
<text text-anchor="middle" x="429.62" y="-68.95" font-family="Times New Roman,serif" font-size="14.00">uses</text>
</g>
<!-- method_multiply -->
<g id="node6" class="node">
<title>method_multiply</title>
<polygon fill="none" stroke="black" points="520.88,-0.5 520.88,-48 675.62,-48 675.62,-0.5 520.88,-0.5"/>
<text text-anchor="middle" x="598.25" y="-30.7" font-family="Times New Roman,serif" font-size="14.00">multiply(matrix: MatrixS)</text>
<polyline fill="none" stroke="black" points="520.88,-24.25 675.62,-24.25"/>
<text text-anchor="middle" x="598.25" y="-6.95" font-family="Times New Roman,serif" font-size="14.00">+ returns: MatrixS</text>
</g>
<!-- struct_MatrixS&#45;&gt;method_multiply -->
<g id="edge5" class="edge">
<title>struct_MatrixS&#45;&gt;method_multiply</title>
<path fill="none" stroke="black" d="M449.68,-103.38C481.64,-86.57 517.18,-67.88 545.49,-52.99"/>
<polygon fill="black" stroke="black" points="546.96,-55.65 554.18,-47.9 543.7,-49.45 546.96,-55.65"/>
<text text-anchor="middle" x="529.62" y="-68.95" font-family="Times New Roman,serif" font-size="14.00">uses</text>
</g>
<!-- method_add -->
<g id="node7" class="node">
<title>method_add</title>
<polygon fill="none" stroke="black" points="693.5,-0.5 693.5,-48 825,-48 825,-0.5 693.5,-0.5"/>
<text text-anchor="middle" x="759.25" y="-30.7" font-family="Times New Roman,serif" font-size="14.00">add(matrix: MatrixS)</text>
<polyline fill="none" stroke="black" points="693.5,-24.25 825,-24.25"/>
<text text-anchor="middle" x="759.25" y="-6.95" font-family="Times New Roman,serif" font-size="14.00">+ returns: MatrixS</text>
</g>
<!-- struct_MatrixS&#45;&gt;method_add -->
<g id="edge6" class="edge">
<title>struct_MatrixS&#45;&gt;method_add</title>
<path fill="none" stroke="black" d="M449.6,-121.38C518.68,-99.93 616.06,-69.7 683.08,-48.9"/>
<polygon fill="black" stroke="black" points="684.05,-51.95 692.57,-45.64 681.98,-45.26 684.05,-51.95"/>
<text text-anchor="middle" x="633.62" y="-68.95" font-family="Times New Roman,serif" font-size="14.00">uses</text>
</g>
</g>
</svg>
