<?xml version="1.0" encoding="UTF-8" standalone="no"?>
<!DOCTYPE svg PUBLIC "-//W3C//DTD SVG 1.1//EN"
 "http://www.w3.org/Graphics/SVG/1.1/DTD/svg11.dtd">
<!-- Generated by graphviz version 8.1.0 (20230707.0739)
 -->
<!-- Title: qd1d2Functionalities Pages: 1 -->
<svg width="828pt" height="135pt"
 viewBox="0.00 0.00 827.50 135.25" xmlns="http://www.w3.org/2000/svg" xmlns:xlink="http://www.w3.org/1999/xlink">
<g id="graph0" class="graph" transform="scale(1 1) rotate(0) translate(4 131.25)">
<title>qd1d2Functionalities</title>
<polygon fill="white" stroke="none" points="-4,4 -4,-131.25 823.5,-131.25 823.5,4 -4,4"/>
<!-- qd1d2 -->
<g id="node1" class="node">
<title>qd1d2</title>
<polygon fill="none" stroke="black" points="435.62,-127.25 381.62,-127.25 381.62,-87.75 435.62,-87.75 435.62,-127.25"/>
<text text-anchor="middle" x="408.62" y="-109.95" font-family="Times New Roman,serif" font-size="14.00">qd1d2</text>
<text text-anchor="middle" x="408.62" y="-94.2" font-family="Times New Roman,serif" font-size="14.00">Robot</text>
</g>
<!-- functionality_Movement -->
<g id="node2" class="node">
<title>functionality_Movement</title>
<polygon fill="none" stroke="black" points="75.25,-36 0,-36 0,0 75.25,0 75.25,-36"/>
<text text-anchor="middle" x="37.62" y="-12.57" font-family="Times New Roman,serif" font-size="14.00">Movement</text>
</g>
<!-- qd1d2&#45;&gt;functionality_Movement -->
<g id="edge1" class="edge">
<title>qd1d2&#45;&gt;functionality_Movement</title>
<path fill="none" stroke="black" d="M381.5,-105.59C332.56,-103.34 226.68,-95.63 141.62,-69.75 119.04,-62.88 95.27,-51.62 76.17,-41.45"/>
<polygon fill="black" stroke="black" points="78.09,-37.97 67.64,-36.26 74.75,-44.12 78.09,-37.97"/>
<text text-anchor="middle" x="167.12" y="-56.45" font-family="Times New Roman,serif" font-size="14.00">performs</text>
</g>
<!-- functionality_Vision -->
<g id="node3" class="node">
<title>functionality_Vision</title>
<polygon fill="none" stroke="black" points="147.62,-36 93.62,-36 93.62,0 147.62,0 147.62,-36"/>
<text text-anchor="middle" x="120.62" y="-12.57" font-family="Times New Roman,serif" font-size="14.00">Vision</text>
</g>
<!-- qd1d2&#45;&gt;functionality_Vision -->
<g id="edge2" class="edge">
<title>qd1d2&#45;&gt;functionality_Vision</title>
<path fill="none" stroke="black" d="M381.4,-102.32C347.15,-96.68 286.72,-85.51 236.62,-69.75 202.69,-59.07 193.28,-52.78 157.72,-36.48"/>
<polygon fill="black" stroke="black" points="159.64,-33.05 149.09,-32.11 156.75,-39.43 159.64,-33.05"/>
<text text-anchor="middle" x="262.12" y="-56.45" font-family="Times New Roman,serif" font-size="14.00">performs</text>
</g>
<!-- functionality_AudioProcessing -->
<g id="node4" class="node">
<title>functionality_AudioProcessing</title>
<polygon fill="none" stroke="black" points="281.5,-36 165.75,-36 165.75,0 281.5,0 281.5,-36"/>
<text text-anchor="middle" x="223.62" y="-12.57" font-family="Times New Roman,serif" font-size="14.00">Audio Processing</text>
</g>
<!-- qd1d2&#45;&gt;functionality_AudioProcessing -->
<g id="edge3" class="edge">
<title>qd1d2&#45;&gt;functionality_AudioProcessing</title>
<path fill="none" stroke="black" d="M381.4,-95.84C363.88,-88.8 340.71,-79.18 320.62,-69.75 302.07,-61.04 281.94,-50.67 264.85,-41.57"/>
<polygon fill="black" stroke="black" points="266.64,-38.02 256.17,-36.39 263.33,-44.19 266.64,-38.02"/>
<text text-anchor="middle" x="346.12" y="-56.45" font-family="Times New Roman,serif" font-size="14.00">performs</text>
</g>
<!-- functionality_Communication -->
<g id="node5" class="node">
<title>functionality_Communication</title>
<polygon fill="none" stroke="black" points="403.88,-36 299.38,-36 299.38,0 403.88,0 403.88,-36"/>
<text text-anchor="middle" x="351.62" y="-12.57" font-family="Times New Roman,serif" font-size="14.00">Communication</text>
</g>
<!-- qd1d2&#45;&gt;functionality_Communication -->
<g id="edge4" class="edge">
<title>qd1d2&#45;&gt;functionality_Communication</title>
<path fill="none" stroke="black" d="M396.26,-87.51C388.22,-75.18 377.64,-58.93 368.79,-45.35"/>
<polygon fill="black" stroke="black" points="371.39,-43.93 363,-37.46 365.53,-47.75 371.39,-43.93"/>
<text text-anchor="middle" x="409.12" y="-56.45" font-family="Times New Roman,serif" font-size="14.00">performs</text>
</g>
<!-- functionality_Manipulation -->
<g id="node6" class="node">
<title>functionality_Manipulation</title>
<polygon fill="none" stroke="black" points="509.62,-36 421.62,-36 421.62,0 509.62,0 509.62,-36"/>
<text text-anchor="middle" x="465.62" y="-12.57" font-family="Times New Roman,serif" font-size="14.00">Manipulation</text>
</g>
<!-- qd1d2&#45;&gt;functionality_Manipulation -->
<g id="edge5" class="edge">
<title>qd1d2&#45;&gt;functionality_Manipulation</title>
<path fill="none" stroke="black" d="M425.24,-87.59C429.81,-82.01 434.61,-75.79 438.62,-69.75 443.54,-62.35 448.3,-53.97 452.42,-46.17"/>
<polygon fill="black" stroke="black" points="455.99,-47.89 457.43,-37.4 449.76,-44.7 455.99,-47.89"/>
<text text-anchor="middle" x="474.12" y="-56.45" font-family="Times New Roman,serif" font-size="14.00">performs</text>
</g>
<!-- functionality_EnergyManagement -->
<g id="node7" class="node">
<title>functionality_EnergyManagement</title>
<polygon fill="none" stroke="black" points="657.25,-36 528,-36 528,0 657.25,0 657.25,-36"/>
<text text-anchor="middle" x="592.62" y="-12.57" font-family="Times New Roman,serif" font-size="14.00">Energy Management</text>
</g>
<!-- qd1d2&#45;&gt;functionality_EnergyManagement -->
<g id="edge6" class="edge">
<title>qd1d2&#45;&gt;functionality_EnergyManagement</title>
<path fill="none" stroke="black" d="M436.11,-97.1C455.32,-90.23 481.42,-80.3 503.62,-69.75 521.05,-61.47 539.69,-51.09 555.39,-41.88"/>
<polygon fill="black" stroke="black" points="556.93,-44.44 563.74,-36.33 553.36,-38.42 556.93,-44.44"/>
<text text-anchor="middle" x="560.12" y="-56.45" font-family="Times New Roman,serif" font-size="14.00">performs</text>
</g>
<!-- functionality_Learning -->
<g id="node8" class="node">
<title>functionality_Learning</title>
<polygon fill="none" stroke="black" points="739.62,-36 675.62,-36 675.62,0 739.62,0 739.62,-36"/>
<text text-anchor="middle" x="707.62" y="-12.57" font-family="Times New Roman,serif" font-size="14.00">Learning</text>
</g>
<!-- qd1d2&#45;&gt;functionality_Learning -->
<g id="edge7" class="edge">
<title>qd1d2&#45;&gt;functionality_Learning</title>
<path fill="none" stroke="black" d="M436.05,-102.73C471.9,-97.4 536.38,-86.41 589.62,-69.75 615.46,-61.67 643.33,-49.83 665.5,-39.63"/>
<polygon fill="black" stroke="black" points="666.67,-42.48 674.25,-35.07 663.71,-36.13 666.67,-42.48"/>
<text text-anchor="middle" x="655.12" y="-56.45" font-family="Times New Roman,serif" font-size="14.00">performs</text>
</g>
<!-- functionality_Security -->
<g id="node9" class="node">
<title>functionality_Security</title>
<polygon fill="none" stroke="black" points="819.5,-36 757.75,-36 757.75,0 819.5,0 819.5,-36"/>
<text text-anchor="middle" x="788.62" y="-12.57" font-family="Times New Roman,serif" font-size="14.00">Security</text>
</g>
<!-- qd1d2&#45;&gt;functionality_Security -->
<g id="edge8" class="edge">
<title>qd1d2&#45;&gt;functionality_Security</title>
<path fill="none" stroke="black" d="M435.87,-105.76C486.1,-103.76 596.24,-96.43 684.62,-69.75 707.23,-62.93 730.99,-51.67 750.09,-41.5"/>
<polygon fill="black" stroke="black" points="751.52,-44.16 758.62,-36.3 748.17,-38.01 751.52,-44.16"/>
<text text-anchor="middle" x="748.12" y="-56.45" font-family="Times New Roman,serif" font-size="14.00">performs</text>
</g>
</g>
</svg>
