<?xml version="1.0" encoding="UTF-8" standalone="no"?>
<!DOCTYPE svg PUBLIC "-//W3C//DTD SVG 1.1//EN"
 "http://www.w3.org/Graphics/SVG/1.1/DTD/svg11.dtd">
<!-- Generated by graphviz version 8.1.0 (20230707.0739)
 -->
<!-- Title: qd1d2PhysicalComponents Pages: 1 -->
<svg width="1011pt" height="135pt"
 viewBox="0.00 0.00 1010.88 135.25" xmlns="http://www.w3.org/2000/svg" xmlns:xlink="http://www.w3.org/1999/xlink">
<g id="graph0" class="graph" transform="scale(1 1) rotate(0) translate(4 131.25)">
<title>qd1d2PhysicalComponents</title>
<polygon fill="white" stroke="none" points="-4,4 -4,-131.25 1006.88,-131.25 1006.88,4 -4,4"/>
<!-- qd1d2 -->
<g id="node1" class="node">
<title>qd1d2</title>
<polygon fill="none" stroke="black" points="481.5,-127.25 427.5,-127.25 427.5,-87.75 481.5,-87.75 481.5,-127.25"/>
<text text-anchor="middle" x="454.5" y="-109.95" font-family="Times New Roman,serif" font-size="14.00">qd1d2</text>
<text text-anchor="middle" x="454.5" y="-94.2" font-family="Times New Roman,serif" font-size="14.00">Robot</text>
</g>
<!-- component_PowerUnit -->
<g id="node2" class="node">
<title>component_PowerUnit</title>
<polygon fill="none" stroke="black" points="79,-36 0,-36 0,0 79,0 79,-36"/>
<text text-anchor="middle" x="39.5" y="-12.57" font-family="Times New Roman,serif" font-size="14.00">Power Unit</text>
</g>
<!-- qd1d2&#45;&gt;component_PowerUnit -->
<g id="edge1" class="edge">
<title>qd1d2&#45;&gt;component_PowerUnit</title>
<path fill="none" stroke="black" d="M427.36,-104.27C379.37,-99.99 276.59,-89.26 191.75,-69.75 147.44,-59.56 135.2,-52.6 89.55,-36.71"/>
<polygon fill="black" stroke="black" points="90.88,-33.12 80.28,-33.18 88.6,-39.74 90.88,-33.12"/>
<text text-anchor="middle" x="215.38" y="-56.45" font-family="Times New Roman,serif" font-size="14.00">includes</text>
</g>
<!-- component_MobilitySystem -->
<g id="node3" class="node">
<title>component_MobilitySystem</title>
<polygon fill="none" stroke="black" points="204.25,-36 96.75,-36 96.75,0 204.25,0 204.25,-36"/>
<text text-anchor="middle" x="150.5" y="-12.57" font-family="Times New Roman,serif" font-size="14.00">Mobility System</text>
</g>
<!-- qd1d2&#45;&gt;component_MobilitySystem -->
<g id="edge2" class="edge">
<title>qd1d2&#45;&gt;component_MobilitySystem</title>
<path fill="none" stroke="black" d="M427.01,-101.78C393.36,-95.71 334.79,-84.21 285.75,-69.75 257.74,-61.49 227.22,-50.24 202.28,-40.44"/>
<polygon fill="black" stroke="black" points="203.89,-36.91 193.31,-36.48 201.31,-43.42 203.89,-36.91"/>
<text text-anchor="middle" x="309.38" y="-56.45" font-family="Times New Roman,serif" font-size="14.00">includes</text>
</g>
<!-- component_VisionSystem -->
<g id="node4" class="node">
<title>component_VisionSystem</title>
<polygon fill="none" stroke="black" points="319,-36 222,-36 222,0 319,0 319,-36"/>
<text text-anchor="middle" x="270.5" y="-12.57" font-family="Times New Roman,serif" font-size="14.00">Vision System</text>
</g>
<!-- qd1d2&#45;&gt;component_VisionSystem -->
<g id="edge3" class="edge">
<title>qd1d2&#45;&gt;component_VisionSystem</title>
<path fill="none" stroke="black" d="M427.15,-96.36C408.96,-89.38 384.65,-79.63 363.75,-69.75 345.64,-61.19 326.1,-50.75 309.61,-41.57"/>
<polygon fill="black" stroke="black" points="311.72,-38.18 301.29,-36.34 308.3,-44.29 311.72,-38.18"/>
<text text-anchor="middle" x="387.38" y="-56.45" font-family="Times New Roman,serif" font-size="14.00">includes</text>
</g>
<!-- component_AudioSystem -->
<g id="node5" class="node">
<title>component_AudioSystem</title>
<polygon fill="none" stroke="black" points="432.25,-36 336.75,-36 336.75,0 432.25,0 432.25,-36"/>
<text text-anchor="middle" x="384.5" y="-12.57" font-family="Times New Roman,serif" font-size="14.00">Audio System</text>
</g>
<!-- qd1d2&#45;&gt;component_AudioSystem -->
<g id="edge4" class="edge">
<title>qd1d2&#45;&gt;component_AudioSystem</title>
<path fill="none" stroke="black" d="M439.31,-87.51C429.35,-75.06 416.2,-58.62 405.27,-44.96"/>
<polygon fill="black" stroke="black" points="407.45,-43.08 398.47,-37.46 401.98,-47.46 407.45,-43.08"/>
<text text-anchor="middle" x="447.38" y="-56.45" font-family="Times New Roman,serif" font-size="14.00">includes</text>
</g>
<!-- component_CommunicationSystem -->
<g id="node6" class="node">
<title>component_CommunicationSystem</title>
<polygon fill="none" stroke="black" points="600.25,-36 450.75,-36 450.75,0 600.25,0 600.25,-36"/>
<text text-anchor="middle" x="525.5" y="-12.57" font-family="Times New Roman,serif" font-size="14.00">Communication System</text>
</g>
<!-- qd1d2&#45;&gt;component_CommunicationSystem -->
<g id="edge5" class="edge">
<title>qd1d2&#45;&gt;component_CommunicationSystem</title>
<path fill="none" stroke="black" d="M469.91,-87.51C480.01,-75.06 493.35,-58.62 504.43,-44.96"/>
<polygon fill="black" stroke="black" points="507.75,-47.43 511.33,-37.46 502.31,-43.02 507.75,-47.43"/>
<text text-anchor="middle" x="519.38" y="-56.45" font-family="Times New Roman,serif" font-size="14.00">includes</text>
</g>
<!-- component_ManipulationSystem -->
<g id="node7" class="node">
<title>component_ManipulationSystem</title>
<polygon fill="none" stroke="black" points="751,-36 618,-36 618,0 751,0 751,-36"/>
<text text-anchor="middle" x="684.5" y="-12.57" font-family="Times New Roman,serif" font-size="14.00">Manipulation System</text>
</g>
<!-- qd1d2&#45;&gt;component_ManipulationSystem -->
<g id="edge6" class="edge">
<title>qd1d2&#45;&gt;component_ManipulationSystem</title>
<path fill="none" stroke="black" d="M481.79,-96.12C517.74,-82.44 581.86,-58.05 628.37,-40.35"/>
<polygon fill="black" stroke="black" points="629.5,-43.29 637.61,-36.46 627.01,-36.74 629.5,-43.29"/>
<text text-anchor="middle" x="613.38" y="-56.45" font-family="Times New Roman,serif" font-size="14.00">includes</text>
</g>
<!-- component_LearningSystem -->
<g id="node8" class="node">
<title>component_LearningSystem</title>
<polygon fill="none" stroke="black" points="878,-36 769,-36 769,0 878,0 878,-36"/>
<text text-anchor="middle" x="823.5" y="-12.57" font-family="Times New Roman,serif" font-size="14.00">Learning System</text>
</g>
<!-- qd1d2&#45;&gt;component_LearningSystem -->
<g id="edge7" class="edge">
<title>qd1d2&#45;&gt;component_LearningSystem</title>
<path fill="none" stroke="black" d="M481.75,-101.78C518.11,-95.33 584.45,-83.04 640.5,-69.75 679.75,-60.44 723.28,-48.44 758.03,-38.45"/>
<polygon fill="black" stroke="black" points="758.89,-41.55 767.52,-35.41 756.95,-34.83 758.89,-41.55"/>
<text text-anchor="middle" x="724.38" y="-56.45" font-family="Times New Roman,serif" font-size="14.00">includes</text>
</g>
<!-- component_SecuritySystem -->
<g id="node9" class="node">
<title>component_SecuritySystem</title>
<polygon fill="none" stroke="black" points="1002.88,-36 896.12,-36 896.12,0 1002.88,0 1002.88,-36"/>
<text text-anchor="middle" x="949.5" y="-12.57" font-family="Times New Roman,serif" font-size="14.00">Security System</text>
</g>
<!-- qd1d2&#45;&gt;component_SecuritySystem -->
<g id="edge8" class="edge">
<title>qd1d2&#45;&gt;component_SecuritySystem</title>
<path fill="none" stroke="black" d="M481.69,-104.24C534.16,-99.63 652.9,-88.02 751.5,-69.75 809.51,-59 825.58,-52.45 885.35,-36.57"/>
<polygon fill="black" stroke="black" points="885.98,-39.76 894.75,-33.82 884.19,-32.99 885.98,-39.76"/>
<text text-anchor="middle" x="843.38" y="-56.45" font-family="Times New Roman,serif" font-size="14.00">includes</text>
</g>
</g>
</svg>
