<?xml version="1.0" encoding="UTF-8" standalone="no"?>
<!DOCTYPE svg PUBLIC "-//W3C//DTD SVG 1.1//EN"
 "http://www.w3.org/Graphics/SVG/1.1/DTD/svg11.dtd">
<!-- Generated by graphviz version 8.1.0 (20230707.0739)
 -->
<!-- Title: G Pages: 1 -->
<svg width="1136pt" height="1340pt"
 viewBox="0.00 0.00 1136.13 1340.00" xmlns="http://www.w3.org/2000/svg" xmlns:xlink="http://www.w3.org/1999/xlink">
<g id="graph0" class="graph" transform="scale(1 1) rotate(0) translate(4 1336)">
<title>G</title>
<polygon fill="white" stroke="none" points="-4,4 -4,-1336 1132.13,-1336 1132.13,4 -4,4"/>
<!-- In the shadows of the crust, where mysteries unfold -->
<g id="node1" class="node">
<title>In the shadows of the crust, where mysteries unfold</title>
<ellipse fill="none" stroke="black" cx="593.28" cy="-1314" rx="202.76" ry="18"/>
<text text-anchor="middle" x="593.28" y="-1308.58" font-family="Times New Roman,serif" font-size="14.00">In the shadows of the crust, where mysteries unfold</text>
</g>
<!-- Embraced by the echoes, secrets to be told. -->
<g id="node2" class="node">
<title>Embraced by the echoes, secrets to be told.</title>
<ellipse fill="none" stroke="black" cx="593.28" cy="-1242" rx="174.32" ry="18"/>
<text text-anchor="middle" x="593.28" y="-1236.58" font-family="Times New Roman,serif" font-size="14.00">Embraced by the echoes, secrets to be told.</text>
</g>
<!-- In the shadows of the crust, where mysteries unfold&#45;&gt;Embraced by the echoes, secrets to be told. -->
<g id="edge1" class="edge">
<title>In the shadows of the crust, where mysteries unfold&#45;&gt;Embraced by the echoes, secrets to be told.</title>
<path fill="none" stroke="black" d="M593.28,-1295.7C593.28,-1288.24 593.28,-1279.32 593.28,-1270.97"/>
<polygon fill="black" stroke="black" points="596.78,-1271.1 593.28,-1261.1 589.78,-1271.1 596.78,-1271.1"/>
</g>
<!-- Casting light upon the surface, in the realm of the deep, -->
<g id="node3" class="node">
<title>Casting light upon the surface, in the realm of the deep,</title>
<ellipse fill="none" stroke="black" cx="593.28" cy="-1170" rx="215.23" ry="18"/>
<text text-anchor="middle" x="593.28" y="-1164.58" font-family="Times New Roman,serif" font-size="14.00">Casting light upon the surface, in the realm of the deep,</text>
</g>
<!-- Embraced by the echoes, secrets to be told.&#45;&gt;Casting light upon the surface, in the realm of the deep, -->
<g id="edge2" class="edge">
<title>Embraced by the echoes, secrets to be told.&#45;&gt;Casting light upon the surface, in the realm of the deep,</title>
<path fill="none" stroke="black" d="M593.28,-1223.7C593.28,-1216.24 593.28,-1207.32 593.28,-1198.97"/>
<polygon fill="black" stroke="black" points="596.78,-1199.1 593.28,-1189.1 589.78,-1199.1 596.78,-1199.1"/>
</g>
<!-- A dance of Em and C, where ancient whispers sleep. -->
<g id="node4" class="node">
<title>A dance of Em and C, where ancient whispers sleep.</title>
<ellipse fill="none" stroke="black" cx="593.28" cy="-1098" rx="206.75" ry="18"/>
<text text-anchor="middle" x="593.28" y="-1092.58" font-family="Times New Roman,serif" font-size="14.00">A dance of Em and C, where ancient whispers sleep.</text>
</g>
<!-- Casting light upon the surface, in the realm of the deep,&#45;&gt;A dance of Em and C, where ancient whispers sleep. -->
<g id="edge3" class="edge">
<title>Casting light upon the surface, in the realm of the deep,&#45;&gt;A dance of Em and C, where ancient whispers sleep.</title>
<path fill="none" stroke="black" d="M593.28,-1151.7C593.28,-1144.24 593.28,-1135.32 593.28,-1126.97"/>
<polygon fill="black" stroke="black" points="596.78,-1127.1 593.28,-1117.1 589.78,-1127.1 596.78,-1127.1"/>
</g>
<!-- Chorus -->
<g id="node5" class="node">
<title>Chorus</title>
<ellipse fill="none" stroke="black" cx="593.28" cy="-1026" rx="38.09" ry="18"/>
<text text-anchor="middle" x="593.28" y="-1020.58" font-family="Times New Roman,serif" font-size="14.00">Chorus</text>
</g>
<!-- A dance of Em and C, where ancient whispers sleep.&#45;&gt;Chorus -->
<g id="edge4" class="edge">
<title>A dance of Em and C, where ancient whispers sleep.&#45;&gt;Chorus</title>
<path fill="none" stroke="black" d="M593.28,-1079.7C593.28,-1072.24 593.28,-1063.32 593.28,-1054.97"/>
<polygon fill="black" stroke="black" points="596.78,-1055.1 593.28,-1045.1 589.78,-1055.1 596.78,-1055.1"/>
</g>
<!-- Ceta in the ocean, a melody in the waves, -->
<g id="node6" class="node">
<title>Ceta in the ocean, a melody in the waves,</title>
<ellipse fill="none" stroke="black" cx="203.28" cy="-954" rx="163.84" ry="18"/>
<text text-anchor="middle" x="203.28" y="-948.58" font-family="Times New Roman,serif" font-size="14.00">Ceta in the ocean, a melody in the waves,</text>
</g>
<!-- Chorus&#45;&gt;Ceta in the ocean, a melody in the waves, -->
<g id="edge5" class="edge">
<title>Chorus&#45;&gt;Ceta in the ocean, a melody in the waves,</title>
<path fill="none" stroke="black" d="M557.99,-1018.66C499.55,-1008.18 380.82,-986.87 296.86,-971.8"/>
<polygon fill="black" stroke="black" points="297.74,-968.22 287.28,-969.9 296.51,-975.11 297.74,-968.22"/>
</g>
<!-- Nebula so clear, in the cosmic expanse, -->
<g id="node15" class="node">
<title>Nebula so clear, in the cosmic expanse,</title>
<ellipse fill="none" stroke="black" cx="593.28" cy="-954" rx="157.35" ry="18"/>
<text text-anchor="middle" x="593.28" y="-948.58" font-family="Times New Roman,serif" font-size="14.00">Nebula so clear, in the cosmic expanse,</text>
</g>
<!-- Chorus&#45;&gt;Nebula so clear, in the cosmic expanse, -->
<g id="edge15" class="edge">
<title>Chorus&#45;&gt;Nebula so clear, in the cosmic expanse,</title>
<path fill="none" stroke="black" d="M593.28,-1007.7C593.28,-1000.24 593.28,-991.32 593.28,-982.97"/>
<polygon fill="black" stroke="black" points="596.78,-983.1 593.28,-973.1 589.78,-983.1 596.78,-983.1"/>
</g>
<!-- Palms and feet in sweet surrender, -->
<g id="node19" class="node">
<title>Palms and feet in sweet surrender,</title>
<ellipse fill="none" stroke="black" cx="951.28" cy="-954" rx="137.39" ry="18"/>
<text text-anchor="middle" x="951.28" y="-948.58" font-family="Times New Roman,serif" font-size="14.00">Palms and feet in sweet surrender,</text>
</g>
<!-- Chorus&#45;&gt;Palms and feet in sweet surrender, -->
<g id="edge20" class="edge">
<title>Chorus&#45;&gt;Palms and feet in sweet surrender,</title>
<path fill="none" stroke="black" d="M627.94,-1018.22C682.57,-1007.54 790.33,-986.47 866.4,-971.6"/>
<polygon fill="black" stroke="black" points="866.77,-974.89 875.92,-969.54 865.43,-968.02 866.77,-974.89"/>
</g>
<!-- Amidst the ebb and flow, a symphony engraves. -->
<g id="node7" class="node">
<title>Amidst the ebb and flow, a symphony engraves.</title>
<ellipse fill="none" stroke="black" cx="190.28" cy="-882" rx="190.28" ry="18"/>
<text text-anchor="middle" x="190.28" y="-876.58" font-family="Times New Roman,serif" font-size="14.00">Amidst the ebb and flow, a symphony engraves.</text>
</g>
<!-- Ceta in the ocean, a melody in the waves,&#45;&gt;Amidst the ebb and flow, a symphony engraves. -->
<g id="edge6" class="edge">
<title>Ceta in the ocean, a melody in the waves,&#45;&gt;Amidst the ebb and flow, a symphony engraves.</title>
<path fill="none" stroke="black" d="M200.07,-935.7C198.67,-928.15 196.99,-919.12 195.42,-910.68"/>
<polygon fill="black" stroke="black" points="198.73,-910.3 193.46,-901.1 191.85,-911.58 198.73,-910.3"/>
</g>
<!-- Hovering near and far, like spirits in the mist, -->
<g id="node8" class="node">
<title>Hovering near and far, like spirits in the mist,</title>
<ellipse fill="none" stroke="black" cx="190.28" cy="-810" rx="176.31" ry="18"/>
<text text-anchor="middle" x="190.28" y="-804.58" font-family="Times New Roman,serif" font-size="14.00">Hovering near and far, like spirits in the mist,</text>
</g>
<!-- Amidst the ebb and flow, a symphony engraves.&#45;&gt;Hovering near and far, like spirits in the mist, -->
<g id="edge7" class="edge">
<title>Amidst the ebb and flow, a symphony engraves.&#45;&gt;Hovering near and far, like spirits in the mist,</title>
<path fill="none" stroke="black" d="M190.28,-863.7C190.28,-856.24 190.28,-847.32 190.28,-838.97"/>
<polygon fill="black" stroke="black" points="193.78,-839.1 190.28,-829.1 186.78,-839.1 193.78,-839.1"/>
</g>
<!-- Emotional tides, a dance of the heart&#39;s twist. -->
<g id="node9" class="node">
<title>Emotional tides, a dance of the heart&#39;s twist.</title>
<ellipse fill="none" stroke="black" cx="190.28" cy="-738" rx="174.32" ry="18"/>
<text text-anchor="middle" x="190.28" y="-732.58" font-family="Times New Roman,serif" font-size="14.00">Emotional tides, a dance of the heart&#39;s twist.</text>
</g>
<!-- Hovering near and far, like spirits in the mist,&#45;&gt;Emotional tides, a dance of the heart&#39;s twist. -->
<g id="edge8" class="edge">
<title>Hovering near and far, like spirits in the mist,&#45;&gt;Emotional tides, a dance of the heart&#39;s twist.</title>
<path fill="none" stroke="black" d="M190.28,-791.7C190.28,-784.24 190.28,-775.32 190.28,-766.97"/>
<polygon fill="black" stroke="black" points="193.78,-767.1 190.28,-757.1 186.78,-767.1 193.78,-767.1"/>
</g>
<!-- Verse2 -->
<g id="node10" class="node">
<title>Verse2</title>
<ellipse fill="none" stroke="black" cx="190.28" cy="-666" rx="36.59" ry="18"/>
<text text-anchor="middle" x="190.28" y="-660.58" font-family="Times New Roman,serif" font-size="14.00">Verse2</text>
</g>
<!-- Emotional tides, a dance of the heart&#39;s twist.&#45;&gt;Verse2 -->
<g id="edge9" class="edge">
<title>Emotional tides, a dance of the heart&#39;s twist.&#45;&gt;Verse2</title>
<path fill="none" stroke="black" d="M190.28,-719.7C190.28,-712.24 190.28,-703.32 190.28,-694.97"/>
<polygon fill="black" stroke="black" points="193.78,-695.1 190.28,-685.1 186.78,-695.1 193.78,-695.1"/>
</g>
<!-- Floating at the surface, where dreams take flight, -->
<g id="node11" class="node">
<title>Floating at the surface, where dreams take flight,</title>
<ellipse fill="none" stroke="black" cx="190.28" cy="-594" rx="189.78" ry="18"/>
<text text-anchor="middle" x="190.28" y="-588.58" font-family="Times New Roman,serif" font-size="14.00">Floating at the surface, where dreams take flight,</text>
</g>
<!-- Verse2&#45;&gt;Floating at the surface, where dreams take flight, -->
<g id="edge10" class="edge">
<title>Verse2&#45;&gt;Floating at the surface, where dreams take flight,</title>
<path fill="none" stroke="black" d="M190.28,-647.7C190.28,-640.24 190.28,-631.32 190.28,-622.97"/>
<polygon fill="black" stroke="black" points="193.78,-623.1 190.28,-613.1 186.78,-623.1 193.78,-623.1"/>
</g>
<!-- Am and G, in the soft moonlight. -->
<g id="node12" class="node">
<title>Am and G, in the soft moonlight.</title>
<ellipse fill="none" stroke="black" cx="204.28" cy="-522" rx="133.4" ry="18"/>
<text text-anchor="middle" x="204.28" y="-516.58" font-family="Times New Roman,serif" font-size="14.00">Am and G, in the soft moonlight.</text>
</g>
<!-- Floating at the surface, where dreams take flight,&#45;&gt;Am and G, in the soft moonlight. -->
<g id="edge11" class="edge">
<title>Floating at the surface, where dreams take flight,&#45;&gt;Am and G, in the soft moonlight.</title>
<path fill="none" stroke="black" d="M193.74,-575.7C195.25,-568.15 197.06,-559.12 198.75,-550.68"/>
<polygon fill="black" stroke="black" points="202.33,-551.6 200.86,-541.1 195.47,-550.22 202.33,-551.6"/>
</g>
<!-- Boundary of water, a frontier to explore, -->
<g id="node13" class="node">
<title>Boundary of water, a frontier to explore,</title>
<ellipse fill="none" stroke="black" cx="212.28" cy="-450" rx="160.84" ry="18"/>
<text text-anchor="middle" x="212.28" y="-444.57" font-family="Times New Roman,serif" font-size="14.00">Boundary of water, a frontier to explore,</text>
</g>
<!-- Am and G, in the soft moonlight.&#45;&gt;Boundary of water, a frontier to explore, -->
<g id="edge12" class="edge">
<title>Am and G, in the soft moonlight.&#45;&gt;Boundary of water, a frontier to explore,</title>
<path fill="none" stroke="black" d="M206.26,-503.7C207.11,-496.24 208.13,-487.32 209.09,-478.97"/>
<polygon fill="black" stroke="black" points="212.67,-479.44 210.33,-469.1 205.72,-478.64 212.67,-479.44"/>
</g>
<!-- Dm and G, tales of the seafloor. -->
<g id="node14" class="node">
<title>Dm and G, tales of the seafloor.</title>
<ellipse fill="none" stroke="black" cx="314.28" cy="-378" rx="129.91" ry="18"/>
<text text-anchor="middle" x="314.28" y="-372.57" font-family="Times New Roman,serif" font-size="14.00">Dm and G, tales of the seafloor.</text>
</g>
<!-- Boundary of water, a frontier to explore,&#45;&gt;Dm and G, tales of the seafloor. -->
<g id="edge13" class="edge">
<title>Boundary of water, a frontier to explore,&#45;&gt;Dm and G, tales of the seafloor.</title>
<path fill="none" stroke="black" d="M237.24,-431.88C250.3,-422.91 266.48,-411.81 280.63,-402.09"/>
<polygon fill="black" stroke="black" points="282.32,-404.49 288.59,-395.95 278.36,-398.72 282.32,-404.49"/>
</g>
<!-- Dm and G, tales of the seafloor.&#45;&gt;Chorus -->
<g id="edge14" class="edge">
<title>Dm and G, tales of the seafloor.&#45;&gt;Chorus</title>
<path fill="none" stroke="black" d="M343.61,-395.86C357.14,-404.99 372.36,-417.39 382.28,-432 405.43,-466.09 408.28,-479.79 408.28,-521 408.28,-883 408.28,-883 408.28,-883 408.28,-923.45 400.13,-942.02 427.28,-972 457.05,-1004.86 507.12,-1017.46 544.51,-1022.24"/>
<polygon fill="black" stroke="black" points="543.85,-1025.8 554.18,-1023.43 544.63,-1018.84 543.85,-1025.8"/>
</g>
<!-- Am and G, a celestial dance. -->
<g id="node16" class="node">
<title>Am and G, a celestial dance.</title>
<ellipse fill="none" stroke="black" cx="595.28" cy="-882" rx="116.93" ry="18"/>
<text text-anchor="middle" x="595.28" y="-876.58" font-family="Times New Roman,serif" font-size="14.00">Am and G, a celestial dance.</text>
</g>
<!-- Nebula so clear, in the cosmic expanse,&#45;&gt;Am and G, a celestial dance. -->
<g id="edge16" class="edge">
<title>Nebula so clear, in the cosmic expanse,&#45;&gt;Am and G, a celestial dance.</title>
<path fill="none" stroke="black" d="M593.78,-935.7C593.99,-928.24 594.25,-919.32 594.48,-910.97"/>
<polygon fill="black" stroke="black" points="598.01,-911.2 594.79,-901.1 591.01,-911 598.01,-911.2"/>
</g>
<!-- At flat organism, life&#39;s canvas unfurls, -->
<g id="node17" class="node">
<title>At flat organism, life&#39;s canvas unfurls,</title>
<ellipse fill="none" stroke="black" cx="597.28" cy="-810" rx="150.36" ry="18"/>
<text text-anchor="middle" x="597.28" y="-804.58" font-family="Times New Roman,serif" font-size="14.00">At flat organism, life&#39;s canvas unfurls,</text>
</g>
<!-- Am and G, a celestial dance.&#45;&gt;At flat organism, life&#39;s canvas unfurls, -->
<g id="edge17" class="edge">
<title>Am and G, a celestial dance.&#45;&gt;At flat organism, life&#39;s canvas unfurls,</title>
<path fill="none" stroke="black" d="M595.78,-863.7C595.99,-856.24 596.25,-847.32 596.48,-838.97"/>
<polygon fill="black" stroke="black" points="600.01,-839.2 596.79,-829.1 593.01,-839 600.01,-839.2"/>
</g>
<!-- Cmaj7 and Am7, painting vibrant swirls. -->
<g id="node18" class="node">
<title>Cmaj7 and Am7, painting vibrant swirls.</title>
<ellipse fill="none" stroke="black" cx="638.28" cy="-738" rx="159.35" ry="18"/>
<text text-anchor="middle" x="638.28" y="-732.58" font-family="Times New Roman,serif" font-size="14.00">Cmaj7 and Am7, painting vibrant swirls.</text>
</g>
<!-- At flat organism, life&#39;s canvas unfurls,&#45;&gt;Cmaj7 and Am7, painting vibrant swirls. -->
<g id="edge18" class="edge">
<title>At flat organism, life&#39;s canvas unfurls,&#45;&gt;Cmaj7 and Am7, painting vibrant swirls.</title>
<path fill="none" stroke="black" d="M607.42,-791.7C612.04,-783.81 617.61,-774.3 622.74,-765.55"/>
<polygon fill="black" stroke="black" points="626.23,-767.5 628.27,-757.1 620.19,-763.96 626.23,-767.5"/>
</g>
<!-- Cmaj7 and Am7, painting vibrant swirls.&#45;&gt;Chorus -->
<g id="edge19" class="edge">
<title>Cmaj7 and Am7, painting vibrant swirls.&#45;&gt;Chorus</title>
<path fill="none" stroke="black" d="M706.24,-754.66C725.63,-762.58 744.63,-774.4 756.28,-792 837.62,-914.87 780.7,-942.69 759.28,-972 732.7,-1008.4 680.83,-1020.38 642.11,-1024.04"/>
<polygon fill="black" stroke="black" points="642.27,-1020.59 632.57,-1024.86 642.82,-1027.57 642.27,-1020.59"/>
</g>
<!-- Am and G, a moment to remember. -->
<g id="node20" class="node">
<title>Am and G, a moment to remember.</title>
<ellipse fill="none" stroke="black" cx="958.28" cy="-882" rx="142.88" ry="18"/>
<text text-anchor="middle" x="958.28" y="-876.58" font-family="Times New Roman,serif" font-size="14.00">Am and G, a moment to remember.</text>
</g>
<!-- Palms and feet in sweet surrender,&#45;&gt;Am and G, a moment to remember. -->
<g id="edge21" class="edge">
<title>Palms and feet in sweet surrender,&#45;&gt;Am and G, a moment to remember.</title>
<path fill="none" stroke="black" d="M953.01,-935.7C953.76,-928.24 954.65,-919.32 955.49,-910.97"/>
<polygon fill="black" stroke="black" points="959.06,-911.4 956.57,-901.1 952.1,-910.71 959.06,-911.4"/>
</g>
<!-- Multi&#45;verse dictation, whispers in the air, -->
<g id="node21" class="node">
<title>Multi&#45;verse dictation, whispers in the air,</title>
<ellipse fill="none" stroke="black" cx="967.28" cy="-810" rx="160.84" ry="18"/>
<text text-anchor="middle" x="967.28" y="-804.58" font-family="Times New Roman,serif" font-size="14.00">Multi&#45;verse dictation, whispers in the air,</text>
</g>
<!-- Am and G, a moment to remember.&#45;&gt;Multi&#45;verse dictation, whispers in the air, -->
<g id="edge22" class="edge">
<title>Am and G, a moment to remember.&#45;&gt;Multi&#45;verse dictation, whispers in the air,</title>
<path fill="none" stroke="black" d="M960.51,-863.7C961.47,-856.24 962.61,-847.32 963.69,-838.97"/>
<polygon fill="black" stroke="black" points="967.28,-839.47 965.08,-829.1 960.34,-838.58 967.28,-839.47"/>
</g>
<!-- Dm and G, a cosmic affair. -->
<g id="node22" class="node">
<title>Dm and G, a cosmic affair.</title>
<ellipse fill="none" stroke="black" cx="967.28" cy="-738" rx="111.94" ry="18"/>
<text text-anchor="middle" x="967.28" y="-732.58" font-family="Times New Roman,serif" font-size="14.00">Dm and G, a cosmic affair.</text>
</g>
<!-- Multi&#45;verse dictation, whispers in the air,&#45;&gt;Dm and G, a cosmic affair. -->
<g id="edge23" class="edge">
<title>Multi&#45;verse dictation, whispers in the air,&#45;&gt;Dm and G, a cosmic affair.</title>
<path fill="none" stroke="black" d="M967.28,-791.7C967.28,-784.24 967.28,-775.32 967.28,-766.97"/>
<polygon fill="black" stroke="black" points="970.78,-767.1 967.28,-757.1 963.78,-767.1 970.78,-767.1"/>
</g>
<!-- Verse4 -->
<g id="node23" class="node">
<title>Verse4</title>
<ellipse fill="none" stroke="black" cx="967.28" cy="-666" rx="36.59" ry="18"/>
<text text-anchor="middle" x="967.28" y="-660.58" font-family="Times New Roman,serif" font-size="14.00">Verse4</text>
</g>
<!-- Dm and G, a cosmic affair.&#45;&gt;Verse4 -->
<g id="edge24" class="edge">
<title>Dm and G, a cosmic affair.&#45;&gt;Verse4</title>
<path fill="none" stroke="black" d="M967.28,-719.7C967.28,-712.24 967.28,-703.32 967.28,-694.97"/>
<polygon fill="black" stroke="black" points="970.78,-695.1 967.28,-685.1 963.78,-695.1 970.78,-695.1"/>
</g>
<!-- Third Mega Mess Man in the trap, -->
<g id="node24" class="node">
<title>Third Mega Mess Man in the trap,</title>
<ellipse fill="none" stroke="black" cx="967.28" cy="-594" rx="137.39" ry="18"/>
<text text-anchor="middle" x="967.28" y="-588.58" font-family="Times New Roman,serif" font-size="14.00">Third Mega Mess Man in the trap,</text>
</g>
<!-- Verse4&#45;&gt;Third Mega Mess Man in the trap, -->
<g id="edge25" class="edge">
<title>Verse4&#45;&gt;Third Mega Mess Man in the trap,</title>
<path fill="none" stroke="black" d="M967.28,-647.7C967.28,-640.24 967.28,-631.32 967.28,-622.97"/>
<polygon fill="black" stroke="black" points="970.78,-623.1 967.28,-613.1 963.78,-623.1 970.78,-623.1"/>
</g>
<!-- Am and Dm, where echoes overlap. -->
<g id="node25" class="node">
<title>Am and Dm, where echoes overlap.</title>
<ellipse fill="none" stroke="black" cx="967.28" cy="-522" rx="143.88" ry="18"/>
<text text-anchor="middle" x="967.28" y="-516.58" font-family="Times New Roman,serif" font-size="14.00">Am and Dm, where echoes overlap.</text>
</g>
<!-- Third Mega Mess Man in the trap,&#45;&gt;Am and Dm, where echoes overlap. -->
<g id="edge26" class="edge">
<title>Third Mega Mess Man in the trap,&#45;&gt;Am and Dm, where echoes overlap.</title>
<path fill="none" stroke="black" d="M967.28,-575.7C967.28,-568.24 967.28,-559.32 967.28,-550.97"/>
<polygon fill="black" stroke="black" points="970.78,-551.1 967.28,-541.1 963.78,-551.1 970.78,-551.1"/>
</g>
<!-- Boundary third mega mess man, -->
<g id="node26" class="node">
<title>Boundary third mega mess man,</title>
<ellipse fill="none" stroke="black" cx="967.28" cy="-450" rx="130.4" ry="18"/>
<text text-anchor="middle" x="967.28" y="-444.57" font-family="Times New Roman,serif" font-size="14.00">Boundary third mega mess man,</text>
</g>
<!-- Am and Dm, where echoes overlap.&#45;&gt;Boundary third mega mess man, -->
<g id="edge27" class="edge">
<title>Am and Dm, where echoes overlap.&#45;&gt;Boundary third mega mess man,</title>
<path fill="none" stroke="black" d="M967.28,-503.7C967.28,-496.24 967.28,-487.32 967.28,-478.97"/>
<polygon fill="black" stroke="black" points="970.78,-479.1 967.28,-469.1 963.78,-479.1 970.78,-479.1"/>
</g>
<!-- Em and Bm, in the celestial span. -->
<g id="node27" class="node">
<title>Em and Bm, in the celestial span.</title>
<ellipse fill="none" stroke="black" cx="967.28" cy="-378" rx="133.4" ry="18"/>
<text text-anchor="middle" x="967.28" y="-372.57" font-family="Times New Roman,serif" font-size="14.00">Em and Bm, in the celestial span.</text>
</g>
<!-- Boundary third mega mess man,&#45;&gt;Em and Bm, in the celestial span. -->
<g id="edge28" class="edge">
<title>Boundary third mega mess man,&#45;&gt;Em and Bm, in the celestial span.</title>
<path fill="none" stroke="black" d="M967.28,-431.7C967.28,-424.24 967.28,-415.32 967.28,-406.97"/>
<polygon fill="black" stroke="black" points="970.78,-407.1 967.28,-397.1 963.78,-407.1 970.78,-407.1"/>
</g>
<!-- Outro -->
<g id="node28" class="node">
<title>Outro</title>
<ellipse fill="none" stroke="black" cx="967.28" cy="-306" rx="32.6" ry="18"/>
<text text-anchor="middle" x="967.28" y="-300.57" font-family="Times New Roman,serif" font-size="14.00">Outro</text>
</g>
<!-- Em and Bm, in the celestial span.&#45;&gt;Outro -->
<g id="edge29" class="edge">
<title>Em and Bm, in the celestial span.&#45;&gt;Outro</title>
<path fill="none" stroke="black" d="M967.28,-359.7C967.28,-352.24 967.28,-343.32 967.28,-334.97"/>
<polygon fill="black" stroke="black" points="970.78,-335.1 967.28,-325.1 963.78,-335.1 970.78,-335.1"/>
</g>
<!-- Boundary third mega water substance, -->
<g id="node29" class="node">
<title>Boundary third mega water substance,</title>
<ellipse fill="none" stroke="black" cx="967.28" cy="-234" rx="152.86" ry="18"/>
<text text-anchor="middle" x="967.28" y="-228.57" font-family="Times New Roman,serif" font-size="14.00">Boundary third mega water substance,</text>
</g>
<!-- Outro&#45;&gt;Boundary third mega water substance, -->
<g id="edge30" class="edge">
<title>Outro&#45;&gt;Boundary third mega water substance,</title>
<path fill="none" stroke="black" d="M967.28,-287.7C967.28,-280.24 967.28,-271.32 967.28,-262.97"/>
<polygon fill="black" stroke="black" points="970.78,-263.1 967.28,-253.1 963.78,-263.1 970.78,-263.1"/>
</g>
<!-- G and D, a cosmic dance. -->
<g id="node30" class="node">
<title>G and D, a cosmic dance.</title>
<ellipse fill="none" stroke="black" cx="967.28" cy="-162" rx="107.95" ry="18"/>
<text text-anchor="middle" x="967.28" y="-156.57" font-family="Times New Roman,serif" font-size="14.00">G and D, a cosmic dance.</text>
</g>
<!-- Boundary third mega water substance,&#45;&gt;G and D, a cosmic dance. -->
<g id="edge31" class="edge">
<title>Boundary third mega water substance,&#45;&gt;G and D, a cosmic dance.</title>
<path fill="none" stroke="black" d="M967.28,-215.7C967.28,-208.24 967.28,-199.32 967.28,-190.97"/>
<polygon fill="black" stroke="black" points="970.78,-191.1 967.28,-181.1 963.78,-191.1 970.78,-191.1"/>
</g>
<!-- Grab, grasp, and then grasp again, -->
<g id="node31" class="node">
<title>Grab, grasp, and then grasp again,</title>
<ellipse fill="none" stroke="black" cx="967.28" cy="-90" rx="138.39" ry="18"/>
<text text-anchor="middle" x="967.28" y="-84.58" font-family="Times New Roman,serif" font-size="14.00">Grab, grasp, and then grasp again,</text>
</g>
<!-- G and D, a cosmic dance.&#45;&gt;Grab, grasp, and then grasp again, -->
<g id="edge32" class="edge">
<title>G and D, a cosmic dance.&#45;&gt;Grab, grasp, and then grasp again,</title>
<path fill="none" stroke="black" d="M967.28,-143.7C967.28,-136.24 967.28,-127.32 967.28,-118.97"/>
<polygon fill="black" stroke="black" points="970.78,-119.1 967.28,-109.1 963.78,-119.1 970.78,-119.1"/>
</g>
<!-- Am and C, the cosmic refrain. -->
<g id="node32" class="node">
<title>Am and C, the cosmic refrain.</title>
<ellipse fill="none" stroke="black" cx="967.28" cy="-18" rx="122.92" ry="18"/>
<text text-anchor="middle" x="967.28" y="-12.57" font-family="Times New Roman,serif" font-size="14.00">Am and C, the cosmic refrain.</text>
</g>
<!-- Grab, grasp, and then grasp again,&#45;&gt;Am and C, the cosmic refrain. -->
<g id="edge33" class="edge">
<title>Grab, grasp, and then grasp again,&#45;&gt;Am and C, the cosmic refrain.</title>
<path fill="none" stroke="black" d="M967.28,-71.7C967.28,-64.24 967.28,-55.32 967.28,-46.97"/>
<polygon fill="black" stroke="black" points="970.78,-47.1 967.28,-37.1 963.78,-47.1 970.78,-47.1"/>
</g>
</g>
</svg>
