<?xml version="1.0" encoding="UTF-8" standalone="no"?>
<!DOCTYPE svg PUBLIC "-//W3C//DTD SVG 1.1//EN"
 "http://www.w3.org/Graphics/SVG/1.1/DTD/svg11.dtd">
<!-- Generated by graphviz version 8.1.0 (20230707.0739)
 -->
<!-- Title: RustCode Pages: 1 -->
<svg width="1745pt" height="246pt"
 viewBox="0.00 0.00 1745.25 245.50" xmlns="http://www.w3.org/2000/svg" xmlns:xlink="http://www.w3.org/1999/xlink">
<g id="graph0" class="graph" transform="scale(1 1) rotate(0) translate(4 241.5)">
<title>RustCode</title>
<polygon fill="white" stroke="none" points="-4,4 -4,-241.5 1741.25,-241.5 1741.25,4 -4,4"/>
<!-- ClassStructure -->
<g id="node1" class="node">
<title>ClassStructure</title>
<polygon fill="none" stroke="black" points="162.62,-201 162.62,-237 294.12,-237 294.12,-201 162.62,-201"/>
<text text-anchor="middle" x="228.38" y="-213.57" font-family="Courier New" font-size="14.00">ClassStructure</text>
</g>
<!-- LunarLander -->
<g id="node2" class="node">
<title>LunarLander</title>
<polygon fill="none" stroke="black" points="154.38,-100.75 154.38,-148.25 302.38,-148.25 302.38,-100.75 154.38,-100.75"/>
<text text-anchor="middle" x="228.38" y="-130.95" font-family="Courier New" font-size="14.00">LunarLander</text>
<polyline fill="none" stroke="black" points="154.38,-124.5 302.38,-124.5"/>
<text text-anchor="middle" x="228.38" y="-107.2" font-family="Courier New" font-size="14.00">position: String</text>
</g>
<!-- ClassStructure&#45;&gt;LunarLander -->
<g id="edge1" class="edge">
<title>ClassStructure&#45;&gt;LunarLander</title>
<path fill="none" stroke="black" d="M228.38,-201.03C228.38,-189.26 228.38,-173.2 228.38,-158.9"/>
<polygon fill="black" stroke="black" points="231.88,-158.94 228.38,-148.94 224.88,-158.94 231.88,-158.94"/>
<text text-anchor="middle" x="260.62" y="-169.2" font-family="Times New Roman,serif" font-size="14.00">inner_realm</text>
</g>
<!-- CalgaryNebula -->
<g id="node3" class="node">
<title>CalgaryNebula</title>
<polygon fill="none" stroke="black" points="0,-0.5 0,-48 172.75,-48 172.75,-0.5 0,-0.5"/>
<text text-anchor="middle" x="86.38" y="-30.7" font-family="Courier New" font-size="14.00">CalgaryNebula</text>
<polyline fill="none" stroke="black" points="0,-24.25 172.75,-24.25"/>
<text text-anchor="middle" x="86.38" y="-6.95" font-family="Courier New" font-size="14.00">composition: String</text>
</g>
<!-- ClassStructure&#45;&gt;CalgaryNebula -->
<g id="edge2" class="edge">
<title>ClassStructure&#45;&gt;CalgaryNebula</title>
<path fill="none" stroke="black" d="M162.75,-204.27C132.35,-194.27 99,-177.29 80.88,-148.75 63.78,-121.84 68.38,-84.58 75.24,-58.04"/>
<polygon fill="black" stroke="black" points="78.81,-59.31 78.16,-48.74 72.07,-57.41 78.81,-59.31"/>
<text text-anchor="middle" x="113.62" y="-119.08" font-family="Times New Roman,serif" font-size="14.00">inner_realm</text>
</g>
<!-- Motivator -->
<g id="node4" class="node">
<title>Motivator</title>
<polygon fill="none" stroke="black" points="240.62,-0.5 240.62,-48 438.12,-48 438.12,-0.5 240.62,-0.5"/>
<text text-anchor="middle" x="339.38" y="-30.7" font-family="Courier New" font-size="14.00">Motivator</text>
<polyline fill="none" stroke="black" points="240.62,-24.25 438.12,-24.25"/>
<text text-anchor="middle" x="339.38" y="-6.95" font-family="Courier New" font-size="14.00">motivator_type: String</text>
</g>
<!-- ClassStructure&#45;&gt;Motivator -->
<g id="edge3" class="edge">
<title>ClassStructure&#45;&gt;Motivator</title>
<path fill="none" stroke="black" d="M271.32,-201.17C280.41,-196.17 289.36,-189.98 296.38,-182.5 328.1,-148.71 336.83,-93.79 339.01,-58.61"/>
<polygon fill="black" stroke="black" points="342.54,-59.09 339.5,-48.94 335.54,-58.76 342.54,-59.09"/>
<text text-anchor="middle" x="375.25" y="-119.08" font-family="Times New Roman,serif" font-size="14.00">outer_function</text>
</g>
<!-- LunarLander&#45;&gt;CalgaryNebula -->
<g id="edge5" class="edge">
<title>LunarLander&#45;&gt;CalgaryNebula</title>
<path fill="none" stroke="black" d="M154.61,-103.86C134.15,-97.21 115.46,-89.6 107.88,-82.25 101.18,-75.76 96.55,-66.98 93.35,-58.26"/>
<polygon fill="black" stroke="black" points="96.42,-57.32 90.12,-48.8 89.73,-59.39 96.42,-57.32"/>
<text text-anchor="middle" x="184.12" y="-68.95" font-family="Times New Roman,serif" font-size="14.00">under_womb, above_worn</text>
</g>
<!-- LunarLander&#45;&gt;Motivator -->
<g id="edge4" class="edge">
<title>LunarLander&#45;&gt;Motivator</title>
<path fill="none" stroke="black" d="M245.8,-100.88C254.83,-89.88 266.4,-76.84 278.12,-66.5 282.87,-62.32 288.06,-58.21 293.34,-54.31"/>
<polygon fill="black" stroke="black" points="295.15,-56.62 301.27,-47.97 291.09,-50.91 295.15,-56.62"/>
<text text-anchor="middle" x="302" y="-68.95" font-family="Times New Roman,serif" font-size="14.00">motivate</text>
</g>
<!-- JediBase -->
<g id="node5" class="node">
<title>JediBase</title>
<polygon fill="none" stroke="black" points="443.38,-201 443.38,-237 525.38,-237 525.38,-201 443.38,-201"/>
<text text-anchor="middle" x="484.38" y="-213.7" font-family="Courier New" font-size="14.00">JediBase</text>
</g>
<!-- Uncharted -->
<g id="node6" class="node">
<title>Uncharted</title>
<polygon fill="none" stroke="black" points="439.25,-106.5 439.25,-142.5 529.5,-142.5 529.5,-106.5 439.25,-106.5"/>
<text text-anchor="middle" x="484.38" y="-119.2" font-family="Courier New" font-size="14.00">Uncharted</text>
</g>
<!-- JediBase&#45;&gt;Uncharted -->
<g id="edge6" class="edge">
<title>JediBase&#45;&gt;Uncharted</title>
<path fill="none" stroke="black" d="M484.38,-201.03C484.38,-187.6 484.38,-168.58 484.38,-152.98"/>
<polygon fill="black" stroke="black" points="487.88,-153.36 484.38,-143.36 480.88,-153.36 487.88,-153.36"/>
<text text-anchor="middle" x="559" y="-169.2" font-family="Times New Roman,serif" font-size="14.00">send_signal_to_moon, sell</text>
</g>
<!-- Uncharted&#45;&gt;Motivator -->
<g id="edge7" class="edge">
<title>Uncharted&#45;&gt;Motivator</title>
<path fill="none" stroke="black" d="M459.45,-106.61C438.17,-92.2 407.12,-71.15 381.92,-54.08"/>
<polygon fill="black" stroke="black" points="384.17,-50.7 373.93,-47.98 380.24,-56.49 384.17,-50.7"/>
<text text-anchor="middle" x="427.75" y="-68.95" font-family="Times New Roman,serif" font-size="14.00">sh</text>
</g>
<!-- lunar_lander -->
<g id="node7" class="node">
<title>lunar_lander</title>
<polygon fill="none" stroke="black" points="547.38,-100.75 547.38,-148.25 695.38,-148.25 695.38,-100.75 547.38,-100.75"/>
<text text-anchor="middle" x="621.38" y="-130.95" font-family="Courier New" font-size="14.00">LunarLander</text>
<polyline fill="none" stroke="black" points="547.38,-124.5 695.38,-124.5"/>
<text text-anchor="middle" x="621.38" y="-107.2" font-family="Courier New" font-size="14.00">position: String</text>
</g>
<!-- lunar_lander&#45;&gt;lunar_lander -->
<g id="edge12" class="edge">
<title>lunar_lander&#45;&gt;lunar_lander</title>
<path fill="none" stroke="black" d="M695.37,-132.98C706.13,-131.63 713.38,-128.81 713.38,-124.5 713.38,-121.81 710.54,-119.69 705.79,-118.16"/>
<polygon fill="black" stroke="black" points="706.87,-114.6 696.37,-116.02 705.46,-121.46 706.87,-114.6"/>
<text text-anchor="middle" x="845.38" y="-119.08" font-family="Times New Roman,serif" font-size="14.00">collapse_solar, oedipial_sunset, freudian_renna</text>
</g>
<!-- calgary_nebula -->
<g id="node8" class="node">
<title>calgary_nebula</title>
<polygon fill="none" stroke="black" points="995,-100.75 995,-148.25 1167.75,-148.25 1167.75,-100.75 995,-100.75"/>
<text text-anchor="middle" x="1081.38" y="-130.95" font-family="Courier New" font-size="14.00">CalgaryNebula</text>
<polyline fill="none" stroke="black" points="995,-124.5 1167.75,-124.5"/>
<text text-anchor="middle" x="1081.38" y="-107.2" font-family="Courier New" font-size="14.00">composition: String</text>
</g>
<!-- calgary_nebula&#45;&gt;calgary_nebula -->
<g id="edge13" class="edge">
<title>calgary_nebula&#45;&gt;calgary_nebula</title>
<path fill="none" stroke="black" d="M1167.36,-132.74C1178.44,-131.31 1185.75,-128.56 1185.75,-124.5 1185.75,-121.96 1182.89,-119.94 1178.05,-118.43"/>
<polygon fill="black" stroke="black" points="1178.86,-114.82 1168.36,-116.26 1177.47,-121.68 1178.86,-114.82"/>
<text text-anchor="middle" x="1261.5" y="-119.08" font-family="Times New Roman,serif" font-size="14.00">under_womb, above_worn</text>
</g>
<!-- motivator -->
<g id="node9" class="node">
<title>motivator</title>
<polygon fill="none" stroke="black" points="1355.62,-100.75 1355.62,-148.25 1553.12,-148.25 1553.12,-100.75 1355.62,-100.75"/>
<text text-anchor="middle" x="1454.38" y="-130.95" font-family="Courier New" font-size="14.00">Motivator</text>
<polyline fill="none" stroke="black" points="1355.62,-124.5 1553.12,-124.5"/>
<text text-anchor="middle" x="1454.38" y="-107.2" font-family="Courier New" font-size="14.00">motivator_type: String</text>
</g>
<!-- motivator&#45;&gt;motivator -->
<g id="edge14" class="edge">
<title>motivator&#45;&gt;motivator</title>
<path fill="none" stroke="black" d="M1552.75,-132.46C1563.9,-130.97 1571.12,-128.32 1571.12,-124.5 1571.12,-122.11 1568.3,-120.18 1563.46,-118.7"/>
<polygon fill="black" stroke="black" points="1564.25,-115.09 1553.75,-116.54 1562.86,-121.95 1564.25,-115.09"/>
<text text-anchor="middle" x="1594.75" y="-119.08" font-family="Times New Roman,serif" font-size="14.00">motivate</text>
</g>
<!-- jedi_base -->
<g id="node10" class="node">
<title>jedi_base</title>
<polygon fill="none" stroke="black" points="1283.38,-201 1283.38,-237 1365.38,-237 1365.38,-201 1283.38,-201"/>
<text text-anchor="middle" x="1324.38" y="-213.7" font-family="Courier New" font-size="14.00">JediBase</text>
</g>
<!-- jedi_base&#45;&gt;jedi_base -->
<g id="edge15" class="edge">
<title>jedi_base&#45;&gt;jedi_base</title>
<path fill="none" stroke="black" d="M1365.19,-227.22C1375.58,-226.68 1383.38,-223.94 1383.38,-219 1383.38,-215.99 1380.48,-213.8 1375.86,-212.42"/>
<polygon fill="black" stroke="black" points="1376.6,-208.84 1366.19,-210.78 1375.54,-215.76 1376.6,-208.84"/>
<text text-anchor="middle" x="1458" y="-213.57" font-family="Times New Roman,serif" font-size="14.00">send_signal_to_moon, sell</text>
</g>
<!-- uncharted -->
<g id="node11" class="node">
<title>uncharted</title>
<polygon fill="none" stroke="black" points="1550.25,-201 1550.25,-237 1640.5,-237 1640.5,-201 1550.25,-201"/>
<text text-anchor="middle" x="1595.38" y="-213.7" font-family="Courier New" font-size="14.00">Uncharted</text>
</g>
<!-- uncharted&#45;&gt;uncharted -->
<g id="edge16" class="edge">
<title>uncharted&#45;&gt;uncharted</title>
<path fill="none" stroke="black" d="M1640.48,-227.14C1650.87,-226.44 1658.5,-223.72 1658.5,-219 1658.5,-216.12 1655.67,-213.99 1651.1,-212.61"/>
<polygon fill="black" stroke="black" points="1651.92,-209.03 1641.48,-210.86 1650.79,-215.94 1651.92,-209.03"/>
<text text-anchor="middle" x="1697.88" y="-213.57" font-family="Times New Roman,serif" font-size="14.00">thank_you, sh</text>
</g>
<!-- class_structure -->
<g id="node12" class="node">
<title>class_structure</title>
<polygon fill="none" stroke="black" points="1011.5,-201 1011.5,-237 1151.25,-237 1151.25,-201 1011.5,-201"/>
<text text-anchor="middle" x="1081.38" y="-213.57" font-family="Courier New" font-size="14.00">class_structure</text>
</g>
<!-- class_structure&#45;&gt;lunar_lander -->
<g id="edge8" class="edge">
<title>class_structure&#45;&gt;lunar_lander</title>
<path fill="none" stroke="black" d="M1011.51,-203.95C929.6,-187.48 793.89,-160.19 706.06,-142.53"/>
<polygon fill="black" stroke="black" points="706.83,-138.91 696.33,-140.37 705.45,-145.77 706.83,-138.91"/>
<text text-anchor="middle" x="949.25" y="-169.2" font-family="Times New Roman,serif" font-size="14.00">add_to_inner_realm</text>
</g>
<!-- class_structure&#45;&gt;calgary_nebula -->
<g id="edge9" class="edge">
<title>class_structure&#45;&gt;calgary_nebula</title>
<path fill="none" stroke="black" d="M1081.38,-201.03C1081.38,-189.26 1081.38,-173.2 1081.38,-158.9"/>
<polygon fill="black" stroke="black" points="1084.88,-158.94 1081.38,-148.94 1077.88,-158.94 1084.88,-158.94"/>
<text text-anchor="middle" x="1137.25" y="-169.2" font-family="Times New Roman,serif" font-size="14.00">add_to_inner_realm</text>
</g>
<!-- class_structure&#45;&gt;motivator -->
<g id="edge10" class="edge">
<title>class_structure&#45;&gt;motivator</title>
<path fill="none" stroke="black" d="M1149.79,-201.03C1206.47,-186.98 1287.87,-166.79 1352.26,-150.82"/>
<polygon fill="black" stroke="black" points="1352.99,-154 1361.85,-148.2 1351.3,-147.21 1352.99,-154"/>
<text text-anchor="middle" x="1330.88" y="-169.2" font-family="Times New Roman,serif" font-size="14.00">set_outer_function</text>
</g>
<!-- class_structure&#45;&gt;class_structure -->
<g id="edge11" class="edge">
<title>class_structure&#45;&gt;class_structure</title>
<path fill="none" stroke="black" d="M1150.99,-226.63C1161.85,-225.49 1169.25,-222.94 1169.25,-219 1169.25,-216.54 1166.36,-214.62 1161.54,-213.25"/>
<polygon fill="black" stroke="black" points="1162.45,-209.68 1151.99,-211.37 1161.22,-216.57 1162.45,-209.68"/>
<text text-anchor="middle" x="1217.25" y="-213.57" font-family="Times New Roman,serif" font-size="14.00">display_structure</text>
</g>
</g>
</svg>
