<?xml version="1.0" encoding="UTF-8" standalone="no"?>
<!DOCTYPE svg PUBLIC "-//W3C//DTD SVG 1.1//EN"
 "http://www.w3.org/Graphics/SVG/1.1/DTD/svg11.dtd">
<!-- Generated by graphviz version 8.1.0 (20230707.0739)
 -->
<!-- Title: Process Pages: 1 -->
<svg width="247pt" height="395pt"
 viewBox="0.00 0.00 246.75 395.00" xmlns="http://www.w3.org/2000/svg" xmlns:xlink="http://www.w3.org/1999/xlink">
<g id="graph0" class="graph" transform="scale(1 1) rotate(0) translate(4 391)">
<title>Process</title>
<polygon fill="white" stroke="none" points="-4,4 -4,-391 242.75,-391 242.75,4 -4,4"/>
<!-- Start -->
<g id="node1" class="node">
<title>Start</title>
<polygon fill="none" stroke="black" points="146.38,-387 92.38,-387 92.38,-351 146.38,-351 146.38,-387"/>
<text text-anchor="middle" x="119.38" y="-363.57" font-family="Times New Roman,serif" font-size="14.00">Start</text>
</g>
<!-- UserInput -->
<g id="node2" class="node">
<title>UserInput</title>
<polygon fill="none" stroke="black" points="190.38,-299.25 48.38,-299.25 48.38,-263.25 190.38,-263.25 190.38,-299.25"/>
<text text-anchor="middle" x="119.38" y="-275.82" font-family="Times New Roman,serif" font-size="14.00">User inputs graph data</text>
</g>
<!-- Start&#45;&gt;UserInput -->
<g id="edge1" class="edge">
<title>Start&#45;&gt;UserInput</title>
<path fill="none" stroke="black" d="M119.38,-350.65C119.38,-339.14 119.38,-323.78 119.38,-310.53"/>
<polygon fill="black" stroke="black" points="122.88,-310.58 119.38,-300.58 115.88,-310.58 122.88,-310.58"/>
<text text-anchor="middle" x="156.5" y="-319.7" font-family="Times New Roman,serif" font-size="14.00">Start process</text>
</g>
<!-- CalculateButton -->
<g id="node3" class="node">
<title>CalculateButton</title>
<polygon fill="none" stroke="black" points="238.75,-211.5 0,-211.5 0,-175.5 238.75,-175.5 238.75,-211.5"/>
<text text-anchor="middle" x="119.38" y="-188.07" font-family="Times New Roman,serif" font-size="14.00">User clicks &#39;Calculate PageRank&#39; button</text>
</g>
<!-- UserInput&#45;&gt;CalculateButton -->
<g id="edge2" class="edge">
<title>UserInput&#45;&gt;CalculateButton</title>
<path fill="none" stroke="black" d="M119.38,-262.9C119.38,-251.39 119.38,-236.03 119.38,-222.78"/>
<polygon fill="black" stroke="black" points="122.88,-222.83 119.38,-212.83 115.88,-222.83 122.88,-222.83"/>
<text text-anchor="middle" x="172.25" y="-231.95" font-family="Times New Roman,serif" font-size="14.00">Provide graph data</text>
</g>
<!-- PageRankCalculation -->
<g id="node4" class="node">
<title>PageRankCalculation</title>
<polygon fill="none" stroke="black" points="214.38,-123.75 24.38,-123.75 24.38,-87.75 214.38,-87.75 214.38,-123.75"/>
<text text-anchor="middle" x="119.38" y="-100.33" font-family="Times New Roman,serif" font-size="14.00">PageRank values are calculated</text>
</g>
<!-- CalculateButton&#45;&gt;PageRankCalculation -->
<g id="edge3" class="edge">
<title>CalculateButton&#45;&gt;PageRankCalculation</title>
<path fill="none" stroke="black" d="M119.38,-175.15C119.38,-163.64 119.38,-148.28 119.38,-135.03"/>
<polygon fill="black" stroke="black" points="122.88,-135.08 119.38,-125.08 115.88,-135.08 122.88,-135.08"/>
<text text-anchor="middle" x="134" y="-144.2" font-family="Times New Roman,serif" font-size="14.00">Click</text>
</g>
<!-- DisplayResult -->
<g id="node5" class="node">
<title>DisplayResult</title>
<polygon fill="none" stroke="black" points="179.88,-36 58.88,-36 58.88,0 179.88,0 179.88,-36"/>
<text text-anchor="middle" x="119.38" y="-12.57" font-family="Times New Roman,serif" font-size="14.00">Result is displayed</text>
</g>
<!-- PageRankCalculation&#45;&gt;DisplayResult -->
<g id="edge4" class="edge">
<title>PageRankCalculation&#45;&gt;DisplayResult</title>
<path fill="none" stroke="black" d="M119.38,-87.4C119.38,-75.89 119.38,-60.53 119.38,-47.28"/>
<polygon fill="black" stroke="black" points="122.88,-47.33 119.38,-37.33 115.88,-47.33 122.88,-47.33"/>
<text text-anchor="middle" x="166.62" y="-56.45" font-family="Times New Roman,serif" font-size="14.00">Result calculated</text>
</g>
</g>
</svg>
