<?xml version="1.0" encoding="UTF-8" standalone="no"?>
<!DOCTYPE svg PUBLIC "-//W3C//DTD SVG 1.1//EN"
 "http://www.w3.org/Graphics/SVG/1.1/DTD/svg11.dtd">
<!-- Generated by graphviz version 8.1.0 (20230707.0739)
 -->
<!-- Title: Process Pages: 1 -->
<svg width="1355pt" height="246pt"
 viewBox="0.00 0.00 1354.50 246.00" xmlns="http://www.w3.org/2000/svg" xmlns:xlink="http://www.w3.org/1999/xlink">
<g id="graph0" class="graph" transform="scale(1 1) rotate(0) translate(4 242)">
<title>Process</title>
<polygon fill="white" stroke="none" points="-4,4 -4,-242 1350.5,-242 1350.5,4 -4,4"/>
<g id="clust1" class="cluster">
<title>cluster_0</title>
<path fill="none" stroke="black" stroke-dasharray="5,2" d="M20,-154C20,-154 601.62,-154 601.62,-154 607.62,-154 613.62,-160 613.62,-166 613.62,-166 613.62,-218 613.62,-218 613.62,-224 607.62,-230 601.62,-230 601.62,-230 20,-230 20,-230 14,-230 8,-224 8,-218 8,-218 8,-166 8,-166 8,-160 14,-154 20,-154"/>
<text text-anchor="middle" x="310.81" y="-212.7" font-family="Times New Roman,serif" font-size="14.00">Genesis Equation Computation</text>
</g>
<g id="clust3" class="cluster">
<title>cluster_2</title>
<path fill="none" stroke="black" stroke-dasharray="5,2" d="M663,-12C663,-12 1326.5,-12 1326.5,-12 1332.5,-12 1338.5,-18 1338.5,-24 1338.5,-24 1338.5,-130 1338.5,-130 1338.5,-136 1332.5,-142 1326.5,-142 1326.5,-142 663,-142 663,-142 657,-142 651,-136 651,-130 651,-130 651,-24 651,-24 651,-18 657,-12 663,-12"/>
<text text-anchor="middle" x="994.75" y="-124.7" font-family="Times New Roman,serif" font-size="14.00">Comparison</text>
</g>
<g id="clust2" class="cluster">
<title>cluster_1</title>
<path fill="none" stroke="black" stroke-dasharray="5,2" d="M169.5,-8C169.5,-8 619,-8 619,-8 625,-8 631,-14 631,-20 631,-20 631,-134 631,-134 631,-140 625,-146 619,-146 619,-146 169.5,-146 169.5,-146 163.5,-146 157.5,-140 157.5,-134 157.5,-134 157.5,-20 157.5,-20 157.5,-14 163.5,-8 169.5,-8"/>
<text text-anchor="middle" x="394.25" y="-128.7" font-family="Times New Roman,serif" font-size="14.00">Fraction Computation</text>
</g>
<!-- Genesis_Equation -->
<g id="node1" class="node">
<title>Genesis_Equation</title>
<path fill="none" stroke="black" d="M117.5,-198C117.5,-198 28,-198 28,-198 22,-198 16,-192 16,-186 16,-186 16,-174 16,-174 16,-168 22,-162 28,-162 28,-162 117.5,-162 117.5,-162 123.5,-162 129.5,-168 129.5,-174 129.5,-174 129.5,-186 129.5,-186 129.5,-192 123.5,-198 117.5,-198"/>
<text text-anchor="middle" x="72.75" y="-174.57" font-family="Times New Roman,serif" font-size="14.00">Genesis Equation</text>
</g>
<!-- Values -->
<g id="node2" class="node">
<title>Values</title>
<path fill="none" stroke="black" d="M279.25,-198C279.25,-198 249.25,-198 249.25,-198 243.25,-198 237.25,-192 237.25,-186 237.25,-186 237.25,-174 237.25,-174 237.25,-168 243.25,-162 249.25,-162 249.25,-162 279.25,-162 279.25,-162 285.25,-162 291.25,-168 291.25,-174 291.25,-174 291.25,-186 291.25,-186 291.25,-192 285.25,-198 279.25,-198"/>
<text text-anchor="middle" x="264.25" y="-174.57" font-family="Times New Roman,serif" font-size="14.00">Values</text>
</g>
<!-- Genesis_Equation&#45;&gt;Values -->
<g id="edge1" class="edge">
<title>Genesis_Equation&#45;&gt;Values</title>
<path fill="none" stroke="black" d="M129.84,-180C160.92,-180 198.69,-180 226.1,-180"/>
<polygon fill="black" stroke="black" points="225.8,-183.5 235.8,-180 225.8,-176.5 225.8,-183.5"/>
</g>
<!-- Fraction_One -->
<g id="node5" class="node">
<title>Fraction_One</title>
<path fill="none" stroke="black" d="M349.5,-113C349.5,-113 179,-113 179,-113 173,-113 167,-107 167,-101 167,-101 167,-89 167,-89 167,-83 173,-77 179,-77 179,-77 349.5,-77 349.5,-77 355.5,-77 361.5,-83 361.5,-89 361.5,-89 361.5,-101 361.5,-101 361.5,-107 355.5,-113 349.5,-113"/>
<text text-anchor="middle" x="264.25" y="-89.58" font-family="Times New Roman,serif" font-size="14.00">Fraction One (( frac{1}{187} ))</text>
</g>
<!-- Genesis_Equation&#45;&gt;Fraction_One -->
<g id="edge15" class="edge">
<title>Genesis_Equation&#45;&gt;Fraction_One</title>
<path fill="none" stroke="black" d="M114.87,-161.56C143.43,-148.75 181.67,-131.59 212.19,-117.9"/>
<polygon fill="black" stroke="black" points="213.52,-120.69 221.21,-113.41 210.65,-114.31 213.52,-120.69"/>
</g>
<!-- Fraction_Two -->
<g id="node8" class="node">
<title>Fraction_Two</title>
<path fill="none" stroke="black" d="M351,-56C351,-56 177.5,-56 177.5,-56 171.5,-56 165.5,-50 165.5,-44 165.5,-44 165.5,-32 165.5,-32 165.5,-26 171.5,-20 177.5,-20 177.5,-20 351,-20 351,-20 357,-20 363,-26 363,-32 363,-32 363,-44 363,-44 363,-50 357,-56 351,-56"/>
<text text-anchor="middle" x="264.25" y="-32.58" font-family="Times New Roman,serif" font-size="14.00">Fraction Two (( frac{3}{217} ))</text>
</g>
<!-- Genesis_Equation&#45;&gt;Fraction_Two -->
<g id="edge16" class="edge">
<title>Genesis_Equation&#45;&gt;Fraction_Two</title>
<path fill="none" stroke="black" d="M82.64,-161.54C95.61,-136.57 122.09,-92.36 157.5,-68 161.17,-65.48 165.05,-63.16 169.07,-61.04"/>
<polygon fill="black" stroke="black" points="170.17,-63.91 177.68,-56.44 167.15,-57.6 170.17,-63.91"/>
</g>
<!-- Computation -->
<g id="node3" class="node">
<title>Computation</title>
<path fill="none" stroke="black" d="M481,-198C481,-198 416.25,-198 416.25,-198 410.25,-198 404.25,-192 404.25,-186 404.25,-186 404.25,-174 404.25,-174 404.25,-168 410.25,-162 416.25,-162 416.25,-162 481,-162 481,-162 487,-162 493,-168 493,-174 493,-174 493,-186 493,-186 493,-192 487,-198 481,-198"/>
<text text-anchor="middle" x="448.62" y="-174.57" font-family="Times New Roman,serif" font-size="14.00">Computation</text>
</g>
<!-- Values&#45;&gt;Computation -->
<g id="edge2" class="edge">
<title>Values&#45;&gt;Computation</title>
<path fill="none" stroke="black" d="M291.38,-180C317.86,-180 359.63,-180 393.31,-180"/>
<polygon fill="black" stroke="black" points="392.94,-183.5 402.94,-180 392.94,-176.5 392.94,-183.5"/>
</g>
<!-- Result -->
<g id="node4" class="node">
<title>Result</title>
<path fill="none" stroke="black" d="M593.62,-198C593.62,-198 563.62,-198 563.62,-198 557.62,-198 551.62,-192 551.62,-186 551.62,-186 551.62,-174 551.62,-174 551.62,-168 557.62,-162 563.62,-162 563.62,-162 593.62,-162 593.62,-162 599.62,-162 605.62,-168 605.62,-174 605.62,-174 605.62,-186 605.62,-186 605.62,-192 599.62,-198 593.62,-198"/>
<text text-anchor="middle" x="578.62" y="-174.57" font-family="Times New Roman,serif" font-size="14.00">Result</text>
</g>
<!-- Computation&#45;&gt;Result -->
<g id="edge3" class="edge">
<title>Computation&#45;&gt;Result</title>
<path fill="none" stroke="black" d="M493.32,-180C508.67,-180 525.76,-180 540.52,-180"/>
<polygon fill="black" stroke="black" points="540.28,-183.5 550.28,-180 540.28,-176.5 540.28,-183.5"/>
</g>
<!-- Computation_Methodologies -->
<g id="node6" class="node">
<title>Computation_Methodologies</title>
<path fill="none" stroke="black" d="M486.25,-113.75C486.25,-113.75 411,-113.75 411,-113.75 405,-113.75 399,-107.75 399,-101.75 399,-101.75 399,-86.25 399,-86.25 399,-80.25 405,-74.25 411,-74.25 411,-74.25 486.25,-74.25 486.25,-74.25 492.25,-74.25 498.25,-80.25 498.25,-86.25 498.25,-86.25 498.25,-101.75 498.25,-101.75 498.25,-107.75 492.25,-113.75 486.25,-113.75"/>
<text text-anchor="middle" x="448.62" y="-96.45" font-family="Times New Roman,serif" font-size="14.00">Computational</text>
<text text-anchor="middle" x="448.62" y="-80.7" font-family="Times New Roman,serif" font-size="14.00">Methodologies</text>
</g>
<!-- Fraction_One&#45;&gt;Computation_Methodologies -->
<g id="edge4" class="edge">
<title>Fraction_One&#45;&gt;Computation_Methodologies</title>
<path fill="none" stroke="black" d="M361.78,-94.47C370.69,-94.42 379.53,-94.37 387.96,-94.33"/>
<polygon fill="black" stroke="black" points="387.8,-97.82 397.79,-94.27 387.77,-90.82 387.8,-97.82"/>
</g>
<!-- Fraction_One_Computation -->
<g id="node7" class="node">
<title>Fraction_One_Computation</title>
<path fill="none" stroke="black" d="M611,-111C611,-111 546.25,-111 546.25,-111 540.25,-111 534.25,-105 534.25,-99 534.25,-99 534.25,-87 534.25,-87 534.25,-81 540.25,-75 546.25,-75 546.25,-75 611,-75 611,-75 617,-75 623,-81 623,-87 623,-87 623,-99 623,-99 623,-105 617,-111 611,-111"/>
<text text-anchor="middle" x="578.62" y="-87.58" font-family="Times New Roman,serif" font-size="14.00">Computation</text>
</g>
<!-- Computation_Methodologies&#45;&gt;Fraction_One_Computation -->
<g id="edge5" class="edge">
<title>Computation_Methodologies&#45;&gt;Fraction_One_Computation</title>
<path fill="none" stroke="black" d="M498.75,-93.62C506.7,-93.55 514.97,-93.49 523.04,-93.43"/>
<polygon fill="black" stroke="black" points="522.89,-96.92 532.87,-93.34 522.84,-89.92 522.89,-96.92"/>
</g>
<!-- Ratio_One -->
<g id="node11" class="node">
<title>Ratio_One</title>
<path fill="none" stroke="black" d="M826.5,-110C826.5,-110 672.5,-110 672.5,-110 666.5,-110 660.5,-104 660.5,-98 660.5,-98 660.5,-86 660.5,-86 660.5,-80 666.5,-74 672.5,-74 672.5,-74 826.5,-74 826.5,-74 832.5,-74 838.5,-80 838.5,-86 838.5,-86 838.5,-98 838.5,-98 838.5,-104 832.5,-110 826.5,-110"/>
<text text-anchor="middle" x="749.5" y="-86.58" font-family="Times New Roman,serif" font-size="14.00">Ratio One (( frac{1}{187} ))</text>
</g>
<!-- Fraction_One_Computation&#45;&gt;Ratio_One -->
<g id="edge8" class="edge">
<title>Fraction_One_Computation&#45;&gt;Ratio_One</title>
<path fill="none" stroke="black" d="M623.11,-92.74C631.33,-92.69 640.23,-92.64 649.37,-92.59"/>
<polygon fill="black" stroke="black" points="649.2,-96.08 659.18,-92.52 649.16,-89.08 649.2,-96.08"/>
</g>
<!-- Solar_System_Knowledge -->
<g id="node9" class="node">
<title>Solar_System_Knowledge</title>
<path fill="none" stroke="black" d="M481.75,-55.75C481.75,-55.75 415.5,-55.75 415.5,-55.75 409.5,-55.75 403.5,-49.75 403.5,-43.75 403.5,-43.75 403.5,-28.25 403.5,-28.25 403.5,-22.25 409.5,-16.25 415.5,-16.25 415.5,-16.25 481.75,-16.25 481.75,-16.25 487.75,-16.25 493.75,-22.25 493.75,-28.25 493.75,-28.25 493.75,-43.75 493.75,-43.75 493.75,-49.75 487.75,-55.75 481.75,-55.75"/>
<text text-anchor="middle" x="448.62" y="-38.45" font-family="Times New Roman,serif" font-size="14.00">Solar System</text>
<text text-anchor="middle" x="448.62" y="-22.7" font-family="Times New Roman,serif" font-size="14.00">Knowledge</text>
</g>
<!-- Fraction_Two&#45;&gt;Solar_System_Knowledge -->
<g id="edge6" class="edge">
<title>Fraction_Two&#45;&gt;Solar_System_Knowledge</title>
<path fill="none" stroke="black" d="M363.38,-36.92C373.33,-36.81 383.17,-36.71 392.42,-36.61"/>
<polygon fill="black" stroke="black" points="392.42,-40.09 402.38,-36.49 392.34,-33.1 392.42,-40.09"/>
</g>
<!-- Fraction_Two_Computation -->
<g id="node10" class="node">
<title>Fraction_Two_Computation</title>
<path fill="none" stroke="black" d="M611,-55C611,-55 546.25,-55 546.25,-55 540.25,-55 534.25,-49 534.25,-43 534.25,-43 534.25,-31 534.25,-31 534.25,-25 540.25,-19 546.25,-19 546.25,-19 611,-19 611,-19 617,-19 623,-25 623,-31 623,-31 623,-43 623,-43 623,-49 617,-55 611,-55"/>
<text text-anchor="middle" x="578.62" y="-31.57" font-family="Times New Roman,serif" font-size="14.00">Computation</text>
</g>
<!-- Solar_System_Knowledge&#45;&gt;Fraction_Two_Computation -->
<g id="edge7" class="edge">
<title>Solar_System_Knowledge&#45;&gt;Fraction_Two_Computation</title>
<path fill="none" stroke="black" d="M494.03,-36.35C503.48,-36.42 513.55,-36.5 523.31,-36.58"/>
<polygon fill="black" stroke="black" points="523.13,-40.08 533.16,-36.66 523.19,-33.08 523.13,-40.08"/>
</g>
<!-- Ratio_Two -->
<g id="node12" class="node">
<title>Ratio_Two</title>
<path fill="none" stroke="black" d="M828,-56C828,-56 671,-56 671,-56 665,-56 659,-50 659,-44 659,-44 659,-32 659,-32 659,-26 665,-20 671,-20 671,-20 828,-20 828,-20 834,-20 840,-26 840,-32 840,-32 840,-44 840,-44 840,-50 834,-56 828,-56"/>
<text text-anchor="middle" x="749.5" y="-32.58" font-family="Times New Roman,serif" font-size="14.00">Ratio Two (( frac{3}{217} ))</text>
</g>
<!-- Fraction_Two_Computation&#45;&gt;Ratio_Two -->
<g id="edge9" class="edge">
<title>Fraction_Two_Computation&#45;&gt;Ratio_Two</title>
<path fill="none" stroke="black" d="M623.11,-37.26C630.81,-37.3 639.11,-37.35 647.63,-37.4"/>
<polygon fill="black" stroke="black" points="647.51,-40.91 657.53,-37.47 647.55,-33.91 647.51,-40.91"/>
</g>
<!-- Common_Denominator -->
<g id="node13" class="node">
<title>Common_Denominator</title>
<path fill="none" stroke="black" d="M1037.5,-83C1037.5,-83 888,-83 888,-83 882,-83 876,-77 876,-71 876,-71 876,-59 876,-59 876,-53 882,-47 888,-47 888,-47 1037.5,-47 1037.5,-47 1043.5,-47 1049.5,-53 1049.5,-59 1049.5,-59 1049.5,-71 1049.5,-71 1049.5,-77 1043.5,-83 1037.5,-83"/>
<text text-anchor="middle" x="962.75" y="-59.58" font-family="Times New Roman,serif" font-size="14.00">Find Common Denominator</text>
</g>
<!-- Ratio_One&#45;&gt;Common_Denominator -->
<g id="edge10" class="edge">
<title>Ratio_One&#45;&gt;Common_Denominator</title>
<path fill="none" stroke="black" d="M838.87,-80.71C847.55,-79.6 856.39,-78.47 865.14,-77.35"/>
<polygon fill="black" stroke="black" points="865.29,-80.73 874.77,-75.99 864.41,-73.79 865.29,-80.73"/>
</g>
<!-- Ratio_Two&#45;&gt;Common_Denominator -->
<g id="edge13" class="edge">
<title>Ratio_Two&#45;&gt;Common_Denominator</title>
<path fill="none" stroke="black" d="M840.4,-49.49C848.52,-50.53 856.76,-51.58 864.94,-52.63"/>
<polygon fill="black" stroke="black" points="864.27,-56.2 874.63,-53.99 865.16,-49.25 864.27,-56.2"/>
</g>
<!-- Comparison -->
<g id="node14" class="node">
<title>Comparison</title>
<path fill="none" stroke="black" d="M1158.5,-83C1158.5,-83 1097.5,-83 1097.5,-83 1091.5,-83 1085.5,-77 1085.5,-71 1085.5,-71 1085.5,-59 1085.5,-59 1085.5,-53 1091.5,-47 1097.5,-47 1097.5,-47 1158.5,-47 1158.5,-47 1164.5,-47 1170.5,-53 1170.5,-59 1170.5,-59 1170.5,-71 1170.5,-71 1170.5,-77 1164.5,-83 1158.5,-83"/>
<text text-anchor="middle" x="1128" y="-59.58" font-family="Times New Roman,serif" font-size="14.00">Comparison</text>
</g>
<!-- Common_Denominator&#45;&gt;Comparison -->
<g id="edge11" class="edge">
<title>Common_Denominator&#45;&gt;Comparison</title>
<path fill="none" stroke="black" d="M1049.68,-58.26C1058.03,-58.29 1066.32,-58.42 1074.21,-58.64"/>
<polygon fill="black" stroke="black" points="1073.92,-62.17 1084.04,-59.02 1074.17,-55.17 1073.92,-62.17"/>
</g>
<!-- Common_Denominator&#45;&gt;Comparison -->
<g id="edge14" class="edge">
<title>Common_Denominator&#45;&gt;Comparison</title>
<path fill="none" stroke="black" d="M1049.68,-71.74C1058.03,-71.71 1066.32,-71.58 1074.21,-71.36"/>
<polygon fill="black" stroke="black" points="1074.17,-74.83 1084.04,-70.98 1073.92,-67.83 1074.17,-74.83"/>
</g>
<!-- Comparison_Result -->
<g id="node15" class="node">
<title>Comparison_Result</title>
<path fill="none" stroke="black" d="M1318.5,-83C1318.5,-83 1218.5,-83 1218.5,-83 1212.5,-83 1206.5,-77 1206.5,-71 1206.5,-71 1206.5,-59 1206.5,-59 1206.5,-53 1212.5,-47 1218.5,-47 1218.5,-47 1318.5,-47 1318.5,-47 1324.5,-47 1330.5,-53 1330.5,-59 1330.5,-59 1330.5,-71 1330.5,-71 1330.5,-77 1324.5,-83 1318.5,-83"/>
<text text-anchor="middle" x="1268.5" y="-59.58" font-family="Times New Roman,serif" font-size="14.00">Comparison Result</text>
</g>
<!-- Comparison&#45;&gt;Comparison_Result -->
<g id="edge12" class="edge">
<title>Comparison&#45;&gt;Comparison_Result</title>
<path fill="none" stroke="black" d="M1170.93,-65C1178.63,-65 1186.86,-65 1195.15,-65"/>
<polygon fill="black" stroke="black" points="1195.04,-68.5 1205.04,-65 1195.04,-61.5 1195.04,-68.5"/>
</g>
</g>
</svg>
