<?xml version="1.0" encoding="UTF-8" standalone="no"?>
<!DOCTYPE svg PUBLIC "-//W3C//DTD SVG 1.1//EN"
 "http://www.w3.org/Graphics/SVG/1.1/DTD/svg11.dtd">
<!-- Generated by graphviz version 8.1.0 (20230707.0739)
 -->
<!-- Title: IonDriveDevelopment Pages: 1 -->
<svg width="698pt" height="390pt"
 viewBox="0.00 0.00 698.00 390.00" xmlns="http://www.w3.org/2000/svg" xmlns:xlink="http://www.w3.org/1999/xlink">
<g id="graph0" class="graph" transform="scale(1 1) rotate(0) translate(4 386)">
<title>IonDriveDevelopment</title>
<polygon fill="white" stroke="none" points="-4,4 -4,-386 694,-386 694,4 -4,4"/>
<g id="clust6" class="cluster">
<title>cluster_0</title>
<polygon fill="none" stroke="black" points="10.88,-208 10.88,-284 194.12,-284 194.12,-208 10.88,-208"/>
<text text-anchor="middle" x="102.5" y="-266.7" font-family="Times New Roman,serif" font-size="14.00">Development Process</text>
</g>
<g id="clust9" class="cluster">
<title>cluster_3</title>
<polygon fill="none" stroke="black" points="521.75,-123 521.75,-199 682,-199 682,-123 521.75,-123"/>
<text text-anchor="middle" x="601.88" y="-181.7" font-family="Times New Roman,serif" font-size="14.00">Thrust Chamber</text>
</g>
<!-- Basics -->
<g id="node1" class="node">
<title>Basics</title>
<polygon fill="none" stroke="black" points="72.88,-252 18.88,-252 18.88,-216 72.88,-216 72.88,-252"/>
<text text-anchor="middle" x="45.88" y="-228.57" font-family="Times New Roman,serif" font-size="14.00">Basics</text>
</g>
<!-- Physics -->
<g id="node2" class="node">
<title>Physics</title>
<polygon fill="none" stroke="black" points="187.25,-198 127.75,-198 127.75,-162 187.25,-162 187.25,-198"/>
<text text-anchor="middle" x="157.5" y="-174.57" font-family="Times New Roman,serif" font-size="14.00">Physics</text>
</g>
<!-- Basics&#45;&gt;Physics -->
<g id="edge1" class="edge">
<title>Basics&#45;&gt;Physics</title>
<path fill="none" stroke="black" d="M73.13,-221.07C86.41,-214.52 102.79,-206.46 117.51,-199.21"/>
<polygon fill="black" stroke="black" points="118.95,-201.91 126.37,-194.35 115.85,-195.63 118.95,-201.91"/>
</g>
<!-- Testing -->
<g id="node13" class="node">
<title>Testing</title>
<polygon fill="none" stroke="black" points="186.12,-252 128.88,-252 128.88,-216 186.12,-216 186.12,-252"/>
<text text-anchor="middle" x="157.5" y="-228.57" font-family="Times New Roman,serif" font-size="14.00">Testing</text>
</g>
<!-- Basics&#45;&gt;Testing -->
<g id="edge16" class="edge">
<title>Basics&#45;&gt;Testing</title>
<path fill="none" stroke="black" d="M73.13,-234C86.46,-234 102.91,-234 117.67,-234"/>
<polygon fill="black" stroke="black" points="117.54,-237.5 127.54,-234 117.54,-230.5 117.54,-237.5"/>
</g>
<!-- Components -->
<g id="node3" class="node">
<title>Components</title>
<polygon fill="none" stroke="black" points="321,-198 233,-198 233,-162 321,-162 321,-198"/>
<text text-anchor="middle" x="277" y="-174.57" font-family="Times New Roman,serif" font-size="14.00">Components</text>
</g>
<!-- Physics&#45;&gt;Components -->
<g id="edge2" class="edge">
<title>Physics&#45;&gt;Components</title>
<path fill="none" stroke="black" d="M187.54,-180C197.95,-180 210.04,-180 221.89,-180"/>
<polygon fill="black" stroke="black" points="221.63,-183.5 231.63,-180 221.63,-176.5 221.63,-183.5"/>
</g>
<!-- IonizationSource -->
<g id="node4" class="node">
<title>IonizationSource</title>
<polygon fill="none" stroke="black" points="485.5,-90 375,-90 375,-54 485.5,-54 485.5,-90"/>
<text text-anchor="middle" x="430.25" y="-66.58" font-family="Times New Roman,serif" font-size="14.00">IonizationSource</text>
</g>
<!-- Components&#45;&gt;IonizationSource -->
<g id="edge3" class="edge">
<title>Components&#45;&gt;IonizationSource</title>
<path fill="none" stroke="black" d="M294.57,-161.68C311.4,-143.89 338.89,-117 366.75,-99 368.69,-97.75 370.69,-96.53 372.74,-95.35"/>
<polygon fill="black" stroke="black" points="373.8,-98.22 380.95,-90.41 370.49,-92.05 373.8,-98.22"/>
</g>
<!-- AccelerationSystem -->
<g id="node5" class="node">
<title>AccelerationSystem</title>
<polygon fill="none" stroke="black" points="493.75,-36 366.75,-36 366.75,0 493.75,0 493.75,-36"/>
<text text-anchor="middle" x="430.25" y="-12.57" font-family="Times New Roman,serif" font-size="14.00">AccelerationSystem</text>
</g>
<!-- Components&#45;&gt;AccelerationSystem -->
<g id="edge4" class="edge">
<title>Components&#45;&gt;AccelerationSystem</title>
<path fill="none" stroke="black" d="M285.73,-161.85C298.67,-133.41 327.23,-78.19 366.75,-45 367.82,-44.1 368.92,-43.23 370.06,-42.38"/>
<polygon fill="black" stroke="black" points="371.78,-44.78 378.21,-36.37 367.93,-38.93 371.78,-44.78"/>
</g>
<!-- PropellantStorage -->
<g id="node6" class="node">
<title>PropellantStorage</title>
<polygon fill="none" stroke="black" points="487.75,-252 372.75,-252 372.75,-216 487.75,-216 487.75,-252"/>
<text text-anchor="middle" x="430.25" y="-228.57" font-family="Times New Roman,serif" font-size="14.00">PropellantStorage</text>
</g>
<!-- Components&#45;&gt;PropellantStorage -->
<g id="edge5" class="edge">
<title>Components&#45;&gt;PropellantStorage</title>
<path fill="none" stroke="black" d="M321.34,-195.47C335.74,-200.61 352.05,-206.44 367.55,-211.97"/>
<polygon fill="black" stroke="black" points="366,-215.49 376.6,-215.56 368.36,-208.9 366,-215.49"/>
</g>
<!-- ThrustChamber -->
<g id="node7" class="node">
<title>ThrustChamber</title>
<polygon fill="none" stroke="black" points="482.12,-306 378.38,-306 378.38,-270 482.12,-270 482.12,-306"/>
<text text-anchor="middle" x="430.25" y="-282.57" font-family="Times New Roman,serif" font-size="14.00">ThrustChamber</text>
</g>
<!-- Components&#45;&gt;ThrustChamber -->
<g id="edge6" class="edge">
<title>Components&#45;&gt;ThrustChamber</title>
<path fill="none" stroke="black" d="M319.12,-198.34C323.25,-200.96 327.22,-203.85 330.75,-207 352.28,-226.19 344.6,-242.52 366.75,-261 367.82,-261.89 368.93,-262.76 370.06,-263.61"/>
<polygon fill="black" stroke="black" points="367.95,-267.06 378.24,-269.61 371.78,-261.21 367.95,-267.06"/>
</g>
<!-- Propellant -->
<g id="node8" class="node">
<title>Propellant</title>
<polygon fill="none" stroke="black" points="466.38,-198 394.12,-198 394.12,-162 466.38,-162 466.38,-198"/>
<text text-anchor="middle" x="430.25" y="-174.57" font-family="Times New Roman,serif" font-size="14.00">Propellant</text>
</g>
<!-- Components&#45;&gt;Propellant -->
<g id="edge7" class="edge">
<title>Components&#45;&gt;Propellant</title>
<path fill="none" stroke="black" d="M321.34,-180C340.7,-180 363.52,-180 383.19,-180"/>
<polygon fill="black" stroke="black" points="383.05,-183.5 393.05,-180 383.04,-176.5 383.05,-183.5"/>
</g>
<!-- Design -->
<g id="node10" class="node">
<title>Design</title>
<polygon fill="none" stroke="black" points="584,-167 529.75,-167 529.75,-131 584,-131 584,-167"/>
<text text-anchor="middle" x="556.88" y="-143.57" font-family="Times New Roman,serif" font-size="14.00">Design</text>
</g>
<!-- AccelerationSystem&#45;&gt;Design -->
<g id="edge10" class="edge">
<title>AccelerationSystem&#45;&gt;Design</title>
<path fill="none" stroke="black" d="M481.75,-36.38C486.03,-38.94 490.11,-41.8 493.75,-45 517.47,-65.81 534.72,-97.94 544.95,-120.99"/>
<polygon fill="black" stroke="black" points="542.01,-122.03 549.14,-129.86 548.45,-119.29 542.01,-122.03"/>
</g>
<!-- Build -->
<g id="node11" class="node">
<title>Build</title>
<polygon fill="none" stroke="black" points="674,-167 620,-167 620,-131 674,-131 674,-167"/>
<text text-anchor="middle" x="647" y="-143.57" font-family="Times New Roman,serif" font-size="14.00">Build</text>
</g>
<!-- AccelerationSystem&#45;&gt;Build -->
<g id="edge11" class="edge">
<title>AccelerationSystem&#45;&gt;Build</title>
<path fill="none" stroke="black" d="M476.81,-36.46C482.59,-39.16 488.37,-42.03 493.75,-45 536.95,-68.8 583.29,-101.62 613.35,-123.98"/>
<polygon fill="black" stroke="black" points="611.03,-127.37 621.14,-130.57 615.23,-121.77 611.03,-127.37"/>
</g>
<!-- ThrustChamber&#45;&gt;Design -->
<g id="edge12" class="edge">
<title>ThrustChamber&#45;&gt;Design</title>
<path fill="none" stroke="black" d="M482.17,-269.55C486.31,-267.02 490.25,-264.17 493.75,-261 519.01,-238.11 536.3,-202.47 546.1,-177.56"/>
<polygon fill="black" stroke="black" points="549.72,-178.87 549.96,-168.28 543.17,-176.41 549.72,-178.87"/>
</g>
<!-- ThrustChamber&#45;&gt;Build -->
<g id="edge13" class="edge">
<title>ThrustChamber&#45;&gt;Build</title>
<path fill="none" stroke="black" d="M477.24,-269.56C482.9,-266.88 488.52,-264 493.75,-261 538.82,-235.13 586.39,-198.41 616.12,-174.16"/>
<polygon fill="black" stroke="black" points="617.89,-176.42 623.39,-167.36 613.44,-171.01 617.89,-176.42"/>
</g>
<!-- IonizationSystem -->
<g id="node9" class="node">
<title>IonizationSystem</title>
<polygon fill="none" stroke="black" points="486.25,-144 374.25,-144 374.25,-108 486.25,-108 486.25,-144"/>
<text text-anchor="middle" x="430.25" y="-120.58" font-family="Times New Roman,serif" font-size="14.00">IonizationSystem</text>
</g>
<!-- IonizationSystem&#45;&gt;Design -->
<g id="edge8" class="edge">
<title>IonizationSystem&#45;&gt;Design</title>
<path fill="none" stroke="black" d="M486.64,-136.22C497.41,-138.21 508.46,-140.25 518.48,-142.1"/>
<polygon fill="black" stroke="black" points="517.81,-145.72 528.28,-144.09 519.08,-138.84 517.81,-145.72"/>
</g>
<!-- IonizationSystem&#45;&gt;Build -->
<g id="edge9" class="edge">
<title>IonizationSystem&#45;&gt;Build</title>
<path fill="none" stroke="black" d="M486.59,-118.46C515.84,-116 552.19,-115.37 584,-122 592.57,-123.78 601.4,-126.82 609.62,-130.22"/>
<polygon fill="black" stroke="black" points="608.07,-133.81 618.63,-134.67 610.91,-127.41 608.07,-133.81"/>
</g>
<!-- Design&#45;&gt;Build -->
<g id="edge17" class="edge">
<title>Design&#45;&gt;Build</title>
<path fill="none" stroke="black" d="M584.32,-136.51C591.98,-135.58 600.5,-135.29 608.7,-135.64"/>
<polygon fill="black" stroke="black" points="608.33,-139.2 618.58,-136.51 608.89,-132.23 608.33,-139.2"/>
</g>
<!-- Design&#45;&gt;Build -->
<g id="edge18" class="edge">
<title>Design&#45;&gt;Build</title>
<path fill="none" stroke="black" d="M584.32,-149C591.98,-149 600.5,-149 608.7,-149"/>
<polygon fill="black" stroke="black" points="608.58,-152.5 618.58,-149 608.58,-145.5 608.58,-152.5"/>
</g>
<!-- Design&#45;&gt;Build -->
<g id="edge19" class="edge">
<title>Design&#45;&gt;Build</title>
<path fill="none" stroke="black" d="M584.32,-161.49C591.98,-162.42 600.5,-162.71 608.7,-162.36"/>
<polygon fill="black" stroke="black" points="608.89,-165.77 618.58,-161.49 608.33,-158.8 608.89,-165.77"/>
</g>
<!-- PowerSupply -->
<g id="node12" class="node">
<title>PowerSupply</title>
<polygon fill="none" stroke="black" points="91.75,-328 0,-328 0,-292 91.75,-292 91.75,-328"/>
<text text-anchor="middle" x="45.88" y="-304.57" font-family="Times New Roman,serif" font-size="14.00">PowerSupply</text>
</g>
<!-- SmallScaleTests -->
<g id="node14" class="node">
<title>SmallScaleTests</title>
<polygon fill="none" stroke="black" points="330.75,-252 223.25,-252 223.25,-216 330.75,-216 330.75,-252"/>
<text text-anchor="middle" x="277" y="-228.57" font-family="Times New Roman,serif" font-size="14.00">SmallScaleTests</text>
</g>
<!-- Testing&#45;&gt;SmallScaleTests -->
<g id="edge14" class="edge">
<title>Testing&#45;&gt;SmallScaleTests</title>
<path fill="none" stroke="black" d="M186.35,-234C194.25,-234 203.19,-234 212.3,-234"/>
<polygon fill="black" stroke="black" points="212.01,-237.5 222.01,-234 212.01,-230.5 212.01,-237.5"/>
</g>
<!-- Optimization -->
<g id="node15" class="node">
<title>Optimization</title>
<polygon fill="none" stroke="black" points="320.62,-306 233.38,-306 233.38,-270 320.62,-270 320.62,-306"/>
<text text-anchor="middle" x="277" y="-282.57" font-family="Times New Roman,serif" font-size="14.00">Optimization</text>
</g>
<!-- Testing&#45;&gt;Optimization -->
<g id="edge15" class="edge">
<title>Testing&#45;&gt;Optimization</title>
<path fill="none" stroke="black" d="M186.35,-246.8C198.25,-252.27 212.52,-258.83 226.14,-265.09"/>
<polygon fill="black" stroke="black" points="224.35,-268.58 234.9,-269.57 227.27,-262.21 224.35,-268.58"/>
</g>
<!-- Safety -->
<g id="node16" class="node">
<title>Safety</title>
<polygon fill="none" stroke="black" points="72.88,-382 18.88,-382 18.88,-346 72.88,-346 72.88,-382"/>
<text text-anchor="middle" x="45.88" y="-358.57" font-family="Times New Roman,serif" font-size="14.00">Safety</text>
</g>
</g>
</svg>
