<?xml version="1.0" encoding="UTF-8" standalone="no"?>
<!DOCTYPE svg PUBLIC "-//W3C//DTD SVG 1.1//EN"
 "http://www.w3.org/Graphics/SVG/1.1/DTD/svg11.dtd">
<!-- Generated by graphviz version 8.1.0 (20230707.0739)
 -->
<!-- Title: Process Pages: 1 -->
<svg width="265pt" height="116pt"
 viewBox="0.00 0.00 264.87 116.00" xmlns="http://www.w3.org/2000/svg" xmlns:xlink="http://www.w3.org/1999/xlink">
<g id="graph0" class="graph" transform="scale(1 1) rotate(0) translate(4 112)">
<title>Process</title>
<polygon fill="white" stroke="none" points="-4,4 -4,-112 260.87,-112 260.87,4 -4,4"/>
<!-- User: Write a program for this -->
<g id="node1" class="node">
<title>User: Write a program for this</title>
<ellipse fill="none" stroke="black" cx="128.43" cy="-90" rx="122.42" ry="18"/>
<text text-anchor="middle" x="128.43" y="-84.58" font-family="Times New Roman,serif" font-size="14.00">User: Write a program for this</text>
</g>
<!-- Assistant: Skipped 1 messages -->
<g id="node2" class="node">
<title>Assistant: Skipped 1 messages</title>
<ellipse fill="none" stroke="black" cx="128.43" cy="-18" rx="124.92" ry="18"/>
<text text-anchor="middle" x="128.43" y="-12.57" font-family="Times New Roman,serif" font-size="14.00">Assistant: Skipped 1 messages</text>
</g>
<!-- User: Write a program for this&#45;&gt;Assistant: Skipped 1 messages -->
<g id="edge1" class="edge">
<title>User: Write a program for this&#45;&gt;Assistant: Skipped 1 messages</title>
<path fill="none" stroke="black" d="M33.25,-78.37C-6.83,-66.38 -10.48,-46.81 22.32,-33.44"/>
<polygon fill="black" stroke="black" points="23.27,-36.47 31.54,-29.85 20.95,-29.86 23.27,-36.47"/>
</g>
<!-- User: Write a program for this&#45;&gt;Assistant: Skipped 1 messages -->
<g id="edge3" class="edge">
<title>User: Write a program for this&#45;&gt;Assistant: Skipped 1 messages</title>
<path fill="none" stroke="black" d="M47.97,-76.16C24.11,-65.31 20.79,-49.63 38.01,-37.44"/>
<polygon fill="black" stroke="black" points="39.41,-40.1 46.37,-32.11 35.95,-34.02 39.41,-40.1"/>
</g>
<!-- User: Write a program for this&#45;&gt;Assistant: Skipped 1 messages -->
<g id="edge5" class="edge">
<title>User: Write a program for this&#45;&gt;Assistant: Skipped 1 messages</title>
<path fill="none" stroke="black" d="M66.44,-74.15C53.28,-64.6 50.72,-51.99 58.75,-41.25"/>
<polygon fill="black" stroke="black" points="60.69,-44.28 65.47,-34.82 55.83,-39.23 60.69,-44.28"/>
</g>
<!-- User: Write a program for this&#45;&gt;Assistant: Skipped 1 messages -->
<g id="edge7" class="edge">
<title>User: Write a program for this&#45;&gt;Assistant: Skipped 1 messages</title>
<path fill="none" stroke="black" d="M87.83,-72.76C81.3,-64.46 79.58,-54.15 82.67,-44.79"/>
<polygon fill="black" stroke="black" points="86.21,-46.61 87.9,-36.15 80.05,-43.27 86.21,-46.61"/>
</g>
<!-- User: Write a program for this&#45;&gt;Assistant: Skipped 1 messages -->
<g id="edge9" class="edge">
<title>User: Write a program for this&#45;&gt;Assistant: Skipped 1 messages</title>
<path fill="none" stroke="black" d="M110.69,-71.7C108.35,-64.15 107.65,-55.12 108.58,-46.68"/>
<polygon fill="black" stroke="black" points="112.17,-47.6 110.75,-37.1 105.31,-46.2 112.17,-47.6"/>
</g>
<!-- User: Write a program for this&#45;&gt;Assistant: Skipped 1 messages -->
<g id="edge11" class="edge">
<title>User: Write a program for this&#45;&gt;Assistant: Skipped 1 messages</title>
<path fill="none" stroke="black" d="M134.35,-71.7C135.12,-64.24 135.35,-55.32 135.06,-46.97"/>
<polygon fill="black" stroke="black" points="138.49,-46.85 134.33,-37.1 131.51,-47.32 138.49,-46.85"/>
</g>
<!-- User: Write a program for this&#45;&gt;Assistant: Skipped 1 messages -->
<g id="edge13" class="edge">
<title>User: Write a program for this&#45;&gt;Assistant: Skipped 1 messages</title>
<path fill="none" stroke="black" d="M157.82,-72.05C161.97,-64.23 163.16,-54.75 161.38,-45.98"/>
<polygon fill="black" stroke="black" points="164.4,-45.03 157.74,-36.79 157.81,-47.38 164.4,-45.03"/>
</g>
<!-- User: Write a program for this&#45;&gt;Assistant: Skipped 1 messages -->
<g id="edge15" class="edge">
<title>User: Write a program for this&#45;&gt;Assistant: Skipped 1 messages</title>
<path fill="none" stroke="black" d="M179.91,-73.46C189.39,-64.58 191.6,-53.25 186.55,-43.22"/>
<polygon fill="black" stroke="black" points="188.72,-41.31 179.87,-35.49 183.16,-45.56 188.72,-41.31"/>
</g>
<!-- User: Write a program for this&#45;&gt;Assistant: Skipped 1 messages -->
<g id="edge17" class="edge">
<title>User: Write a program for this&#45;&gt;Assistant: Skipped 1 messages</title>
<path fill="none" stroke="black" d="M200.27,-75C218.02,-64.8 220.92,-50.81 208.98,-39.37"/>
<polygon fill="black" stroke="black" points="211.37,-36.05 201.23,-32.97 207.24,-41.7 211.37,-36.05"/>
</g>
<!-- User: Write a program for this&#45;&gt;Assistant: Skipped 1 messages -->
<g id="edge19" class="edge">
<title>User: Write a program for this&#45;&gt;Assistant: Skipped 1 messages</title>
<path fill="none" stroke="black" d="M216.69,-77.28C248.07,-65.79 251.57,-48.18 227.21,-35.32"/>
<polygon fill="black" stroke="black" points="228.99,-31.84 218.43,-30.99 226.15,-38.24 228.99,-31.84"/>
</g>
<!-- Assistant: Skipped 1 messages&#45;&gt;User: Write a program for this -->
<g id="edge2" class="edge">
<title>Assistant: Skipped 1 messages&#45;&gt;User: Write a program for this</title>
<path fill="none" stroke="black" d="M39.44,-30.99C8.5,-42.57 5.44,-60.2 30.24,-72.98"/>
<polygon fill="black" stroke="black" points="28.6,-76.52 39.17,-77.28 31.39,-70.1 28.6,-76.52"/>
</g>
<!-- Assistant: Skipped 1 messages&#45;&gt;User: Write a program for this -->
<g id="edge4" class="edge">
<title>Assistant: Skipped 1 messages&#45;&gt;User: Write a program for this</title>
<path fill="none" stroke="black" d="M56.63,-32.97C38.87,-43.17 35.94,-57.16 47.86,-68.6"/>
<polygon fill="black" stroke="black" points="45.46,-71.92 55.59,-75 49.59,-66.27 45.46,-71.92"/>
</g>
<!-- Assistant: Skipped 1 messages&#45;&gt;User: Write a program for this -->
<g id="edge6" class="edge">
<title>Assistant: Skipped 1 messages&#45;&gt;User: Write a program for this</title>
<path fill="none" stroke="black" d="M77,-34.49C67.5,-43.37 65.26,-54.7 70.29,-64.73"/>
<polygon fill="black" stroke="black" points="68.11,-66.63 76.95,-72.46 73.67,-62.39 68.11,-66.63"/>
</g>
<!-- Assistant: Skipped 1 messages&#45;&gt;User: Write a program for this -->
<g id="edge8" class="edge">
<title>Assistant: Skipped 1 messages&#45;&gt;User: Write a program for this</title>
<path fill="none" stroke="black" d="M99.12,-35.79C94.93,-43.59 93.71,-53.07 95.45,-61.85"/>
<polygon fill="black" stroke="black" points="92.42,-62.78 99.04,-71.05 99.02,-60.46 92.42,-62.78"/>
</g>
<!-- Assistant: Skipped 1 messages&#45;&gt;User: Write a program for this -->
<g id="edge10" class="edge">
<title>Assistant: Skipped 1 messages&#45;&gt;User: Write a program for this</title>
<path fill="none" stroke="black" d="M122.54,-36.1C121.76,-43.54 121.51,-52.44 121.8,-60.81"/>
<polygon fill="black" stroke="black" points="118.36,-60.95 122.52,-70.7 125.35,-60.49 118.36,-60.95"/>
</g>
<!-- Assistant: Skipped 1 messages&#45;&gt;User: Write a program for this -->
<g id="edge12" class="edge">
<title>Assistant: Skipped 1 messages&#45;&gt;User: Write a program for this</title>
<path fill="none" stroke="black" d="M146.12,-36.1C148.48,-43.62 149.21,-52.65 148.31,-61.1"/>
<polygon fill="black" stroke="black" points="144.72,-60.2 146.18,-70.7 151.58,-61.58 144.72,-60.2"/>
</g>
<!-- Assistant: Skipped 1 messages&#45;&gt;User: Write a program for this -->
<g id="edge14" class="edge">
<title>Assistant: Skipped 1 messages&#45;&gt;User: Write a program for this</title>
<path fill="none" stroke="black" d="M168.97,-35.15C175.53,-43.44 177.28,-53.74 174.23,-63.11"/>
<polygon fill="black" stroke="black" points="170.69,-61.3 169.04,-71.76 176.86,-64.61 170.69,-61.3"/>
</g>
<!-- Assistant: Skipped 1 messages&#45;&gt;User: Write a program for this -->
<g id="edge16" class="edge">
<title>Assistant: Skipped 1 messages&#45;&gt;User: Write a program for this</title>
<path fill="none" stroke="black" d="M190.4,-33.82C203.57,-43.38 206.15,-55.98 198.14,-66.73"/>
<polygon fill="black" stroke="black" points="196.2,-63.7 191.43,-73.15 201.06,-68.74 196.2,-63.7"/>
</g>
<!-- Assistant: Skipped 1 messages&#45;&gt;User: Write a program for this -->
<g id="edge18" class="edge">
<title>Assistant: Skipped 1 messages&#45;&gt;User: Write a program for this</title>
<path fill="none" stroke="black" d="M209.49,-32.11C233.01,-43.04 235.98,-58.73 218.41,-70.87"/>
<polygon fill="black" stroke="black" points="216.93,-68.24 209.89,-76.16 220.33,-74.36 216.93,-68.24"/>
</g>
<!-- Assistant: Skipped 1 messages&#45;&gt;User: Write a program for this -->
<g id="edge20" class="edge">
<title>Assistant: Skipped 1 messages&#45;&gt;User: Write a program for this</title>
<path fill="none" stroke="black" d="M224.32,-29.85C263.98,-41.93 267.19,-61.5 233.95,-74.8"/>
<polygon fill="black" stroke="black" points="232.92,-71.8 224.61,-78.37 235.2,-78.41 232.92,-71.8"/>
</g>
</g>
</svg>
