<?xml version="1.0" encoding="UTF-8" standalone="no"?>
<!DOCTYPE svg PUBLIC "-//W3C//DTD SVG 1.1//EN"
 "http://www.w3.org/Graphics/SVG/1.1/DTD/svg11.dtd">
<!-- Generated by graphviz version 8.1.0 (20230707.0739)
 -->
<!-- Title: Discussion_Process Pages: 1 -->
<svg width="470pt" height="220pt"
 viewBox="0.00 0.00 470.12 219.50" xmlns="http://www.w3.org/2000/svg" xmlns:xlink="http://www.w3.org/1999/xlink">
<g id="graph0" class="graph" transform="scale(1 1) rotate(0) translate(4 215.5)">
<title>Discussion_Process</title>
<polygon fill="white" stroke="none" points="-4,4 -4,-215.5 466.12,-215.5 466.12,4 -4,4"/>
<!-- Start -->
<g id="node1" class="node">
<title>Start</title>
<path fill="none" stroke="black" d="M104.12,-211.5C104.12,-211.5 20.62,-211.5 20.62,-211.5 14.62,-211.5 8.62,-205.5 8.62,-199.5 8.62,-199.5 8.62,-187.5 8.62,-187.5 8.62,-181.5 14.62,-175.5 20.62,-175.5 20.62,-175.5 104.12,-175.5 104.12,-175.5 110.12,-175.5 116.12,-181.5 116.12,-187.5 116.12,-187.5 116.12,-199.5 116.12,-199.5 116.12,-205.5 110.12,-211.5 104.12,-211.5"/>
<text text-anchor="middle" x="62.38" y="-188.07" font-family="Times New Roman,serif" font-size="14.00">Start Discussion</text>
</g>
<!-- Extract_Info -->
<g id="node2" class="node">
<title>Extract_Info</title>
<path fill="none" stroke="black" d="M112.75,-123.75C112.75,-123.75 12,-123.75 12,-123.75 6,-123.75 0,-117.75 0,-111.75 0,-111.75 0,-99.75 0,-99.75 0,-93.75 6,-87.75 12,-87.75 12,-87.75 112.75,-87.75 112.75,-87.75 118.75,-87.75 124.75,-93.75 124.75,-99.75 124.75,-99.75 124.75,-111.75 124.75,-111.75 124.75,-117.75 118.75,-123.75 112.75,-123.75"/>
<text text-anchor="middle" x="62.38" y="-100.33" font-family="Times New Roman,serif" font-size="14.00">Extract Information</text>
</g>
<!-- Start&#45;&gt;Extract_Info -->
<g id="edge1" class="edge">
<title>Start&#45;&gt;Extract_Info</title>
<path fill="none" stroke="black" d="M62.38,-175.15C62.38,-163.64 62.38,-148.28 62.38,-135.03"/>
<polygon fill="black" stroke="black" points="65.88,-135.08 62.38,-125.08 58.88,-135.08 65.88,-135.08"/>
<text text-anchor="middle" x="141.5" y="-144.2" font-family="Times New Roman,serif" font-size="14.00">Discuss American Civil War</text>
</g>
<!-- Create_Document -->
<g id="node3" class="node">
<title>Create_Document</title>
<path fill="none" stroke="black" d="M398.12,-123.75C398.12,-123.75 308.62,-123.75 308.62,-123.75 302.62,-123.75 296.62,-117.75 296.62,-111.75 296.62,-111.75 296.62,-99.75 296.62,-99.75 296.62,-93.75 302.62,-87.75 308.62,-87.75 308.62,-87.75 398.12,-87.75 398.12,-87.75 404.12,-87.75 410.12,-93.75 410.12,-99.75 410.12,-99.75 410.12,-111.75 410.12,-111.75 410.12,-117.75 404.12,-123.75 398.12,-123.75"/>
<text text-anchor="middle" x="353.38" y="-100.33" font-family="Times New Roman,serif" font-size="14.00">Create Document</text>
</g>
<!-- Extract_Info&#45;&gt;Create_Document -->
<g id="edge2" class="edge">
<title>Extract_Info&#45;&gt;Create_Document</title>
<path fill="none" stroke="black" d="M125.16,-105.75C172.38,-105.75 237.01,-105.75 285.44,-105.75"/>
<polygon fill="black" stroke="black" points="285.13,-109.25 295.13,-105.75 285.13,-102.25 285.13,-109.25"/>
<text text-anchor="middle" x="210.69" y="-111.2" font-family="Times New Roman,serif" font-size="14.00">Extract relevant information</text>
</g>
<!-- End -->
<g id="node4" class="node">
<title>End</title>
<path fill="none" stroke="black" d="M368.38,-36C368.38,-36 338.38,-36 338.38,-36 332.38,-36 326.38,-30 326.38,-24 326.38,-24 326.38,-12 326.38,-12 326.38,-6 332.38,0 338.38,0 338.38,0 368.38,0 368.38,0 374.38,0 380.38,-6 380.38,-12 380.38,-12 380.38,-24 380.38,-24 380.38,-30 374.38,-36 368.38,-36"/>
<text text-anchor="middle" x="353.38" y="-12.57" font-family="Times New Roman,serif" font-size="14.00">End</text>
</g>
<!-- Create_Document&#45;&gt;End -->
<g id="edge3" class="edge">
<title>Create_Document&#45;&gt;End</title>
<path fill="none" stroke="black" d="M353.38,-87.4C353.38,-75.89 353.38,-60.53 353.38,-47.28"/>
<polygon fill="black" stroke="black" points="356.88,-47.33 353.38,-37.33 349.88,-47.33 356.88,-47.33"/>
<text text-anchor="middle" x="407.75" y="-56.45" font-family="Times New Roman,serif" font-size="14.00">Generate document</text>
</g>
</g>
</svg>
