<?xml version="1.0" encoding="UTF-8" standalone="no"?>
<!DOCTYPE svg PUBLIC "-//W3C//DTD SVG 1.1//EN"
 "http://www.w3.org/Graphics/SVG/1.1/DTD/svg11.dtd">
<!-- Generated by graphviz version 8.1.0 (20230707.0739)
 -->
<!-- Title: MathematicalExpression Pages: 1 -->
<svg width="550pt" height="267pt"
 viewBox="0.00 0.00 550.00 267.25" xmlns="http://www.w3.org/2000/svg" xmlns:xlink="http://www.w3.org/1999/xlink">
<g id="graph0" class="graph" transform="scale(1 1) rotate(0) translate(4 263.25)">
<title>MathematicalExpression</title>
<polygon fill="white" stroke="none" points="-4,4 -4,-263.25 546,-263.25 546,4 -4,4"/>
<g id="clust3" class="cluster">
<title>cluster_multiplication</title>
<polygon fill="none" stroke="black" points="203,-8 203,-83.75 340,-83.75 340,-8 203,-8"/>
<text text-anchor="middle" x="271.5" y="-66.45" font-family="Times New Roman,serif" font-size="14.00">3. Multiplication by R</text>
</g>
<g id="clust2" class="cluster">
<title>cluster_inside</title>
<polygon fill="none" stroke="black" points="8,-91.75 8,-167.5 534,-167.5 534,-91.75 8,-91.75"/>
<text text-anchor="middle" x="271" y="-150.2" font-family="Times New Roman,serif" font-size="14.00">2. Inside the Square Root</text>
</g>
<g id="clust1" class="cluster">
<title>cluster_root</title>
<polygon fill="none" stroke="black" points="194,-175.5 194,-251.25 348,-251.25 348,-175.5 194,-175.5"/>
<text text-anchor="middle" x="271" y="-233.95" font-family="Times New Roman,serif" font-size="14.00">1. Square Root Function</text>
</g>
<!-- sqrt -->
<g id="node1" class="node">
<title>sqrt</title>
<path fill="none" stroke="black" d="M286,-219.5C286,-219.5 256,-219.5 256,-219.5 250,-219.5 244,-213.5 244,-207.5 244,-207.5 244,-195.5 244,-195.5 244,-189.5 250,-183.5 256,-183.5 256,-183.5 286,-183.5 286,-183.5 292,-183.5 298,-189.5 298,-195.5 298,-195.5 298,-207.5 298,-207.5 298,-213.5 292,-219.5 286,-219.5"/>
<text text-anchor="middle" x="271" y="-196.07" font-family="Times New Roman,serif" font-size="14.00">sqrt</text>
</g>
<!-- inside -->
<g id="node2" class="node">
<title>inside</title>
<path fill="none" stroke="black" d="M514.12,-135.75C514.12,-135.75 27.88,-135.75 27.88,-135.75 21.88,-135.75 15.88,-129.75 15.88,-123.75 15.88,-123.75 15.88,-111.75 15.88,-111.75 15.88,-105.75 21.88,-99.75 27.88,-99.75 27.88,-99.75 514.12,-99.75 514.12,-99.75 520.12,-99.75 526.12,-105.75 526.12,-111.75 526.12,-111.75 526.12,-123.75 526.12,-123.75 526.12,-129.75 520.12,-135.75 514.12,-135.75"/>
<text text-anchor="middle" x="271" y="-112.33" font-family="Times New Roman,serif" font-size="14.00">{EOS &#45; P_{OS} + 1 + (1 &#45; e) * mc^2_{prev} &#45; tdidf = 1 &#45; | + 11re &lt;= eigen(theta &#45; var)}</text>
</g>
<!-- sqrt&#45;&gt;inside -->
<g id="edge1" class="edge">
<title>sqrt&#45;&gt;inside</title>
<path fill="none" stroke="black" d="M271,-183.16C271,-172.65 271,-158.98 271,-146.95"/>
<polygon fill="black" stroke="black" points="274.5,-147.06 271,-137.06 267.5,-147.06 274.5,-147.06"/>
</g>
<!-- R -->
<g id="node3" class="node">
<title>R</title>
<path fill="none" stroke="black" d="M286,-52C286,-52 256,-52 256,-52 250,-52 244,-46 244,-40 244,-40 244,-28 244,-28 244,-22 250,-16 256,-16 256,-16 286,-16 286,-16 292,-16 298,-22 298,-28 298,-28 298,-40 298,-40 298,-46 292,-52 286,-52"/>
<text text-anchor="middle" x="271" y="-28.57" font-family="Times New Roman,serif" font-size="14.00">R</text>
</g>
<!-- inside&#45;&gt;R -->
<g id="edge2" class="edge">
<title>inside&#45;&gt;R</title>
<path fill="none" stroke="black" d="M271,-99.41C271,-88.9 271,-75.23 271,-63.2"/>
<polygon fill="black" stroke="black" points="274.5,-63.31 271,-53.31 267.5,-63.31 274.5,-63.31"/>
</g>
</g>
</svg>
