<?xml version="1.0" encoding="UTF-8" standalone="no"?>
<!DOCTYPE svg PUBLIC "-//W3C//DTD SVG 1.1//EN"
 "http://www.w3.org/Graphics/SVG/1.1/DTD/svg11.dtd">
<!-- Generated by graphviz version 8.1.0 (20230707.0739)
 -->
<!-- Title: G Pages: 1 -->
<svg width="522pt" height="132pt"
 viewBox="0.00 0.00 522.38 131.75" xmlns="http://www.w3.org/2000/svg" xmlns:xlink="http://www.w3.org/1999/xlink">
<g id="graph0" class="graph" transform="scale(1 1) rotate(0) translate(4 127.75)">
<title>G</title>
<polygon fill="white" stroke="none" points="-4,4 -4,-127.75 518.38,-127.75 518.38,4 -4,4"/>
<!-- Python Code -->
<g id="node1" class="node">
<title>Python Code</title>
<path fill="none" stroke="black" d="M102.25,-123.75C102.25,-123.75 12,-123.75 12,-123.75 6,-123.75 0,-117.75 0,-111.75 0,-111.75 0,-99.75 0,-99.75 0,-93.75 6,-87.75 12,-87.75 12,-87.75 102.25,-87.75 102.25,-87.75 108.25,-87.75 114.25,-93.75 114.25,-99.75 114.25,-99.75 114.25,-111.75 114.25,-111.75 114.25,-117.75 108.25,-123.75 102.25,-123.75"/>
<text text-anchor="middle" x="57.12" y="-101.47" font-family="Times New Roman,serif" font-size="12.00">Original Python Code</text>
</g>
<!-- Improved Python Code -->
<g id="node2" class="node">
<title>Improved Python Code</title>
<path fill="none" stroke="black" d="M376.75,-123.75C376.75,-123.75 277.5,-123.75 277.5,-123.75 271.5,-123.75 265.5,-117.75 265.5,-111.75 265.5,-111.75 265.5,-99.75 265.5,-99.75 265.5,-93.75 271.5,-87.75 277.5,-87.75 277.5,-87.75 376.75,-87.75 376.75,-87.75 382.75,-87.75 388.75,-93.75 388.75,-99.75 388.75,-99.75 388.75,-111.75 388.75,-111.75 388.75,-117.75 382.75,-123.75 376.75,-123.75"/>
<text text-anchor="middle" x="327.12" y="-101.47" font-family="Times New Roman,serif" font-size="12.00">Improved Python Code</text>
</g>
<!-- Python Code&#45;&gt;Improved Python Code -->
<g id="edge1" class="edge">
<title>Python Code&#45;&gt;Improved Python Code</title>
<path fill="none" stroke="black" d="M114.72,-105.75C155.55,-105.75 210.65,-105.75 254.5,-105.75"/>
<polygon fill="black" stroke="black" points="254.39,-109.25 264.39,-105.75 254.39,-102.25 254.39,-109.25"/>
<text text-anchor="middle" x="189.88" y="-111.2" font-family="Times New Roman,serif" font-size="14.00">Enhanced/Complexified</text>
</g>
<!-- DOT File -->
<g id="node3" class="node">
<title>DOT File</title>
<path fill="none" stroke="black" d="M410.88,-36C410.88,-36 375.38,-36 375.38,-36 369.38,-36 363.38,-30 363.38,-24 363.38,-24 363.38,-12 363.38,-12 363.38,-6 369.38,0 375.38,0 375.38,0 410.88,0 410.88,0 416.88,0 422.88,-6 422.88,-12 422.88,-12 422.88,-24 422.88,-24 422.88,-30 416.88,-36 410.88,-36"/>
<text text-anchor="middle" x="393.12" y="-13.72" font-family="Times New Roman,serif" font-size="12.00">DOT File</text>
</g>
<!-- Improved Python Code&#45;&gt;DOT File -->
<g id="edge2" class="edge">
<title>Improved Python Code&#45;&gt;DOT File</title>
<path fill="none" stroke="black" d="M332.81,-87.7C336.79,-77.32 342.79,-64.14 350.62,-54 353.53,-50.24 356.91,-46.62 360.47,-43.23"/>
<polygon fill="black" stroke="black" points="362.26,-46.44 367.44,-37.2 357.62,-41.19 362.26,-46.44"/>
<text text-anchor="middle" x="383.38" y="-56.45" font-family="Times New Roman,serif" font-size="14.00">Conversion</text>
</g>
<!-- Discussion Process -->
<g id="node4" class="node">
<title>Discussion Process</title>
<path fill="none" stroke="black" d="M497.62,-123.75C497.62,-123.75 418.62,-123.75 418.62,-123.75 412.62,-123.75 406.62,-117.75 406.62,-111.75 406.62,-111.75 406.62,-99.75 406.62,-99.75 406.62,-93.75 412.62,-87.75 418.62,-87.75 418.62,-87.75 497.62,-87.75 497.62,-87.75 503.62,-87.75 509.62,-93.75 509.62,-99.75 509.62,-99.75 509.62,-111.75 509.62,-111.75 509.62,-117.75 503.62,-123.75 497.62,-123.75"/>
<text text-anchor="middle" x="458.12" y="-101.47" font-family="Times New Roman,serif" font-size="12.00">Discussion Process</text>
</g>
<!-- Discussion Process&#45;&gt;DOT File -->
<g id="edge3" class="edge">
<title>Discussion Process&#45;&gt;DOT File</title>
<path fill="none" stroke="black" d="M444.97,-87.4C435.72,-75.19 423.18,-58.65 412.75,-44.89"/>
<polygon fill="black" stroke="black" points="415.09,-43.18 406.26,-37.33 409.51,-47.41 415.09,-43.18"/>
<text text-anchor="middle" x="472.75" y="-56.45" font-family="Times New Roman,serif" font-size="14.00">Representation</text>
</g>
</g>
</svg>
