<?xml version="1.0" encoding="UTF-8" standalone="no"?>
<!DOCTYPE svg PUBLIC "-//W3C//DTD SVG 1.1//EN"
 "http://www.w3.org/Graphics/SVG/1.1/DTD/svg11.dtd">
<!-- Generated by graphviz version 8.1.0 (20230707.0739)
 -->
<!-- Title: SpaceProcess Pages: 1 -->
<svg width="475pt" height="432pt"
 viewBox="0.00 0.00 475.00 431.50" xmlns="http://www.w3.org/2000/svg" xmlns:xlink="http://www.w3.org/1999/xlink">
<g id="graph0" class="graph" transform="scale(1 1) rotate(0) translate(4 427.5)">
<title>SpaceProcess</title>
<polygon fill="white" stroke="none" points="-4,4 -4,-427.5 471,-427.5 471,4 -4,4"/>
<!-- DockingStation -->
<g id="node1" class="node">
<title>DockingStation</title>
<path fill="none" stroke="black" d="M371.75,-300.75C371.75,-300.75 301.75,-300.75 301.75,-300.75 295.75,-300.75 289.75,-294.75 289.75,-288.75 289.75,-288.75 289.75,-241.75 289.75,-241.75 289.75,-235.75 295.75,-229.75 301.75,-229.75 301.75,-229.75 371.75,-229.75 371.75,-229.75 377.75,-229.75 383.75,-235.75 383.75,-241.75 383.75,-241.75 383.75,-288.75 383.75,-288.75 383.75,-294.75 377.75,-300.75 371.75,-300.75"/>
<text text-anchor="middle" x="336.75" y="-283.45" font-family="Times New Roman,serif" font-size="14.00">Geostationary</text>
<text text-anchor="middle" x="336.75" y="-267.7" font-family="Times New Roman,serif" font-size="14.00">Orbital</text>
<text text-anchor="middle" x="336.75" y="-251.95" font-family="Times New Roman,serif" font-size="14.00">Docking</text>
<text text-anchor="middle" x="336.75" y="-236.2" font-family="Times New Roman,serif" font-size="14.00">Station</text>
</g>
<!-- Replicants -->
<g id="node2" class="node">
<title>Replicants</title>
<path fill="none" stroke="black" d="M277.5,-162.25C277.5,-162.25 182,-162.25 182,-162.25 176,-162.25 170,-156.25 170,-150.25 170,-150.25 170,-134.75 170,-134.75 170,-128.75 176,-122.75 182,-122.75 182,-122.75 277.5,-122.75 277.5,-122.75 283.5,-122.75 289.5,-128.75 289.5,-134.75 289.5,-134.75 289.5,-150.25 289.5,-150.25 289.5,-156.25 283.5,-162.25 277.5,-162.25"/>
<text text-anchor="middle" x="229.75" y="-144.95" font-family="Times New Roman,serif" font-size="14.00">Self&#45;Manufactured</text>
<text text-anchor="middle" x="229.75" y="-129.2" font-family="Times New Roman,serif" font-size="14.00">Replicants</text>
</g>
<!-- DockingStation&#45;&gt;Replicants -->
<g id="edge1" class="edge">
<title>DockingStation&#45;&gt;Replicants</title>
<path fill="none" stroke="black" d="M311.56,-229.46C295.01,-206.61 276.3,-180.83 275.75,-180.25 272.23,-176.56 268.33,-172.92 264.34,-169.44"/>
<polygon fill="black" stroke="black" points="267.03,-166.29 257.11,-162.57 262.55,-171.66 267.03,-166.29"/>
<text text-anchor="middle" x="329.25" y="-190.57" font-family="Times New Roman,serif" font-size="14.00">Replication</text>
</g>
<!-- Spacecraft -->
<g id="node3" class="node">
<title>Spacecraft</title>
<path fill="none" stroke="black" d="M353.75,-39.5C353.75,-39.5 301.75,-39.5 301.75,-39.5 295.75,-39.5 289.75,-33.5 289.75,-27.5 289.75,-27.5 289.75,-12 289.75,-12 289.75,-6 295.75,0 301.75,0 301.75,0 353.75,0 353.75,0 359.75,0 365.75,-6 365.75,-12 365.75,-12 365.75,-27.5 365.75,-27.5 365.75,-33.5 359.75,-39.5 353.75,-39.5"/>
<text text-anchor="middle" x="327.75" y="-22.2" font-family="Times New Roman,serif" font-size="14.00">Traveling</text>
<text text-anchor="middle" x="327.75" y="-6.45" font-family="Times New Roman,serif" font-size="14.00">Spacecraft</text>
</g>
<!-- Replicants&#45;&gt;Spacecraft -->
<g id="edge2" class="edge">
<title>Replicants&#45;&gt;Spacecraft</title>
<path fill="none" stroke="black" d="M241.45,-122.31C252.56,-104.71 270.19,-78.3 288.25,-57.5 291.22,-54.08 294.48,-50.64 297.81,-47.31"/>
<polygon fill="black" stroke="black" points="299.84,-50.25 304.61,-40.8 294.98,-45.21 299.84,-50.25"/>
<text text-anchor="middle" x="325.5" y="-91.45" font-family="Times New Roman,serif" font-size="14.00">Maintenance,</text>
<text text-anchor="middle" x="325.5" y="-75.7" font-family="Times New Roman,serif" font-size="14.00">Repair, &amp;</text>
<text text-anchor="middle" x="325.5" y="-59.95" font-family="Times New Roman,serif" font-size="14.00">Tasks</text>
</g>
<!-- Spacecraft&#45;&gt;DockingStation -->
<g id="edge4" class="edge">
<title>Spacecraft&#45;&gt;DockingStation</title>
<path fill="none" stroke="black" d="M350.27,-39.8C354.94,-45.01 359.21,-51.03 361.75,-57.5 386.75,-121.33 376.86,-144.88 361.75,-211.75 361.19,-214.24 360.49,-216.76 359.69,-219.26"/>
<polygon fill="black" stroke="black" points="356.11,-217.85 355.93,-228.44 362.68,-220.28 356.11,-217.85"/>
<text text-anchor="middle" x="394.38" y="-137.07" font-family="Times New Roman,serif" font-size="14.00">Travel</text>
</g>
<!-- Resources -->
<g id="node4" class="node">
<title>Resources</title>
<path fill="none" stroke="black" d="M101.5,-285C101.5,-285 12,-285 12,-285 6,-285 0,-279 0,-273 0,-273 0,-257.5 0,-257.5 0,-251.5 6,-245.5 12,-245.5 12,-245.5 101.5,-245.5 101.5,-245.5 107.5,-245.5 113.5,-251.5 113.5,-257.5 113.5,-257.5 113.5,-273 113.5,-273 113.5,-279 107.5,-285 101.5,-285"/>
<text text-anchor="middle" x="56.75" y="-267.7" font-family="Times New Roman,serif" font-size="14.00">Space Resources</text>
<text text-anchor="middle" x="56.75" y="-251.95" font-family="Times New Roman,serif" font-size="14.00">Utilization</text>
</g>
<!-- Resources&#45;&gt;Replicants -->
<g id="edge3" class="edge">
<title>Resources&#45;&gt;Replicants</title>
<path fill="none" stroke="black" d="M65.19,-245.15C74.56,-226.07 91.42,-197.23 114.25,-180.25 127.55,-170.36 143.6,-163.08 159.44,-157.74"/>
<polygon fill="black" stroke="black" points="160.29,-160.82 168.79,-154.5 158.2,-154.14 160.29,-160.82"/>
<text text-anchor="middle" x="142.5" y="-198.45" font-family="Times New Roman,serif" font-size="14.00">Material</text>
<text text-anchor="middle" x="142.5" y="-182.7" font-family="Times New Roman,serif" font-size="14.00">Utilization</text>
</g>
<!-- AutonomousSystems -->
<g id="node5" class="node">
<title>AutonomousSystems</title>
<path fill="none" stroke="black" d="M215.88,-285C215.88,-285 143.62,-285 143.62,-285 137.62,-285 131.62,-279 131.62,-273 131.62,-273 131.62,-257.5 131.62,-257.5 131.62,-251.5 137.62,-245.5 143.62,-245.5 143.62,-245.5 215.88,-245.5 215.88,-245.5 221.88,-245.5 227.88,-251.5 227.88,-257.5 227.88,-257.5 227.88,-273 227.88,-273 227.88,-279 221.88,-285 215.88,-285"/>
<text text-anchor="middle" x="179.75" y="-267.7" font-family="Times New Roman,serif" font-size="14.00">Autonomous</text>
<text text-anchor="middle" x="179.75" y="-251.95" font-family="Times New Roman,serif" font-size="14.00">Systems &amp; AI</text>
</g>
<!-- AutonomousSystems&#45;&gt;Replicants -->
<g id="edge5" class="edge">
<title>AutonomousSystems&#45;&gt;Replicants</title>
<path fill="none" stroke="black" d="M175.54,-245.1C172.64,-227.29 170.94,-200.54 181.25,-180.25 183.08,-176.65 185.45,-173.3 188.15,-170.21"/>
<polygon fill="black" stroke="black" points="190.2,-173.13 194.94,-163.65 185.33,-168.11 190.2,-173.13"/>
<text text-anchor="middle" x="229" y="-198.45" font-family="Times New Roman,serif" font-size="14.00">Control &amp;</text>
<text text-anchor="middle" x="229" y="-182.7" font-family="Times New Roman,serif" font-size="14.00">Decision&#45;Making</text>
</g>
<!-- EnvironmentalConsiderations -->
<g id="node6" class="node">
<title>EnvironmentalConsiderations</title>
<path fill="none" stroke="black" d="M314.75,-415.62C314.75,-415.62 238.75,-415.62 238.75,-415.62 232.75,-415.62 226.75,-409.62 226.75,-403.62 226.75,-403.62 226.75,-388.12 226.75,-388.12 226.75,-382.12 232.75,-376.12 238.75,-376.12 238.75,-376.12 314.75,-376.12 314.75,-376.12 320.75,-376.12 326.75,-382.12 326.75,-388.12 326.75,-388.12 326.75,-403.62 326.75,-403.62 326.75,-409.62 320.75,-415.62 314.75,-415.62"/>
<text text-anchor="middle" x="276.75" y="-398.32" font-family="Times New Roman,serif" font-size="14.00">Environmental</text>
<text text-anchor="middle" x="276.75" y="-382.57" font-family="Times New Roman,serif" font-size="14.00">Considerations</text>
</g>
<!-- EnvironmentalConsiderations&#45;&gt;DockingStation -->
<g id="edge6" class="edge">
<title>EnvironmentalConsiderations&#45;&gt;DockingStation</title>
<path fill="none" stroke="black" d="M283.13,-375.74C288.56,-360.13 296.92,-337.63 306,-318.75 307.27,-316.12 308.62,-313.44 310.02,-310.77"/>
<polygon fill="black" stroke="black" points="313.56,-312.58 315.27,-302.12 307.41,-309.23 313.56,-312.58"/>
<text text-anchor="middle" x="340.62" y="-329.07" font-family="Times New Roman,serif" font-size="14.00">Maintenance</text>
</g>
<!-- Collaboration -->
<g id="node7" class="node">
<title>Collaboration</title>
<path fill="none" stroke="black" d="M439.12,-423.5C439.12,-423.5 356.38,-423.5 356.38,-423.5 350.38,-423.5 344.38,-417.5 344.38,-411.5 344.38,-411.5 344.38,-380.25 344.38,-380.25 344.38,-374.25 350.38,-368.25 356.38,-368.25 356.38,-368.25 439.12,-368.25 439.12,-368.25 445.12,-368.25 451.12,-374.25 451.12,-380.25 451.12,-380.25 451.12,-411.5 451.12,-411.5 451.12,-417.5 445.12,-423.5 439.12,-423.5"/>
<text text-anchor="middle" x="397.75" y="-406.2" font-family="Times New Roman,serif" font-size="14.00">International</text>
<text text-anchor="middle" x="397.75" y="-390.45" font-family="Times New Roman,serif" font-size="14.00">Collaboration &amp;</text>
<text text-anchor="middle" x="397.75" y="-374.7" font-family="Times New Roman,serif" font-size="14.00">Regulations</text>
</g>
<!-- Collaboration&#45;&gt;DockingStation -->
<g id="edge7" class="edge">
<title>Collaboration&#45;&gt;DockingStation</title>
<path fill="none" stroke="black" d="M392.45,-367.94C388.9,-352.96 383.45,-334.28 375.75,-318.75 374.31,-315.84 372.7,-312.93 370.99,-310.05"/>
<polygon fill="black" stroke="black" points="373.54,-308.55 365.21,-302.01 367.64,-312.32 373.54,-308.55"/>
<text text-anchor="middle" x="426.88" y="-336.95" font-family="Times New Roman,serif" font-size="14.00">Regulations &amp;</text>
<text text-anchor="middle" x="426.88" y="-321.2" font-family="Times New Roman,serif" font-size="14.00">Coordination</text>
</g>
</g>
</svg>
