<?xml version="1.0" encoding="UTF-8" standalone="no"?>
<!DOCTYPE svg PUBLIC "-//W3C//DTD SVG 1.1//EN"
 "http://www.w3.org/Graphics/SVG/1.1/DTD/svg11.dtd">
<!-- Generated by graphviz version 8.1.0 (20230707.0739)
 -->
<!-- Title: G Pages: 1 -->
<svg width="927pt" height="332pt"
 viewBox="0.00 0.00 927.46 332.00" xmlns="http://www.w3.org/2000/svg" xmlns:xlink="http://www.w3.org/1999/xlink">
<g id="graph0" class="graph" transform="scale(1 1) rotate(0) translate(4 328)">
<title>G</title>
<polygon fill="white" stroke="none" points="-4,4 -4,-328 923.46,-328 923.46,4 -4,4"/>
<!-- prompt1 -->
<g id="node1" class="node">
<title>prompt1</title>
<ellipse fill="none" stroke="black" cx="128.95" cy="-306" rx="92.48" ry="18"/>
<text text-anchor="middle" x="128.95" y="-300.57" font-family="Times New Roman,serif" font-size="14.00">Initialize Conversation</text>
</g>
<!-- response1 -->
<g id="node2" class="node">
<title>response1</title>
<ellipse fill="none" stroke="black" cx="128.95" cy="-234" rx="81" ry="18"/>
<text text-anchor="middle" x="128.95" y="-228.57" font-family="Times New Roman,serif" font-size="14.00">Welcome Message</text>
</g>
<!-- prompt1&#45;&gt;response1 -->
<g id="edge1" class="edge">
<title>prompt1&#45;&gt;response1</title>
<path fill="none" stroke="black" d="M128.95,-287.7C128.95,-280.24 128.95,-271.32 128.95,-262.97"/>
<polygon fill="black" stroke="black" points="132.45,-263.1 128.95,-253.1 125.45,-263.1 132.45,-263.1"/>
</g>
<!-- prompt2 -->
<g id="node3" class="node">
<title>prompt2</title>
<ellipse fill="none" stroke="black" cx="371.95" cy="-306" rx="107.45" ry="18"/>
<text text-anchor="middle" x="371.95" y="-300.57" font-family="Times New Roman,serif" font-size="14.00">Create a quantum diagram</text>
</g>
<!-- response2 -->
<g id="node4" class="node">
<title>response2</title>
<ellipse fill="none" stroke="black" cx="371.95" cy="-234" rx="144.38" ry="18"/>
<text text-anchor="middle" x="371.95" y="-228.57" font-family="Times New Roman,serif" font-size="14.00">Sure, let&#39;s create a quantum diagram</text>
</g>
<!-- prompt2&#45;&gt;response2 -->
<g id="edge2" class="edge">
<title>prompt2&#45;&gt;response2</title>
<path fill="none" stroke="black" d="M371.95,-287.7C371.95,-280.24 371.95,-271.32 371.95,-262.97"/>
<polygon fill="black" stroke="black" points="375.45,-263.1 371.95,-253.1 368.45,-263.1 375.45,-263.1"/>
</g>
<!-- quantumPhenomena -->
<g id="node7" class="node">
<title>quantumPhenomena</title>
<ellipse fill="none" stroke="black" cx="371.95" cy="-162" rx="89.99" ry="18"/>
<text text-anchor="middle" x="371.95" y="-156.57" font-family="Times New Roman,serif" font-size="14.00">Quantum Phenomena</text>
</g>
<!-- response2&#45;&gt;quantumPhenomena -->
<g id="edge4" class="edge">
<title>response2&#45;&gt;quantumPhenomena</title>
<path fill="none" stroke="black" d="M371.95,-215.7C371.95,-208.24 371.95,-199.32 371.95,-190.97"/>
<polygon fill="black" stroke="black" points="375.45,-191.1 371.95,-181.1 368.45,-191.1 375.45,-191.1"/>
</g>
<!-- prompt3 -->
<g id="node5" class="node">
<title>prompt3</title>
<ellipse fill="none" stroke="black" cx="644.95" cy="-306" rx="101.46" ry="18"/>
<text text-anchor="middle" x="644.95" y="-300.57" font-family="Times New Roman,serif" font-size="14.00">Add Macroscopic Level</text>
</g>
<!-- response3 -->
<g id="node6" class="node">
<title>response3</title>
<ellipse fill="none" stroke="black" cx="644.95" cy="-234" rx="110.44" ry="18"/>
<text text-anchor="middle" x="644.95" y="-228.57" font-family="Times New Roman,serif" font-size="14.00">Added Macroscopic Level</text>
</g>
<!-- prompt3&#45;&gt;response3 -->
<g id="edge3" class="edge">
<title>prompt3&#45;&gt;response3</title>
<path fill="none" stroke="black" d="M644.95,-287.7C644.95,-280.24 644.95,-271.32 644.95,-262.97"/>
<polygon fill="black" stroke="black" points="648.45,-263.1 644.95,-253.1 641.45,-263.1 648.45,-263.1"/>
</g>
<!-- superScientificPhenomena -->
<g id="node8" class="node">
<title>superScientificPhenomena</title>
<ellipse fill="none" stroke="black" cx="109.95" cy="-90" rx="109.95" ry="18"/>
<text text-anchor="middle" x="109.95" y="-84.58" font-family="Times New Roman,serif" font-size="14.00">SuperScientificPhenomena</text>
</g>
<!-- quantumPhenomena&#45;&gt;superScientificPhenomena -->
<g id="edge5" class="edge">
<title>quantumPhenomena&#45;&gt;superScientificPhenomena</title>
<path fill="none" stroke="black" d="M319.56,-147C278.36,-136 220.7,-120.59 176.28,-108.72"/>
<polygon fill="black" stroke="black" points="177.43,-105.14 166.87,-105.94 175.62,-111.9 177.43,-105.14"/>
</g>
<!-- quantumCircuit -->
<g id="node9" class="node">
<title>quantumCircuit</title>
<ellipse fill="none" stroke="black" cx="306.95" cy="-90" rx="69.53" ry="18"/>
<text text-anchor="middle" x="306.95" y="-84.58" font-family="Times New Roman,serif" font-size="14.00">QuantumCircuit</text>
</g>
<!-- quantumPhenomena&#45;&gt;quantumCircuit -->
<g id="edge6" class="edge">
<title>quantumPhenomena&#45;&gt;quantumCircuit</title>
<path fill="none" stroke="black" d="M356.21,-144.05C348.31,-135.54 338.58,-125.07 329.86,-115.68"/>
<polygon fill="black" stroke="black" points="332.9,-113.74 323.54,-108.79 327.77,-118.5 332.9,-113.74"/>
</g>
<!-- matrixS -->
<g id="node10" class="node">
<title>matrixS</title>
<ellipse fill="none" stroke="black" cx="436.95" cy="-90" rx="42.58" ry="18"/>
<text text-anchor="middle" x="436.95" y="-84.58" font-family="Times New Roman,serif" font-size="14.00">Matrix S</text>
</g>
<!-- quantumPhenomena&#45;&gt;matrixS -->
<g id="edge7" class="edge">
<title>quantumPhenomena&#45;&gt;matrixS</title>
<path fill="none" stroke="black" d="M387.68,-144.05C395.7,-135.42 405.6,-124.76 414.41,-115.27"/>
<polygon fill="black" stroke="black" points="416.56,-118.02 420.8,-108.31 411.43,-113.25 416.56,-118.02"/>
</g>
<!-- additionalInfo1 -->
<g id="node11" class="node">
<title>additionalInfo1</title>
<ellipse fill="none" stroke="black" cx="592.95" cy="-90" rx="94.98" ry="18"/>
<text text-anchor="middle" x="592.95" y="-84.58" font-family="Times New Roman,serif" font-size="14.00">Additional Information</text>
</g>
<!-- quantumPhenomena&#45;&gt;additionalInfo1 -->
<g id="edge8" class="edge">
<title>quantumPhenomena&#45;&gt;additionalInfo1</title>
<path fill="none" stroke="black" d="M418.54,-146.24C452.55,-135.47 498.85,-120.8 535.2,-109.29"/>
<polygon fill="black" stroke="black" points="536.17,-112.34 544.65,-105.98 534.06,-105.66 536.17,-112.34"/>
</g>
<!-- additionalInfo2 -->
<g id="node12" class="node">
<title>additionalInfo2</title>
<ellipse fill="none" stroke="black" cx="436.95" cy="-18" rx="94.98" ry="18"/>
<text text-anchor="middle" x="436.95" y="-12.57" font-family="Times New Roman,serif" font-size="14.00">Additional Information</text>
</g>
<!-- matrixS&#45;&gt;additionalInfo2 -->
<g id="edge9" class="edge">
<title>matrixS&#45;&gt;additionalInfo2</title>
<path fill="none" stroke="black" d="M436.95,-71.7C436.95,-64.24 436.95,-55.32 436.95,-46.97"/>
<polygon fill="black" stroke="black" points="440.45,-47.1 436.95,-37.1 433.45,-47.1 440.45,-47.1"/>
</g>
<!-- end -->
<g id="node13" class="node">
<title>end</title>
<ellipse fill="none" stroke="black" cx="841.95" cy="-306" rx="77.51" ry="18"/>
<text text-anchor="middle" x="841.95" y="-300.57" font-family="Times New Roman,serif" font-size="14.00">End Conversation</text>
</g>
</g>
</svg>
