<?xml version="1.0" encoding="UTF-8" standalone="no"?>
<!DOCTYPE svg PUBLIC "-//W3C//DTD SVG 1.1//EN"
 "http://www.w3.org/Graphics/SVG/1.1/DTD/svg11.dtd">
<!-- Generated by graphviz version 8.1.0 (20230707.0739)
 -->
<!-- Title: LanguageProcessing Pages: 1 -->
<svg width="384pt" height="487pt"
 viewBox="0.00 0.00 384.00 486.50" xmlns="http://www.w3.org/2000/svg" xmlns:xlink="http://www.w3.org/1999/xlink">
<g id="graph0" class="graph" transform="scale(1 1) rotate(0) translate(4 482.5)">
<title>LanguageProcessing</title>
<polygon fill="white" stroke="none" points="-4,4 -4,-482.5 380,-482.5 380,4 -4,4"/>
<g id="clust1" class="cluster">
<title>cluster_compiler</title>
<polygon fill="none" stroke="black" points="8,-8 8,-470.5 260,-470.5 260,-8 8,-8"/>
<text text-anchor="middle" x="134" y="-453.2" font-family="Times New Roman,serif" font-size="14.00">Compiler</text>
</g>
<g id="clust2" class="cluster">
<title>cluster_interpreter</title>
<polygon fill="none" stroke="black" points="268,-81 268,-156.75 368,-156.75 368,-81 268,-81"/>
<text text-anchor="middle" x="318" y="-139.45" font-family="Times New Roman,serif" font-size="14.00">Interpreter</text>
</g>
<!-- start -->
<g id="node1" class="node">
<title>start</title>
<ellipse fill="none" stroke="black" cx="61" cy="-420.75" rx="28.11" ry="18"/>
<text text-anchor="middle" x="61" y="-415.32" font-family="Times New Roman,serif" font-size="14.00">Start</text>
</g>
<!-- tokenize -->
<g id="node2" class="node">
<title>tokenize</title>
<ellipse fill="none" stroke="black" cx="61" cy="-347.75" rx="44.58" ry="18"/>
<text text-anchor="middle" x="61" y="-342.32" font-family="Times New Roman,serif" font-size="14.00">Tokenize</text>
</g>
<!-- start&#45;&gt;tokenize -->
<g id="edge1" class="edge">
<title>start&#45;&gt;tokenize</title>
<path fill="none" stroke="black" d="M55.16,-402.92C54.32,-395.08 54.06,-385.54 54.39,-376.66"/>
<polygon fill="black" stroke="black" points="57.93,-377.16 55.12,-366.95 50.95,-376.69 57.93,-377.16"/>
</g>
<!-- start&#45;&gt;tokenize -->
<g id="edge6" class="edge">
<title>start&#45;&gt;tokenize</title>
<path fill="none" stroke="black" d="M66.84,-402.92C67.68,-395.08 67.94,-385.54 67.61,-376.66"/>
<polygon fill="black" stroke="black" points="71.05,-376.69 66.88,-366.95 64.07,-377.16 71.05,-376.69"/>
</g>
<!-- tokenize&#45;&gt;tokenize -->
<g id="edge9" class="edge">
<title>tokenize&#45;&gt;tokenize</title>
<path fill="none" stroke="black" d="M102.82,-354.56C114.56,-354.26 123.58,-351.99 123.58,-347.75 123.58,-344.97 119.69,-343.03 113.71,-341.95"/>
<polygon fill="black" stroke="black" points="114.1,-338.38 103.82,-340.94 113.45,-345.35 114.1,-338.38"/>
<text text-anchor="middle" x="187.7" y="-342.32" font-family="Times New Roman,serif" font-size="14.00">Common Tokenization</text>
</g>
<!-- parse -->
<g id="node3" class="node">
<title>parse</title>
<ellipse fill="none" stroke="black" cx="73" cy="-274.75" rx="31.1" ry="18"/>
<text text-anchor="middle" x="73" y="-269.32" font-family="Times New Roman,serif" font-size="14.00">Parse</text>
</g>
<!-- tokenize&#45;&gt;parse -->
<g id="edge2" class="edge">
<title>tokenize&#45;&gt;parse</title>
<path fill="none" stroke="black" d="M63.9,-329.56C65.23,-321.71 66.84,-312.22 68.33,-303.41"/>
<polygon fill="black" stroke="black" points="71.91,-304.22 70.12,-293.78 65,-303.06 71.91,-304.22"/>
</g>
<!-- interpret -->
<g id="node7" class="node">
<title>interpret</title>
<ellipse fill="none" stroke="black" cx="318" cy="-107" rx="42.08" ry="18"/>
<text text-anchor="middle" x="318" y="-101.58" font-family="Times New Roman,serif" font-size="14.00">Interpret</text>
</g>
<!-- tokenize&#45;&gt;interpret -->
<g id="edge7" class="edge">
<title>tokenize&#45;&gt;interpret</title>
<path fill="none" stroke="black" d="M78.26,-330.71C122.72,-289.42 241.27,-179.28 293.13,-131.1"/>
<polygon fill="black" stroke="black" points="295.2,-134.02 300.15,-124.65 290.44,-128.9 295.2,-134.02"/>
</g>
<!-- optimize -->
<g id="node4" class="node">
<title>optimize</title>
<ellipse fill="none" stroke="black" cx="99" cy="-201.75" rx="44.08" ry="18"/>
<text text-anchor="middle" x="99" y="-196.32" font-family="Times New Roman,serif" font-size="14.00">Optimize</text>
</g>
<!-- parse&#45;&gt;optimize -->
<g id="edge3" class="edge">
<title>parse&#45;&gt;optimize</title>
<path fill="none" stroke="black" d="M79.16,-256.92C82.1,-248.91 85.68,-239.11 89,-230.07"/>
<polygon fill="black" stroke="black" points="92.55,-231.54 92.7,-220.95 85.98,-229.14 92.55,-231.54"/>
</g>
<!-- generate_code -->
<g id="node5" class="node">
<title>generate_code</title>
<ellipse fill="none" stroke="black" cx="134" cy="-107" rx="66.53" ry="18"/>
<text text-anchor="middle" x="134" y="-101.58" font-family="Times New Roman,serif" font-size="14.00">Generate Code</text>
</g>
<!-- optimize&#45;&gt;generate_code -->
<g id="edge4" class="edge">
<title>optimize&#45;&gt;generate_code</title>
<path fill="none" stroke="black" d="M105.42,-183.74C110.52,-170.23 117.75,-151.06 123.66,-135.4"/>
<polygon fill="black" stroke="black" points="127.25,-136.81 127.5,-126.22 120.7,-134.34 127.25,-136.81"/>
</g>
<!-- end -->
<g id="node6" class="node">
<title>end</title>
<ellipse fill="none" stroke="black" cx="180" cy="-34" rx="27" ry="18"/>
<text text-anchor="middle" x="180" y="-28.57" font-family="Times New Roman,serif" font-size="14.00">End</text>
</g>
<!-- generate_code&#45;&gt;end -->
<g id="edge5" class="edge">
<title>generate_code&#45;&gt;end</title>
<path fill="none" stroke="black" d="M145.14,-88.81C150.72,-80.19 157.59,-69.59 163.75,-60.09"/>
<polygon fill="black" stroke="black" points="167.1,-62.35 169.6,-52.06 161.22,-58.54 167.1,-62.35"/>
</g>
<!-- interpret&#45;&gt;end -->
<g id="edge8" class="edge">
<title>interpret&#45;&gt;end</title>
<path fill="none" stroke="black" d="M291.72,-92.48C268.49,-80.53 234.6,-63.09 210.25,-50.56"/>
<polygon fill="black" stroke="black" points="212.27,-47.15 201.78,-45.69 209.07,-53.38 212.27,-47.15"/>
</g>
</g>
</svg>
