<?xml version="1.0" encoding="UTF-8" standalone="no"?>
<!DOCTYPE svg PUBLIC "-//W3C//DTD SVG 1.1//EN"
 "http://www.w3.org/Graphics/SVG/1.1/DTD/svg11.dtd">
<!-- Generated by graphviz version 8.1.0 (20230707.0739)
 -->
<!-- Title: Process Pages: 1 -->
<svg width="761pt" height="571pt"
 viewBox="0.00 0.00 760.62 570.50" xmlns="http://www.w3.org/2000/svg" xmlns:xlink="http://www.w3.org/1999/xlink">
<g id="graph0" class="graph" transform="scale(1 1) rotate(0) translate(4 566.5)">
<title>Process</title>
<polygon fill="white" stroke="none" points="-4,4 -4,-566.5 756.62,-566.5 756.62,4 -4,4"/>
<!-- start -->
<g id="node1" class="node">
<title>start</title>
<ellipse fill="none" stroke="black" cx="148.87" cy="-544.5" rx="148.87" ry="18"/>
<text text-anchor="middle" x="148.87" y="-539.08" font-family="Times New Roman,serif" font-size="14.00">User: Ask about Airplane Turbulence</text>
</g>
<!-- turbulence -->
<g id="node2" class="node">
<title>turbulence</title>
<ellipse fill="none" stroke="black" cx="439.87" cy="-544.5" rx="123.92" ry="18"/>
<text text-anchor="middle" x="439.87" y="-539.08" font-family="Times New Roman,serif" font-size="14.00">Assistant: Provide Explanation</text>
</g>
<!-- astronaut_question -->
<g id="node3" class="node">
<title>astronaut_question</title>
<ellipse fill="none" stroke="black" cx="439.87" cy="-456.75" rx="81" ry="18"/>
<text text-anchor="middle" x="439.87" y="-451.32" font-family="Times New Roman,serif" font-size="14.00">astronaut_question</text>
</g>
<!-- turbulence&#45;&gt;astronaut_question -->
<g id="edge1" class="edge">
<title>turbulence&#45;&gt;astronaut_question</title>
<path fill="none" stroke="black" d="M439.87,-526.15C439.87,-514.64 439.87,-499.28 439.87,-486.03"/>
<polygon fill="black" stroke="black" points="443.37,-486.08 439.87,-476.08 436.37,-486.08 443.37,-486.08"/>
<text text-anchor="middle" x="546.74" y="-495.2" font-family="Times New Roman,serif" font-size="14.00">User: Ask about Astronaut Percentage</text>
</g>
<!-- astronaut_info -->
<g id="node4" class="node">
<title>astronaut_info</title>
<ellipse fill="none" stroke="black" cx="439.87" cy="-369" rx="64.04" ry="18"/>
<text text-anchor="middle" x="439.87" y="-363.57" font-family="Times New Roman,serif" font-size="14.00">astronaut_info</text>
</g>
<!-- astronaut_question&#45;&gt;astronaut_info -->
<g id="edge2" class="edge">
<title>astronaut_question&#45;&gt;astronaut_info</title>
<path fill="none" stroke="black" d="M439.87,-438.4C439.87,-426.89 439.87,-411.53 439.87,-398.28"/>
<polygon fill="black" stroke="black" points="443.37,-398.33 439.87,-388.33 436.37,-398.33 443.37,-398.33"/>
<text text-anchor="middle" x="524.99" y="-407.45" font-family="Times New Roman,serif" font-size="14.00">Assistant: Provide Information</text>
</g>
<!-- ceo_question -->
<g id="node5" class="node">
<title>ceo_question</title>
<ellipse fill="none" stroke="black" cx="439.87" cy="-281.25" rx="60.54" ry="18"/>
<text text-anchor="middle" x="439.87" y="-275.82" font-family="Times New Roman,serif" font-size="14.00">ceo_question</text>
</g>
<!-- astronaut_info&#45;&gt;ceo_question -->
<g id="edge3" class="edge">
<title>astronaut_info&#45;&gt;ceo_question</title>
<path fill="none" stroke="black" d="M439.87,-350.65C439.87,-339.14 439.87,-323.78 439.87,-310.53"/>
<polygon fill="black" stroke="black" points="443.37,-310.58 439.87,-300.58 436.37,-310.58 443.37,-310.58"/>
<text text-anchor="middle" x="533.62" y="-319.7" font-family="Times New Roman,serif" font-size="14.00">User: Ask about CEO Percentage</text>
</g>
<!-- ceo_estimate -->
<g id="node6" class="node">
<title>ceo_estimate</title>
<ellipse fill="none" stroke="black" cx="439.87" cy="-193.5" rx="59.05" ry="18"/>
<text text-anchor="middle" x="439.87" y="-188.07" font-family="Times New Roman,serif" font-size="14.00">ceo_estimate</text>
</g>
<!-- ceo_question&#45;&gt;ceo_estimate -->
<g id="edge4" class="edge">
<title>ceo_question&#45;&gt;ceo_estimate</title>
<path fill="none" stroke="black" d="M439.87,-262.9C439.87,-251.39 439.87,-236.03 439.87,-222.78"/>
<polygon fill="black" stroke="black" points="443.37,-222.83 439.87,-212.83 436.37,-222.83 443.37,-222.83"/>
<text text-anchor="middle" x="536.62" y="-231.95" font-family="Times New Roman,serif" font-size="14.00">Assistant: Provide Rough Estimate</text>
</g>
<!-- exact_number_question -->
<g id="node7" class="node">
<title>exact_number_question</title>
<ellipse fill="none" stroke="black" cx="439.87" cy="-105.75" rx="99.47" ry="18"/>
<text text-anchor="middle" x="439.87" y="-100.33" font-family="Times New Roman,serif" font-size="14.00">exact_number_question</text>
</g>
<!-- ceo_estimate&#45;&gt;exact_number_question -->
<g id="edge5" class="edge">
<title>ceo_estimate&#45;&gt;exact_number_question</title>
<path fill="none" stroke="black" d="M439.87,-175.15C439.87,-163.64 439.87,-148.28 439.87,-135.03"/>
<polygon fill="black" stroke="black" points="443.37,-135.08 439.87,-125.08 436.37,-135.08 443.37,-135.08"/>
<text text-anchor="middle" x="539.62" y="-144.2" font-family="Times New Roman,serif" font-size="14.00">User: Request for an Exact Number</text>
</g>
<!-- limitations -->
<g id="node8" class="node">
<title>limitations</title>
<ellipse fill="none" stroke="black" cx="439.87" cy="-18" rx="48.07" ry="18"/>
<text text-anchor="middle" x="439.87" y="-12.57" font-family="Times New Roman,serif" font-size="14.00">limitations</text>
</g>
<!-- exact_number_question&#45;&gt;limitations -->
<g id="edge6" class="edge">
<title>exact_number_question&#45;&gt;limitations</title>
<path fill="none" stroke="black" d="M439.87,-87.4C439.87,-75.89 439.87,-60.53 439.87,-47.28"/>
<polygon fill="black" stroke="black" points="443.37,-47.33 439.87,-37.33 436.37,-47.33 443.37,-47.33"/>
<text text-anchor="middle" x="596.24" y="-56.45" font-family="Times New Roman,serif" font-size="14.00">Assistant: Explain Limitations and Recommend Sources</text>
</g>
</g>
</svg>
