<?xml version="1.0" encoding="UTF-8" standalone="no"?>
<!DOCTYPE svg PUBLIC "-//W3C//DTD SVG 1.1//EN"
 "http://www.w3.org/Graphics/SVG/1.1/DTD/svg11.dtd">
<!-- Generated by graphviz version 8.1.0 (20230707.0739)
 -->
<!-- Title: ProcessFlow Pages: 1 -->
<svg width="285pt" height="1340pt"
 viewBox="0.00 0.00 285.00 1340.00" xmlns="http://www.w3.org/2000/svg" xmlns:xlink="http://www.w3.org/1999/xlink">
<g id="graph0" class="graph" transform="scale(1 1) rotate(0) translate(4 1336)">
<title>ProcessFlow</title>
<polygon fill="white" stroke="none" points="-4,4 -4,-1336 281,-1336 281,4 -4,4"/>
<!-- A -->
<g id="node1" class="node">
<title>A</title>
<polygon fill="none" stroke="black" points="165.5,-1332 111.5,-1332 111.5,-1296 165.5,-1296 165.5,-1332"/>
<text text-anchor="middle" x="138.5" y="-1308.58" font-family="Times New Roman,serif" font-size="14.00">Start</text>
</g>
<!-- B -->
<g id="node2" class="node">
<title>B</title>
<polygon fill="none" stroke="black" points="183.62,-1260 93.38,-1260 93.38,-1224 183.62,-1224 183.62,-1260"/>
<text text-anchor="middle" x="138.5" y="-1236.58" font-family="Times New Roman,serif" font-size="14.00">Mantle(crust)</text>
</g>
<!-- A&#45;&gt;B -->
<g id="edge1" class="edge">
<title>A&#45;&gt;B</title>
<path fill="none" stroke="black" d="M138.5,-1295.7C138.5,-1288.24 138.5,-1279.32 138.5,-1270.97"/>
<polygon fill="black" stroke="black" points="142,-1271.1 138.5,-1261.1 135,-1271.1 142,-1271.1"/>
</g>
<!-- C -->
<g id="node3" class="node">
<title>C</title>
<polygon fill="none" stroke="black" points="181.75,-1188 95.25,-1188 95.25,-1152 181.75,-1152 181.75,-1188"/>
<text text-anchor="middle" x="138.5" y="-1164.58" font-family="Times New Roman,serif" font-size="14.00">Ceta(Ocean)</text>
</g>
<!-- B&#45;&gt;C -->
<g id="edge2" class="edge">
<title>B&#45;&gt;C</title>
<path fill="none" stroke="black" d="M138.5,-1223.7C138.5,-1216.24 138.5,-1207.32 138.5,-1198.97"/>
<polygon fill="black" stroke="black" points="142,-1199.1 138.5,-1189.1 135,-1199.1 142,-1199.1"/>
</g>
<!-- D -->
<g id="node4" class="node">
<title>D</title>
<polygon fill="none" stroke="black" points="194.5,-1116 82.5,-1116 82.5,-1080 194.5,-1080 194.5,-1116"/>
<text text-anchor="middle" x="138.5" y="-1092.58" font-family="Times New Roman,serif" font-size="14.00">Hover(Near, Far)</text>
</g>
<!-- C&#45;&gt;D -->
<g id="edge3" class="edge">
<title>C&#45;&gt;D</title>
<path fill="none" stroke="black" d="M138.5,-1151.7C138.5,-1144.24 138.5,-1135.32 138.5,-1126.97"/>
<polygon fill="black" stroke="black" points="142,-1127.1 138.5,-1117.1 135,-1127.1 142,-1127.1"/>
</g>
<!-- E -->
<g id="node5" class="node">
<title>E</title>
<polygon fill="none" stroke="black" points="194.12,-1044 82.88,-1044 82.88,-1008 194.12,-1008 194.12,-1044"/>
<text text-anchor="middle" x="138.5" y="-1020.58" font-family="Times New Roman,serif" font-size="14.00">Float(at_surface)</text>
</g>
<!-- D&#45;&gt;E -->
<g id="edge4" class="edge">
<title>D&#45;&gt;E</title>
<path fill="none" stroke="black" d="M138.5,-1079.7C138.5,-1072.24 138.5,-1063.32 138.5,-1054.97"/>
<polygon fill="black" stroke="black" points="142,-1055.1 138.5,-1045.1 135,-1055.1 142,-1055.1"/>
</g>
<!-- F -->
<g id="node6" class="node">
<title>F</title>
<polygon fill="none" stroke="black" points="192.62,-972 84.38,-972 84.38,-936 192.62,-936 192.62,-972"/>
<text text-anchor="middle" x="138.5" y="-948.58" font-family="Times New Roman,serif" font-size="14.00">Boundary_water</text>
</g>
<!-- E&#45;&gt;F -->
<g id="edge5" class="edge">
<title>E&#45;&gt;F</title>
<path fill="none" stroke="black" d="M138.5,-1007.7C138.5,-1000.24 138.5,-991.32 138.5,-982.97"/>
<polygon fill="black" stroke="black" points="142,-983.1 138.5,-973.1 135,-983.1 142,-983.1"/>
</g>
<!-- G -->
<g id="node7" class="node">
<title>G</title>
<polygon fill="none" stroke="black" points="193.75,-900 83.25,-900 83.25,-864 193.75,-864 193.75,-900"/>
<text text-anchor="middle" x="138.5" y="-876.58" font-family="Times New Roman,serif" font-size="14.00">Water_boundary</text>
</g>
<!-- F&#45;&gt;G -->
<g id="edge6" class="edge">
<title>F&#45;&gt;G</title>
<path fill="none" stroke="black" d="M138.5,-935.7C138.5,-928.24 138.5,-919.32 138.5,-910.97"/>
<polygon fill="black" stroke="black" points="142,-911.1 138.5,-901.1 135,-911.1 142,-911.1"/>
</g>
<!-- H -->
<g id="node8" class="node">
<title>H</title>
<polygon fill="none" stroke="black" points="232.75,-828 44.25,-828 44.25,-792 232.75,-792 232.75,-828"/>
<text text-anchor="middle" x="138.5" y="-804.58" font-family="Times New Roman,serif" font-size="14.00">Magmus solar is solar magmus</text>
</g>
<!-- G&#45;&gt;H -->
<g id="edge7" class="edge">
<title>G&#45;&gt;H</title>
<path fill="none" stroke="black" d="M138.5,-863.7C138.5,-856.24 138.5,-847.32 138.5,-838.97"/>
<polygon fill="black" stroke="black" points="142,-839.1 138.5,-829.1 135,-839.1 142,-839.1"/>
</g>
<!-- I -->
<g id="node9" class="node">
<title>I</title>
<polygon fill="none" stroke="black" points="187.38,-756 89.62,-756 89.62,-720 187.38,-720 187.38,-756"/>
<text text-anchor="middle" x="138.5" y="-732.58" font-family="Times New Roman,serif" font-size="14.00">Nebula is clear</text>
</g>
<!-- H&#45;&gt;I -->
<g id="edge8" class="edge">
<title>H&#45;&gt;I</title>
<path fill="none" stroke="black" d="M138.5,-791.7C138.5,-784.24 138.5,-775.32 138.5,-766.97"/>
<polygon fill="black" stroke="black" points="142,-767.1 138.5,-757.1 135,-767.1 142,-767.1"/>
</g>
<!-- J -->
<g id="node10" class="node">
<title>J</title>
<polygon fill="none" stroke="black" points="196.38,-684 80.62,-684 80.62,-648 196.38,-648 196.38,-684"/>
<text text-anchor="middle" x="138.5" y="-660.58" font-family="Times New Roman,serif" font-size="14.00">At Flat_Organism</text>
</g>
<!-- I&#45;&gt;J -->
<g id="edge9" class="edge">
<title>I&#45;&gt;J</title>
<path fill="none" stroke="black" d="M138.5,-719.7C138.5,-712.24 138.5,-703.32 138.5,-694.97"/>
<polygon fill="black" stroke="black" points="142,-695.1 138.5,-685.1 135,-695.1 142,-695.1"/>
</g>
<!-- K -->
<g id="node11" class="node">
<title>K</title>
<polygon fill="none" stroke="black" points="257.5,-612 19.5,-612 19.5,-576 257.5,-576 257.5,-612"/>
<text text-anchor="middle" x="138.5" y="-588.58" font-family="Times New Roman,serif" font-size="14.00">Neuro(prefrontal lim, prefrontal growth)</text>
</g>
<!-- J&#45;&gt;K -->
<g id="edge10" class="edge">
<title>J&#45;&gt;K</title>
<path fill="none" stroke="black" d="M138.5,-647.7C138.5,-640.24 138.5,-631.32 138.5,-622.97"/>
<polygon fill="black" stroke="black" points="142,-623.1 138.5,-613.1 135,-623.1 142,-623.1"/>
</g>
<!-- L -->
<g id="node12" class="node">
<title>L</title>
<polygon fill="none" stroke="black" points="274.75,-540 2.25,-540 2.25,-504 274.75,-504 274.75,-540"/>
<text text-anchor="middle" x="138.5" y="-516.58" font-family="Times New Roman,serif" font-size="14.00">Tensor white mass(To the ends of the World)</text>
</g>
<!-- K&#45;&gt;L -->
<g id="edge11" class="edge">
<title>K&#45;&gt;L</title>
<path fill="none" stroke="black" d="M138.5,-575.7C138.5,-568.24 138.5,-559.32 138.5,-550.97"/>
<polygon fill="black" stroke="black" points="142,-551.1 138.5,-541.1 135,-551.1 142,-551.1"/>
</g>
<!-- M -->
<g id="node13" class="node">
<title>M</title>
<polygon fill="none" stroke="black" points="212.12,-468 64.88,-468 64.88,-432 212.12,-432 212.12,-468"/>
<text text-anchor="middle" x="138.5" y="-444.57" font-family="Times New Roman,serif" font-size="14.00">Palm Feet sweat(sweet)</text>
</g>
<!-- L&#45;&gt;M -->
<g id="edge12" class="edge">
<title>L&#45;&gt;M</title>
<path fill="none" stroke="black" d="M138.5,-503.7C138.5,-496.24 138.5,-487.32 138.5,-478.97"/>
<polygon fill="black" stroke="black" points="142,-479.1 138.5,-469.1 135,-479.1 142,-479.1"/>
</g>
<!-- N -->
<g id="node14" class="node">
<title>N</title>
<polygon fill="none" stroke="black" points="207.62,-396 69.38,-396 69.38,-360 207.62,-360 207.62,-396"/>
<text text-anchor="middle" x="138.5" y="-372.57" font-family="Times New Roman,serif" font-size="14.00">Multi(verse, dictation)</text>
</g>
<!-- M&#45;&gt;N -->
<g id="edge13" class="edge">
<title>M&#45;&gt;N</title>
<path fill="none" stroke="black" d="M138.5,-431.7C138.5,-424.24 138.5,-415.32 138.5,-406.97"/>
<polygon fill="black" stroke="black" points="142,-407.1 138.5,-397.1 135,-407.1 142,-407.1"/>
</g>
<!-- O -->
<g id="node15" class="node">
<title>O</title>
<polygon fill="none" stroke="black" points="259.38,-324 17.62,-324 17.62,-288 259.38,-288 259.38,-324"/>
<text text-anchor="middle" x="138.5" y="-300.57" font-family="Times New Roman,serif" font-size="14.00">Boundary Third Mega Mess Man (Trap)</text>
</g>
<!-- N&#45;&gt;O -->
<g id="edge14" class="edge">
<title>N&#45;&gt;O</title>
<path fill="none" stroke="black" d="M138.5,-359.7C138.5,-352.24 138.5,-343.32 138.5,-334.97"/>
<polygon fill="black" stroke="black" points="142,-335.1 138.5,-325.1 135,-335.1 142,-335.1"/>
</g>
<!-- P -->
<g id="node16" class="node">
<title>P</title>
<polygon fill="none" stroke="black" points="274,-252 3,-252 3,-216 274,-216 274,-252"/>
<text text-anchor="middle" x="138.5" y="-228.57" font-family="Times New Roman,serif" font-size="14.00">Boundary Third Mega Water Substance Grab</text>
</g>
<!-- O&#45;&gt;P -->
<g id="edge15" class="edge">
<title>O&#45;&gt;P</title>
<path fill="none" stroke="black" d="M138.5,-287.7C138.5,-280.24 138.5,-271.32 138.5,-262.97"/>
<polygon fill="black" stroke="black" points="142,-263.1 138.5,-253.1 135,-263.1 142,-263.1"/>
</g>
<!-- Q -->
<g id="node17" class="node">
<title>Q</title>
<polygon fill="none" stroke="black" points="277,-180 0,-180 0,-144 277,-144 277,-180"/>
<text text-anchor="middle" x="138.5" y="-156.57" font-family="Times New Roman,serif" font-size="14.00">Boundary Third Mega Water Substance Grasp</text>
</g>
<!-- P&#45;&gt;Q -->
<g id="edge16" class="edge">
<title>P&#45;&gt;Q</title>
<path fill="none" stroke="black" d="M138.5,-215.7C138.5,-208.24 138.5,-199.32 138.5,-190.97"/>
<polygon fill="black" stroke="black" points="142,-191.1 138.5,-181.1 135,-191.1 142,-191.1"/>
</g>
<!-- R -->
<g id="node18" class="node">
<title>R</title>
<polygon fill="none" stroke="black" points="188.12,-108 88.88,-108 88.88,-72 188.12,-72 188.12,-108"/>
<text text-anchor="middle" x="138.5" y="-84.58" font-family="Times New Roman,serif" font-size="14.00">9/11 (11 of 11)</text>
</g>
<!-- Q&#45;&gt;R -->
<g id="edge17" class="edge">
<title>Q&#45;&gt;R</title>
<path fill="none" stroke="black" d="M138.5,-143.7C138.5,-136.24 138.5,-127.32 138.5,-118.97"/>
<polygon fill="black" stroke="black" points="142,-119.1 138.5,-109.1 135,-119.1 142,-119.1"/>
</g>
<!-- S -->
<g id="node19" class="node">
<title>S</title>
<polygon fill="none" stroke="black" points="165.5,-36 111.5,-36 111.5,0 165.5,0 165.5,-36"/>
<text text-anchor="middle" x="138.5" y="-12.57" font-family="Times New Roman,serif" font-size="14.00">End</text>
</g>
<!-- R&#45;&gt;S -->
<g id="edge18" class="edge">
<title>R&#45;&gt;S</title>
<path fill="none" stroke="black" d="M138.5,-71.7C138.5,-64.24 138.5,-55.32 138.5,-46.97"/>
<polygon fill="black" stroke="black" points="142,-47.1 138.5,-37.1 135,-47.1 142,-47.1"/>
</g>
</g>
</svg>
