<?xml version="1.0" encoding="UTF-8" standalone="no"?>
<!DOCTYPE svg PUBLIC "-//W3C//DTD SVG 1.1//EN"
 "http://www.w3.org/Graphics/SVG/1.1/DTD/svg11.dtd">
<!-- Generated by graphviz version 8.1.0 (20230707.0739)
 -->
<!-- Title: LunarTransportation Pages: 1 -->
<svg width="422pt" height="188pt"
 viewBox="0.00 0.00 422.12 188.00" xmlns="http://www.w3.org/2000/svg" xmlns:xlink="http://www.w3.org/1999/xlink">
<g id="graph0" class="graph" transform="scale(1 1) rotate(0) translate(4 184)">
<title>LunarTransportation</title>
<polygon fill="white" stroke="none" points="-4,4 -4,-184 418.12,-184 418.12,4 -4,4"/>
<!-- Moon -->
<g id="node1" class="node">
<title>Moon</title>
<polygon fill="none" stroke="black" points="205.62,-180 151.62,-180 151.62,-144 205.62,-144 205.62,-180"/>
<text text-anchor="middle" x="178.62" y="-156.57" font-family="Times New Roman,serif" font-size="14.00">Moon</text>
</g>
<!-- Spacecraft -->
<g id="node3" class="node">
<title>Spacecraft</title>
<polygon fill="none" stroke="black" points="252.62,-108 176.62,-108 176.62,-72 252.62,-72 252.62,-108"/>
<text text-anchor="middle" x="214.62" y="-84.58" font-family="Times New Roman,serif" font-size="14.00">Spacecraft</text>
</g>
<!-- Moon&#45;&gt;Spacecraft -->
<g id="edge1" class="edge">
<title>Moon&#45;&gt;Spacecraft</title>
<path fill="none" stroke="black" d="M187.52,-143.7C191.53,-135.9 196.36,-126.51 200.83,-117.83"/>
<polygon fill="black" stroke="black" points="204.37,-119.6 205.83,-109.1 198.14,-116.4 204.37,-119.6"/>
</g>
<!-- Earth -->
<g id="node2" class="node">
<title>Earth</title>
<polygon fill="none" stroke="black" points="277.62,-180 223.62,-180 223.62,-144 277.62,-144 277.62,-180"/>
<text text-anchor="middle" x="250.62" y="-156.57" font-family="Times New Roman,serif" font-size="14.00">Earth</text>
</g>
<!-- Earth&#45;&gt;Spacecraft -->
<g id="edge2" class="edge">
<title>Earth&#45;&gt;Spacecraft</title>
<path fill="none" stroke="black" d="M241.73,-143.7C237.72,-135.9 232.89,-126.51 228.42,-117.83"/>
<polygon fill="black" stroke="black" points="231.11,-116.4 223.42,-109.1 224.88,-119.6 231.11,-116.4"/>
</g>
<!-- OrbitalInfrastructure -->
<g id="node4" class="node">
<title>OrbitalInfrastructure</title>
<polygon fill="none" stroke="black" points="129.25,-36 0,-36 0,0 129.25,0 129.25,-36"/>
<text text-anchor="middle" x="64.62" y="-12.57" font-family="Times New Roman,serif" font-size="14.00">OrbitalInfrastructure</text>
</g>
<!-- Spacecraft&#45;&gt;OrbitalInfrastructure -->
<g id="edge3" class="edge">
<title>Spacecraft&#45;&gt;OrbitalInfrastructure</title>
<path fill="none" stroke="black" d="M177.16,-71.52C157.31,-62.25 132.73,-50.78 111.61,-40.93"/>
<polygon fill="black" stroke="black" points="113.41,-37.44 102.87,-36.38 110.45,-43.78 113.41,-37.44"/>
</g>
<!-- AdvancedPropulsion -->
<g id="node5" class="node">
<title>AdvancedPropulsion</title>
<polygon fill="none" stroke="black" points="281.5,-36 147.75,-36 147.75,0 281.5,0 281.5,-36"/>
<text text-anchor="middle" x="214.62" y="-12.57" font-family="Times New Roman,serif" font-size="14.00">AdvancedPropulsion</text>
</g>
<!-- Spacecraft&#45;&gt;AdvancedPropulsion -->
<g id="edge4" class="edge">
<title>Spacecraft&#45;&gt;AdvancedPropulsion</title>
<path fill="none" stroke="black" d="M214.62,-71.7C214.62,-64.24 214.62,-55.32 214.62,-46.97"/>
<polygon fill="black" stroke="black" points="218.13,-47.1 214.62,-37.1 211.13,-47.1 218.13,-47.1"/>
</g>
<!-- EconomicModels -->
<g id="node6" class="node">
<title>EconomicModels</title>
<polygon fill="none" stroke="black" points="414.12,-36 299.12,-36 299.12,0 414.12,0 414.12,-36"/>
<text text-anchor="middle" x="356.62" y="-12.57" font-family="Times New Roman,serif" font-size="14.00">EconomicModels</text>
</g>
<!-- Spacecraft&#45;&gt;EconomicModels -->
<g id="edge5" class="edge">
<title>Spacecraft&#45;&gt;EconomicModels</title>
<path fill="none" stroke="black" d="M250.09,-71.52C268.78,-62.3 291.9,-50.9 311.83,-41.08"/>
<polygon fill="black" stroke="black" points="313.19,-43.82 320.61,-36.26 310.09,-37.54 313.19,-43.82"/>
</g>
</g>
</svg>
