<?xml version="1.0" encoding="UTF-8" standalone="no"?>
<!DOCTYPE svg PUBLIC "-//W3C//DTD SVG 1.1//EN"
 "http://www.w3.org/Graphics/SVG/1.1/DTD/svg11.dtd">
<!-- Generated by graphviz version 8.1.0 (20230707.0739)
 -->
<!-- Title: G Pages: 1 -->
<svg width="3233pt" height="172pt"
 viewBox="0.00 0.00 3233.00 171.75" xmlns="http://www.w3.org/2000/svg" xmlns:xlink="http://www.w3.org/1999/xlink">
<g id="graph0" class="graph" transform="scale(1 1) rotate(0) translate(4 167.75)">
<title>G</title>
<polygon fill="white" stroke="none" points="-4,4 -4,-167.75 3229,-167.75 3229,4 -4,4"/>
<g id="clust1" class="cluster">
<title>cluster_0</title>
<path fill="none" stroke="lightblue" d="M20,-8C20,-8 3205,-8 3205,-8 3211,-8 3217,-14 3217,-20 3217,-20 3217,-143.75 3217,-143.75 3217,-149.75 3211,-155.75 3205,-155.75 3205,-155.75 20,-155.75 20,-155.75 14,-155.75 8,-149.75 8,-143.75 8,-143.75 8,-20 8,-20 8,-14 14,-8 20,-8"/>
<text text-anchor="middle" x="1612.5" y="-138.45" font-family="Times New Roman,serif" font-size="14.00">Processes</text>
</g>
<!-- func method -->
<g id="node1" class="node">
<title>func method</title>
<polygon fill="none" stroke="black" points="2048.25,-52 1961.75,-52 1961.75,-16 2048.25,-16 2048.25,-52"/>
<text text-anchor="middle" x="2005" y="-28.57" font-family="Times New Roman,serif" font-size="14.00">func method</text>
</g>
<!-- mantle(crust) -->
<g id="node2" class="node">
<title>mantle(crust)</title>
<polygon fill="none" stroke="black" points="3209.38,-124 3120.62,-124 3120.62,-88 3209.38,-88 3209.38,-124"/>
<text text-anchor="middle" x="3165" y="-100.58" font-family="Times New Roman,serif" font-size="14.00">mantle(crust)</text>
</g>
<!-- mantle(crust)&#45;&gt;func method -->
<g id="edge1" class="edge">
<title>mantle(crust)&#45;&gt;func method</title>
<path fill="none" stroke="black" d="M3120.14,-89.93C3117.06,-89.19 3114,-88.53 3111,-88 2905.51,-51.36 2252.79,-38.75 2059.46,-35.76"/>
<polygon fill="black" stroke="black" points="2059.78,-32.25 2049.73,-35.6 2059.67,-39.25 2059.78,-32.25"/>
</g>
<!-- Ceta(Ocean) -->
<g id="node3" class="node">
<title>Ceta(Ocean)</title>
<polygon fill="none" stroke="black" points="3102.25,-124 3015.75,-124 3015.75,-88 3102.25,-88 3102.25,-124"/>
<text text-anchor="middle" x="3059" y="-100.58" font-family="Times New Roman,serif" font-size="14.00">Ceta(Ocean)</text>
</g>
<!-- Ceta(Ocean)&#45;&gt;func method -->
<g id="edge2" class="edge">
<title>Ceta(Ocean)&#45;&gt;func method</title>
<path fill="none" stroke="black" d="M3015.52,-89.87C3012.66,-89.16 3009.8,-88.52 3007,-88 2822.8,-53.64 2240.63,-39.6 2059.4,-35.99"/>
<polygon fill="black" stroke="black" points="2059.62,-32.48 2049.55,-35.78 2059.48,-39.48 2059.62,-32.48"/>
</g>
<!-- Hover(Near, Far) -->
<g id="node4" class="node">
<title>Hover(Near, Far)</title>
<polygon fill="none" stroke="black" points="2998,-124 2886,-124 2886,-88 2998,-88 2998,-124"/>
<text text-anchor="middle" x="2942" y="-100.58" font-family="Times New Roman,serif" font-size="14.00">Hover(Near, Far)</text>
</g>
<!-- Hover(Near, Far)&#45;&gt;func method -->
<g id="edge3" class="edge">
<title>Hover(Near, Far)&#45;&gt;func method</title>
<path fill="none" stroke="black" d="M2885.77,-89.58C2882.82,-88.99 2879.88,-88.46 2877,-88 2570.41,-39.07 2196.57,-34.5 2059.07,-34.64"/>
<polygon fill="black" stroke="black" points="2059.42,-31.14 2049.42,-34.66 2059.43,-38.14 2059.42,-31.14"/>
</g>
<!-- Float(at_surface) -->
<g id="node5" class="node">
<title>Float(at_surface)</title>
<polygon fill="none" stroke="black" points="2867.62,-124 2756.38,-124 2756.38,-88 2867.62,-88 2867.62,-124"/>
<text text-anchor="middle" x="2812" y="-100.58" font-family="Times New Roman,serif" font-size="14.00">Float(at_surface)</text>
</g>
<!-- Float(at_surface)&#45;&gt;func method -->
<g id="edge4" class="edge">
<title>Float(at_surface)&#45;&gt;func method</title>
<path fill="none" stroke="black" d="M2756.12,-89.69C2753.05,-89.06 2749.99,-88.49 2747,-88 2492.14,-45.94 2182.6,-37.25 2059.39,-35.46"/>
<polygon fill="black" stroke="black" points="2059.45,-31.95 2049.4,-35.31 2059.35,-38.95 2059.45,-31.95"/>
</g>
<!-- Boundary_water -->
<g id="node6" class="node">
<title>Boundary_water</title>
<polygon fill="none" stroke="black" points="2738.12,-124 2629.88,-124 2629.88,-88 2738.12,-88 2738.12,-124"/>
<text text-anchor="middle" x="2684" y="-100.58" font-family="Times New Roman,serif" font-size="14.00">Boundary_water</text>
</g>
<!-- Boundary_water&#45;&gt;func method -->
<g id="edge5" class="edge">
<title>Boundary_water&#45;&gt;func method</title>
<path fill="none" stroke="black" d="M2629.5,-89.66C2626.63,-89.05 2623.79,-88.49 2621,-88 2415.79,-51.78 2167.58,-40.02 2059.59,-36.44"/>
<polygon fill="black" stroke="black" points="2059.77,-32.92 2049.66,-36.1 2059.54,-39.91 2059.77,-32.92"/>
</g>
<!-- Water_boundary -->
<g id="node7" class="node">
<title>Water_boundary</title>
<polygon fill="none" stroke="black" points="2612.25,-124 2501.75,-124 2501.75,-88 2612.25,-88 2612.25,-124"/>
<text text-anchor="middle" x="2557" y="-100.58" font-family="Times New Roman,serif" font-size="14.00">Water_boundary</text>
</g>
<!-- Water_boundary&#45;&gt;func method -->
<g id="edge6" class="edge">
<title>Water_boundary&#45;&gt;func method</title>
<path fill="none" stroke="black" d="M2501.45,-89.9C2498.26,-89.21 2495.1,-88.57 2492,-88 2336.43,-59.35 2149.85,-44.36 2059.44,-38.3"/>
<polygon fill="black" stroke="black" points="2059.85,-34.75 2049.64,-37.58 2059.38,-41.73 2059.85,-34.75"/>
</g>
<!-- Magmus solar is solar magmus -->
<g id="node8" class="node">
<title>Magmus solar is solar magmus</title>
<polygon fill="none" stroke="black" points="2483.25,-124 2294.75,-124 2294.75,-88 2483.25,-88 2483.25,-124"/>
<text text-anchor="middle" x="2389" y="-100.58" font-family="Times New Roman,serif" font-size="14.00">Magmus solar is solar magmus</text>
</g>
<!-- Magmus solar is solar magmus&#45;&gt;func method -->
<g id="edge7" class="edge">
<title>Magmus solar is solar magmus&#45;&gt;func method</title>
<path fill="none" stroke="black" d="M2294.57,-87.79C2220.52,-74.29 2120.09,-55.98 2059.05,-44.85"/>
<polygon fill="black" stroke="black" points="2059.97,-41.28 2049.5,-42.93 2058.71,-48.17 2059.97,-41.28"/>
</g>
<!-- Nebula is clear -->
<g id="node9" class="node">
<title>Nebula is clear</title>
<polygon fill="none" stroke="black" points="2276.88,-124 2179.12,-124 2179.12,-88 2276.88,-88 2276.88,-124"/>
<text text-anchor="middle" x="2228" y="-100.58" font-family="Times New Roman,serif" font-size="14.00">Nebula is clear</text>
</g>
<!-- Nebula is clear&#45;&gt;func method -->
<g id="edge8" class="edge">
<title>Nebula is clear&#45;&gt;func method</title>
<path fill="none" stroke="black" d="M2178.79,-89.55C2143.3,-78.41 2095.41,-63.38 2058.89,-51.92"/>
<polygon fill="black" stroke="black" points="2060.02,-48.29 2049.43,-48.63 2057.93,-54.97 2060.02,-48.29"/>
</g>
<!-- At Flat_Organism -->
<g id="node10" class="node">
<title>At Flat_Organism</title>
<polygon fill="none" stroke="black" points="2160.88,-124 2045.12,-124 2045.12,-88 2160.88,-88 2160.88,-124"/>
<text text-anchor="middle" x="2103" y="-100.58" font-family="Times New Roman,serif" font-size="14.00">At Flat_Organism</text>
</g>
<!-- At Flat_Organism&#45;&gt;func method -->
<g id="edge9" class="edge">
<title>At Flat_Organism&#45;&gt;func method</title>
<path fill="none" stroke="black" d="M2078.52,-87.52C2066.27,-78.76 2051.26,-68.04 2038.01,-58.58"/>
<polygon fill="black" stroke="black" points="2040.34,-55.22 2030.16,-52.26 2036.27,-60.92 2040.34,-55.22"/>
</g>
<!-- Neuro(prefrontal lim, prefrontal growth) -->
<g id="node11" class="node">
<title>Neuro(prefrontal lim, prefrontal growth)</title>
<polygon fill="none" stroke="black" points="2027,-124 1789,-124 1789,-88 2027,-88 2027,-124"/>
<text text-anchor="middle" x="1908" y="-100.58" font-family="Times New Roman,serif" font-size="14.00">Neuro(prefrontal lim, prefrontal growth)</text>
</g>
<!-- Neuro(prefrontal lim, prefrontal growth)&#45;&gt;func method -->
<g id="edge10" class="edge">
<title>Neuro(prefrontal lim, prefrontal growth)&#45;&gt;func method</title>
<path fill="none" stroke="black" d="M1931.98,-87.7C1944.1,-78.95 1959,-68.19 1972.17,-58.69"/>
<polygon fill="black" stroke="black" points="1973.9,-61.04 1979.96,-52.35 1969.8,-55.36 1973.9,-61.04"/>
</g>
<!-- Tensor white mass(To the ends of theWorld) -->
<g id="node12" class="node">
<title>Tensor white mass(To the ends of theWorld)</title>
<polygon fill="none" stroke="black" points="1771.38,-124 1502.62,-124 1502.62,-88 1771.38,-88 1771.38,-124"/>
<text text-anchor="middle" x="1637" y="-100.58" font-family="Times New Roman,serif" font-size="14.00">Tensor white mass(To the ends of theWorld)</text>
</g>
<!-- Tensor white mass(To the ends of theWorld)&#45;&gt;func method -->
<g id="edge11" class="edge">
<title>Tensor white mass(To the ends of theWorld)&#45;&gt;func method</title>
<path fill="none" stroke="black" d="M1728.91,-87.52C1798.86,-74.21 1892.72,-56.36 1951.01,-45.27"/>
<polygon fill="black" stroke="black" points="1951.29,-48.59 1960.46,-43.28 1949.98,-41.71 1951.29,-48.59"/>
</g>
<!-- Palm Feet sweat(sweet) -->
<g id="node13" class="node">
<title>Palm Feet sweat(sweet)</title>
<polygon fill="none" stroke="black" points="1484.62,-124 1337.38,-124 1337.38,-88 1484.62,-88 1484.62,-124"/>
<text text-anchor="middle" x="1411" y="-100.58" font-family="Times New Roman,serif" font-size="14.00">Palm Feet sweat(sweet)</text>
</g>
<!-- Palm Feet sweat(sweet)&#45;&gt;func method -->
<g id="edge12" class="edge">
<title>Palm Feet sweat(sweet)&#45;&gt;func method</title>
<path fill="none" stroke="black" d="M1484.7,-89.51C1487.84,-88.98 1490.95,-88.47 1494,-88 1659.4,-62.55 1856.84,-45.93 1950.51,-38.88"/>
<polygon fill="black" stroke="black" points="1950.7,-42.3 1960.41,-38.06 1950.17,-35.32 1950.7,-42.3"/>
</g>
<!-- Multi(verse, dictation) -->
<g id="node14" class="node">
<title>Multi(verse, dictation)</title>
<polygon fill="none" stroke="black" points="1319.12,-124 1180.88,-124 1180.88,-88 1319.12,-88 1319.12,-124"/>
<text text-anchor="middle" x="1250" y="-100.58" font-family="Times New Roman,serif" font-size="14.00">Multi(verse, dictation)</text>
</g>
<!-- Multi(verse, dictation)&#45;&gt;func method -->
<g id="edge13" class="edge">
<title>Multi(verse, dictation)&#45;&gt;func method</title>
<path fill="none" stroke="black" d="M1319.23,-89.4C1322.19,-88.89 1325.12,-88.42 1328,-88 1557.98,-54.1 1835.33,-40.98 1950.63,-36.74"/>
<polygon fill="black" stroke="black" points="1950.74,-40.2 1960.6,-36.34 1950.49,-33.21 1950.74,-40.2"/>
</g>
<!-- Boundary)Third Mega Mess Man (Trap) -->
<g id="node15" class="node">
<title>Boundary)Third Mega Mess Man (Trap)</title>
<polygon fill="none" stroke="black" points="1163.25,-124 920.75,-124 920.75,-88 1163.25,-88 1163.25,-124"/>
<text text-anchor="middle" x="1042" y="-100.58" font-family="Times New Roman,serif" font-size="14.00">Boundary)Third Mega Mess Man (Trap)</text>
</g>
<!-- Boundary)Third Mega Mess Man (Trap)&#45;&gt;func method -->
<g id="edge14" class="edge">
<title>Boundary)Third Mega Mess Man (Trap)&#45;&gt;func method</title>
<path fill="none" stroke="black" d="M1163.41,-88.86C1166.3,-88.56 1169.17,-88.27 1172,-88 1465.2,-59.53 1818.01,-42.86 1950.88,-37.2"/>
<polygon fill="black" stroke="black" points="1950.72,-40.66 1960.56,-36.74 1950.42,-33.67 1950.72,-40.66"/>
</g>
<!-- Boundary Third Mega Mess Man -->
<g id="node16" class="node">
<title>Boundary Third Mega Mess Man</title>
<polygon fill="none" stroke="black" points="903,-124 701,-124 701,-88 903,-88 903,-124"/>
<text text-anchor="middle" x="802" y="-100.58" font-family="Times New Roman,serif" font-size="14.00">Boundary Third Mega Mess Man</text>
</g>
<!-- Boundary Third Mega Mess Man&#45;&gt;func method -->
<g id="edge15" class="edge">
<title>Boundary Third Mega Mess Man&#45;&gt;func method</title>
<path fill="none" stroke="black" d="M903.24,-88.94C906.19,-88.61 909.12,-88.29 912,-88 1309.09,-47.8 1790.52,-37.89 1950.45,-35.62"/>
<polygon fill="black" stroke="black" points="1950.45,-39.11 1960.4,-35.47 1950.36,-32.11 1950.45,-39.11"/>
</g>
<!-- Boundary Third Mega Water Substance Grab -->
<g id="node17" class="node">
<title>Boundary Third Mega Water Substance Grab</title>
<polygon fill="none" stroke="black" points="682.5,-124 411.5,-124 411.5,-88 682.5,-88 682.5,-124"/>
<text text-anchor="middle" x="547" y="-100.58" font-family="Times New Roman,serif" font-size="14.00">Boundary Third Mega Water Substance Grab</text>
</g>
<!-- Boundary Third Mega Water Substance Grab&#45;&gt;func method -->
<g id="edge16" class="edge">
<title>Boundary Third Mega Water Substance Grab&#45;&gt;func method</title>
<path fill="none" stroke="black" d="M682.81,-88.76C685.9,-88.49 688.97,-88.24 692,-88 1179.31,-49.65 1770.67,-38.37 1950.54,-35.71"/>
<polygon fill="black" stroke="black" points="1950.34,-39.2 1960.29,-35.55 1950.24,-32.2 1950.34,-39.2"/>
</g>
<!-- Boundary Third Mega Water Substance Gras -->
<g id="node18" class="node">
<title>Boundary Third Mega Water Substance Gras</title>
<polygon fill="none" stroke="black" points="393.75,-124 124.25,-124 124.25,-88 393.75,-88 393.75,-124"/>
<text text-anchor="middle" x="259" y="-100.58" font-family="Times New Roman,serif" font-size="14.00">Boundary Third Mega Water Substance Gras</text>
</g>
<!-- Boundary Third Mega Water Substance Gras&#45;&gt;func method -->
<g id="edge17" class="edge">
<title>Boundary Third Mega Water Substance Gras&#45;&gt;func method</title>
<path fill="none" stroke="black" d="M393.87,-88.73C396.94,-88.47 399.99,-88.23 403,-88 1008.92,-42.29 1746.71,-36 1950.58,-35.14"/>
<polygon fill="black" stroke="black" points="1950.3,-38.63 1960.28,-35.09 1950.27,-31.63 1950.3,-38.63"/>
</g>
<!-- 9/11 11 of 11 -->
<g id="node19" class="node">
<title>9/11 11 of 11</title>
<polygon fill="none" stroke="black" points="106.12,-124 15.88,-124 15.88,-88 106.12,-88 106.12,-124"/>
<text text-anchor="middle" x="61" y="-100.58" font-family="Times New Roman,serif" font-size="14.00">9/11 11 of 11</text>
</g>
<!-- 9/11 11 of 11&#45;&gt;func method -->
<g id="edge18" class="edge">
<title>9/11 11 of 11&#45;&gt;func method</title>
<path fill="none" stroke="black" d="M106.45,-89.72C109.32,-89.06 112.19,-88.47 115,-88 299.97,-56.91 1661.21,-39.09 1950.89,-35.62"/>
<polygon fill="black" stroke="black" points="1950.57,-39.12 1960.53,-35.5 1950.49,-32.12 1950.57,-39.12"/>
</g>
</g>
</svg>
