<?xml version="1.0" encoding="UTF-8" standalone="no"?>
<!DOCTYPE svg PUBLIC "-//W3C//DTD SVG 1.1//EN"
 "http://www.w3.org/Graphics/SVG/1.1/DTD/svg11.dtd">
<!-- Generated by graphviz version 8.1.0 (20230707.0739)
 -->
<!-- Title: ReplicantReplicationProcess Pages: 1 -->
<svg width="258pt" height="639pt"
 viewBox="0.00 0.00 258.00 639.00" xmlns="http://www.w3.org/2000/svg" xmlns:xlink="http://www.w3.org/1999/xlink">
<g id="graph0" class="graph" transform="scale(1 1) rotate(0) translate(4 635)">
<title>ReplicantReplicationProcess</title>
<polygon fill="white" stroke="none" points="-4,4 -4,-635 254,-635 254,4 -4,4"/>
<g id="clust3" class="cluster">
<title>cluster_replication</title>
<polygon fill="none" stroke="black" points="34,-163.75 34,-311.5 216,-311.5 216,-163.75 34,-163.75"/>
<text text-anchor="middle" x="125" y="-294.2" font-family="Times New Roman,serif" font-size="14.00">3. Replication Phase</text>
</g>
<g id="clust4" class="cluster">
<title>cluster_completion</title>
<polygon fill="none" stroke="black" points="42,-8 42,-155.75 208,-155.75 208,-8 42,-8"/>
<text text-anchor="middle" x="125" y="-138.45" font-family="Times New Roman,serif" font-size="14.00">4. Completion Phase</text>
</g>
<g id="clust2" class="cluster">
<title>cluster_assembly</title>
<polygon fill="none" stroke="black" points="55,-319.5 55,-539.25 195,-539.25 195,-319.5 55,-319.5"/>
<text text-anchor="middle" x="125" y="-521.95" font-family="Times New Roman,serif" font-size="14.00">2. Assembly Phase</text>
</g>
<g id="clust1" class="cluster">
<title>cluster_init</title>
<polygon fill="none" stroke="black" points="8,-547.25 8,-623 242,-623 242,-547.25 8,-547.25"/>
<text text-anchor="middle" x="125" y="-605.7" font-family="Times New Roman,serif" font-size="14.00">1. Initialization Phase</text>
</g>
<!-- init -->
<g id="node1" class="node">
<title>init</title>
<path fill="none" stroke="black" d="M222.25,-591.25C222.25,-591.25 27.75,-591.25 27.75,-591.25 21.75,-591.25 15.75,-585.25 15.75,-579.25 15.75,-579.25 15.75,-567.25 15.75,-567.25 15.75,-561.25 21.75,-555.25 27.75,-555.25 27.75,-555.25 222.25,-555.25 222.25,-555.25 228.25,-555.25 234.25,-561.25 234.25,-567.25 234.25,-567.25 234.25,-579.25 234.25,-579.25 234.25,-585.25 228.25,-591.25 222.25,-591.25"/>
<text text-anchor="middle" x="125" y="-567.83" font-family="Times New Roman,serif" font-size="14.00">Replicant enters replication chamber</text>
</g>
<!-- load_program -->
<g id="node2" class="node">
<title>load_program</title>
<path fill="none" stroke="black" d="M161.5,-507.5C161.5,-507.5 88.5,-507.5 88.5,-507.5 82.5,-507.5 76.5,-501.5 76.5,-495.5 76.5,-495.5 76.5,-483.5 76.5,-483.5 76.5,-477.5 82.5,-471.5 88.5,-471.5 88.5,-471.5 161.5,-471.5 161.5,-471.5 167.5,-471.5 173.5,-477.5 173.5,-483.5 173.5,-483.5 173.5,-495.5 173.5,-495.5 173.5,-501.5 167.5,-507.5 161.5,-507.5"/>
<text text-anchor="middle" x="125" y="-484.07" font-family="Times New Roman,serif" font-size="14.00">Load Program</text>
</g>
<!-- init&#45;&gt;load_program -->
<g id="edge1" class="edge">
<title>init&#45;&gt;load_program</title>
<path fill="none" stroke="black" d="M125,-554.91C125,-544.4 125,-530.73 125,-518.7"/>
<polygon fill="black" stroke="black" points="128.5,-518.81 125,-508.81 121.5,-518.81 128.5,-518.81"/>
</g>
<!-- load_materials -->
<g id="node3" class="node">
<title>load_materials</title>
<path fill="none" stroke="black" d="M162.62,-435.5C162.62,-435.5 87.38,-435.5 87.38,-435.5 81.38,-435.5 75.38,-429.5 75.38,-423.5 75.38,-423.5 75.38,-411.5 75.38,-411.5 75.38,-405.5 81.38,-399.5 87.38,-399.5 87.38,-399.5 162.62,-399.5 162.62,-399.5 168.62,-399.5 174.62,-405.5 174.62,-411.5 174.62,-411.5 174.62,-423.5 174.62,-423.5 174.62,-429.5 168.62,-435.5 162.62,-435.5"/>
<text text-anchor="middle" x="125" y="-412.07" font-family="Times New Roman,serif" font-size="14.00">Load Materials</text>
</g>
<!-- load_program&#45;&gt;load_materials -->
<g id="edge2" class="edge">
<title>load_program&#45;&gt;load_materials</title>
<path fill="none" stroke="black" d="M125,-471.2C125,-463.74 125,-454.82 125,-446.47"/>
<polygon fill="black" stroke="black" points="128.5,-446.6 125,-436.6 121.5,-446.6 128.5,-446.6"/>
</g>
<!-- assemble -->
<g id="node4" class="node">
<title>assemble</title>
<path fill="none" stroke="black" d="M174.62,-363.5C174.62,-363.5 75.38,-363.5 75.38,-363.5 69.38,-363.5 63.38,-357.5 63.38,-351.5 63.38,-351.5 63.38,-339.5 63.38,-339.5 63.38,-333.5 69.38,-327.5 75.38,-327.5 75.38,-327.5 174.62,-327.5 174.62,-327.5 180.62,-327.5 186.62,-333.5 186.62,-339.5 186.62,-339.5 186.62,-351.5 186.62,-351.5 186.62,-357.5 180.62,-363.5 174.62,-363.5"/>
<text text-anchor="middle" x="125" y="-340.07" font-family="Times New Roman,serif" font-size="14.00">Assemble Nanobot</text>
</g>
<!-- load_materials&#45;&gt;assemble -->
<g id="edge3" class="edge">
<title>load_materials&#45;&gt;assemble</title>
<path fill="none" stroke="black" d="M125,-399.2C125,-391.74 125,-382.82 125,-374.47"/>
<polygon fill="black" stroke="black" points="128.5,-374.6 125,-364.6 121.5,-374.6 128.5,-374.6"/>
</g>
<!-- replicate -->
<g id="node5" class="node">
<title>replicate</title>
<path fill="none" stroke="black" d="M178.75,-279.75C178.75,-279.75 71.25,-279.75 71.25,-279.75 65.25,-279.75 59.25,-273.75 59.25,-267.75 59.25,-267.75 59.25,-255.75 59.25,-255.75 59.25,-249.75 65.25,-243.75 71.25,-243.75 71.25,-243.75 178.75,-243.75 178.75,-243.75 184.75,-243.75 190.75,-249.75 190.75,-255.75 190.75,-255.75 190.75,-267.75 190.75,-267.75 190.75,-273.75 184.75,-279.75 178.75,-279.75"/>
<text text-anchor="middle" x="125" y="-256.32" font-family="Times New Roman,serif" font-size="14.00">Nanobot Replication</text>
</g>
<!-- assemble&#45;&gt;replicate -->
<g id="edge4" class="edge">
<title>assemble&#45;&gt;replicate</title>
<path fill="none" stroke="black" d="M125,-327.16C125,-316.65 125,-302.98 125,-290.95"/>
<polygon fill="black" stroke="black" points="128.5,-291.06 125,-281.06 121.5,-291.06 128.5,-291.06"/>
</g>
<!-- integrate -->
<g id="node6" class="node">
<title>integrate</title>
<path fill="none" stroke="black" d="M196.38,-207.75C196.38,-207.75 53.62,-207.75 53.62,-207.75 47.62,-207.75 41.62,-201.75 41.62,-195.75 41.62,-195.75 41.62,-183.75 41.62,-183.75 41.62,-177.75 47.62,-171.75 53.62,-171.75 53.62,-171.75 196.38,-171.75 196.38,-171.75 202.38,-171.75 208.38,-177.75 208.38,-183.75 208.38,-183.75 208.38,-195.75 208.38,-195.75 208.38,-201.75 202.38,-207.75 196.38,-207.75"/>
<text text-anchor="middle" x="125" y="-184.32" font-family="Times New Roman,serif" font-size="14.00">Integration of Components</text>
</g>
<!-- replicate&#45;&gt;integrate -->
<g id="edge5" class="edge">
<title>replicate&#45;&gt;integrate</title>
<path fill="none" stroke="black" d="M125,-243.45C125,-235.99 125,-227.07 125,-218.72"/>
<polygon fill="black" stroke="black" points="128.5,-218.85 125,-208.85 121.5,-218.85 128.5,-218.85"/>
</g>
<!-- verify -->
<g id="node7" class="node">
<title>verify</title>
<path fill="none" stroke="black" d="M187.75,-124C187.75,-124 62.25,-124 62.25,-124 56.25,-124 50.25,-118 50.25,-112 50.25,-112 50.25,-100 50.25,-100 50.25,-94 56.25,-88 62.25,-88 62.25,-88 187.75,-88 187.75,-88 193.75,-88 199.75,-94 199.75,-100 199.75,-100 199.75,-112 199.75,-112 199.75,-118 193.75,-124 187.75,-124"/>
<text text-anchor="middle" x="125" y="-100.58" font-family="Times New Roman,serif" font-size="14.00">Verification and Testing</text>
</g>
<!-- integrate&#45;&gt;verify -->
<g id="edge6" class="edge">
<title>integrate&#45;&gt;verify</title>
<path fill="none" stroke="black" d="M125,-171.41C125,-160.9 125,-147.23 125,-135.2"/>
<polygon fill="black" stroke="black" points="128.5,-135.31 125,-125.31 121.5,-135.31 128.5,-135.31"/>
</g>
<!-- emerge -->
<g id="node8" class="node">
<title>emerge</title>
<path fill="none" stroke="black" d="M187.75,-52C187.75,-52 62.25,-52 62.25,-52 56.25,-52 50.25,-46 50.25,-40 50.25,-40 50.25,-28 50.25,-28 50.25,-22 56.25,-16 62.25,-16 62.25,-16 187.75,-16 187.75,-16 193.75,-16 199.75,-22 199.75,-28 199.75,-28 199.75,-40 199.75,-40 199.75,-46 193.75,-52 187.75,-52"/>
<text text-anchor="middle" x="125" y="-28.57" font-family="Times New Roman,serif" font-size="14.00">New Replicant Emerges</text>
</g>
<!-- verify&#45;&gt;emerge -->
<g id="edge7" class="edge">
<title>verify&#45;&gt;emerge</title>
<path fill="none" stroke="black" d="M125,-87.7C125,-80.24 125,-71.32 125,-62.97"/>
<polygon fill="black" stroke="black" points="128.5,-63.1 125,-53.1 121.5,-63.1 128.5,-63.1"/>
</g>
</g>
</svg>
