<?xml version="1.0" encoding="UTF-8" standalone="no"?>
<!DOCTYPE svg PUBLIC "-//W3C//DTD SVG 1.1//EN"
 "http://www.w3.org/Graphics/SVG/1.1/DTD/svg11.dtd">
<!-- Generated by graphviz version 8.1.0 (20230707.0739)
 -->
<!-- Title: G Pages: 1 -->
<svg width="591pt" height="460pt"
 viewBox="0.00 0.00 591.25 460.00" xmlns="http://www.w3.org/2000/svg" xmlns:xlink="http://www.w3.org/1999/xlink">
<g id="graph0" class="graph" transform="scale(1 1) rotate(0) translate(4 456)">
<title>G</title>
<polygon fill="white" stroke="none" points="-4,4 -4,-456 587.25,-456 587.25,4 -4,4"/>
<g id="clust2" class="cluster">
<title>cluster_1</title>
<polygon fill="none" stroke="black" points="8,-284 8,-360 373.62,-360 373.62,-284 8,-284"/>
<text text-anchor="middle" x="190.81" y="-342.7" font-family="Times New Roman,serif" font-size="14.00">Lunar Crust</text>
</g>
<g id="clust3" class="cluster">
<title>cluster_2</title>
<polygon fill="none" stroke="black" points="30.5,-368 30.5,-444 367.25,-444 367.25,-368 30.5,-368"/>
<text text-anchor="middle" x="198.88" y="-426.7" font-family="Times New Roman,serif" font-size="14.00">Lunar Mantle</text>
</g>
<g id="clust1" class="cluster">
<title>cluster_0</title>
<polygon fill="none" stroke="black" points="16.62,-200 16.62,-276 575.25,-276 575.25,-200 16.62,-200"/>
<text text-anchor="middle" x="295.94" y="-258.7" font-family="Times New Roman,serif" font-size="14.00">The Moon&#39;s Structure</text>
</g>
<g id="clust4" class="cluster">
<title>cluster_3</title>
<polygon fill="none" stroke="black" points="286,-8 286,-192 365,-192 365,-8 286,-8"/>
<text text-anchor="middle" x="325.5" y="-174.7" font-family="Times New Roman,serif" font-size="14.00">Lunar Core</text>
</g>
<!-- Crust -->
<g id="node1" class="node">
<title>Crust</title>
<path fill="none" stroke="black" d="M95.38,-244C95.38,-244 36.62,-244 36.62,-244 30.62,-244 24.62,-238 24.62,-232 24.62,-232 24.62,-220 24.62,-220 24.62,-214 30.62,-208 36.62,-208 36.62,-208 95.38,-208 95.38,-208 101.38,-208 107.38,-214 107.38,-220 107.38,-220 107.38,-232 107.38,-232 107.38,-238 101.38,-244 95.38,-244"/>
<text text-anchor="middle" x="66" y="-220.57" font-family="Times New Roman,serif" font-size="14.00">Lunar Crust</text>
</g>
<!-- Mantle -->
<g id="node2" class="node">
<title>Mantle</title>
<path fill="none" stroke="black" d="M357.75,-244C357.75,-244 292.25,-244 292.25,-244 286.25,-244 280.25,-238 280.25,-232 280.25,-232 280.25,-220 280.25,-220 280.25,-214 286.25,-208 292.25,-208 292.25,-208 357.75,-208 357.75,-208 363.75,-208 369.75,-214 369.75,-220 369.75,-220 369.75,-232 369.75,-232 369.75,-238 363.75,-244 357.75,-244"/>
<text text-anchor="middle" x="325" y="-220.57" font-family="Times New Roman,serif" font-size="14.00">Lunar Mantle</text>
</g>
<!-- Crust&#45;&gt;Mantle -->
<g id="edge1" class="edge">
<title>Crust&#45;&gt;Mantle</title>
<path fill="none" stroke="black" d="M107.72,-226C151.32,-226 220.73,-226 269.12,-226"/>
<polygon fill="black" stroke="black" points="269.03,-229.5 279.03,-226 269.03,-222.5 269.03,-229.5"/>
</g>
<!-- Core -->
<g id="node3" class="node">
<title>Core</title>
<path fill="none" stroke="black" d="M555.25,-244C555.25,-244 499.5,-244 499.5,-244 493.5,-244 487.5,-238 487.5,-232 487.5,-232 487.5,-220 487.5,-220 487.5,-214 493.5,-208 499.5,-208 499.5,-208 555.25,-208 555.25,-208 561.25,-208 567.25,-214 567.25,-220 567.25,-220 567.25,-232 567.25,-232 567.25,-238 561.25,-244 555.25,-244"/>
<text text-anchor="middle" x="527.38" y="-220.57" font-family="Times New Roman,serif" font-size="14.00">Lunar Core</text>
</g>
<!-- Mantle&#45;&gt;Core -->
<g id="edge2" class="edge">
<title>Mantle&#45;&gt;Core</title>
<path fill="none" stroke="black" d="M369.97,-226C401.44,-226 443.84,-226 476.56,-226"/>
<polygon fill="black" stroke="black" points="476.25,-229.5 486.25,-226 476.25,-222.5 476.25,-229.5"/>
</g>
<!-- Regolith -->
<g id="node4" class="node">
<title>Regolith</title>
<path fill="none" stroke="black" d="M104,-328C104,-328 28,-328 28,-328 22,-328 16,-322 16,-316 16,-316 16,-304 16,-304 16,-298 22,-292 28,-292 28,-292 104,-292 104,-292 110,-292 116,-298 116,-304 116,-304 116,-316 116,-316 116,-322 110,-328 104,-328"/>
<text text-anchor="middle" x="66" y="-304.57" font-family="Times New Roman,serif" font-size="14.00">Moon Regolith</text>
</g>
<!-- Anorthosite -->
<g id="node5" class="node">
<title>Anorthosite</title>
<path fill="none" stroke="black" d="M353.62,-328C353.62,-328 296.38,-328 296.38,-328 290.38,-328 284.38,-322 284.38,-316 284.38,-316 284.38,-304 284.38,-304 284.38,-298 290.38,-292 296.38,-292 296.38,-292 353.62,-292 353.62,-292 359.62,-292 365.62,-298 365.62,-304 365.62,-304 365.62,-316 365.62,-316 365.62,-322 359.62,-328 353.62,-328"/>
<text text-anchor="middle" x="325" y="-304.57" font-family="Times New Roman,serif" font-size="14.00">Anorthosite</text>
</g>
<!-- Regolith&#45;&gt;Anorthosite -->
<g id="edge3" class="edge">
<title>Regolith&#45;&gt;Anorthosite</title>
<path fill="none" stroke="black" d="M116.25,-310C161.36,-310 227.84,-310 273.37,-310"/>
<polygon fill="black" stroke="black" points="273.19,-313.5 283.19,-310 273.19,-306.5 273.19,-313.5"/>
<text text-anchor="middle" x="198.12" y="-312.45" font-family="Times New Roman,serif" font-size="14.00">Primarily composed of</text>
</g>
<!-- Olivine -->
<g id="node6" class="node">
<title>Olivine</title>
<path fill="none" stroke="black" d="M81.5,-412C81.5,-412 50.5,-412 50.5,-412 44.5,-412 38.5,-406 38.5,-400 38.5,-400 38.5,-388 38.5,-388 38.5,-382 44.5,-376 50.5,-376 50.5,-376 81.5,-376 81.5,-376 87.5,-376 93.5,-382 93.5,-388 93.5,-388 93.5,-400 93.5,-400 93.5,-406 87.5,-412 81.5,-412"/>
<text text-anchor="middle" x="66" y="-388.57" font-family="Times New Roman,serif" font-size="14.00">Olivine</text>
</g>
<!-- Pyroxene -->
<g id="node7" class="node">
<title>Pyroxene</title>
<path fill="none" stroke="black" d="M347.25,-412C347.25,-412 302.75,-412 302.75,-412 296.75,-412 290.75,-406 290.75,-400 290.75,-400 290.75,-388 290.75,-388 290.75,-382 296.75,-376 302.75,-376 302.75,-376 347.25,-376 347.25,-376 353.25,-376 359.25,-382 359.25,-388 359.25,-388 359.25,-400 359.25,-400 359.25,-406 353.25,-412 347.25,-412"/>
<text text-anchor="middle" x="325" y="-388.57" font-family="Times New Roman,serif" font-size="14.00">Pyroxene</text>
</g>
<!-- Olivine&#45;&gt;Pyroxene -->
<g id="edge4" class="edge">
<title>Olivine&#45;&gt;Pyroxene</title>
<path fill="none" stroke="black" d="M93.54,-394C137.48,-394 225.82,-394 279.45,-394"/>
<polygon fill="black" stroke="black" points="279.34,-397.5 289.34,-394 279.34,-390.5 279.34,-397.5"/>
<text text-anchor="middle" x="198.12" y="-396.45" font-family="Times New Roman,serif" font-size="14.00">Main components</text>
</g>
<!-- Iron -->
<g id="node8" class="node">
<title>Iron</title>
<path fill="none" stroke="black" d="M340,-160C340,-160 310,-160 310,-160 304,-160 298,-154 298,-148 298,-148 298,-136 298,-136 298,-130 304,-124 310,-124 310,-124 340,-124 340,-124 346,-124 352,-130 352,-136 352,-136 352,-148 352,-148 352,-154 346,-160 340,-160"/>
<text text-anchor="middle" x="325" y="-136.57" font-family="Times New Roman,serif" font-size="14.00">Iron</text>
</g>
<!-- Iron&#45;&gt;Core -->
<g id="edge5" class="edge">
<title>Iron&#45;&gt;Core</title>
<path fill="none" stroke="black" d="M352.2,-152.98C383.81,-166.24 437.65,-188.8 477.11,-205.35"/>
<polygon fill="black" stroke="black" points="475.5,-208.88 486.07,-209.52 478.2,-202.43 475.5,-208.88"/>
<text text-anchor="middle" x="428.62" y="-203.45" font-family="Times New Roman,serif" font-size="14.00">Component of</text>
</g>
<!-- Sulfur -->
<g id="node9" class="node">
<title>Sulfur</title>
<path fill="none" stroke="black" d="M340,-106C340,-106 310,-106 310,-106 304,-106 298,-100 298,-94 298,-94 298,-82 298,-82 298,-76 304,-70 310,-70 310,-70 340,-70 340,-70 346,-70 352,-76 352,-82 352,-82 352,-94 352,-94 352,-100 346,-106 340,-106"/>
<text text-anchor="middle" x="325" y="-82.58" font-family="Times New Roman,serif" font-size="14.00">Sulfur</text>
</g>
<!-- Sulfur&#45;&gt;Core -->
<g id="edge6" class="edge">
<title>Sulfur&#45;&gt;Core</title>
<path fill="none" stroke="black" d="M352.28,-94.66C382.84,-103.38 433.67,-120.97 469.5,-149.25 486.58,-162.74 501.1,-182.57 511.19,-198.69"/>
<polygon fill="black" stroke="black" points="508.45,-199.92 516.61,-206.68 514.44,-196.31 508.45,-199.92"/>
<text text-anchor="middle" x="428.62" y="-151.45" font-family="Times New Roman,serif" font-size="14.00">Component of</text>
</g>
<!-- Nickel -->
<g id="node10" class="node">
<title>Nickel</title>
<path fill="none" stroke="black" d="M340,-52C340,-52 310,-52 310,-52 304,-52 298,-46 298,-40 298,-40 298,-28 298,-28 298,-22 304,-16 310,-16 310,-16 340,-16 340,-16 346,-16 352,-22 352,-28 352,-28 352,-40 352,-40 352,-46 346,-52 340,-52"/>
<text text-anchor="middle" x="325" y="-28.57" font-family="Times New Roman,serif" font-size="14.00">Nickel</text>
</g>
<!-- Nickel&#45;&gt;Core -->
<g id="edge7" class="edge">
<title>Nickel&#45;&gt;Core</title>
<path fill="none" stroke="black" d="M352.43,-37.1C384.1,-42.12 436.94,-54.89 469.5,-86.25 500.75,-116.36 515.37,-166.02 521.8,-197.32"/>
<polygon fill="black" stroke="black" points="518.51,-197.78 523.81,-206.95 525.39,-196.47 518.51,-197.78"/>
<text text-anchor="middle" x="428.62" y="-88.45" font-family="Times New Roman,serif" font-size="14.00">Component of</text>
</g>
</g>
</svg>
