<?xml version="1.0" encoding="UTF-8" standalone="no"?>
<!DOCTYPE svg PUBLIC "-//W3C//DTD SVG 1.1//EN"
 "http://www.w3.org/Graphics/SVG/1.1/DTD/svg11.dtd">
<!-- Generated by graphviz version 8.1.0 (20230707.0739)
 -->
<!-- Title: EconomicProcesses Pages: 1 -->
<svg width="972pt" height="271pt"
 viewBox="0.00 0.00 971.88 271.33" xmlns="http://www.w3.org/2000/svg" xmlns:xlink="http://www.w3.org/1999/xlink">
<g id="graph0" class="graph" transform="scale(1 1) rotate(0) translate(4 267.33)">
<title>EconomicProcesses</title>
<polygon fill="white" stroke="none" points="-4,4 -4,-267.33 967.88,-267.33 967.88,4 -4,4"/>
<text text-anchor="middle" x="481.94" y="-6.45" font-family="Times New Roman,serif" font-size="14.00">Conceptual Economic Processes</text>
<!-- Individual -->
<g id="node1" class="node">
<title>Individual</title>
<polygon fill="none" stroke="black" points="160.75,-255.15 6,-255.15 6,-215.65 160.75,-215.65 160.75,-255.15"/>
<text text-anchor="middle" x="83.38" y="-237.85" font-family="Times New Roman,serif" font-size="14.00">Individual Economic</text>
<text text-anchor="middle" x="83.38" y="-222.1" font-family="Times New Roman,serif" font-size="14.00">Behavior: e = (f * p * i)/f</text>
</g>
<!-- Productivity -->
<g id="node2" class="node">
<title>Productivity</title>
<polygon fill="none" stroke="black" points="161.88,-163.29 4.88,-163.29 4.88,-123.79 161.88,-123.79 161.88,-163.29"/>
<text text-anchor="middle" x="83.38" y="-145.99" font-family="Times New Roman,serif" font-size="14.00">Productivity and Income:</text>
<text text-anchor="middle" x="83.38" y="-130.24" font-family="Times New Roman,serif" font-size="14.00">e = p * i</text>
</g>
<!-- Individual&#45;&gt;Productivity -->
<g id="edge1" class="edge">
<title>Individual&#45;&gt;Productivity</title>
<path fill="none" stroke="black" d="M83.38,-215.35C83.38,-203.43 83.38,-187.84 83.38,-174.32"/>
<polygon fill="black" stroke="black" points="86.88,-174.57 83.38,-164.57 79.88,-174.57 86.88,-174.57"/>
</g>
<!-- DecisionMaking -->
<g id="node3" class="node">
<title>DecisionMaking</title>
<polygon fill="none" stroke="black" points="166.75,-71.43 0,-71.43 0,-31.93 166.75,-31.93 166.75,-71.43"/>
<text text-anchor="middle" x="83.38" y="-54.13" font-family="Times New Roman,serif" font-size="14.00">Financial Decision&#45;Making:</text>
<text text-anchor="middle" x="83.38" y="-38.38" font-family="Times New Roman,serif" font-size="14.00">p = &#45;i * e</text>
</g>
<!-- Productivity&#45;&gt;DecisionMaking -->
<g id="edge2" class="edge">
<title>Productivity&#45;&gt;DecisionMaking</title>
<path fill="none" stroke="black" d="M83.38,-123.48C83.38,-111.57 83.38,-95.98 83.38,-82.45"/>
<polygon fill="black" stroke="black" points="86.88,-82.71 83.38,-72.71 79.88,-82.71 86.88,-82.71"/>
</g>
<!-- AggregateOutput -->
<g id="node4" class="node">
<title>AggregateOutput</title>
<polygon fill="none" stroke="blue" points="388.75,-255.15 210,-255.15 210,-215.65 388.75,-215.65 388.75,-255.15"/>
<text text-anchor="middle" x="299.38" y="-237.85" font-family="Times New Roman,serif" font-size="14.00">Aggregate Economic Output:</text>
<text text-anchor="middle" x="299.38" y="-222.1" font-family="Times New Roman,serif" font-size="14.00">E = (F * P * I * M^2)/F</text>
</g>
<!-- NationalProductivity -->
<g id="node5" class="node">
<title>NationalProductivity</title>
<polygon fill="none" stroke="blue" points="391.75,-163.29 207,-163.29 207,-123.79 391.75,-123.79 391.75,-163.29"/>
<text text-anchor="middle" x="299.38" y="-145.99" font-family="Times New Roman,serif" font-size="14.00">National Productivity and</text>
<text text-anchor="middle" x="299.38" y="-130.24" font-family="Times New Roman,serif" font-size="14.00">Transactions: E = P * I * M^2</text>
</g>
<!-- AggregateOutput&#45;&gt;NationalProductivity -->
<g id="edge3" class="edge">
<title>AggregateOutput&#45;&gt;NationalProductivity</title>
<path fill="none" stroke="black" d="M299.38,-215.35C299.38,-203.43 299.38,-187.84 299.38,-174.32"/>
<polygon fill="black" stroke="black" points="302.88,-174.57 299.38,-164.57 295.88,-174.57 302.88,-174.57"/>
</g>
<!-- GovernmentStability -->
<g id="node6" class="node">
<title>GovernmentStability</title>
<polygon fill="none" stroke="blue" points="413.88,-71.43 184.88,-71.43 184.88,-31.93 413.88,-31.93 413.88,-71.43"/>
<text text-anchor="middle" x="299.38" y="-54.13" font-family="Times New Roman,serif" font-size="14.00">Government Intervention and</text>
<text text-anchor="middle" x="299.38" y="-38.38" font-family="Times New Roman,serif" font-size="14.00">Stability: I * M^2 ≠ 0, P = E/(I * M^2)</text>
</g>
<!-- NationalProductivity&#45;&gt;GovernmentStability -->
<g id="edge4" class="edge">
<title>NationalProductivity&#45;&gt;GovernmentStability</title>
<path fill="none" stroke="black" d="M299.38,-123.48C299.38,-111.57 299.38,-95.98 299.38,-82.45"/>
<polygon fill="black" stroke="black" points="302.88,-82.71 299.38,-72.71 295.88,-82.71 302.88,-82.71"/>
</g>
<!-- EnlightenedState -->
<g id="node7" class="node">
<title>EnlightenedState</title>
<ellipse fill="none" stroke="green" cx="601.38" cy="-235.4" rx="97.76" ry="27.93"/>
<text text-anchor="middle" x="601.38" y="-237.85" font-family="Times New Roman,serif" font-size="14.00">Enlightened State:</text>
<text text-anchor="middle" x="601.38" y="-222.1" font-family="Times New Roman,serif" font-size="14.00">e = f * f^&#45;1 * p * imm</text>
</g>
<!-- InternetEconomy -->
<g id="node8" class="node">
<title>InternetEconomy</title>
<ellipse fill="none" stroke="green" cx="601.38" cy="-143.54" rx="169.35" ry="27.93"/>
<text text-anchor="middle" x="601.38" y="-145.99" font-family="Times New Roman,serif" font-size="14.00">Internet and IP Economy:</text>
<text text-anchor="middle" x="601.38" y="-130.24" font-family="Times New Roman,serif" font-size="14.00">E = (F * P * IE * IP)/F, E = P * IE * IP</text>
</g>
<!-- EnlightenedState&#45;&gt;InternetEconomy -->
<g id="edge5" class="edge">
<title>EnlightenedState&#45;&gt;InternetEconomy</title>
<path fill="none" stroke="black" d="M601.38,-207.44C601.38,-199.61 601.38,-190.9 601.38,-182.52"/>
<polygon fill="black" stroke="black" points="604.88,-182.8 601.38,-172.8 597.88,-182.8 604.88,-182.8"/>
</g>
<!-- ZombieState -->
<g id="node9" class="node">
<title>ZombieState</title>
<ellipse fill="none" stroke="green" cx="601.38" cy="-51.68" rx="169.88" ry="27.93"/>
<text text-anchor="middle" x="601.38" y="-54.13" font-family="Times New Roman,serif" font-size="14.00">Zombie and Neutrally Suppressed State:</text>
<text text-anchor="middle" x="601.38" y="-38.38" font-family="Times New Roman,serif" font-size="14.00">E = P * I * M^2 * Z</text>
</g>
<!-- InternetEconomy&#45;&gt;ZombieState -->
<g id="edge6" class="edge">
<title>InternetEconomy&#45;&gt;ZombieState</title>
<path fill="none" stroke="black" d="M601.38,-115.58C601.38,-107.74 601.38,-99.04 601.38,-90.66"/>
<polygon fill="black" stroke="black" points="604.88,-90.93 601.38,-80.93 597.88,-90.93 604.88,-90.93"/>
</g>
<!-- additional_info -->
<g id="node10" class="node">
<title>additional_info</title>
<text text-anchor="middle" x="840.38" y="-237.85" font-family="Times New Roman,serif" font-size="14.00">Note: This is a conceptual representation.</text>
<text text-anchor="middle" x="840.38" y="-222.1" font-family="Times New Roman,serif" font-size="14.00">Adjust and refine as needed.</text>
</g>
</g>
</svg>
