<?xml version="1.0" encoding="UTF-8" standalone="no"?>
<!DOCTYPE svg PUBLIC "-//W3C//DTD SVG 1.1//EN"
 "http://www.w3.org/Graphics/SVG/1.1/DTD/svg11.dtd">
<!-- Generated by graphviz version 8.1.0 (20230707.0739)
 -->
<!-- Title: DiscussionProcess Pages: 1 -->
<svg width="153pt" height="404pt"
 viewBox="0.00 0.00 153.00 404.00" xmlns="http://www.w3.org/2000/svg" xmlns:xlink="http://www.w3.org/1999/xlink">
<g id="graph0" class="graph" transform="scale(1 1) rotate(0) translate(4 400)">
<title>DiscussionProcess</title>
<polygon fill="white" stroke="none" points="-4,4 -4,-400 149,-400 149,4 -4,4"/>
<!-- start -->
<g id="node1" class="node">
<title>start</title>
<polygon fill="none" stroke="black" points="99.5,-396 45.5,-396 45.5,-360 99.5,-360 99.5,-396"/>
<text text-anchor="middle" x="72.5" y="-372.57" font-family="Times New Roman,serif" font-size="14.00">Start</text>
</g>
<!-- cubicEquation -->
<g id="node2" class="node">
<title>cubicEquation</title>
<polygon fill="none" stroke="black" points="143.88,-324 1.12,-324 1.12,-288 143.88,-288 143.88,-324"/>
<text text-anchor="middle" x="72.5" y="-300.57" font-family="Times New Roman,serif" font-size="14.00">Define Cubic Equation</text>
</g>
<!-- start&#45;&gt;cubicEquation -->
<g id="edge1" class="edge">
<title>start&#45;&gt;cubicEquation</title>
<path fill="none" stroke="black" d="M72.5,-359.7C72.5,-352.24 72.5,-343.32 72.5,-334.97"/>
<polygon fill="black" stroke="black" points="76,-335.1 72.5,-325.1 69,-335.1 76,-335.1"/>
</g>
<!-- antiderivative -->
<g id="node3" class="node">
<title>antiderivative</title>
<polygon fill="none" stroke="black" points="133.38,-252 11.62,-252 11.62,-216 133.38,-216 133.38,-252"/>
<text text-anchor="middle" x="72.5" y="-228.57" font-family="Times New Roman,serif" font-size="14.00">Find Antiderivative</text>
</g>
<!-- cubicEquation&#45;&gt;antiderivative -->
<g id="edge2" class="edge">
<title>cubicEquation&#45;&gt;antiderivative</title>
<path fill="none" stroke="black" d="M72.5,-287.7C72.5,-280.24 72.5,-271.32 72.5,-262.97"/>
<polygon fill="black" stroke="black" points="76,-263.1 72.5,-253.1 69,-263.1 76,-263.1"/>
</g>
<!-- singularity -->
<g id="node4" class="node">
<title>singularity</title>
<polygon fill="none" stroke="black" points="132.25,-180 12.75,-180 12.75,-144 132.25,-144 132.25,-180"/>
<text text-anchor="middle" x="72.5" y="-156.57" font-family="Times New Roman,serif" font-size="14.00">Explain Singularity</text>
</g>
<!-- antiderivative&#45;&gt;singularity -->
<g id="edge3" class="edge">
<title>antiderivative&#45;&gt;singularity</title>
<path fill="none" stroke="black" d="M72.5,-215.7C72.5,-208.24 72.5,-199.32 72.5,-190.97"/>
<polygon fill="black" stroke="black" points="76,-191.1 72.5,-181.1 69,-191.1 76,-191.1"/>
</g>
<!-- eventHorizon -->
<g id="node5" class="node">
<title>eventHorizon</title>
<polygon fill="none" stroke="black" points="143.12,-108 1.88,-108 1.88,-72 143.12,-72 143.12,-108"/>
<text text-anchor="middle" x="72.5" y="-84.58" font-family="Times New Roman,serif" font-size="14.00">Explain Event Horizon</text>
</g>
<!-- singularity&#45;&gt;eventHorizon -->
<g id="edge4" class="edge">
<title>singularity&#45;&gt;eventHorizon</title>
<path fill="none" stroke="black" d="M72.5,-143.7C72.5,-136.24 72.5,-127.32 72.5,-118.97"/>
<polygon fill="black" stroke="black" points="76,-119.1 72.5,-109.1 69,-119.1 76,-119.1"/>
</g>
<!-- conclusion -->
<g id="node6" class="node">
<title>conclusion</title>
<polygon fill="none" stroke="black" points="145,-36 0,-36 0,0 145,0 145,-36"/>
<text text-anchor="middle" x="72.5" y="-12.57" font-family="Times New Roman,serif" font-size="14.00">Discussion Conclusion</text>
</g>
<!-- eventHorizon&#45;&gt;conclusion -->
<g id="edge5" class="edge">
<title>eventHorizon&#45;&gt;conclusion</title>
<path fill="none" stroke="black" d="M72.5,-71.7C72.5,-64.24 72.5,-55.32 72.5,-46.97"/>
<polygon fill="black" stroke="black" points="76,-47.1 72.5,-37.1 69,-47.1 76,-47.1"/>
</g>
</g>
</svg>
