<?xml version="1.0" encoding="UTF-8" standalone="no"?>
<!DOCTYPE svg PUBLIC "-//W3C//DTD SVG 1.1//EN"
 "http://www.w3.org/Graphics/SVG/1.1/DTD/svg11.dtd">
<!-- Generated by graphviz version 8.1.0 (20230707.0739)
 -->
<!-- Title: discussion_process Pages: 1 -->
<svg width="996pt" height="307pt"
 viewBox="0.00 0.00 996.25 307.25" xmlns="http://www.w3.org/2000/svg" xmlns:xlink="http://www.w3.org/1999/xlink">
<g id="graph0" class="graph" transform="scale(1 1) rotate(0) translate(4 303.25)">
<title>discussion_process</title>
<polygon fill="white" stroke="none" points="-4,4 -4,-303.25 992.25,-303.25 992.25,4 -4,4"/>
<!-- start -->
<g id="node1" class="node">
<title>start</title>
<path fill="none" stroke="black" d="M501,-299.25C501,-299.25 374.75,-299.25 374.75,-299.25 368.75,-299.25 362.75,-293.25 362.75,-287.25 362.75,-287.25 362.75,-275.25 362.75,-275.25 362.75,-269.25 368.75,-263.25 374.75,-263.25 374.75,-263.25 501,-263.25 501,-263.25 507,-263.25 513,-269.25 513,-275.25 513,-275.25 513,-287.25 513,-287.25 513,-293.25 507,-299.25 501,-299.25"/>
<text text-anchor="middle" x="437.88" y="-275.82" font-family="Times New Roman,serif" font-size="14.00">User initiates discussion</text>
</g>
<!-- model -->
<g id="node2" class="node">
<title>model</title>
<path fill="none" stroke="black" d="M492,-211.5C492,-211.5 383.75,-211.5 383.75,-211.5 377.75,-211.5 371.75,-205.5 371.75,-199.5 371.75,-199.5 371.75,-187.5 371.75,-187.5 371.75,-181.5 377.75,-175.5 383.75,-175.5 383.75,-175.5 492,-175.5 492,-175.5 498,-175.5 504,-181.5 504,-187.5 504,-187.5 504,-199.5 504,-199.5 504,-205.5 498,-211.5 492,-211.5"/>
<text text-anchor="middle" x="437.88" y="-188.07" font-family="Times New Roman,serif" font-size="14.00">ChatGPT (GPT&#45;3.5)</text>
</g>
<!-- start&#45;&gt;model -->
<g id="edge1" class="edge">
<title>start&#45;&gt;model</title>
<path fill="none" stroke="black" d="M437.88,-262.9C437.88,-251.39 437.88,-236.03 437.88,-222.78"/>
<polygon fill="black" stroke="black" points="441.38,-222.83 437.88,-212.83 434.38,-222.83 441.38,-222.83"/>
<text text-anchor="middle" x="466.75" y="-231.95" font-family="Times New Roman,serif" font-size="14.00">User input</text>
</g>
<!-- narrow_ai -->
<g id="node4" class="node">
<title>narrow_ai</title>
<path fill="none" stroke="black" d="M376.38,-123.75C376.38,-123.75 273.38,-123.75 273.38,-123.75 267.38,-123.75 261.38,-117.75 261.38,-111.75 261.38,-111.75 261.38,-99.75 261.38,-99.75 261.38,-93.75 267.38,-87.75 273.38,-87.75 273.38,-87.75 376.38,-87.75 376.38,-87.75 382.38,-87.75 388.38,-93.75 388.38,-99.75 388.38,-99.75 388.38,-111.75 388.38,-111.75 388.38,-117.75 382.38,-123.75 376.38,-123.75"/>
<text text-anchor="middle" x="324.88" y="-100.33" font-family="Times New Roman,serif" font-size="14.00">Narrow AI Systems</text>
</g>
<!-- model&#45;&gt;narrow_ai -->
<g id="edge2" class="edge">
<title>model&#45;&gt;narrow_ai</title>
<path fill="none" stroke="black" d="M371.35,-185.63C354.07,-180.51 337.28,-171.9 326.38,-157.5 321.53,-151.1 319.94,-142.83 319.91,-134.83"/>
<polygon fill="black" stroke="black" points="323.47,-135.16 320.71,-124.93 316.48,-134.64 323.47,-135.16"/>
<text text-anchor="middle" x="432.62" y="-144.2" font-family="Times New Roman,serif" font-size="14.00">Respond with language understanding</text>
</g>
<!-- research -->
<g id="node7" class="node">
<title>research</title>
<path fill="none" stroke="black" d="M976.25,-123.75C976.25,-123.75 779.5,-123.75 779.5,-123.75 773.5,-123.75 767.5,-117.75 767.5,-111.75 767.5,-111.75 767.5,-99.75 767.5,-99.75 767.5,-93.75 773.5,-87.75 779.5,-87.75 779.5,-87.75 976.25,-87.75 976.25,-87.75 982.25,-87.75 988.25,-93.75 988.25,-99.75 988.25,-99.75 988.25,-111.75 988.25,-111.75 988.25,-117.75 982.25,-123.75 976.25,-123.75"/>
<text text-anchor="middle" x="877.88" y="-100.33" font-family="Times New Roman,serif" font-size="14.00">Ongoing Research and Development</text>
</g>
<!-- model&#45;&gt;research -->
<g id="edge7" class="edge">
<title>model&#45;&gt;research</title>
<path fill="none" stroke="black" d="M504.22,-179.57C576.86,-165.41 694.13,-142.56 777.92,-126.23"/>
<polygon fill="black" stroke="black" points="778.33,-129.52 787.48,-124.17 776.99,-122.65 778.33,-129.52"/>
<text text-anchor="middle" x="822.75" y="-144.2" font-family="Times New Roman,serif" font-size="14.00">Provide information about AGI development</text>
</g>
<!-- agi -->
<g id="node3" class="node">
<title>agi</title>
<path fill="none" stroke="black" d="M972.5,-36C972.5,-36 783.25,-36 783.25,-36 777.25,-36 771.25,-30 771.25,-24 771.25,-24 771.25,-12 771.25,-12 771.25,-6 777.25,0 783.25,0 783.25,0 972.5,0 972.5,0 978.5,0 984.5,-6 984.5,-12 984.5,-12 984.5,-24 984.5,-24 984.5,-30 978.5,-36 972.5,-36"/>
<text text-anchor="middle" x="877.88" y="-12.57" font-family="Times New Roman,serif" font-size="14.00">Artificial General Intelligence (AGI)</text>
</g>
<!-- learn -->
<g id="node5" class="node">
<title>learn</title>
<path fill="none" stroke="black" d="M97.75,-36C97.75,-36 12,-36 12,-36 6,-36 0,-30 0,-24 0,-24 0,-12 0,-12 0,-6 6,0 12,0 12,0 97.75,0 97.75,0 103.75,0 109.75,-6 109.75,-12 109.75,-12 109.75,-24 109.75,-24 109.75,-30 103.75,-36 97.75,-36"/>
<text text-anchor="middle" x="54.88" y="-12.57" font-family="Times New Roman,serif" font-size="14.00">Learn and Adapt</text>
</g>
<!-- narrow_ai&#45;&gt;learn -->
<g id="edge3" class="edge">
<title>narrow_ai&#45;&gt;learn</title>
<path fill="none" stroke="black" d="M261.11,-90.4C256.3,-89.46 251.52,-88.56 246.88,-87.75 186.6,-77.23 165.84,-95.59 110.38,-69.75 97.43,-63.72 85.42,-53.58 75.9,-43.94"/>
<polygon fill="black" stroke="black" points="78.92,-41.97 69.53,-37.06 73.81,-46.76 78.92,-41.97"/>
<text text-anchor="middle" x="212.12" y="-56.45" font-family="Times New Roman,serif" font-size="14.00">Specialized learning in specific tasks</text>
</g>
<!-- communicate -->
<g id="node6" class="node">
<title>communicate</title>
<path fill="none" stroke="black" d="M516.62,-36C516.62,-36 355.12,-36 355.12,-36 349.12,-36 343.12,-30 343.12,-24 343.12,-24 343.12,-12 343.12,-12 343.12,-6 349.12,0 355.12,0 355.12,0 516.62,0 516.62,0 522.62,0 528.62,-6 528.62,-12 528.62,-12 528.62,-24 528.62,-24 528.62,-30 522.62,-36 516.62,-36"/>
<text text-anchor="middle" x="435.88" y="-12.57" font-family="Times New Roman,serif" font-size="14.00">Understand and Communicate</text>
</g>
<!-- narrow_ai&#45;&gt;communicate -->
<g id="edge4" class="edge">
<title>narrow_ai&#45;&gt;communicate</title>
<path fill="none" stroke="black" d="M318.69,-87.64C316,-76.97 314.85,-63.51 321.88,-54 325.29,-49.38 329.3,-45.36 333.74,-41.85"/>
<polygon fill="black" stroke="black" points="335.46,-44.23 341.75,-35.71 331.52,-38.44 335.46,-44.23"/>
<text text-anchor="middle" x="429.88" y="-56.45" font-family="Times New Roman,serif" font-size="14.00">Communication in predefined domains</text>
</g>
<!-- learn&#45;&gt;model -->
<g id="edge5" class="edge">
<title>learn&#45;&gt;model</title>
<path fill="none" stroke="black" d="M46.69,-36.48C37.35,-59.33 25.84,-99.3 46.38,-123.75 85.66,-170.53 257.86,-185.49 360.34,-190.27"/>
<polygon fill="black" stroke="black" points="360.11,-193.8 370.26,-190.75 360.42,-186.81 360.11,-193.8"/>
<text text-anchor="middle" x="149.62" y="-100.33" font-family="Times New Roman,serif" font-size="14.00">Apply learning to generate responses</text>
</g>
<!-- communicate&#45;&gt;model -->
<g id="edge6" class="edge">
<title>communicate&#45;&gt;model</title>
<path fill="none" stroke="black" d="M518.12,-36.29C525.8,-40.89 532.65,-46.69 537.88,-54 564.61,-91.44 564.49,-119.98 537.88,-157.5 531.83,-166.02 523.55,-172.48 514.32,-177.38"/>
<polygon fill="black" stroke="black" points="513.03,-174.58 505.41,-181.94 515.96,-180.93 513.03,-174.58"/>
<text text-anchor="middle" x="657.5" y="-100.33" font-family="Times New Roman,serif" font-size="14.00">Generate human&#45;like text responses</text>
</g>
<!-- research&#45;&gt;agi -->
<g id="edge8" class="edge">
<title>research&#45;&gt;agi</title>
<path fill="none" stroke="black" d="M877.88,-87.4C877.88,-75.89 877.88,-60.53 877.88,-47.28"/>
<polygon fill="black" stroke="black" points="881.38,-47.33 877.88,-37.33 874.38,-47.33 881.38,-47.33"/>
<text text-anchor="middle" x="927.75" y="-56.45" font-family="Times New Roman,serif" font-size="14.00">AGI development</text>
</g>
</g>
</svg>
