<?xml version="1.0" encoding="UTF-8" standalone="no"?>
<!DOCTYPE svg PUBLIC "-//W3C//DTD SVG 1.1//EN"
 "http://www.w3.org/Graphics/SVG/1.1/DTD/svg11.dtd">
<!-- Generated by graphviz version 8.1.0 (20230707.0739)
 -->
<!-- Title: G Pages: 1 -->
<svg width="4228pt" height="532pt"
 viewBox="0.00 0.00 4228.37 532.00" xmlns="http://www.w3.org/2000/svg" xmlns:xlink="http://www.w3.org/1999/xlink">
<g id="graph0" class="graph" transform="scale(1 1) rotate(0) translate(4 528)">
<title>G</title>
<polygon fill="white" stroke="none" points="-4,4 -4,-528 4224.37,-528 4224.37,4 -4,4"/>
<g id="clust1" class="cluster">
<title>cluster_0</title>
<path fill="none" stroke="black" d="M20,-384C20,-384 3719.93,-384 3719.93,-384 3725.93,-384 3731.93,-390 3731.93,-396 3731.93,-396 3731.93,-448 3731.93,-448 3731.93,-454 3725.93,-460 3719.93,-460 3719.93,-460 20,-460 20,-460 14,-460 8,-454 8,-448 8,-448 8,-396 8,-396 8,-390 14,-384 20,-384"/>
<text text-anchor="middle" x="1869.96" y="-442.7" font-family="Times New Roman,serif" font-size="14.00">User</text>
</g>
<g id="clust2" class="cluster">
<title>cluster_1</title>
<path fill="none" stroke="black" d="M3763.93,-8C3763.93,-8 4200.37,-8 4200.37,-8 4206.37,-8 4212.37,-14 4212.37,-20 4212.37,-20 4212.37,-504 4212.37,-504 4212.37,-510 4206.37,-516 4200.37,-516 4200.37,-516 3763.93,-516 3763.93,-516 3757.93,-516 3751.93,-510 3751.93,-504 3751.93,-504 3751.93,-20 3751.93,-20 3751.93,-14 3757.93,-8 3763.93,-8"/>
<text text-anchor="middle" x="3982.15" y="-498.7" font-family="Times New Roman,serif" font-size="14.00">Assistant</text>
</g>
<!-- start -->
<g id="node1" class="node">
<title>start</title>
<ellipse fill="none" stroke="black" cx="116.46" cy="-410" rx="100.46" ry="18"/>
<text text-anchor="middle" x="116.46" y="-404.57" font-family="Times New Roman,serif" font-size="14.00">User starts conversation</text>
</g>
<!-- amazon_search -->
<g id="node2" class="node">
<title>amazon_search</title>
<ellipse fill="none" stroke="black" cx="430.24" cy="-410" rx="177.31" ry="18"/>
<text text-anchor="middle" x="430.24" y="-404.57" font-family="Times New Roman,serif" font-size="14.00">User asks about Civil War series on Amazon</text>
</g>
<!-- start&#45;&gt;amazon_search -->
<g id="edge1" class="edge">
<title>start&#45;&gt;amazon_search</title>
<path fill="none" stroke="black" d="M217.4,-410C225.32,-410 233.47,-410 241.74,-410"/>
<polygon fill="black" stroke="black" points="241.68,-413.5 251.68,-410 241.68,-406.5 241.68,-413.5"/>
</g>
<!-- book_series -->
<g id="node3" class="node">
<title>book_series</title>
<ellipse fill="none" stroke="black" cx="772.46" cy="-410" rx="128.91" ry="18"/>
<text text-anchor="middle" x="772.46" y="-404.57" font-family="Times New Roman,serif" font-size="14.00">User mentions it&#39;s a book series</text>
</g>
<!-- amazon_search&#45;&gt;book_series -->
<g id="edge2" class="edge">
<title>amazon_search&#45;&gt;book_series</title>
<path fill="none" stroke="black" d="M607.82,-410C616.06,-410 624.27,-410 632.38,-410"/>
<polygon fill="black" stroke="black" points="632.38,-413.5 642.38,-410 632.38,-406.5 632.38,-413.5"/>
</g>
<!-- response1 -->
<g id="node12" class="node">
<title>response1</title>
<ellipse fill="none" stroke="black" cx="3982.15" cy="-34" rx="211.24" ry="18"/>
<text text-anchor="middle" x="3982.15" y="-28.57" font-family="Times New Roman,serif" font-size="14.00">Assistant provides information on the Civil War series</text>
</g>
<!-- amazon_search&#45;&gt;response1 -->
<g id="edge11" class="edge">
<title>amazon_search&#45;&gt;response1</title>
<path fill="none" stroke="black" d="M448.59,-391.65C519.93,-318.29 800.46,-50 1087.72,-50 1087.72,-50 1087.72,-50 3245.82,-50 3423.96,-50 3626.32,-45.25 3773.6,-40.92"/>
<polygon fill="black" stroke="black" points="3773.66,-44.39 3783.55,-40.6 3773.45,-37.4 3773.66,-44.39"/>
</g>
<!-- genesis_equation -->
<g id="node4" class="node">
<title>genesis_equation</title>
<ellipse fill="none" stroke="black" cx="1088.72" cy="-410" rx="151.36" ry="18"/>
<text text-anchor="middle" x="1088.72" y="-404.57" font-family="Times New Roman,serif" font-size="14.00">User asks about the Genesis Equation</text>
</g>
<!-- book_series&#45;&gt;genesis_equation -->
<g id="edge3" class="edge">
<title>book_series&#45;&gt;genesis_equation</title>
<path fill="none" stroke="black" d="M901.73,-410C909.82,-410 918.01,-410 926.21,-410"/>
<polygon fill="black" stroke="black" points="926,-413.5 936,-410 926,-406.5 926,-413.5"/>
</g>
<!-- book_by_hrishi -->
<g id="node5" class="node">
<title>book_by_hrishi</title>
<ellipse fill="none" stroke="black" cx="1458.89" cy="-410" rx="182.8" ry="18"/>
<text text-anchor="middle" x="1458.89" y="-404.57" font-family="Times New Roman,serif" font-size="14.00">User mentions a book by Sir Hrishi Mukherjee</text>
</g>
<!-- genesis_equation&#45;&gt;book_by_hrishi -->
<g id="edge4" class="edge">
<title>genesis_equation&#45;&gt;book_by_hrishi</title>
<path fill="none" stroke="black" d="M1240.53,-410C1248.61,-410 1256.78,-410 1264.96,-410"/>
<polygon fill="black" stroke="black" points="1264.74,-413.5 1274.74,-410 1264.74,-406.5 1264.74,-413.5"/>
</g>
<!-- response2 -->
<g id="node13" class="node">
<title>response2</title>
<ellipse fill="none" stroke="black" cx="3982.15" cy="-88" rx="157.85" ry="18"/>
<text text-anchor="middle" x="3982.15" y="-82.58" font-family="Times New Roman,serif" font-size="14.00">Assistant explains the Genesis Equation</text>
</g>
<!-- genesis_equation&#45;&gt;response2 -->
<g id="edge12" class="edge">
<title>genesis_equation&#45;&gt;response2</title>
<path fill="none" stroke="black" d="M1114.12,-391.81C1203.38,-327.11 1522.53,-112 1820.56,-112 1820.56,-112 1820.56,-112 3245.82,-112 3446.64,-112 3678.16,-102.95 3826.91,-95.96"/>
<polygon fill="black" stroke="black" points="3826.65,-99.43 3836.47,-95.46 3826.32,-92.44 3826.65,-99.43"/>
</g>
<!-- amazon_available -->
<g id="node6" class="node">
<title>amazon_available</title>
<ellipse fill="none" stroke="black" cx="1821.56" cy="-410" rx="143.88" ry="18"/>
<text text-anchor="middle" x="1821.56" y="-404.57" font-family="Times New Roman,serif" font-size="14.00">User states it&#39;s available on Amazon</text>
</g>
<!-- book_by_hrishi&#45;&gt;amazon_available -->
<g id="edge5" class="edge">
<title>book_by_hrishi&#45;&gt;amazon_available</title>
<path fill="none" stroke="black" d="M1642.07,-410C1650.19,-410 1658.3,-410 1666.34,-410"/>
<polygon fill="black" stroke="black" points="1666.26,-413.5 1676.26,-410 1666.26,-406.5 1666.26,-413.5"/>
</g>
<!-- response3 -->
<g id="node14" class="node">
<title>response3</title>
<ellipse fill="none" stroke="black" cx="3982.15" cy="-142" rx="205.75" ry="18"/>
<text text-anchor="middle" x="3982.15" y="-136.57" font-family="Times New Roman,serif" font-size="14.00">Assistant confirms the book by Sir Hrishi Mukherjee</text>
</g>
<!-- book_by_hrishi&#45;&gt;response3 -->
<g id="edge13" class="edge">
<title>book_by_hrishi&#45;&gt;response3</title>
<path fill="none" stroke="black" d="M1486.97,-391.88C1576.01,-334.1 1869.44,-158 2138.33,-158 2138.33,-158 2138.33,-158 3245.82,-158 3425.83,-158 3630.57,-153.15 3778.21,-148.79"/>
<polygon fill="black" stroke="black" points="3778.3,-152.26 3788.19,-148.46 3778.09,-145.26 3778.3,-152.26"/>
</g>
<!-- equation_interpretation -->
<g id="node7" class="node">
<title>equation_interpretation</title>
<ellipse fill="none" stroke="black" cx="2139.33" cy="-410" rx="137.89" ry="18"/>
<text text-anchor="middle" x="2139.33" y="-404.57" font-family="Times New Roman,serif" font-size="14.00">User provides a complex equation</text>
</g>
<!-- amazon_available&#45;&gt;equation_interpretation -->
<g id="edge6" class="edge">
<title>amazon_available&#45;&gt;equation_interpretation</title>
<path fill="none" stroke="black" d="M1965.66,-410C1973.83,-410 1982.05,-410 1990.24,-410"/>
<polygon fill="black" stroke="black" points="1989.98,-413.5 1999.98,-410 1989.98,-406.5 1989.98,-413.5"/>
</g>
<!-- response4 -->
<g id="node15" class="node">
<title>response4</title>
<ellipse fill="none" stroke="black" cx="3982.15" cy="-196" rx="180.3" ry="18"/>
<text text-anchor="middle" x="3982.15" y="-190.57" font-family="Times New Roman,serif" font-size="14.00">Assistant mentions the availability on Amazon</text>
</g>
<!-- amazon_available&#45;&gt;response4 -->
<g id="edge14" class="edge">
<title>amazon_available&#45;&gt;response4</title>
<path fill="none" stroke="black" d="M1854.35,-392.08C1946.34,-341.96 2221.95,-204 2468.57,-204 2468.57,-204 2468.57,-204 3245.82,-204 3432.06,-204 3644.81,-201.4 3793.39,-199.17"/>
<polygon fill="black" stroke="black" points="3793.03,-202.66 3802.97,-199.01 3792.92,-195.66 3793.03,-202.66"/>
</g>
<!-- evolution_rate -->
<g id="node8" class="node">
<title>evolution_rate</title>
<ellipse fill="none" stroke="black" cx="2469.57" cy="-410" rx="156.35" ry="18"/>
<text text-anchor="middle" x="2469.57" y="-404.57" font-family="Times New Roman,serif" font-size="14.00">User asks to apply the rate of evolution</text>
</g>
<!-- equation_interpretation&#45;&gt;evolution_rate -->
<g id="edge7" class="edge">
<title>equation_interpretation&#45;&gt;evolution_rate</title>
<path fill="none" stroke="black" d="M2277.63,-410C2285.6,-410 2293.66,-410 2301.73,-410"/>
<polygon fill="black" stroke="black" points="2301.72,-413.5 2311.72,-410 2301.72,-406.5 2301.72,-413.5"/>
</g>
<!-- response5 -->
<g id="node16" class="node">
<title>response5</title>
<ellipse fill="none" stroke="black" cx="3982.15" cy="-250" rx="163.34" ry="18"/>
<text text-anchor="middle" x="3982.15" y="-244.57" font-family="Times New Roman,serif" font-size="14.00">Assistant interprets the complex equation</text>
</g>
<!-- equation_interpretation&#45;&gt;response5 -->
<g id="edge15" class="edge">
<title>equation_interpretation&#45;&gt;response5</title>
<path fill="none" stroke="black" d="M2185.21,-392.57C2296.19,-351.1 2593.12,-250 2850.21,-250 2850.21,-250 2850.21,-250 3245.82,-250 3438.12,-250 3658.71,-250 3807.72,-250"/>
<polygon fill="black" stroke="black" points="3807.32,-253.5 3817.32,-250 3807.32,-246.5 3807.32,-253.5"/>
</g>
<!-- integrate_evolution -->
<g id="node9" class="node">
<title>integrate_evolution</title>
<ellipse fill="none" stroke="black" cx="2851.21" cy="-410" rx="189.29" ry="18"/>
<text text-anchor="middle" x="2851.21" y="-404.57" font-family="Times New Roman,serif" font-size="14.00">User requests integration of the rate of evolution</text>
</g>
<!-- evolution_rate&#45;&gt;integrate_evolution -->
<g id="edge8" class="edge">
<title>evolution_rate&#45;&gt;integrate_evolution</title>
<path fill="none" stroke="black" d="M2626.35,-410C2634.46,-410 2642.66,-410 2650.88,-410"/>
<polygon fill="black" stroke="black" points="2650.69,-413.5 2660.69,-410 2650.69,-406.5 2650.69,-413.5"/>
</g>
<!-- response6 -->
<g id="node17" class="node">
<title>response6</title>
<ellipse fill="none" stroke="black" cx="3982.15" cy="-304" rx="159.35" ry="18"/>
<text text-anchor="middle" x="3982.15" y="-298.57" font-family="Times New Roman,serif" font-size="14.00">Assistant discusses the rate of evolution</text>
</g>
<!-- evolution_rate&#45;&gt;response6 -->
<g id="edge16" class="edge">
<title>evolution_rate&#45;&gt;response6</title>
<path fill="none" stroke="black" d="M2563.82,-395.31C2594.95,-390.82 2629.87,-386.22 2661.92,-383 3077.24,-341.33 3568.48,-318.99 3818.01,-309.55"/>
<polygon fill="black" stroke="black" points="3818.12,-313.01 3827.98,-309.14 3817.85,-306.02 3818.12,-313.01"/>
</g>
<!-- equation_genesis -->
<g id="node10" class="node">
<title>equation_genesis</title>
<ellipse fill="none" stroke="black" cx="3244.82" cy="-410" rx="168.33" ry="18"/>
<text text-anchor="middle" x="3244.82" y="-404.57" font-family="Times New Roman,serif" font-size="14.00">User presents the first equation of Genesis</text>
</g>
<!-- integrate_evolution&#45;&gt;equation_genesis -->
<g id="edge9" class="edge">
<title>integrate_evolution&#45;&gt;equation_genesis</title>
<path fill="none" stroke="black" d="M3040.84,-410C3048.92,-410 3057.01,-410 3065.06,-410"/>
<polygon fill="black" stroke="black" points="3065.02,-413.5 3075.02,-410 3065.02,-406.5 3065.02,-413.5"/>
</g>
<!-- response7 -->
<g id="node18" class="node">
<title>response7</title>
<ellipse fill="none" stroke="black" cx="3982.15" cy="-358" rx="222.22" ry="18"/>
<text text-anchor="middle" x="3982.15" y="-352.57" font-family="Times New Roman,serif" font-size="14.00">Assistant integrates the rate of evolution into the equation</text>
</g>
<!-- integrate_evolution&#45;&gt;response7 -->
<g id="edge17" class="edge">
<title>integrate_evolution&#45;&gt;response7</title>
<path fill="none" stroke="black" d="M2960.67,-394.9C2997.38,-390.33 3038.65,-385.79 3076.49,-383 3304.63,-366.15 3565.9,-360.38 3748.81,-358.54"/>
<polygon fill="black" stroke="black" points="3748.68,-362.03 3758.65,-358.43 3748.61,-355.03 3748.68,-362.03"/>
</g>
<!-- biblical_context -->
<g id="node11" class="node">
<title>biblical_context</title>
<ellipse fill="none" stroke="black" cx="3586.54" cy="-410" rx="137.39" ry="18"/>
<text text-anchor="middle" x="3586.54" y="-404.57" font-family="Times New Roman,serif" font-size="14.00">User relates it to the Biblical sense</text>
</g>
<!-- equation_genesis&#45;&gt;biblical_context -->
<g id="edge10" class="edge">
<title>equation_genesis&#45;&gt;biblical_context</title>
<path fill="none" stroke="black" d="M3413.19,-410C3421.46,-410 3429.74,-410 3437.94,-410"/>
<polygon fill="black" stroke="black" points="3437.68,-413.5 3447.68,-410 3437.68,-406.5 3437.68,-413.5"/>
</g>
<!-- response8 -->
<g id="node19" class="node">
<title>response8</title>
<ellipse fill="none" stroke="black" cx="3982.15" cy="-412" rx="184.79" ry="18"/>
<text text-anchor="middle" x="3982.15" y="-406.57" font-family="Times New Roman,serif" font-size="14.00">Assistant presents the first equation of Genesis</text>
</g>
<!-- equation_genesis&#45;&gt;response8 -->
<g id="edge18" class="edge">
<title>equation_genesis&#45;&gt;response8</title>
<path fill="none" stroke="black" d="M3340.47,-394.79C3374.62,-390.01 3413.53,-385.35 3449.15,-383 3574.55,-374.71 3606.46,-375.72 3731.93,-383 3738.5,-383.38 3794.51,-389.88 3851.77,-396.63"/>
<polygon fill="black" stroke="black" points="3851.12,-400.19 3861.47,-397.89 3851.94,-393.24 3851.12,-400.19"/>
</g>
<!-- response9 -->
<g id="node20" class="node">
<title>response9</title>
<ellipse fill="none" stroke="black" cx="3982.15" cy="-466" rx="156.35" ry="18"/>
<text text-anchor="middle" x="3982.15" y="-460.57" font-family="Times New Roman,serif" font-size="14.00">Assistant discusses the Biblical context</text>
</g>
<!-- biblical_context&#45;&gt;response9 -->
<g id="edge19" class="edge">
<title>biblical_context&#45;&gt;response9</title>
<path fill="none" stroke="black" d="M3666.82,-424.93C3693.78,-429.76 3724.12,-434.91 3751.93,-439 3785.2,-443.89 3821.29,-448.47 3854.77,-452.43"/>
<polygon fill="black" stroke="black" points="3854.2,-456 3864.54,-453.69 3855.02,-449.05 3854.2,-456"/>
</g>
</g>
</svg>
