<?xml version="1.0" encoding="UTF-8" standalone="no"?>
<!DOCTYPE svg PUBLIC "-//W3C//DTD SVG 1.1//EN"
 "http://www.w3.org/Graphics/SVG/1.1/DTD/svg11.dtd">
<!-- Generated by graphviz version 8.1.0 (20230707.0739)
 -->
<!-- Title: discussion_process Pages: 1 -->
<svg width="1338pt" height="395pt"
 viewBox="0.00 0.00 1337.75 395.00" xmlns="http://www.w3.org/2000/svg" xmlns:xlink="http://www.w3.org/1999/xlink">
<g id="graph0" class="graph" transform="scale(1 1) rotate(0) translate(4 391)">
<title>discussion_process</title>
<polygon fill="white" stroke="none" points="-4,4 -4,-391 1333.75,-391 1333.75,4 -4,4"/>
<!-- Define Problem -->
<g id="node1" class="node">
<title>Define Problem</title>
<polygon fill="none" stroke="black" points="103,-144 0,-144 0,-108 103,-108 103,-144"/>
<text text-anchor="middle" x="51.5" y="-120.58" font-family="Times New Roman,serif" font-size="14.00">Define Problem</text>
</g>
<!-- Research -->
<g id="node2" class="node">
<title>Research</title>
<polygon fill="none" stroke="black" points="206.75,-144 139,-144 139,-108 206.75,-108 206.75,-144"/>
<text text-anchor="middle" x="172.88" y="-120.58" font-family="Times New Roman,serif" font-size="14.00">Research</text>
</g>
<!-- Define Problem&#45;&gt;Research -->
<g id="edge1" class="edge">
<title>Define Problem&#45;&gt;Research</title>
<path fill="none" stroke="black" d="M103.47,-126C111.57,-126 119.89,-126 127.81,-126"/>
<polygon fill="black" stroke="black" points="127.68,-129.5 137.68,-126 127.68,-122.5 127.68,-129.5"/>
</g>
<!-- Identify Reasons -->
<g id="node3" class="node">
<title>Identify Reasons</title>
<polygon fill="none" stroke="black" points="359.62,-171 249.12,-171 249.12,-135 359.62,-135 359.62,-171"/>
<text text-anchor="middle" x="304.38" y="-147.57" font-family="Times New Roman,serif" font-size="14.00">Identify Reasons</text>
</g>
<!-- Research&#45;&gt;Identify Reasons -->
<g id="edge2" class="edge">
<title>Research&#45;&gt;Identify Reasons</title>
<path fill="none" stroke="black" d="M207.22,-132.95C216.72,-134.93 227.41,-137.16 238.12,-139.39"/>
<polygon fill="black" stroke="black" points="237.28,-143 247.79,-141.62 238.71,-136.15 237.28,-143"/>
</g>
<!-- Update Knowledge -->
<g id="node9" class="node">
<title>Update Knowledge</title>
<polygon fill="none" stroke="black" points="366,-117 242.75,-117 242.75,-81 366,-81 366,-117"/>
<text text-anchor="middle" x="304.38" y="-93.58" font-family="Times New Roman,serif" font-size="14.00">Update Knowledge</text>
</g>
<!-- Research&#45;&gt;Update Knowledge -->
<g id="edge8" class="edge">
<title>Research&#45;&gt;Update Knowledge</title>
<path fill="none" stroke="black" d="M207.22,-119.05C214.9,-117.45 223.34,-115.69 231.95,-113.89"/>
<polygon fill="black" stroke="black" points="232.41,-117.16 241.49,-111.69 230.98,-110.31 232.41,-117.16"/>
</g>
<!-- List Factors -->
<g id="node4" class="node">
<title>List Factors</title>
<polygon fill="none" stroke="black" points="520.75,-306 437.25,-306 437.25,-270 520.75,-270 520.75,-306"/>
<text text-anchor="middle" x="479" y="-282.57" font-family="Times New Roman,serif" font-size="14.00">List Factors</text>
</g>
<!-- Identify Reasons&#45;&gt;List Factors -->
<g id="edge3" class="edge">
<title>Identify Reasons&#45;&gt;List Factors</title>
<path fill="none" stroke="black" d="M317.29,-171.22C333.71,-195 365.44,-236.46 402,-261 409.52,-266.05 418.09,-270.27 426.71,-273.76"/>
<polygon fill="black" stroke="black" points="425.18,-277.3 435.77,-277.52 427.63,-270.74 425.18,-277.3"/>
</g>
<!-- Political Instability -->
<g id="node10" class="node">
<title>Political Instability</title>
<polygon fill="none" stroke="black" points="538,-252 420,-252 420,-216 538,-216 538,-252"/>
<text text-anchor="middle" x="479" y="-228.57" font-family="Times New Roman,serif" font-size="14.00">Political Instability</text>
</g>
<!-- Identify Reasons&#45;&gt;Political Instability -->
<g id="edge9" class="edge">
<title>Identify Reasons&#45;&gt;Political Instability</title>
<path fill="none" stroke="black" d="M335.16,-171.37C353.93,-182.5 378.9,-196.53 402,-207 405.42,-208.55 408.96,-210.07 412.55,-211.55"/>
<polygon fill="black" stroke="black" points="411.18,-215.17 421.77,-215.61 413.77,-208.67 411.18,-215.17"/>
</g>
<!-- Houthi Insurgency -->
<g id="node11" class="node">
<title>Houthi Insurgency</title>
<polygon fill="none" stroke="black" points="538.38,-198 419.62,-198 419.62,-162 538.38,-162 538.38,-198"/>
<text text-anchor="middle" x="479" y="-174.57" font-family="Times New Roman,serif" font-size="14.00">Houthi Insurgency</text>
</g>
<!-- Identify Reasons&#45;&gt;Houthi Insurgency -->
<g id="edge10" class="edge">
<title>Identify Reasons&#45;&gt;Houthi Insurgency</title>
<path fill="none" stroke="black" d="M359.99,-161.54C375.47,-163.96 392.53,-166.63 408.74,-169.17"/>
<polygon fill="black" stroke="black" points="407.84,-172.72 418.26,-170.81 408.92,-165.81 407.84,-172.72"/>
</g>
<!-- Regional Power Struggle -->
<g id="node12" class="node">
<title>Regional Power Struggle</title>
<polygon fill="none" stroke="black" points="556,-144 402,-144 402,-108 556,-108 556,-144"/>
<text text-anchor="middle" x="479" y="-120.58" font-family="Times New Roman,serif" font-size="14.00">Regional Power Struggle</text>
</g>
<!-- Identify Reasons&#45;&gt;Regional Power Struggle -->
<g id="edge11" class="edge">
<title>Identify Reasons&#45;&gt;Regional Power Struggle</title>
<path fill="none" stroke="black" d="M359.99,-144.46C369.92,-142.9 380.5,-141.25 391.09,-139.59"/>
<polygon fill="black" stroke="black" points="391.32,-142.94 400.66,-137.94 390.24,-136.03 391.32,-142.94"/>
</g>
<!-- Humanitarian Crisis -->
<g id="node13" class="node">
<title>Humanitarian Crisis</title>
<polygon fill="none" stroke="black" points="541.38,-90 416.62,-90 416.62,-54 541.38,-54 541.38,-90"/>
<text text-anchor="middle" x="479" y="-66.58" font-family="Times New Roman,serif" font-size="14.00">Humanitarian Crisis</text>
</g>
<!-- Identify Reasons&#45;&gt;Humanitarian Crisis -->
<g id="edge12" class="edge">
<title>Identify Reasons&#45;&gt;Humanitarian Crisis</title>
<path fill="none" stroke="black" d="M349.99,-134.51C355.48,-131.84 360.93,-128.98 366,-126 383.24,-115.87 384.38,-108.46 402,-99 404.72,-97.54 407.53,-96.13 410.4,-94.78"/>
<polygon fill="black" stroke="black" points="411.61,-97.63 419.34,-90.38 408.78,-91.23 411.61,-97.63"/>
</g>
<!-- Economic Challenges -->
<g id="node14" class="node">
<title>Economic Challenges</title>
<polygon fill="none" stroke="black" points="547.38,-36 410.62,-36 410.62,0 547.38,0 547.38,-36"/>
<text text-anchor="middle" x="479" y="-12.57" font-family="Times New Roman,serif" font-size="14.00">Economic Challenges</text>
</g>
<!-- Identify Reasons&#45;&gt;Economic Challenges -->
<g id="edge13" class="edge">
<title>Identify Reasons&#45;&gt;Economic Challenges</title>
<path fill="none" stroke="black" d="M355.36,-134.54C359.21,-132.02 362.82,-129.18 366,-126 393.85,-98.13 373.09,-71.77 402,-45 402.87,-44.19 403.77,-43.41 404.69,-42.65"/>
<polygon fill="black" stroke="black" points="406.39,-45.02 412.55,-36.4 402.36,-39.31 406.39,-45.02"/>
</g>
<!-- Highlight Key Issues -->
<g id="node5" class="node">
<title>Highlight Key Issues</title>
<polygon fill="none" stroke="black" points="722.75,-306 592,-306 592,-270 722.75,-270 722.75,-306"/>
<text text-anchor="middle" x="657.38" y="-282.57" font-family="Times New Roman,serif" font-size="14.00">Highlight Key Issues</text>
</g>
<!-- List Factors&#45;&gt;Highlight Key Issues -->
<g id="edge4" class="edge">
<title>List Factors&#45;&gt;Highlight Key Issues</title>
<path fill="none" stroke="black" d="M520.91,-288C538.68,-288 560.08,-288 580.58,-288"/>
<polygon fill="black" stroke="black" points="580.51,-291.5 590.51,-288 580.51,-284.5 580.51,-291.5"/>
</g>
<!-- Discuss Solutions -->
<g id="node6" class="node">
<title>Discuss Solutions</title>
<polygon fill="none" stroke="black" points="875.25,-306 758.75,-306 758.75,-270 875.25,-270 875.25,-306"/>
<text text-anchor="middle" x="817" y="-282.57" font-family="Times New Roman,serif" font-size="14.00">Discuss Solutions</text>
</g>
<!-- Highlight Key Issues&#45;&gt;Discuss Solutions -->
<g id="edge5" class="edge">
<title>Highlight Key Issues&#45;&gt;Discuss Solutions</title>
<path fill="none" stroke="black" d="M722.94,-288C731.01,-288 739.28,-288 747.41,-288"/>
<polygon fill="black" stroke="black" points="747.36,-291.5 757.36,-288 747.36,-284.5 747.36,-291.5"/>
</g>
<!-- Agree on Approach -->
<g id="node7" class="node">
<title>Agree on Approach</title>
<polygon fill="none" stroke="black" points="1062.62,-387 935.62,-387 935.62,-351 1062.62,-351 1062.62,-387"/>
<text text-anchor="middle" x="999.12" y="-363.57" font-family="Times New Roman,serif" font-size="14.00">Agree on Approach</text>
</g>
<!-- Discuss Solutions&#45;&gt;Agree on Approach -->
<g id="edge6" class="edge">
<title>Discuss Solutions&#45;&gt;Agree on Approach</title>
<path fill="none" stroke="black" d="M845.71,-306.25C863.82,-317.61 888.29,-331.94 911.25,-342 915.8,-344 920.55,-345.91 925.37,-347.73"/>
<polygon fill="black" stroke="black" points="923.75,-351.22 934.34,-351.33 926.13,-344.64 923.75,-351.22"/>
</g>
<!-- Peaceful Resolution -->
<g id="node15" class="node">
<title>Peaceful Resolution</title>
<polygon fill="none" stroke="black" points="1062.62,-333 935.62,-333 935.62,-297 1062.62,-297 1062.62,-333"/>
<text text-anchor="middle" x="999.12" y="-309.57" font-family="Times New Roman,serif" font-size="14.00">Peaceful Resolution</text>
</g>
<!-- Discuss Solutions&#45;&gt;Peaceful Resolution -->
<g id="edge14" class="edge">
<title>Discuss Solutions&#45;&gt;Peaceful Resolution</title>
<path fill="none" stroke="black" d="M875.49,-296.62C891.11,-298.96 908.25,-301.53 924.63,-303.98"/>
<polygon fill="black" stroke="black" points="923.85,-307.56 934.26,-305.58 924.89,-300.63 923.85,-307.56"/>
</g>
<!-- Address Humanitarian Crisis -->
<g id="node16" class="node">
<title>Address Humanitarian Crisis</title>
<polygon fill="none" stroke="black" points="1087,-279 911.25,-279 911.25,-243 1087,-243 1087,-279"/>
<text text-anchor="middle" x="999.12" y="-255.57" font-family="Times New Roman,serif" font-size="14.00">Address Humanitarian Crisis</text>
</g>
<!-- Discuss Solutions&#45;&gt;Address Humanitarian Crisis -->
<g id="edge15" class="edge">
<title>Discuss Solutions&#45;&gt;Address Humanitarian Crisis</title>
<path fill="none" stroke="black" d="M875.49,-279.38C883.45,-278.19 891.81,-276.94 900.26,-275.67"/>
<polygon fill="black" stroke="black" points="900.61,-279.01 909.98,-274.06 899.57,-272.08 900.61,-279.01"/>
</g>
<!-- International Cooperation -->
<g id="node17" class="node">
<title>International Cooperation</title>
<polygon fill="none" stroke="black" points="1078,-225 920.25,-225 920.25,-189 1078,-189 1078,-225"/>
<text text-anchor="middle" x="999.12" y="-201.57" font-family="Times New Roman,serif" font-size="14.00">International Cooperation</text>
</g>
<!-- Discuss Solutions&#45;&gt;International Cooperation -->
<g id="edge16" class="edge">
<title>Discuss Solutions&#45;&gt;International Cooperation</title>
<path fill="none" stroke="black" d="M845.71,-269.75C863.82,-258.39 888.29,-244.06 911.25,-234 915.05,-232.34 918.98,-230.73 922.98,-229.18"/>
<polygon fill="black" stroke="black" points="923.85,-232.23 932.02,-225.48 921.43,-225.66 923.85,-232.23"/>
</g>
<!-- Implement -->
<g id="node8" class="node">
<title>Implement</title>
<polygon fill="none" stroke="black" points="1197.5,-387 1123,-387 1123,-351 1197.5,-351 1197.5,-387"/>
<text text-anchor="middle" x="1160.25" y="-363.57" font-family="Times New Roman,serif" font-size="14.00">Implement</text>
</g>
<!-- Agree on Approach&#45;&gt;Implement -->
<g id="edge7" class="edge">
<title>Agree on Approach&#45;&gt;Implement</title>
<path fill="none" stroke="black" d="M1063.02,-369C1079.37,-369 1096.72,-369 1112.11,-369"/>
<polygon fill="black" stroke="black" points="1111.92,-372.5 1121.92,-369 1111.92,-365.5 1111.92,-372.5"/>
</g>
<!-- Stay Informed -->
<g id="node18" class="node">
<title>Stay Informed</title>
<polygon fill="none" stroke="black" points="1329.75,-387 1233.5,-387 1233.5,-351 1329.75,-351 1329.75,-387"/>
<text text-anchor="middle" x="1281.62" y="-363.57" font-family="Times New Roman,serif" font-size="14.00">Stay Informed</text>
</g>
<!-- Implement&#45;&gt;Stay Informed -->
<g id="edge17" class="edge">
<title>Implement&#45;&gt;Stay Informed</title>
<path fill="none" stroke="black" d="M1197.72,-369C1205.53,-369 1213.98,-369 1222.39,-369"/>
<polygon fill="black" stroke="black" points="1222.37,-372.5 1232.37,-369 1222.37,-365.5 1222.37,-372.5"/>
</g>
</g>
</svg>
