<?xml version="1.0" encoding="UTF-8" standalone="no"?>
<!DOCTYPE svg PUBLIC "-//W3C//DTD SVG 1.1//EN"
 "http://www.w3.org/Graphics/SVG/1.1/DTD/svg11.dtd">
<!-- Generated by graphviz version 8.1.0 (20230707.0739)
 -->
<!-- Title: CountryRecognitionProcess Pages: 1 -->
<svg width="586pt" height="366pt"
 viewBox="0.00 0.00 586.38 365.50" xmlns="http://www.w3.org/2000/svg" xmlns:xlink="http://www.w3.org/1999/xlink">
<g id="graph0" class="graph" transform="scale(1 1) rotate(0) translate(4 361.5)">
<title>CountryRecognitionProcess</title>
<polygon fill="white" stroke="none" points="-4,4 -4,-361.5 582.38,-361.5 582.38,4 -4,4"/>
<!-- DeclareIndependence -->
<g id="node1" class="node">
<title>DeclareIndependence</title>
<polygon fill="none" stroke="black" points="492.62,-357.5 352.88,-357.5 352.88,-321.5 492.62,-321.5 492.62,-357.5"/>
<text text-anchor="middle" x="422.75" y="-334.07" font-family="Times New Roman,serif" font-size="14.00">Declare Independence</text>
</g>
<!-- RecognitionByOtherCountries -->
<g id="node2" class="node">
<title>RecognitionByOtherCountries</title>
<polygon fill="none" stroke="black" points="424,-284.5 229.5,-284.5 229.5,-248.5 424,-248.5 424,-284.5"/>
<text text-anchor="middle" x="326.75" y="-261.07" font-family="Times New Roman,serif" font-size="14.00">Recognition by Other Countries</text>
</g>
<!-- DeclareIndependence&#45;&gt;RecognitionByOtherCountries -->
<g id="edge1" class="edge">
<title>DeclareIndependence&#45;&gt;RecognitionByOtherCountries</title>
<path fill="none" stroke="black" d="M399.51,-321.31C387.22,-312.22 371.95,-300.93 358.57,-291.04"/>
<polygon fill="black" stroke="black" points="361.23,-287.91 351.11,-284.77 357.07,-293.54 361.23,-287.91"/>
</g>
<!-- TerritorialControl -->
<g id="node4" class="node">
<title>TerritorialControl</title>
<polygon fill="none" stroke="black" points="578.38,-196.75 461.12,-196.75 461.12,-160.75 578.38,-160.75 578.38,-196.75"/>
<text text-anchor="middle" x="519.75" y="-173.32" font-family="Times New Roman,serif" font-size="14.00">Territorial Control</text>
</g>
<!-- DeclareIndependence&#45;&gt;TerritorialControl -->
<g id="edge7" class="edge">
<title>DeclareIndependence&#45;&gt;TerritorialControl</title>
<path fill="none" stroke="black" d="M433.32,-321.21C450.3,-293.42 483.78,-238.62 503.72,-205.99"/>
<polygon fill="black" stroke="black" points="506.97,-208.38 509.2,-198.02 501,-204.73 506.97,-208.38"/>
<text text-anchor="middle" x="525.75" y="-261.07" font-family="Times New Roman,serif" font-size="14.00">Effective Control</text>
</g>
<!-- InternationalOrganizations -->
<g id="node3" class="node">
<title>InternationalOrganizations</title>
<polygon fill="none" stroke="black" points="283.62,-196.75 29.87,-196.75 29.87,-160.75 283.62,-160.75 283.62,-196.75"/>
<text text-anchor="middle" x="156.75" y="-173.32" font-family="Times New Roman,serif" font-size="14.00">Recognition by International Organizations</text>
</g>
<!-- RecognitionByOtherCountries&#45;&gt;InternationalOrganizations -->
<g id="edge2" class="edge">
<title>RecognitionByOtherCountries&#45;&gt;InternationalOrganizations</title>
<path fill="none" stroke="black" d="M317.36,-248.03C310.54,-236.94 300.32,-223.14 287.75,-214.75 279.77,-209.43 271.01,-204.91 261.92,-201.08"/>
<polygon fill="black" stroke="black" points="263.54,-197.56 252.95,-197.19 260.99,-204.08 263.54,-197.56"/>
</g>
<!-- RecognitionByOtherCountries&#45;&gt;InternationalOrganizations -->
<g id="edge9" class="edge">
<title>RecognitionByOtherCountries&#45;&gt;InternationalOrganizations</title>
<path fill="none" stroke="black" d="M229.12,-257.6C192.82,-252.47 157.7,-244.09 146.5,-230.5 141.17,-224.04 141.08,-215.56 143.12,-207.38"/>
<polygon fill="black" stroke="black" points="146.75,-208.61 146.76,-198.01 140.15,-206.28 146.75,-208.61"/>
<text text-anchor="middle" x="215.38" y="-217.2" font-family="Times New Roman,serif" font-size="14.00">Support for Recognition</text>
</g>
<!-- RecognitionByOtherCountries&#45;&gt;TerritorialControl -->
<g id="edge3" class="edge">
<title>RecognitionByOtherCountries&#45;&gt;TerritorialControl</title>
<path fill="none" stroke="black" d="M365.81,-248.15C396.05,-234.71 438.13,-216.01 470.66,-201.56"/>
<polygon fill="black" stroke="black" points="471.7,-204.48 479.42,-197.22 468.86,-198.09 471.7,-204.48"/>
</g>
<!-- DiplomacyAndTreaties -->
<g id="node5" class="node">
<title>DiplomacyAndTreaties</title>
<polygon fill="none" stroke="black" points="536.12,-109 387.38,-109 387.38,-73 536.12,-73 536.12,-109"/>
<text text-anchor="middle" x="461.75" y="-85.58" font-family="Times New Roman,serif" font-size="14.00">Diplomacy and Treaties</text>
</g>
<!-- RecognitionByOtherCountries&#45;&gt;DiplomacyAndTreaties -->
<g id="edge8" class="edge">
<title>RecognitionByOtherCountries&#45;&gt;DiplomacyAndTreaties</title>
<path fill="none" stroke="black" d="M323.53,-248.33C320.35,-226.18 318.16,-187.35 335.5,-160.75 349.27,-139.62 371.84,-124.46 394.12,-113.85"/>
<polygon fill="black" stroke="black" points="395.27,-116.72 402.96,-109.44 392.4,-110.34 395.27,-116.72"/>
<text text-anchor="middle" x="393.88" y="-173.32" font-family="Times New Roman,serif" font-size="14.00">Diplomatic Relations</text>
</g>
<!-- MembershipInUN -->
<g id="node6" class="node">
<title>MembershipInUN</title>
<polygon fill="none" stroke="black" points="311.5,-109 0,-109 0,-73 311.5,-73 311.5,-109"/>
<text text-anchor="middle" x="155.75" y="-85.58" font-family="Times New Roman,serif" font-size="14.00">Membership in International Organizations (e.g., UN)</text>
</g>
<!-- InternationalOrganizations&#45;&gt;MembershipInUN -->
<g id="edge5" class="edge">
<title>InternationalOrganizations&#45;&gt;MembershipInUN</title>
<path fill="none" stroke="black" d="M154.96,-160.32C154.46,-154.72 154,-148.48 153.75,-142.75 153.44,-135.47 153.54,-127.59 153.81,-120.27"/>
<polygon fill="black" stroke="black" points="157.35,-120.55 154.36,-110.38 150.36,-120.19 157.35,-120.55"/>
</g>
<!-- InternationalOrganizations&#45;&gt;MembershipInUN -->
<g id="edge10" class="edge">
<title>InternationalOrganizations&#45;&gt;MembershipInUN</title>
<path fill="none" stroke="black" d="M156.55,-160.4C156.41,-148.89 156.23,-133.53 156.08,-120.28"/>
<polygon fill="black" stroke="black" points="159.57,-120.29 155.95,-110.33 152.57,-120.37 159.57,-120.29"/>
<text text-anchor="middle" x="216" y="-129.45" font-family="Times New Roman,serif" font-size="14.00">Membership Process</text>
</g>
<!-- TerritorialControl&#45;&gt;DiplomacyAndTreaties -->
<g id="edge4" class="edge">
<title>TerritorialControl&#45;&gt;DiplomacyAndTreaties</title>
<path fill="none" stroke="black" d="M508.01,-160.4C499.84,-148.31 488.78,-131.97 479.53,-118.29"/>
<polygon fill="black" stroke="black" points="481.97,-116.65 473.47,-110.33 476.17,-120.57 481.97,-116.65"/>
</g>
<!-- HistoricalPrecedents -->
<g id="node7" class="node">
<title>HistoricalPrecedents</title>
<polygon fill="none" stroke="black" points="577.75,-36 345.75,-36 345.75,0 577.75,0 577.75,-36"/>
<text text-anchor="middle" x="461.75" y="-12.57" font-family="Times New Roman,serif" font-size="14.00">Consideration of Historical Precedents</text>
</g>
<!-- DiplomacyAndTreaties&#45;&gt;HistoricalPrecedents -->
<g id="edge6" class="edge">
<title>DiplomacyAndTreaties&#45;&gt;HistoricalPrecedents</title>
<path fill="none" stroke="black" d="M461.75,-72.81C461.75,-65.05 461.75,-55.68 461.75,-46.95"/>
<polygon fill="black" stroke="black" points="465.25,-47.03 461.75,-37.03 458.25,-47.03 465.25,-47.03"/>
</g>
</g>
</svg>
