<?xml version="1.0" encoding="UTF-8" standalone="no"?>
<!DOCTYPE svg PUBLIC "-//W3C//DTD SVG 1.1//EN"
 "http://www.w3.org/Graphics/SVG/1.1/DTD/svg11.dtd">
<!-- Generated by graphviz version 8.1.0 (20230707.0739)
 -->
<!-- Title: qd1d2Robot Pages: 1 -->
<svg width="3461pt" height="188pt"
 viewBox="0.00 0.00 3460.88 188.00" xmlns="http://www.w3.org/2000/svg" xmlns:xlink="http://www.w3.org/1999/xlink">
<g id="graph0" class="graph" transform="scale(1 1) rotate(0) translate(4 184)">
<title>qd1d2Robot</title>
<polygon fill="white" stroke="none" points="-4,4 -4,-184 3456.88,-184 3456.88,4 -4,4"/>
<!-- navigation -->
<g id="node1" class="node">
<title>navigation</title>
<polygon fill="none" stroke="black" points="276.88,-108 104.88,-108 104.88,-72 276.88,-72 276.88,-108"/>
<text text-anchor="middle" x="190.88" y="-84.58" font-family="Times New Roman,serif" font-size="14.00">Navigation and Locomotion</text>
</g>
<!-- obstacleDetection -->
<g id="node13" class="node">
<title>obstacleDetection</title>
<polygon fill="none" stroke="black" points="115.75,-36 0,-36 0,0 115.75,0 115.75,-36"/>
<text text-anchor="middle" x="57.88" y="-12.57" font-family="Times New Roman,serif" font-size="14.00">obstacleDetection</text>
</g>
<!-- navigation&#45;&gt;obstacleDetection -->
<g id="edge1" class="edge">
<title>navigation&#45;&gt;obstacleDetection</title>
<path fill="none" stroke="black" d="M157.66,-71.52C140.31,-62.39 118.89,-51.11 100.35,-41.35"/>
<polygon fill="black" stroke="black" points="102.15,-37.82 91.67,-36.26 98.89,-44.02 102.15,-37.82"/>
</g>
<!-- preciseNavigation -->
<g id="node14" class="node">
<title>preciseNavigation</title>
<polygon fill="none" stroke="black" points="248.38,-36 133.38,-36 133.38,0 248.38,0 248.38,-36"/>
<text text-anchor="middle" x="190.88" y="-12.57" font-family="Times New Roman,serif" font-size="14.00">preciseNavigation</text>
</g>
<!-- navigation&#45;&gt;preciseNavigation -->
<g id="edge2" class="edge">
<title>navigation&#45;&gt;preciseNavigation</title>
<path fill="none" stroke="black" d="M190.88,-71.7C190.88,-64.24 190.88,-55.32 190.88,-46.97"/>
<polygon fill="black" stroke="black" points="194.38,-47.1 190.88,-37.1 187.38,-47.1 194.38,-47.1"/>
</g>
<!-- manipulation -->
<g id="node2" class="node">
<title>manipulation</title>
<polygon fill="none" stroke="black" points="550.38,-108 375.38,-108 375.38,-72 550.38,-72 550.38,-108"/>
<text text-anchor="middle" x="462.88" y="-84.58" font-family="Times New Roman,serif" font-size="14.00">Manipulation and Interaction</text>
</g>
<!-- graspingObjects -->
<g id="node15" class="node">
<title>graspingObjects</title>
<polygon fill="none" stroke="black" points="373.25,-36 266.5,-36 266.5,0 373.25,0 373.25,-36"/>
<text text-anchor="middle" x="319.88" y="-12.57" font-family="Times New Roman,serif" font-size="14.00">graspingObjects</text>
</g>
<!-- manipulation&#45;&gt;graspingObjects -->
<g id="edge3" class="edge">
<title>manipulation&#45;&gt;graspingObjects</title>
<path fill="none" stroke="black" d="M427.16,-71.52C408.33,-62.3 385.05,-50.9 364.99,-41.08"/>
<polygon fill="black" stroke="black" points="366.66,-37.51 356.14,-36.26 363.58,-43.8 366.66,-37.51"/>
</g>
<!-- environmentInteraction -->
<g id="node16" class="node">
<title>environmentInteraction</title>
<polygon fill="none" stroke="black" points="534.62,-36 391.12,-36 391.12,0 534.62,0 534.62,-36"/>
<text text-anchor="middle" x="462.88" y="-12.57" font-family="Times New Roman,serif" font-size="14.00">environmentInteraction</text>
</g>
<!-- manipulation&#45;&gt;environmentInteraction -->
<g id="edge4" class="edge">
<title>manipulation&#45;&gt;environmentInteraction</title>
<path fill="none" stroke="black" d="M462.88,-71.7C462.88,-64.24 462.88,-55.32 462.88,-46.97"/>
<polygon fill="black" stroke="black" points="466.38,-47.1 462.88,-37.1 459.38,-47.1 466.38,-47.1"/>
</g>
<!-- communication -->
<g id="node3" class="node">
<title>communication</title>
<polygon fill="none" stroke="black" points="907.12,-108 802.62,-108 802.62,-72 907.12,-72 907.12,-108"/>
<text text-anchor="middle" x="854.88" y="-84.58" font-family="Times New Roman,serif" font-size="14.00">Communication</text>
</g>
<!-- wirelessCommunication -->
<g id="node17" class="node">
<title>wirelessCommunication</title>
<polygon fill="none" stroke="black" points="701.25,-36 552.5,-36 552.5,0 701.25,0 701.25,-36"/>
<text text-anchor="middle" x="626.88" y="-12.57" font-family="Times New Roman,serif" font-size="14.00">wirelessCommunication</text>
</g>
<!-- communication&#45;&gt;wirelessCommunication -->
<g id="edge5" class="edge">
<title>communication&#45;&gt;wirelessCommunication</title>
<path fill="none" stroke="black" d="M802.28,-72.85C770.1,-62.97 728.62,-50.24 694.07,-39.63"/>
<polygon fill="black" stroke="black" points="695.18,-36 684.59,-36.41 693.13,-42.69 695.18,-36"/>
</g>
<!-- speechRecognition -->
<g id="node18" class="node">
<title>speechRecognition</title>
<polygon fill="none" stroke="black" points="842.12,-36 719.62,-36 719.62,0 842.12,0 842.12,-36"/>
<text text-anchor="middle" x="780.88" y="-12.57" font-family="Times New Roman,serif" font-size="14.00">speechRecognition</text>
</g>
<!-- communication&#45;&gt;speechRecognition -->
<g id="edge6" class="edge">
<title>communication&#45;&gt;speechRecognition</title>
<path fill="none" stroke="black" d="M836.58,-71.7C827.69,-63.28 816.84,-53.02 807.08,-43.79"/>
<polygon fill="black" stroke="black" points="809.88,-41.68 800.21,-37.35 805.07,-46.76 809.88,-41.68"/>
</g>
<!-- visualCommunication -->
<g id="node19" class="node">
<title>visualCommunication</title>
<polygon fill="none" stroke="black" points="995.88,-36 859.88,-36 859.88,0 995.88,0 995.88,-36"/>
<text text-anchor="middle" x="927.88" y="-12.57" font-family="Times New Roman,serif" font-size="14.00">visualCommunication</text>
</g>
<!-- communication&#45;&gt;visualCommunication -->
<g id="edge7" class="edge">
<title>communication&#45;&gt;visualCommunication</title>
<path fill="none" stroke="black" d="M872.92,-71.7C881.69,-63.28 892.4,-53.02 902.02,-43.79"/>
<polygon fill="black" stroke="black" points="903.99,-46.79 908.78,-37.35 899.14,-41.74 903.99,-46.79"/>
</g>
<!-- perception -->
<g id="node4" class="node">
<title>perception</title>
<polygon fill="none" stroke="black" points="1325.62,-108 1200.12,-108 1200.12,-72 1325.62,-72 1325.62,-108"/>
<text text-anchor="middle" x="1262.88" y="-84.58" font-family="Times New Roman,serif" font-size="14.00">Sensory Perception</text>
</g>
<!-- visualPerception -->
<g id="node20" class="node">
<title>visualPerception</title>
<polygon fill="none" stroke="black" points="1121.62,-36 1014.12,-36 1014.12,0 1121.62,0 1121.62,-36"/>
<text text-anchor="middle" x="1067.88" y="-12.57" font-family="Times New Roman,serif" font-size="14.00">visualPerception</text>
</g>
<!-- perception&#45;&gt;visualPerception -->
<g id="edge8" class="edge">
<title>perception&#45;&gt;visualPerception</title>
<path fill="none" stroke="black" d="M1214.17,-71.52C1187.55,-61.96 1154.38,-50.05 1126.36,-40"/>
<polygon fill="black" stroke="black" points="1127.89,-36.47 1117.3,-36.38 1125.52,-43.05 1127.89,-36.47"/>
</g>
<!-- auditoryPerception -->
<g id="node21" class="node">
<title>auditoryPerception</title>
<polygon fill="none" stroke="black" points="1261.75,-36 1140,-36 1140,0 1261.75,0 1261.75,-36"/>
<text text-anchor="middle" x="1200.88" y="-12.57" font-family="Times New Roman,serif" font-size="14.00">auditoryPerception</text>
</g>
<!-- perception&#45;&gt;auditoryPerception -->
<g id="edge9" class="edge">
<title>perception&#45;&gt;auditoryPerception</title>
<path fill="none" stroke="black" d="M1247.55,-71.7C1240.19,-63.39 1231.23,-53.28 1223.14,-44.14"/>
<polygon fill="black" stroke="black" points="1226.28,-42.27 1217.02,-37.1 1221.03,-46.91 1226.28,-42.27"/>
</g>
<!-- tactileSensing -->
<g id="node22" class="node">
<title>tactileSensing</title>
<polygon fill="none" stroke="black" points="1371.75,-36 1280,-36 1280,0 1371.75,0 1371.75,-36"/>
<text text-anchor="middle" x="1325.88" y="-12.57" font-family="Times New Roman,serif" font-size="14.00">tactileSensing</text>
</g>
<!-- perception&#45;&gt;tactileSensing -->
<g id="edge10" class="edge">
<title>perception&#45;&gt;tactileSensing</title>
<path fill="none" stroke="black" d="M1278.45,-71.7C1285.92,-63.39 1295.03,-53.28 1303.25,-44.14"/>
<polygon fill="black" stroke="black" points="1305.39,-46.88 1309.48,-37.1 1300.19,-42.2 1305.39,-46.88"/>
</g>
<!-- taskExecution -->
<g id="node5" class="node">
<title>taskExecution</title>
<polygon fill="none" stroke="black" points="1629.38,-108 1526.38,-108 1526.38,-72 1629.38,-72 1629.38,-108"/>
<text text-anchor="middle" x="1577.88" y="-84.58" font-family="Times New Roman,serif" font-size="14.00">Task Execution</text>
</g>
<!-- autonomousTasks -->
<g id="node23" class="node">
<title>autonomousTasks</title>
<polygon fill="none" stroke="black" points="1508.25,-36 1389.5,-36 1389.5,0 1508.25,0 1508.25,-36"/>
<text text-anchor="middle" x="1448.88" y="-12.57" font-family="Times New Roman,serif" font-size="14.00">autonomousTasks</text>
</g>
<!-- taskExecution&#45;&gt;autonomousTasks -->
<g id="edge11" class="edge">
<title>taskExecution&#45;&gt;autonomousTasks</title>
<path fill="none" stroke="black" d="M1545.66,-71.52C1528.91,-62.43 1508.24,-51.22 1490.32,-41.49"/>
<polygon fill="black" stroke="black" points="1492.14,-37.95 1481.68,-36.26 1488.8,-44.11 1492.14,-37.95"/>
</g>
<!-- userCommands -->
<g id="node24" class="node">
<title>userCommands</title>
<polygon fill="none" stroke="black" points="1629.75,-36 1526,-36 1526,0 1629.75,0 1629.75,-36"/>
<text text-anchor="middle" x="1577.88" y="-12.57" font-family="Times New Roman,serif" font-size="14.00">userCommands</text>
</g>
<!-- taskExecution&#45;&gt;userCommands -->
<g id="edge12" class="edge">
<title>taskExecution&#45;&gt;userCommands</title>
<path fill="none" stroke="black" d="M1577.88,-71.7C1577.88,-64.24 1577.88,-55.32 1577.88,-46.97"/>
<polygon fill="black" stroke="black" points="1581.38,-47.1 1577.88,-37.1 1574.38,-47.1 1581.38,-47.1"/>
</g>
<!-- adaptation -->
<g id="node6" class="node">
<title>adaptation</title>
<polygon fill="none" stroke="black" points="1945.25,-108 1784.5,-108 1784.5,-72 1945.25,-72 1945.25,-108"/>
<text text-anchor="middle" x="1864.88" y="-84.58" font-family="Times New Roman,serif" font-size="14.00">Environmental Adaptation</text>
</g>
<!-- environmentalAdaptation -->
<g id="node25" class="node">
<title>environmentalAdaptation</title>
<polygon fill="none" stroke="black" points="1802.25,-36 1647.5,-36 1647.5,0 1802.25,0 1802.25,-36"/>
<text text-anchor="middle" x="1724.88" y="-12.57" font-family="Times New Roman,serif" font-size="14.00">environmentalAdaptation</text>
</g>
<!-- adaptation&#45;&gt;environmentalAdaptation -->
<g id="edge13" class="edge">
<title>adaptation&#45;&gt;environmentalAdaptation</title>
<path fill="none" stroke="black" d="M1829.91,-71.52C1811.48,-62.3 1788.68,-50.9 1769.04,-41.08"/>
<polygon fill="black" stroke="black" points="1770.91,-37.6 1760.4,-36.26 1767.78,-43.86 1770.91,-37.6"/>
</g>
<!-- behaviorAdjustment -->
<g id="node26" class="node">
<title>behaviorAdjustment</title>
<polygon fill="none" stroke="black" points="1947.75,-36 1820,-36 1820,0 1947.75,0 1947.75,-36"/>
<text text-anchor="middle" x="1883.88" y="-12.57" font-family="Times New Roman,serif" font-size="14.00">behaviorAdjustment</text>
</g>
<!-- adaptation&#45;&gt;behaviorAdjustment -->
<g id="edge14" class="edge">
<title>adaptation&#45;&gt;behaviorAdjustment</title>
<path fill="none" stroke="black" d="M1869.57,-71.7C1871.62,-64.15 1874.07,-55.12 1876.36,-46.68"/>
<polygon fill="black" stroke="black" points="1879.99,-47.67 1879.23,-37.1 1873.24,-45.84 1879.99,-47.67"/>
</g>
<!-- learning -->
<g id="node7" class="node">
<title>learning</title>
<polygon fill="none" stroke="black" points="2116.5,-108 1963.25,-108 1963.25,-72 2116.5,-72 2116.5,-108"/>
<text text-anchor="middle" x="2039.88" y="-84.58" font-family="Times New Roman,serif" font-size="14.00">Learning and Adaptation</text>
</g>
<!-- machineLearning -->
<g id="node27" class="node">
<title>machineLearning</title>
<polygon fill="none" stroke="black" points="2075.75,-36 1966,-36 1966,0 2075.75,0 2075.75,-36"/>
<text text-anchor="middle" x="2020.88" y="-12.57" font-family="Times New Roman,serif" font-size="14.00">machineLearning</text>
</g>
<!-- learning&#45;&gt;machineLearning -->
<g id="edge15" class="edge">
<title>learning&#45;&gt;machineLearning</title>
<path fill="none" stroke="black" d="M2035.18,-71.7C2033.13,-64.15 2030.68,-55.12 2028.39,-46.68"/>
<polygon fill="black" stroke="black" points="2031.51,-45.84 2025.52,-37.1 2024.76,-47.67 2031.51,-45.84"/>
</g>
<!-- adaptiveBehavior -->
<g id="node28" class="node">
<title>adaptiveBehavior</title>
<polygon fill="none" stroke="black" points="2205.88,-36 2093.88,-36 2093.88,0 2205.88,0 2205.88,-36"/>
<text text-anchor="middle" x="2149.88" y="-12.57" font-family="Times New Roman,serif" font-size="14.00">adaptiveBehavior</text>
</g>
<!-- learning&#45;&gt;adaptiveBehavior -->
<g id="edge16" class="edge">
<title>learning&#45;&gt;adaptiveBehavior</title>
<path fill="none" stroke="black" d="M2067.35,-71.52C2081.37,-62.6 2098.6,-51.63 2113.68,-42.03"/>
<polygon fill="black" stroke="black" points="2115.19,-44.58 2121.75,-36.26 2111.44,-38.68 2115.19,-44.58"/>
</g>
<!-- security -->
<g id="node8" class="node">
<title>security</title>
<polygon fill="none" stroke="black" points="2340,-108 2183.75,-108 2183.75,-72 2340,-72 2340,-108"/>
<text text-anchor="middle" x="2261.88" y="-84.58" font-family="Times New Roman,serif" font-size="14.00">Security and Surveillance</text>
</g>
<!-- monitoring -->
<g id="node29" class="node">
<title>monitoring</title>
<polygon fill="none" stroke="black" points="2299.88,-36 2223.88,-36 2223.88,0 2299.88,0 2299.88,-36"/>
<text text-anchor="middle" x="2261.88" y="-12.57" font-family="Times New Roman,serif" font-size="14.00">monitoring</text>
</g>
<!-- security&#45;&gt;monitoring -->
<g id="edge17" class="edge">
<title>security&#45;&gt;monitoring</title>
<path fill="none" stroke="black" d="M2261.88,-71.7C2261.88,-64.24 2261.88,-55.32 2261.88,-46.97"/>
<polygon fill="black" stroke="black" points="2265.38,-47.1 2261.88,-37.1 2258.38,-47.1 2265.38,-47.1"/>
</g>
<!-- intruderDetection -->
<g id="node30" class="node">
<title>intruderDetection</title>
<polygon fill="none" stroke="black" points="2429.88,-36 2317.88,-36 2317.88,0 2429.88,0 2429.88,-36"/>
<text text-anchor="middle" x="2373.88" y="-12.57" font-family="Times New Roman,serif" font-size="14.00">intruderDetection</text>
</g>
<!-- security&#45;&gt;intruderDetection -->
<g id="edge18" class="edge">
<title>security&#45;&gt;intruderDetection</title>
<path fill="none" stroke="black" d="M2289.85,-71.52C2304.12,-62.6 2321.67,-51.63 2337.03,-42.03"/>
<polygon fill="black" stroke="black" points="2338.63,-44.53 2345.26,-36.26 2334.92,-38.59 2338.63,-44.53"/>
</g>
<!-- energyManagement -->
<g id="node9" class="node">
<title>energyManagement</title>
<polygon fill="none" stroke="black" points="2580.5,-108 2451.25,-108 2451.25,-72 2580.5,-72 2580.5,-108"/>
<text text-anchor="middle" x="2515.88" y="-84.58" font-family="Times New Roman,serif" font-size="14.00">Energy Management</text>
</g>
<!-- efficientConsumption -->
<g id="node31" class="node">
<title>efficientConsumption</title>
<polygon fill="none" stroke="black" points="2583.88,-36 2447.88,-36 2447.88,0 2583.88,0 2583.88,-36"/>
<text text-anchor="middle" x="2515.88" y="-12.57" font-family="Times New Roman,serif" font-size="14.00">efficientConsumption</text>
</g>
<!-- energyManagement&#45;&gt;efficientConsumption -->
<g id="edge19" class="edge">
<title>energyManagement&#45;&gt;efficientConsumption</title>
<path fill="none" stroke="black" d="M2515.88,-71.7C2515.88,-64.24 2515.88,-55.32 2515.88,-46.97"/>
<polygon fill="black" stroke="black" points="2519.38,-47.1 2515.88,-37.1 2512.38,-47.1 2519.38,-47.1"/>
</g>
<!-- batteryManagement -->
<g id="node32" class="node">
<title>batteryManagement</title>
<polygon fill="none" stroke="black" points="2726.25,-36 2601.5,-36 2601.5,0 2726.25,0 2726.25,-36"/>
<text text-anchor="middle" x="2663.88" y="-12.57" font-family="Times New Roman,serif" font-size="14.00">batteryManagement</text>
</g>
<!-- energyManagement&#45;&gt;batteryManagement -->
<g id="edge20" class="edge">
<title>energyManagement&#45;&gt;batteryManagement</title>
<path fill="none" stroke="black" d="M2552.84,-71.52C2572.34,-62.29 2596.46,-50.89 2617.23,-41.06"/>
<polygon fill="black" stroke="black" points="2618.58,-43.82 2626.13,-36.38 2615.59,-37.49 2618.58,-43.82"/>
</g>
<!-- diagnostic -->
<g id="node10" class="node">
<title>diagnostic</title>
<polygon fill="none" stroke="black" points="2878.25,-108 2705.5,-108 2705.5,-72 2878.25,-72 2878.25,-108"/>
<text text-anchor="middle" x="2791.88" y="-84.58" font-family="Times New Roman,serif" font-size="14.00">Diagnostic and Maintenance</text>
</g>
<!-- selfDiagnostic -->
<g id="node33" class="node">
<title>selfDiagnostic</title>
<polygon fill="none" stroke="black" points="2839.25,-36 2744.5,-36 2744.5,0 2839.25,0 2839.25,-36"/>
<text text-anchor="middle" x="2791.88" y="-12.57" font-family="Times New Roman,serif" font-size="14.00">selfDiagnostic</text>
</g>
<!-- diagnostic&#45;&gt;selfDiagnostic -->
<g id="edge21" class="edge">
<title>diagnostic&#45;&gt;selfDiagnostic</title>
<path fill="none" stroke="black" d="M2791.88,-71.7C2791.88,-64.24 2791.88,-55.32 2791.88,-46.97"/>
<polygon fill="black" stroke="black" points="2795.38,-47.1 2791.88,-37.1 2788.38,-47.1 2795.38,-47.1"/>
</g>
<!-- maintenance -->
<g id="node34" class="node">
<title>maintenance</title>
<polygon fill="none" stroke="black" points="2942,-36 2857.75,-36 2857.75,0 2942,0 2942,-36"/>
<text text-anchor="middle" x="2899.88" y="-12.57" font-family="Times New Roman,serif" font-size="14.00">maintenance</text>
</g>
<!-- diagnostic&#45;&gt;maintenance -->
<g id="edge22" class="edge">
<title>diagnostic&#45;&gt;maintenance</title>
<path fill="none" stroke="black" d="M2818.85,-71.52C2832.61,-62.6 2849.53,-51.63 2864.34,-42.03"/>
<polygon fill="black" stroke="black" points="2865.76,-44.64 2872.24,-36.26 2861.95,-38.76 2865.76,-44.64"/>
</g>
<!-- signalAnalysis -->
<g id="node11" class="node">
<title>signalAnalysis</title>
<polygon fill="none" stroke="black" points="3058.25,-108 2957.5,-108 2957.5,-72 3058.25,-72 3058.25,-108"/>
<text text-anchor="middle" x="3007.88" y="-84.58" font-family="Times New Roman,serif" font-size="14.00">Signal Analysis</text>
</g>
<!-- analyzeSignals -->
<g id="node35" class="node">
<title>analyzeSignals</title>
<polygon fill="none" stroke="black" points="3056,-36 2959.75,-36 2959.75,0 3056,0 3056,-36"/>
<text text-anchor="middle" x="3007.88" y="-12.57" font-family="Times New Roman,serif" font-size="14.00">analyzeSignals</text>
</g>
<!-- signalAnalysis&#45;&gt;analyzeSignals -->
<g id="edge23" class="edge">
<title>signalAnalysis&#45;&gt;analyzeSignals</title>
<path fill="none" stroke="black" d="M3007.88,-71.7C3007.88,-64.24 3007.88,-55.32 3007.88,-46.97"/>
<polygon fill="black" stroke="black" points="3011.38,-47.1 3007.88,-37.1 3004.38,-47.1 3011.38,-47.1"/>
</g>
<!-- signalProcessing -->
<g id="node36" class="node">
<title>signalProcessing</title>
<polygon fill="none" stroke="black" points="3183.38,-36 3074.38,-36 3074.38,0 3183.38,0 3183.38,-36"/>
<text text-anchor="middle" x="3128.88" y="-12.57" font-family="Times New Roman,serif" font-size="14.00">signalProcessing</text>
</g>
<!-- signalAnalysis&#45;&gt;signalProcessing -->
<g id="edge24" class="edge">
<title>signalAnalysis&#45;&gt;signalProcessing</title>
<path fill="none" stroke="black" d="M3038.1,-71.52C3053.66,-62.51 3072.83,-51.42 3089.53,-41.76"/>
<polygon fill="black" stroke="black" points="3091.14,-44.3 3098.04,-36.26 3087.63,-38.24 3091.14,-44.3"/>
</g>
<!-- touchScreen -->
<g id="node12" class="node">
<title>touchScreen</title>
<polygon fill="none" stroke="black" points="3359.5,-108 3194.25,-108 3194.25,-72 3359.5,-72 3359.5,-108"/>
<text text-anchor="middle" x="3276.88" y="-84.58" font-family="Times New Roman,serif" font-size="14.00">Touch Screen with Gloves</text>
</g>
<!-- gloveFriendlyInteraction -->
<g id="node37" class="node">
<title>gloveFriendlyInteraction</title>
<polygon fill="none" stroke="black" points="3352.38,-36 3201.38,-36 3201.38,0 3352.38,0 3352.38,-36"/>
<text text-anchor="middle" x="3276.88" y="-12.57" font-family="Times New Roman,serif" font-size="14.00">gloveFriendlyInteraction</text>
</g>
<!-- touchScreen&#45;&gt;gloveFriendlyInteraction -->
<g id="edge25" class="edge">
<title>touchScreen&#45;&gt;gloveFriendlyInteraction</title>
<path fill="none" stroke="black" d="M3276.88,-71.7C3276.88,-64.24 3276.88,-55.32 3276.88,-46.97"/>
<polygon fill="black" stroke="black" points="3280.38,-47.1 3276.88,-37.1 3273.38,-47.1 3280.38,-47.1"/>
</g>
<!-- userControl -->
<g id="node38" class="node">
<title>userControl</title>
<polygon fill="none" stroke="black" points="3452.88,-36 3370.88,-36 3370.88,0 3452.88,0 3452.88,-36"/>
<text text-anchor="middle" x="3411.88" y="-12.57" font-family="Times New Roman,serif" font-size="14.00">userControl</text>
</g>
<!-- touchScreen&#45;&gt;userControl -->
<g id="edge26" class="edge">
<title>touchScreen&#45;&gt;userControl</title>
<path fill="none" stroke="black" d="M3310.59,-71.52C3328.28,-62.34 3350.14,-51.01 3369.02,-41.22"/>
<polygon fill="black" stroke="black" points="3370.32,-43.97 3377.59,-36.26 3367.1,-37.76 3370.32,-43.97"/>
</g>
<!-- qd1d2Robot -->
<g id="node39" class="node">
<title>qd1d2Robot</title>
<polygon fill="none" stroke="blue" points="1997.75,-180 1906,-180 1906,-144 1997.75,-144 1997.75,-180"/>
<text text-anchor="middle" x="1951.88" y="-156.57" font-family="Times New Roman,serif" font-size="14.00">qd1d2 Robot</text>
</g>
<!-- qd1d2Robot&#45;&gt;navigation -->
<g id="edge27" class="edge">
<title>qd1d2Robot&#45;&gt;navigation</title>
<path fill="none" stroke="black" d="M1905.76,-160.53C1715.66,-158.36 974.13,-147.67 365.88,-108 340.55,-106.35 313.23,-103.98 287.86,-101.53"/>
<polygon fill="black" stroke="black" points="288.42,-97.97 278.13,-100.48 287.74,-104.93 288.42,-97.97"/>
</g>
<!-- qd1d2Robot&#45;&gt;manipulation -->
<g id="edge28" class="edge">
<title>qd1d2Robot&#45;&gt;manipulation</title>
<path fill="none" stroke="black" d="M1905.54,-158.97C1749.09,-152.11 1226.06,-128.99 793.88,-108 715.75,-104.21 627.27,-99.65 561.45,-96.21"/>
<polygon fill="black" stroke="black" points="561.85,-92.67 551.68,-95.64 561.48,-99.66 561.85,-92.67"/>
</g>
<!-- qd1d2Robot&#45;&gt;communication -->
<g id="edge29" class="edge">
<title>qd1d2Robot&#45;&gt;communication</title>
<path fill="none" stroke="black" d="M1905.79,-158.06C1732.27,-146.99 1118.1,-107.8 918.24,-95.04"/>
<polygon fill="black" stroke="black" points="918.56,-91.49 908.35,-94.35 918.11,-98.48 918.56,-91.49"/>
</g>
<!-- qd1d2Robot&#45;&gt;perception -->
<g id="edge30" class="edge">
<title>qd1d2Robot&#45;&gt;perception</title>
<path fill="none" stroke="black" d="M1905.6,-156.3C1788.41,-144.39 1479.18,-112.98 1336.69,-98.5"/>
<polygon fill="black" stroke="black" points="1337.2,-94.93 1326.9,-97.4 1336.49,-101.9 1337.2,-94.93"/>
</g>
<!-- qd1d2Robot&#45;&gt;taskExecution -->
<g id="edge31" class="edge">
<title>qd1d2Robot&#45;&gt;taskExecution</title>
<path fill="none" stroke="black" d="M1905.64,-152.35C1838.86,-139.85 1715.23,-116.71 1640.38,-102.7"/>
<polygon fill="black" stroke="black" points="1641.17,-99.1 1630.7,-100.7 1639.88,-105.98 1641.17,-99.1"/>
</g>
<!-- qd1d2Robot&#45;&gt;adaptation -->
<g id="edge32" class="edge">
<title>qd1d2Robot&#45;&gt;adaptation</title>
<path fill="none" stroke="black" d="M1930.37,-143.7C1919.7,-135.11 1906.64,-124.61 1895,-115.24"/>
<polygon fill="black" stroke="black" points="1897.42,-111.89 1887.43,-108.35 1893.03,-117.34 1897.42,-111.89"/>
</g>
<!-- qd1d2Robot&#45;&gt;learning -->
<g id="edge33" class="edge">
<title>qd1d2Robot&#45;&gt;learning</title>
<path fill="none" stroke="black" d="M1973.63,-143.7C1984.52,-135.03 1997.89,-124.4 2009.75,-114.96"/>
<polygon fill="black" stroke="black" points="2011.42,-117.31 2017.07,-108.35 2007.06,-111.83 2011.42,-117.31"/>
</g>
<!-- qd1d2Robot&#45;&gt;security -->
<g id="edge34" class="edge">
<title>qd1d2Robot&#45;&gt;security</title>
<path fill="none" stroke="black" d="M1997.95,-150.6C2044.24,-140.14 2116.72,-123.78 2174.03,-110.84"/>
<polygon fill="black" stroke="black" points="2174.56,-114.08 2183.54,-108.46 2173.02,-107.25 2174.56,-114.08"/>
</g>
<!-- qd1d2Robot&#45;&gt;energyManagement -->
<g id="edge35" class="edge">
<title>qd1d2Robot&#45;&gt;energyManagement</title>
<path fill="none" stroke="black" d="M1998.03,-155.27C2095.1,-143.22 2321.21,-115.16 2439.95,-100.42"/>
<polygon fill="black" stroke="black" points="2440.26,-103.79 2449.75,-99.08 2439.4,-96.84 2440.26,-103.79"/>
</g>
<!-- qd1d2Robot&#45;&gt;diagnostic -->
<g id="edge36" class="edge">
<title>qd1d2Robot&#45;&gt;diagnostic</title>
<path fill="none" stroke="black" d="M1997.91,-157.19C2102.89,-148.51 2368.08,-126.55 2589.88,-108 2624.05,-105.14 2661.48,-102 2694.73,-99.2"/>
<polygon fill="black" stroke="black" points="2694.7,-102.63 2704.37,-98.3 2694.12,-95.65 2694.7,-102.63"/>
</g>
<!-- qd1d2Robot&#45;&gt;signalAnalysis -->
<g id="edge37" class="edge">
<title>qd1d2Robot&#45;&gt;signalAnalysis</title>
<path fill="none" stroke="black" d="M1998.19,-159.73C2134.61,-155.72 2546.68,-141.48 2886.88,-108 2906.29,-106.09 2927.37,-103.36 2946.41,-100.64"/>
<polygon fill="black" stroke="black" points="2946.67,-104 2956.06,-99.09 2945.66,-97.07 2946.67,-104"/>
</g>
<!-- qd1d2Robot&#45;&gt;touchScreen -->
<g id="edge38" class="edge">
<title>qd1d2Robot&#45;&gt;touchScreen</title>
<path fill="none" stroke="black" d="M1998.11,-159.35C2150.75,-153.8 2652.52,-134.61 3066.88,-108 3105,-105.55 3146.97,-102.27 3183.3,-99.25"/>
<polygon fill="black" stroke="black" points="3183.21,-102.68 3192.88,-98.36 3182.63,-95.71 3183.21,-102.68"/>
</g>
</g>
</svg>
