<?xml version="1.0" encoding="UTF-8" standalone="no"?>
<!DOCTYPE svg PUBLIC "-//W3C//DTD SVG 1.1//EN"
 "http://www.w3.org/Graphics/SVG/1.1/DTD/svg11.dtd">
<!-- Generated by graphviz version 8.1.0 (20230707.0739)
 -->
<!-- Title: qd1d2 Pages: 1 -->
<svg width="596pt" height="624pt"
 viewBox="0.00 0.00 596.27 624.00" xmlns="http://www.w3.org/2000/svg" xmlns:xlink="http://www.w3.org/1999/xlink">
<g id="graph0" class="graph" transform="scale(1 1) rotate(0) translate(4 620)">
<title>qd1d2</title>
<polygon fill="white" stroke="none" points="-4,4 -4,-620 592.27,-620 592.27,4 -4,4"/>
<g id="clust1" class="cluster">
<title>cluster_super_scientific_phenomena</title>
<polygon fill="none" stroke="lightblue" points="399.02,-370 399.02,-500 580.27,-500 580.27,-370 399.02,-370"/>
<text text-anchor="middle" x="489.65" y="-482.7" font-family="Times New Roman,serif" font-size="14.00">SuperScientificPhenomena</text>
</g>
<g id="clust2" class="cluster">
<title>cluster_quantum_circuit</title>
<polygon fill="none" stroke="lightblue" points="427.59,-8 427.59,-192 551.71,-192 551.71,-8 427.59,-8"/>
<text text-anchor="middle" x="489.65" y="-174.7" font-family="Times New Roman,serif" font-size="14.00">QuantumCircuit</text>
</g>
<g id="clust3" class="cluster">
<title>cluster_program_00</title>
<polygon fill="none" stroke="lightgreen" points="8,-230 8,-608 379.02,-608 379.02,-230 8,-230"/>
<text text-anchor="middle" x="193.51" y="-590.7" font-family="Times New Roman,serif" font-size="14.00">Program 00</text>
</g>
<!-- Phenomena -->
<g id="node1" class="node">
<title>Phenomena</title>
<polygon fill="none" stroke="black" points="572.27,-468 407.02,-468 407.02,-432 572.27,-432 572.27,-468"/>
<text text-anchor="middle" x="489.65" y="-444.57" font-family="Times New Roman,serif" font-size="14.00">SuperScientificPhenomena</text>
</g>
<!-- validate -->
<g id="node2" class="node">
<title>validate</title>
<ellipse fill="none" stroke="black" cx="489.65" cy="-396" rx="44.58" ry="18"/>
<text text-anchor="middle" x="489.65" y="-390.57" font-family="Times New Roman,serif" font-size="14.00">validate()</text>
</g>
<!-- Circuit -->
<g id="node3" class="node">
<title>Circuit</title>
<polygon fill="none" stroke="black" points="541.9,-160 437.4,-160 437.4,-124 541.9,-124 541.9,-160"/>
<text text-anchor="middle" x="489.65" y="-136.57" font-family="Times New Roman,serif" font-size="14.00">QuantumCircuit</text>
</g>
<!-- fry -->
<g id="node4" class="node">
<title>fry</title>
<ellipse fill="none" stroke="black" cx="489.65" cy="-88" rx="27.11" ry="18"/>
<text text-anchor="middle" x="489.65" y="-82.58" font-family="Times New Roman,serif" font-size="14.00">fry()</text>
</g>
<!-- get_status -->
<g id="node5" class="node">
<title>get_status</title>
<ellipse fill="none" stroke="black" cx="489.65" cy="-34" rx="54.06" ry="18"/>
<text text-anchor="middle" x="489.65" y="-28.57" font-family="Times New Roman,serif" font-size="14.00">get_status()</text>
</g>
<!-- SuperScientificPhenomena -->
<g id="node6" class="node">
<title>SuperScientificPhenomena</title>
<polygon fill="none" stroke="black" points="328.24,-324.38 162.99,-324.38 162.99,-237.62 328.24,-237.62 328.24,-324.38"/>
<text text-anchor="middle" x="245.61" y="-307.07" font-family="Times New Roman,serif" font-size="14.00">SuperScientificPhenomena</text>
<text text-anchor="middle" x="245.61" y="-291.32" font-family="Times New Roman,serif" font-size="14.00">&#45; name: str</text>
<text text-anchor="middle" x="245.61" y="-275.57" font-family="Times New Roman,serif" font-size="14.00">&#45; assertion: str</text>
<text text-anchor="middle" x="245.61" y="-259.82" font-family="Times New Roman,serif" font-size="14.00">&#45;&#45;&#45;</text>
<text text-anchor="middle" x="245.61" y="-244.07" font-family="Times New Roman,serif" font-size="14.00">+ validate(): void</text>
</g>
<!-- QuantumCircuit -->
<g id="node7" class="node">
<title>QuantumCircuit</title>
<polygon fill="none" stroke="black" points="302.74,-413.5 188.49,-413.5 188.49,-342.5 302.74,-342.5 302.74,-413.5"/>
<text text-anchor="middle" x="245.61" y="-396.2" font-family="Times New Roman,serif" font-size="14.00">QuantumCircuit</text>
<text text-anchor="middle" x="245.61" y="-380.45" font-family="Times New Roman,serif" font-size="14.00">&#45;&#45;&#45;</text>
<text text-anchor="middle" x="245.61" y="-364.7" font-family="Times New Roman,serif" font-size="14.00">+ fry(): void</text>
<text text-anchor="middle" x="245.61" y="-348.95" font-family="Times New Roman,serif" font-size="14.00">+ get_status(): str</text>
</g>
<!-- super_reductionism_pyramid -->
<g id="node8" class="node">
<title>super_reductionism_pyramid</title>
<ellipse fill="none" stroke="black" cx="245.61" cy="-450" rx="125.41" ry="18"/>
<text text-anchor="middle" x="245.61" y="-444.57" font-family="Times New Roman,serif" font-size="14.00">super_reductionism_pyramid()</text>
</g>
<!-- super_reductionism_pyramid&#45;&gt;Phenomena -->
<g id="edge6" class="edge">
<title>super_reductionism_pyramid&#45;&gt;Phenomena</title>
<path fill="none" stroke="black" d="M371.17,-450C379.46,-450 387.72,-450 395.8,-450"/>
<polygon fill="black" stroke="black" points="395.7,-453.5 405.7,-450 395.7,-446.5 395.7,-453.5"/>
</g>
<!-- super_relativity -->
<g id="node9" class="node">
<title>super_relativity</title>
<ellipse fill="none" stroke="black" cx="245.61" cy="-504" rx="73.02" ry="18"/>
<text text-anchor="middle" x="245.61" y="-498.57" font-family="Times New Roman,serif" font-size="14.00">super_relativity()</text>
</g>
<!-- super_relativity&#45;&gt;Phenomena -->
<g id="edge7" class="edge">
<title>super_relativity&#45;&gt;Phenomena</title>
<path fill="none" stroke="black" d="M304.07,-492.81C327.38,-488.13 354.53,-482.51 379.02,-477 387.39,-475.12 396.09,-473.09 404.77,-471.03"/>
<polygon fill="black" stroke="black" points="405.42,-474.23 414.33,-468.49 403.79,-467.42 405.42,-474.23"/>
</g>
<!-- super_string_theory -->
<g id="node10" class="node">
<title>super_string_theory</title>
<ellipse fill="none" stroke="black" cx="245.61" cy="-558" rx="90.98" ry="18"/>
<text text-anchor="middle" x="245.61" y="-552.58" font-family="Times New Roman,serif" font-size="14.00">super_string_theory()</text>
</g>
<!-- super_string_theory&#45;&gt;Phenomena -->
<g id="edge8" class="edge">
<title>super_string_theory&#45;&gt;Phenomena</title>
<path fill="none" stroke="black" d="M322.96,-548.3C341.79,-544.34 361.56,-538.78 379.02,-531 409.81,-517.3 440.26,-493.78 461.23,-475.61"/>
<polygon fill="black" stroke="black" points="463.16,-478.69 468.33,-469.44 458.52,-473.44 463.16,-478.69"/>
</g>
<!-- main -->
<g id="node11" class="node">
<title>main</title>
<ellipse fill="none" stroke="green" cx="50.1" cy="-378" rx="34.1" ry="18"/>
<text text-anchor="middle" x="50.1" y="-372.57" font-family="Times New Roman,serif" font-size="14.00">main()</text>
</g>
<!-- main&#45;&gt;SuperScientificPhenomena -->
<g id="edge14" class="edge">
<title>main&#45;&gt;SuperScientificPhenomena</title>
<path fill="none" stroke="black" d="M71.73,-363.6C85.19,-354.52 103.34,-342.88 120.2,-334 130.64,-328.5 141.78,-323.11 152.94,-318.01"/>
<polygon fill="black" stroke="black" points="154.05,-320.9 161.73,-313.61 151.18,-314.52 154.05,-320.9"/>
</g>
<!-- main&#45;&gt;QuantumCircuit -->
<g id="edge15" class="edge">
<title>main&#45;&gt;QuantumCircuit</title>
<path fill="none" stroke="black" d="M84.36,-378C109.88,-378 145.95,-378 177.41,-378"/>
<polygon fill="black" stroke="black" points="177.32,-381.5 187.32,-378 177.32,-374.5 177.32,-381.5"/>
</g>
<!-- main&#45;&gt;super_reductionism_pyramid -->
<g id="edge1" class="edge">
<title>main&#45;&gt;super_reductionism_pyramid</title>
<path fill="none" stroke="black" d="M69.99,-393.02C83.31,-402.91 101.97,-415.39 120.2,-423 129.91,-427.06 140.32,-430.54 150.82,-433.52"/>
<polygon fill="black" stroke="black" points="149.77,-437.13 160.33,-436.33 151.58,-430.36 149.77,-437.13"/>
</g>
<!-- main&#45;&gt;super_relativity -->
<g id="edge2" class="edge">
<title>main&#45;&gt;super_relativity</title>
<path fill="none" stroke="black" d="M58.48,-395.74C68.83,-418.31 89.84,-456.78 120.2,-477 133.63,-485.95 149.52,-491.98 165.37,-496.05"/>
<polygon fill="black" stroke="black" points="164.22,-499.61 174.75,-498.44 165.8,-492.78 164.22,-499.61"/>
</g>
<!-- main&#45;&gt;super_string_theory -->
<g id="edge3" class="edge">
<title>main&#45;&gt;super_string_theory</title>
<path fill="none" stroke="black" d="M53.92,-396.32C59.93,-428.76 77.14,-496.17 120.2,-531 129.21,-538.29 139.75,-543.73 150.82,-547.76"/>
<polygon fill="black" stroke="black" points="149.5,-551.34 160.1,-551.09 151.66,-544.68 149.5,-551.34"/>
</g>
<!-- scientific_phenomena_validate -->
<g id="node12" class="node">
<title>scientific_phenomena_validate</title>
<polygon fill="none" stroke="lightblue" points="313.61,-219.75 177.61,-219.75 177.61,-180.25 313.61,-180.25 313.61,-219.75"/>
<text text-anchor="middle" x="245.61" y="-202.45" font-family="Times New Roman,serif" font-size="14.00">Scientific Phenomena</text>
<text text-anchor="middle" x="245.61" y="-186.7" font-family="Times New Roman,serif" font-size="14.00">.validate()</text>
</g>
<!-- main&#45;&gt;scientific_phenomena_validate -->
<g id="edge4" class="edge">
<title>main&#45;&gt;scientific_phenomena_validate</title>
<path fill="none" stroke="green" d="M53.93,-359.76C59.96,-327.48 77.2,-260.42 120.2,-226 133.53,-215.32 150.19,-208.72 166.93,-204.72"/>
<polygon fill="green" stroke="green" points="167.26,-208.01 176.33,-202.54 165.83,-201.16 167.26,-208.01"/>
</g>
<!-- quantum_circuit_fry -->
<g id="node13" class="node">
<title>quantum_circuit_fry</title>
<polygon fill="none" stroke="lightblue" points="299.74,-161.75 191.49,-161.75 191.49,-122.25 299.74,-122.25 299.74,-161.75"/>
<text text-anchor="middle" x="245.61" y="-144.45" font-family="Times New Roman,serif" font-size="14.00">Quantum Circuit</text>
<text text-anchor="middle" x="245.61" y="-128.7" font-family="Times New Roman,serif" font-size="14.00">.fry()</text>
</g>
<!-- main&#45;&gt;quantum_circuit_fry -->
<g id="edge5" class="edge">
<title>main&#45;&gt;quantum_circuit_fry</title>
<path fill="none" stroke="green" d="M51.54,-359.64C53.57,-319.18 64.32,-221.9 120.2,-171 136.54,-156.12 159.01,-148.42 180.37,-144.58"/>
<polygon fill="green" stroke="green" points="180.7,-147.92 190.06,-142.95 179.64,-141 180.7,-147.92"/>
</g>
<!-- scientific_phenomena_validate&#45;&gt;Phenomena -->
<g id="edge9" class="edge">
<title>scientific_phenomena_validate&#45;&gt;Phenomena</title>
<path fill="none" stroke="black" d="M313.86,-197.57C337.68,-200.32 362.61,-207.99 379.02,-226 408.66,-258.52 371.03,-389.05 399.02,-423 399.36,-423.41 399.7,-423.81 400.05,-424.2"/>
<polygon fill="black" stroke="black" points="397.4,-426.45 407.12,-430.67 402.16,-421.31 397.4,-426.45"/>
</g>
<!-- scientific_phenomena_validate&#45;&gt;validate -->
<g id="edge12" class="edge">
<title>scientific_phenomena_validate&#45;&gt;validate</title>
<path fill="none" stroke="green" d="M313.95,-202.76C336.17,-206.28 360.02,-213.11 379.02,-226 430.7,-261.05 463.47,-329.4 478.67,-367.9"/>
<polygon fill="green" stroke="green" points="475.66,-368.82 482.5,-376.92 482.2,-366.33 475.66,-368.82"/>
</g>
<!-- quantum_circuit_fry&#45;&gt;Circuit -->
<g id="edge10" class="edge">
<title>quantum_circuit_fry&#45;&gt;Circuit</title>
<path fill="none" stroke="black" d="M300.03,-142C337.23,-142 386.99,-142 426.06,-142"/>
<polygon fill="black" stroke="black" points="426.03,-145.5 436.03,-142 426.03,-138.5 426.03,-145.5"/>
</g>
<!-- quantum_circuit_get_status -->
<g id="node14" class="node">
<title>quantum_circuit_get_status</title>
<polygon fill="none" stroke="lightblue" points="299.74,-78.75 191.49,-78.75 191.49,-39.25 299.74,-39.25 299.74,-78.75"/>
<text text-anchor="middle" x="245.61" y="-61.45" font-family="Times New Roman,serif" font-size="14.00">Quantum Circuit</text>
<text text-anchor="middle" x="245.61" y="-45.7" font-family="Times New Roman,serif" font-size="14.00">.get_status()</text>
</g>
<!-- quantum_circuit_get_status&#45;&gt;Circuit -->
<g id="edge11" class="edge">
<title>quantum_circuit_get_status&#45;&gt;Circuit</title>
<path fill="none" stroke="black" d="M299.24,-79.21C328.48,-90.22 365.6,-103.84 399.02,-115 407.98,-117.99 417.49,-121.02 426.85,-123.91"/>
<polygon fill="black" stroke="black" points="425.71,-127.53 436.3,-127.1 427.76,-120.83 425.71,-127.53"/>
</g>
<!-- quantum_circuit_get_status&#45;&gt;get_status -->
<g id="edge13" class="edge">
<title>quantum_circuit_get_status&#45;&gt;get_status</title>
<path fill="none" stroke="green" d="M300.03,-53.48C337.44,-49.62 387.54,-44.44 426.71,-40.4"/>
<polygon fill="green" stroke="green" points="426.86,-43.8 436.44,-39.29 426.14,-36.84 426.86,-43.8"/>
</g>
</g>
</svg>
