<?xml version="1.0" encoding="UTF-8" standalone="no"?>
<!DOCTYPE svg PUBLIC "-//W3C//DTD SVG 1.1//EN"
 "http://www.w3.org/Graphics/SVG/1.1/DTD/svg11.dtd">
<!-- Generated by graphviz version 8.1.0 (20230707.0739)
 -->
<!-- Title: qd1d2System Pages: 1 -->
<svg width="943pt" height="332pt"
 viewBox="0.00 0.00 943.38 332.00" xmlns="http://www.w3.org/2000/svg" xmlns:xlink="http://www.w3.org/1999/xlink">
<g id="graph0" class="graph" transform="scale(1 1) rotate(0) translate(4 328)">
<title>qd1d2System</title>
<polygon fill="white" stroke="none" points="-4,4 -4,-328 939.38,-328 939.38,4 -4,4"/>
<!-- Dataset -->
<g id="node1" class="node">
<title>Dataset</title>
<polygon fill="none" stroke="black" points="437.88,-324 245.62,-324 245.62,-288 437.88,-288 437.88,-324"/>
<text text-anchor="middle" x="341.75" y="-300.95" font-family="Arial" font-size="14.00">{Dataset | Features, Labels}</text>
</g>
<!-- DecisionTree1 -->
<g id="node2" class="node">
<title>DecisionTree1</title>
<polygon fill="none" stroke="black" points="215.5,-252 0,-252 0,-216 215.5,-216 215.5,-252"/>
<text text-anchor="middle" x="107.75" y="-228.95" font-family="Arial" font-size="14.00">{Decision Tree 1 | Depth: 5 | ...}</text>
</g>
<!-- Dataset&#45;&gt;DecisionTree1 -->
<g id="edge1" class="edge">
<title>Dataset&#45;&gt;DecisionTree1</title>
<path fill="none" stroke="black" d="M283.31,-287.52C250.8,-277.79 210.16,-265.64 176.17,-255.47"/>
<polygon fill="black" stroke="black" points="177.44,-251.89 166.85,-252.38 175.43,-258.6 177.44,-251.89"/>
</g>
<!-- DecisionTree2 -->
<g id="node3" class="node">
<title>DecisionTree2</title>
<polygon fill="none" stroke="black" points="449.5,-252 234,-252 234,-216 449.5,-216 449.5,-252"/>
<text text-anchor="middle" x="341.75" y="-228.95" font-family="Arial" font-size="14.00">{Decision Tree 2 | Depth: 7 | ...}</text>
</g>
<!-- Dataset&#45;&gt;DecisionTree2 -->
<g id="edge2" class="edge">
<title>Dataset&#45;&gt;DecisionTree2</title>
<path fill="none" stroke="black" d="M341.75,-287.7C341.75,-280.24 341.75,-271.32 341.75,-262.97"/>
<polygon fill="black" stroke="black" points="345.25,-263.1 341.75,-253.1 338.25,-263.1 345.25,-263.1"/>
</g>
<!-- DecisionTree3 -->
<g id="node4" class="node">
<title>DecisionTree3</title>
<polygon fill="none" stroke="black" points="683.5,-252 468,-252 468,-216 683.5,-216 683.5,-252"/>
<text text-anchor="middle" x="575.75" y="-228.95" font-family="Arial" font-size="14.00">{Decision Tree 3 | Depth: 3 | ...}</text>
</g>
<!-- Dataset&#45;&gt;DecisionTree3 -->
<g id="edge3" class="edge">
<title>Dataset&#45;&gt;DecisionTree3</title>
<path fill="none" stroke="black" d="M400.19,-287.52C432.7,-277.79 473.34,-265.64 507.33,-255.47"/>
<polygon fill="black" stroke="black" points="508.07,-258.6 516.65,-252.38 506.06,-251.89 508.07,-258.6"/>
</g>
<!-- Ensemble -->
<g id="node5" class="node">
<title>Ensemble</title>
<polygon fill="none" stroke="black" points="500.12,-180 183.38,-180 183.38,-144 500.12,-144 500.12,-180"/>
<text text-anchor="middle" x="341.75" y="-156.95" font-family="Arial" font-size="14.00">{Ensemble | Combining Mechanism: Voting | ...}</text>
</g>
<!-- DecisionTree1&#45;&gt;Ensemble -->
<g id="edge4" class="edge">
<title>DecisionTree1&#45;&gt;Ensemble</title>
<path fill="none" stroke="black" d="M166.19,-215.52C198.7,-205.79 239.34,-193.64 273.33,-183.47"/>
<polygon fill="black" stroke="black" points="274.07,-186.6 282.65,-180.38 272.06,-179.89 274.07,-186.6"/>
</g>
<!-- DecisionTree2&#45;&gt;Ensemble -->
<g id="edge5" class="edge">
<title>DecisionTree2&#45;&gt;Ensemble</title>
<path fill="none" stroke="black" d="M341.75,-215.7C341.75,-208.24 341.75,-199.32 341.75,-190.97"/>
<polygon fill="black" stroke="black" points="345.25,-191.1 341.75,-181.1 338.25,-191.1 345.25,-191.1"/>
</g>
<!-- DecisionTree3&#45;&gt;Ensemble -->
<g id="edge6" class="edge">
<title>DecisionTree3&#45;&gt;Ensemble</title>
<path fill="none" stroke="black" d="M517.31,-215.52C484.8,-205.79 444.16,-193.64 410.17,-183.47"/>
<polygon fill="black" stroke="black" points="411.44,-179.89 400.85,-180.38 409.43,-186.6 411.44,-179.89"/>
</g>
<!-- EvolutionaryEnsembleModel -->
<g id="node7" class="node">
<title>EvolutionaryEnsembleModel</title>
<polygon fill="none" stroke="black" points="919,-108 148.5,-108 148.5,-72 919,-72 919,-108"/>
<text text-anchor="middle" x="533.75" y="-84.95" font-family="Arial" font-size="14.00">{Evolutionary Ensemble Model | Base Models: Decision Trees | Ensemble: Voting | Optimization: Genetic Algorithm | ...}</text>
</g>
<!-- Ensemble&#45;&gt;EvolutionaryEnsembleModel -->
<g id="edge7" class="edge">
<title>Ensemble&#45;&gt;EvolutionaryEnsembleModel</title>
<path fill="none" stroke="black" d="M389.7,-143.52C415.8,-134 448.29,-122.16 475.8,-112.13"/>
<polygon fill="black" stroke="black" points="476.88,-115.1 485.07,-108.38 474.48,-108.52 476.88,-115.1"/>
</g>
<!-- GeneticAlgorithm -->
<g id="node6" class="node">
<title>GeneticAlgorithm</title>
<polygon fill="none" stroke="black" points="935.38,-180 518.12,-180 518.12,-144 935.38,-144 935.38,-180"/>
<text text-anchor="middle" x="726.75" y="-156.95" font-family="Arial" font-size="14.00">{Genetic Algorithm | Population Size: 100 | Generations: 50 | ...}</text>
</g>
<!-- GeneticAlgorithm&#45;&gt;EvolutionaryEnsembleModel -->
<g id="edge8" class="edge">
<title>GeneticAlgorithm&#45;&gt;EvolutionaryEnsembleModel</title>
<path fill="none" stroke="black" d="M678.55,-143.52C652.31,-134 619.66,-122.16 592,-112.13"/>
<polygon fill="black" stroke="black" points="593.27,-108.5 582.67,-108.38 590.88,-115.08 593.27,-108.5"/>
</g>
<!-- Result -->
<g id="node8" class="node">
<title>Result</title>
<polygon fill="none" stroke="black" points="608.12,-36 459.38,-36 459.38,0 608.12,0 608.12,-36"/>
<text text-anchor="middle" x="533.75" y="-12.95" font-family="Arial" font-size="14.00">{Result | Predictions}</text>
</g>
<!-- EvolutionaryEnsembleModel&#45;&gt;Result -->
<g id="edge9" class="edge">
<title>EvolutionaryEnsembleModel&#45;&gt;Result</title>
<path fill="none" stroke="black" d="M533.75,-71.7C533.75,-64.24 533.75,-55.32 533.75,-46.97"/>
<polygon fill="black" stroke="black" points="537.25,-47.1 533.75,-37.1 530.25,-47.1 537.25,-47.1"/>
</g>
</g>
</svg>
