<?xml version="1.0" encoding="UTF-8" standalone="no"?>
<!DOCTYPE svg PUBLIC "-//W3C//DTD SVG 1.1//EN"
 "http://www.w3.org/Graphics/SVG/1.1/DTD/svg11.dtd">
<!-- Generated by graphviz version 8.1.0 (20230707.0739)
 -->
<!-- Title: FarFieldPattern Pages: 1 -->
<svg width="507pt" height="307pt"
 viewBox="0.00 0.00 506.62 307.25" xmlns="http://www.w3.org/2000/svg" xmlns:xlink="http://www.w3.org/1999/xlink">
<g id="graph0" class="graph" transform="scale(1 1) rotate(0) translate(4 303.25)">
<title>FarFieldPattern</title>
<polygon fill="white" stroke="none" points="-4,4 -4,-303.25 502.62,-303.25 502.62,4 -4,4"/>
<!-- Antenna -->
<g id="node1" class="node">
<title>Antenna</title>
<polygon fill="none" stroke="black" points="360.25,-211.5 0,-211.5 0,-175.5 360.25,-175.5 360.25,-211.5"/>
<text text-anchor="middle" x="180.12" y="-188.45" font-family="Arial" font-size="14.00">{Mesh Reflector | Diameter: 2m | Mesh Type: XYZ | ...}</text>
</g>
<!-- FarFieldPattern -->
<g id="node2" class="node">
<title>FarFieldPattern</title>
<polygon fill="none" stroke="black" points="498.62,-123.75 77.62,-123.75 77.62,-87.75 498.62,-87.75 498.62,-123.75"/>
<text text-anchor="middle" x="288.12" y="-100.7" font-family="Arial" font-size="14.00">{Far&#45;Field Pattern | Frequency: 5 GHz | Polarization: Circular | ...}</text>
</g>
<!-- Antenna&#45;&gt;FarFieldPattern -->
<g id="edge1" class="edge">
<title>Antenna&#45;&gt;FarFieldPattern</title>
<path fill="none" stroke="black" d="M201.98,-175.15C218.08,-162.36 240.18,-144.82 257.96,-130.7"/>
<polygon fill="black" stroke="black" points="259.65,-133.04 265.3,-124.08 255.29,-127.55 259.65,-133.04"/>
<text text-anchor="middle" x="271.88" y="-144.2" font-family="Times New Roman,serif" font-size="14.00">Generates</text>
</g>
<!-- ResultPlot -->
<g id="node4" class="node">
<title>ResultPlot</title>
<polygon fill="none" stroke="black" points="404.88,-36 171.38,-36 171.38,0 404.88,0 404.88,-36"/>
<text text-anchor="middle" x="288.12" y="-12.95" font-family="Arial" font-size="14.00">{Result Plot | Visualization: 3D | ...}</text>
</g>
<!-- FarFieldPattern&#45;&gt;ResultPlot -->
<g id="edge4" class="edge">
<title>FarFieldPattern&#45;&gt;ResultPlot</title>
<path fill="none" stroke="black" d="M288.12,-87.4C288.12,-75.89 288.12,-60.53 288.12,-47.28"/>
<polygon fill="black" stroke="black" points="291.63,-47.33 288.12,-37.33 284.63,-47.33 291.63,-47.33"/>
<text text-anchor="middle" x="315.88" y="-56.45" font-family="Times New Roman,serif" font-size="14.00">Visualizes</text>
</g>
<!-- SimulationTool -->
<g id="node3" class="node">
<title>SimulationTool</title>
<polygon fill="none" stroke="black" points="459.25,-299.25 117,-299.25 117,-263.25 459.25,-263.25 459.25,-299.25"/>
<text text-anchor="middle" x="288.12" y="-276.2" font-family="Arial" font-size="14.00">{Simulation Tool | Name: HFSS | Version: 2023 | ...}</text>
</g>
<!-- SimulationTool&#45;&gt;Antenna -->
<g id="edge2" class="edge">
<title>SimulationTool&#45;&gt;Antenna</title>
<path fill="none" stroke="black" d="M266.27,-262.9C250.17,-250.11 228.07,-232.57 210.29,-218.45"/>
<polygon fill="black" stroke="black" points="212.96,-215.3 202.95,-211.83 208.6,-220.79 212.96,-215.3"/>
<text text-anchor="middle" x="270.75" y="-231.95" font-family="Times New Roman,serif" font-size="14.00">Simulates</text>
</g>
<!-- SimulationTool&#45;&gt;FarFieldPattern -->
<g id="edge3" class="edge">
<title>SimulationTool&#45;&gt;FarFieldPattern</title>
<path fill="none" stroke="black" d="M319.94,-262.77C338,-250.92 358.98,-233.43 369.12,-211.5 375.85,-196.98 375.85,-190.02 369.12,-175.5 360.56,-157 344.29,-141.66 328.57,-130.2"/>
<polygon fill="black" stroke="black" points="331.16,-127.04 320.94,-124.23 327.18,-132.8 331.16,-127.04"/>
<text text-anchor="middle" x="403" y="-188.07" font-family="Times New Roman,serif" font-size="14.00">Computes</text>
</g>
</g>
</svg>
