<?xml version="1.0" encoding="UTF-8" standalone="no"?>
<!DOCTYPE svg PUBLIC "-//W3C//DTD SVG 1.1//EN"
 "http://www.w3.org/Graphics/SVG/1.1/DTD/svg11.dtd">
<!-- Generated by graphviz version 8.1.0 (20230707.0739)
 -->
<!-- Title: qd1d2 Pages: 1 -->
<svg width="1513pt" height="715pt"
 viewBox="0.00 0.00 1512.75 715.00" xmlns="http://www.w3.org/2000/svg" xmlns:xlink="http://www.w3.org/1999/xlink">
<g id="graph0" class="graph" transform="scale(1 1) rotate(0) translate(4 711)">
<title>qd1d2</title>
<polygon fill="white" stroke="none" points="-4,4 -4,-711 1508.75,-711 1508.75,4 -4,4"/>
<g id="clust1" class="cluster">
<title>cluster_super_macroscopic_level</title>
<polygon fill="none" stroke="lightblue" points="86.75,-8 86.75,-192 645.88,-192 645.88,-8 86.75,-8"/>
<text text-anchor="middle" x="366.31" y="-174.7" font-family="Times New Roman,serif" font-size="14.00">Super Macroscopic Level</text>
</g>
<g id="clust2" class="cluster">
<title>cluster_super_meso_level</title>
<polygon fill="none" stroke="lightblue" points="1091.75,-367 1091.75,-605 1496.75,-605 1496.75,-367 1091.75,-367"/>
<text text-anchor="middle" x="1294.25" y="-587.7" font-family="Times New Roman,serif" font-size="14.00">Super Meso Level</text>
</g>
<g id="clust3" class="cluster">
<title>cluster_super_microscopic_level</title>
<polygon fill="none" stroke="lightblue" points="724,-191 724,-699 1071.75,-699 1071.75,-191 724,-191"/>
<text text-anchor="middle" x="897.88" y="-681.7" font-family="Times New Roman,serif" font-size="14.00">Super Microscopic Level</text>
</g>
<g id="clust5" class="cluster">
<title>cluster_super_atomic_level</title>
<polygon fill="none" stroke="lightblue" points="8,-200 8,-564 339.25,-564 339.25,-200 8,-200"/>
<text text-anchor="middle" x="173.62" y="-546.7" font-family="Times New Roman,serif" font-size="14.00">Super Atomic Level</text>
</g>
<g id="clust4" class="cluster">
<title>cluster_super_molecular_level</title>
<polygon fill="none" stroke="lightblue" points="359.25,-218 359.25,-564 704,-564 704,-218 359.25,-218"/>
<text text-anchor="middle" x="531.62" y="-546.7" font-family="Times New Roman,serif" font-size="14.00">Super Molecular Level</text>
</g>
<!-- GlobalSystemDynamics -->
<g id="node1" class="node">
<title>GlobalSystemDynamics</title>
<polygon fill="none" stroke="black" points="252.5,-106 94.75,-106 94.75,-70 252.5,-70 252.5,-106"/>
<text text-anchor="middle" x="173.62" y="-82.58" font-family="Times New Roman,serif" font-size="14.00">Global System Dynamics</text>
</g>
<!-- EnvironmentalInfluences -->
<g id="node2" class="node">
<title>EnvironmentalInfluences</title>
<polygon fill="none" stroke="black" points="609.75,-52 453.5,-52 453.5,-16 609.75,-16 609.75,-52"/>
<text text-anchor="middle" x="531.62" y="-28.57" font-family="Times New Roman,serif" font-size="14.00">Environmental Influences</text>
</g>
<!-- GlobalSystemDynamics&#45;&gt;EnvironmentalInfluences -->
<g id="edge1" class="edge">
<title>GlobalSystemDynamics&#45;&gt;EnvironmentalInfluences</title>
<path fill="none" stroke="black" d="M252.75,-76.15C308.82,-67.64 384.44,-56.17 442.64,-47.35"/>
<polygon fill="black" stroke="black" points="442.93,-50.69 452.29,-45.73 441.88,-43.77 442.93,-50.69"/>
</g>
<!-- SocietalImpact -->
<g id="node3" class="node">
<title>SocietalImpact</title>
<polygon fill="none" stroke="black" points="637.88,-106 425.38,-106 425.38,-70 637.88,-70 637.88,-106"/>
<text text-anchor="middle" x="531.62" y="-82.58" font-family="Times New Roman,serif" font-size="14.00">Societal Impact and Consequences</text>
</g>
<!-- GlobalSystemDynamics&#45;&gt;SocietalImpact -->
<g id="edge2" class="edge">
<title>GlobalSystemDynamics&#45;&gt;SocietalImpact</title>
<path fill="none" stroke="black" d="M252.75,-88C300.05,-88 361.25,-88 414.18,-88"/>
<polygon fill="black" stroke="black" points="413.99,-91.5 423.99,-88 413.99,-84.5 413.99,-91.5"/>
</g>
<!-- HighLevelCharacteristics -->
<g id="node4" class="node">
<title>HighLevelCharacteristics</title>
<polygon fill="none" stroke="black" points="635.62,-160 427.62,-160 427.62,-124 635.62,-124 635.62,-160"/>
<text text-anchor="middle" x="531.62" y="-136.57" font-family="Times New Roman,serif" font-size="14.00">High&#45;Level System Characteristics</text>
</g>
<!-- GlobalSystemDynamics&#45;&gt;HighLevelCharacteristics -->
<g id="edge3" class="edge">
<title>GlobalSystemDynamics&#45;&gt;HighLevelCharacteristics</title>
<path fill="none" stroke="black" d="M252.75,-99.85C300.82,-107.14 363.25,-116.61 416.76,-124.73"/>
<polygon fill="black" stroke="black" points="415.92,-128.29 426.33,-126.33 416.97,-121.37 415.92,-128.29"/>
</g>
<!-- EconomicSubsystem -->
<g id="node5" class="node">
<title>EconomicSubsystem</title>
<polygon fill="none" stroke="black" points="1238,-573 1099.75,-573 1099.75,-537 1238,-537 1238,-573"/>
<text text-anchor="middle" x="1168.88" y="-549.58" font-family="Times New Roman,serif" font-size="14.00">Economic Subsystem</text>
</g>
<!-- TechnologicalInfrastructure -->
<g id="node6" class="node">
<title>TechnologicalInfrastructure</title>
<polygon fill="none" stroke="black" points="1468.12,-519 1294.62,-519 1294.62,-483 1468.12,-483 1468.12,-519"/>
<text text-anchor="middle" x="1381.38" y="-495.57" font-family="Times New Roman,serif" font-size="14.00">Technological Infrastructure</text>
</g>
<!-- EconomicSubsystem&#45;&gt;TechnologicalInfrastructure -->
<g id="edge4" class="edge">
<title>EconomicSubsystem&#45;&gt;TechnologicalInfrastructure</title>
<path fill="none" stroke="black" d="M1238.47,-537.16C1250.32,-534.09 1262.51,-530.95 1274,-528 1281.42,-526.1 1289.14,-524.12 1296.87,-522.15"/>
<polygon fill="black" stroke="black" points="1297.58,-525.33 1306.4,-519.47 1295.85,-518.55 1297.58,-525.33"/>
</g>
<!-- PoliticalStructures -->
<g id="node7" class="node">
<title>PoliticalStructures</title>
<polygon fill="none" stroke="black" points="1441.88,-465 1320.88,-465 1320.88,-429 1441.88,-429 1441.88,-465"/>
<text text-anchor="middle" x="1381.38" y="-441.57" font-family="Times New Roman,serif" font-size="14.00">Political Structures</text>
</g>
<!-- EconomicSubsystem&#45;&gt;PoliticalStructures -->
<g id="edge5" class="edge">
<title>EconomicSubsystem&#45;&gt;PoliticalStructures</title>
<path fill="none" stroke="black" d="M1188.57,-536.51C1208.23,-518.06 1240.88,-490.2 1274,-474 1285.3,-468.47 1297.84,-464 1310.24,-460.41"/>
<polygon fill="black" stroke="black" points="1310.86,-463.6 1319.59,-457.59 1309.02,-456.84 1310.86,-463.6"/>
</g>
<!-- CulturalSocialInfluences -->
<g id="node8" class="node">
<title>CulturalSocialInfluences</title>
<polygon fill="none" stroke="black" points="1472.62,-411 1290.12,-411 1290.12,-375 1472.62,-375 1472.62,-411"/>
<text text-anchor="middle" x="1381.38" y="-387.57" font-family="Times New Roman,serif" font-size="14.00">Cultural and Social Influences</text>
</g>
<!-- EconomicSubsystem&#45;&gt;CulturalSocialInfluences -->
<g id="edge6" class="edge">
<title>EconomicSubsystem&#45;&gt;CulturalSocialInfluences</title>
<path fill="none" stroke="black" d="M1178.9,-536.54C1194.24,-507.18 1228.23,-450.06 1274,-420 1276.01,-418.68 1278.07,-417.43 1280.19,-416.24"/>
<polygon fill="black" stroke="black" points="1281.41,-419.04 1288.74,-411.39 1278.24,-412.79 1281.41,-419.04"/>
</g>
<!-- InteractionsAmongGlobalSystems -->
<g id="node9" class="node">
<title>InteractionsAmongGlobalSystems</title>
<polygon fill="none" stroke="black" points="1488.75,-573 1274,-573 1274,-537 1488.75,-537 1488.75,-573"/>
<text text-anchor="middle" x="1381.38" y="-549.58" font-family="Times New Roman,serif" font-size="14.00">Interactions among Global Systems</text>
</g>
<!-- EconomicSubsystem&#45;&gt;InteractionsAmongGlobalSystems -->
<g id="edge7" class="edge">
<title>EconomicSubsystem&#45;&gt;InteractionsAmongGlobalSystems</title>
<path fill="none" stroke="black" d="M1238.22,-555C1246.24,-555 1254.58,-555 1263.03,-555"/>
<polygon fill="black" stroke="black" points="1262.78,-558.5 1272.78,-555 1262.78,-551.5 1262.78,-558.5"/>
</g>
<!-- EconomicSubsystemMarket -->
<g id="node10" class="node">
<title>EconomicSubsystemMarket</title>
<polygon fill="none" stroke="black" points="1022.12,-613 773.62,-613 773.62,-577 1022.12,-577 1022.12,-613"/>
<text text-anchor="middle" x="897.88" y="-589.58" font-family="Times New Roman,serif" font-size="14.00">Economic Subsystem &#45; Market Dynamics</text>
</g>
<!-- EconomicSubsystemMarket&#45;&gt;EconomicSubsystem -->
<g id="edge8" class="edge">
<title>EconomicSubsystemMarket&#45;&gt;EconomicSubsystem</title>
<path fill="none" stroke="black" d="M1022.35,-576.64C1044.93,-573.28 1067.93,-569.86 1088.78,-566.76"/>
<polygon fill="black" stroke="black" points="1089.1,-570.1 1098.47,-565.17 1088.07,-563.18 1089.1,-570.1"/>
</g>
<!-- EconomicSubsystemLabor -->
<g id="node11" class="node">
<title>EconomicSubsystemLabor</title>
<polygon fill="none" stroke="black" points="1020.25,-667 775.5,-667 775.5,-631 1020.25,-631 1020.25,-667"/>
<text text-anchor="middle" x="897.88" y="-643.58" font-family="Times New Roman,serif" font-size="14.00">Economic Subsystem &#45; Labor Structures</text>
</g>
<!-- EconomicSubsystemLabor&#45;&gt;EconomicSubsystem -->
<g id="edge9" class="edge">
<title>EconomicSubsystemLabor&#45;&gt;EconomicSubsystem</title>
<path fill="none" stroke="black" d="M1020.73,-637.12C1038.2,-633.37 1055.68,-628.45 1071.75,-622 1096.41,-612.1 1120.93,-594.86 1139.03,-580.35"/>
<polygon fill="black" stroke="black" points="1140.88,-582.54 1146.38,-573.48 1136.43,-577.13 1140.88,-582.54"/>
</g>
<!-- TechnologicalInfrastructureInfo -->
<g id="node12" class="node">
<title>TechnologicalInfrastructureInfo</title>
<polygon fill="none" stroke="black" points="1048.75,-559 747,-559 747,-523 1048.75,-523 1048.75,-559"/>
<text text-anchor="middle" x="897.88" y="-535.58" font-family="Times New Roman,serif" font-size="14.00">Technological Infrastructure &#45; Information Systems</text>
</g>
<!-- TechnologicalInfrastructureInfo&#45;&gt;TechnologicalInfrastructure -->
<g id="edge10" class="edge">
<title>TechnologicalInfrastructureInfo&#45;&gt;TechnologicalInfrastructure</title>
<path fill="none" stroke="black" d="M1049.24,-528.51C1125.72,-522.15 1216.44,-514.62 1283.57,-509.04"/>
<polygon fill="black" stroke="black" points="1283.46,-512.48 1293.13,-508.16 1282.88,-505.5 1283.46,-512.48"/>
</g>
<!-- TechnologicalInfrastructureComm -->
<g id="node13" class="node">
<title>TechnologicalInfrastructureComm</title>
<polygon fill="none" stroke="black" points="1063.75,-505 732,-505 732,-469 1063.75,-469 1063.75,-505"/>
<text text-anchor="middle" x="897.88" y="-481.57" font-family="Times New Roman,serif" font-size="14.00">Technological Infrastructure &#45; Communication Networks</text>
</g>
<!-- TechnologicalInfrastructureComm&#45;&gt;TechnologicalInfrastructure -->
<g id="edge11" class="edge">
<title>TechnologicalInfrastructureComm&#45;&gt;TechnologicalInfrastructure</title>
<path fill="none" stroke="black" d="M1064.05,-490.28C1119.36,-491.55 1181.35,-493.14 1238,-495 1252.62,-495.48 1268.09,-496.06 1283.23,-496.67"/>
<polygon fill="black" stroke="black" points="1283.04,-500.2 1293.18,-497.11 1283.33,-493.21 1283.04,-500.2"/>
</g>
<!-- PoliticalStructuresGov -->
<g id="node14" class="node">
<title>PoliticalStructuresGov</title>
<polygon fill="none" stroke="black" points="1022.5,-451 773.25,-451 773.25,-415 1022.5,-415 1022.5,-451"/>
<text text-anchor="middle" x="897.88" y="-427.57" font-family="Times New Roman,serif" font-size="14.00">Political Structures &#45; Government Policies</text>
</g>
<!-- PoliticalStructuresGov&#45;&gt;PoliticalStructures -->
<g id="edge12" class="edge">
<title>PoliticalStructuresGov&#45;&gt;PoliticalStructures</title>
<path fill="none" stroke="black" d="M1022.87,-436.61C1113.97,-439.25 1234.49,-442.76 1309.71,-444.95"/>
<polygon fill="black" stroke="black" points="1309.38,-448.47 1319.48,-445.26 1309.58,-441.47 1309.38,-448.47"/>
</g>
<!-- PoliticalStructuresIntl -->
<g id="node15" class="node">
<title>PoliticalStructuresIntl</title>
<polygon fill="none" stroke="black" points="1026.25,-397 769.5,-397 769.5,-361 1026.25,-361 1026.25,-397"/>
<text text-anchor="middle" x="897.88" y="-373.57" font-family="Times New Roman,serif" font-size="14.00">Political Structures &#45; International Relations</text>
</g>
<!-- PoliticalStructuresIntl&#45;&gt;PoliticalStructures -->
<g id="edge13" class="edge">
<title>PoliticalStructuresIntl&#45;&gt;PoliticalStructures</title>
<path fill="none" stroke="black" d="M1026.64,-397.04C1117.33,-409.85 1235.67,-426.56 1309.86,-437.04"/>
<polygon fill="black" stroke="black" points="1309.08,-440.61 1319.47,-438.54 1310.06,-433.68 1309.08,-440.61"/>
</g>
<!-- SocialInfluencesCultural -->
<g id="node16" class="node">
<title>SocialInfluencesCultural</title>
<polygon fill="none" stroke="black" points="1002.25,-343 793.5,-343 793.5,-307 1002.25,-307 1002.25,-343"/>
<text text-anchor="middle" x="897.88" y="-319.57" font-family="Times New Roman,serif" font-size="14.00">Social Influences &#45; Cultural Norms</text>
</g>
<!-- SocialInfluencesCultural&#45;&gt;CulturalSocialInfluences -->
<g id="edge14" class="edge">
<title>SocialInfluencesCultural&#45;&gt;CulturalSocialInfluences</title>
<path fill="none" stroke="black" d="M1002.46,-339.63C1084.33,-351.19 1197.96,-367.24 1279.19,-378.71"/>
<polygon fill="black" stroke="black" points="1278.54,-382.29 1288.93,-380.23 1279.52,-375.36 1278.54,-382.29"/>
</g>
<!-- SocialInfluencesDemographic -->
<g id="node17" class="node">
<title>SocialInfluencesDemographic</title>
<polygon fill="none" stroke="black" points="1020.25,-289 775.5,-289 775.5,-253 1020.25,-253 1020.25,-289"/>
<text text-anchor="middle" x="897.88" y="-265.57" font-family="Times New Roman,serif" font-size="14.00">Social Influences &#45; Demographic Factors</text>
</g>
<!-- SocialInfluencesDemographic&#45;&gt;CulturalSocialInfluences -->
<g id="edge15" class="edge">
<title>SocialInfluencesDemographic&#45;&gt;CulturalSocialInfluences</title>
<path fill="none" stroke="black" d="M1020.64,-287.87C1037.87,-290.88 1055.31,-294.26 1071.75,-298 1146.99,-315.1 1164.27,-325.26 1238,-348 1262.28,-355.49 1288.83,-363.84 1312.36,-371.29"/>
<polygon fill="black" stroke="black" points="1311,-374.85 1321.59,-374.53 1313.12,-368.17 1311,-374.85"/>
</g>
<!-- InteractionsLocalizedMicro -->
<g id="node18" class="node">
<title>InteractionsLocalizedMicro</title>
<polygon fill="none" stroke="black" points="1012.75,-235 783,-235 783,-199 1012.75,-199 1012.75,-235"/>
<text text-anchor="middle" x="897.88" y="-211.57" font-family="Times New Roman,serif" font-size="14.00">Interactions at Localized Micro Levels</text>
</g>
<!-- InteractionsLocalizedMicro&#45;&gt;CulturalSocialInfluences -->
<g id="edge16" class="edge">
<title>InteractionsLocalizedMicro&#45;&gt;CulturalSocialInfluences</title>
<path fill="none" stroke="black" d="M1013,-231.61C1080.84,-243.33 1167.18,-263.68 1238,-298 1278.54,-317.64 1320.99,-347.34 1348.88,-368.29"/>
<polygon fill="black" stroke="black" points="1346.32,-371.5 1356.4,-374.76 1350.55,-365.92 1346.32,-371.5"/>
</g>
<!-- MarketDynamicsSpecific -->
<g id="node19" class="node">
<title>MarketDynamicsSpecific</title>
<polygon fill="none" stroke="black" points="694.12,-532 369.12,-532 369.12,-496 694.12,-496 694.12,-532"/>
<text text-anchor="middle" x="531.62" y="-508.57" font-family="Times New Roman,serif" font-size="14.00">Market Dynamics &#45; Specific Market Forces and Trends</text>
</g>
<!-- MarketDynamicsSpecific&#45;&gt;EconomicSubsystemMarket -->
<g id="edge17" class="edge">
<title>MarketDynamicsSpecific&#45;&gt;EconomicSubsystemMarket</title>
<path fill="none" stroke="black" d="M590.8,-532.38C628.49,-543.8 678.81,-558.13 724,-568 736.53,-570.74 749.63,-573.3 762.76,-575.68"/>
<polygon fill="black" stroke="black" points="761.84,-579.25 772.3,-577.55 763.06,-572.36 761.84,-579.25"/>
</g>
<!-- InfoSystemsIndividual -->
<g id="node20" class="node">
<title>InfoSystemsIndividual</title>
<polygon fill="none" stroke="black" points="696,-478 367.25,-478 367.25,-442 696,-442 696,-478"/>
<text text-anchor="middle" x="531.62" y="-454.57" font-family="Times New Roman,serif" font-size="14.00">Information Systems &#45; Individual Software Components</text>
</g>
<!-- InfoSystemsIndividual&#45;&gt;TechnologicalInfrastructureInfo -->
<g id="edge18" class="edge">
<title>InfoSystemsIndividual&#45;&gt;TechnologicalInfrastructureInfo</title>
<path fill="none" stroke="black" d="M687.47,-478.39C693.19,-480.94 698.72,-483.8 704,-487 716.77,-494.74 711.22,-506.27 724,-514 728.13,-516.5 732.42,-518.79 736.82,-520.9"/>
<polygon fill="black" stroke="black" points="735.08,-524.39 745.64,-525.2 737.89,-517.98 735.08,-524.39"/>
</g>
<!-- GovPoliciesSpecific -->
<g id="node21" class="node">
<title>GovPoliciesSpecific</title>
<polygon fill="none" stroke="black" points="680.62,-424 382.62,-424 382.62,-388 680.62,-388 680.62,-424"/>
<text text-anchor="middle" x="531.62" y="-400.57" font-family="Times New Roman,serif" font-size="14.00">Government Policies &#45; Specific Policy Instruments</text>
</g>
<!-- GovPoliciesSpecific&#45;&gt;PoliticalStructuresGov -->
<g id="edge19" class="edge">
<title>GovPoliciesSpecific&#45;&gt;PoliticalStructuresGov</title>
<path fill="none" stroke="black" d="M681.04,-417C707.86,-418.99 735.68,-421.05 762.08,-423.01"/>
<polygon fill="black" stroke="black" points="761.68,-426.56 771.91,-423.81 762.19,-419.58 761.68,-426.56"/>
</g>
<!-- CulturalNormsSpecific -->
<g id="node22" class="node">
<title>CulturalNormsSpecific</title>
<polygon fill="none" stroke="black" points="662.25,-370 401,-370 401,-334 662.25,-334 662.25,-370"/>
<text text-anchor="middle" x="531.62" y="-346.57" font-family="Times New Roman,serif" font-size="14.00">Cultural Norms &#45; Specific Cultural Practices</text>
</g>
<!-- CulturalNormsSpecific&#45;&gt;SocialInfluencesCultural -->
<g id="edge20" class="edge">
<title>CulturalNormsSpecific&#45;&gt;SocialInfluencesCultural</title>
<path fill="none" stroke="black" d="M662.58,-342.37C701.8,-339.46 744.55,-336.29 782.66,-333.47"/>
<polygon fill="black" stroke="black" points="782.56,-336.91 792.28,-332.68 782.05,-329.93 782.56,-336.91"/>
</g>
<!-- DemographicSpecific -->
<g id="node23" class="node">
<title>DemographicSpecific</title>
<polygon fill="none" stroke="black" points="666,-316 397.25,-316 397.25,-280 666,-280 666,-316"/>
<text text-anchor="middle" x="531.62" y="-292.57" font-family="Times New Roman,serif" font-size="14.00">Demographic Factors &#45; Population Dynamics</text>
</g>
<!-- DemographicSpecific&#45;&gt;SocialInfluencesDemographic -->
<g id="edge21" class="edge">
<title>DemographicSpecific&#45;&gt;SocialInfluencesDemographic</title>
<path fill="none" stroke="black" d="M666.45,-288.08C698.45,-285.71 732.59,-283.18 764.52,-280.81"/>
<polygon fill="black" stroke="black" points="764.55,-284.24 774.26,-280.01 764.03,-277.26 764.55,-284.24"/>
</g>
<!-- InteractionsMolecularComponents -->
<g id="node24" class="node">
<title>InteractionsMolecularComponents</title>
<polygon fill="none" stroke="black" points="660.38,-262 402.88,-262 402.88,-226 660.38,-226 660.38,-262"/>
<text text-anchor="middle" x="531.62" y="-238.57" font-family="Times New Roman,serif" font-size="14.00">Interactions among Molecular Components</text>
</g>
<!-- InteractionsMolecularComponents&#45;&gt;InteractionsLocalizedMicro -->
<g id="edge22" class="edge">
<title>InteractionsMolecularComponents&#45;&gt;InteractionsLocalizedMicro</title>
<path fill="none" stroke="black" d="M660.79,-234.5C696.97,-231.82 736.27,-228.9 772.24,-226.24"/>
<polygon fill="black" stroke="black" points="772.08,-229.69 781.79,-225.46 771.56,-222.71 772.08,-229.69"/>
</g>
<!-- EconomicIndicatorsMetrics -->
<g id="node25" class="node">
<title>EconomicIndicatorsMetrics</title>
<polygon fill="none" stroke="black" points="299.75,-532 47.5,-532 47.5,-496 299.75,-496 299.75,-532"/>
<text text-anchor="middle" x="173.62" y="-508.57" font-family="Times New Roman,serif" font-size="14.00">Specific Economic Indicators and Metrics</text>
</g>
<!-- EconomicIndicatorsMetrics&#45;&gt;MarketDynamicsSpecific -->
<g id="edge23" class="edge">
<title>EconomicIndicatorsMetrics&#45;&gt;MarketDynamicsSpecific</title>
<path fill="none" stroke="black" d="M300.14,-514C318.89,-514 338.49,-514 358,-514"/>
<polygon fill="black" stroke="black" points="357.83,-517.5 367.83,-514 357.83,-510.5 357.83,-517.5"/>
</g>
<!-- InfoSystemsSourceCode -->
<g id="node26" class="node">
<title>InfoSystemsSourceCode</title>
<polygon fill="none" stroke="black" points="331.25,-478 16,-478 16,-442 331.25,-442 331.25,-478"/>
<text text-anchor="middle" x="173.62" y="-454.57" font-family="Times New Roman,serif" font-size="14.00">Source Code and Algorithms of Information Systems</text>
</g>
<!-- InfoSystemsSourceCode&#45;&gt;InfoSystemsIndividual -->
<g id="edge24" class="edge">
<title>InfoSystemsSourceCode&#45;&gt;InfoSystemsIndividual</title>
<path fill="none" stroke="black" d="M331.55,-460C339.71,-460 347.94,-460 356.16,-460"/>
<polygon fill="black" stroke="black" points="355.94,-463.5 365.94,-460 355.94,-456.5 355.94,-463.5"/>
</g>
<!-- LegislativeTextsFrameworks -->
<g id="node27" class="node">
<title>LegislativeTextsFrameworks</title>
<polygon fill="none" stroke="black" points="294.12,-424 53.12,-424 53.12,-388 294.12,-388 294.12,-424"/>
<text text-anchor="middle" x="173.62" y="-400.57" font-family="Times New Roman,serif" font-size="14.00">Legislative Texts and Legal Frameworks</text>
</g>
<!-- LegislativeTextsFrameworks&#45;&gt;GovPoliciesSpecific -->
<g id="edge25" class="edge">
<title>LegislativeTextsFrameworks&#45;&gt;GovPoliciesSpecific</title>
<path fill="none" stroke="black" d="M294.16,-406C319.01,-406 345.58,-406 371.6,-406"/>
<polygon fill="black" stroke="black" points="371.32,-409.5 381.32,-406 371.32,-402.5 371.32,-409.5"/>
</g>
<!-- CulturalPracticesTraditions -->
<g id="node28" class="node">
<title>CulturalPracticesTraditions</title>
<polygon fill="none" stroke="black" points="297.5,-370 49.75,-370 49.75,-334 297.5,-334 297.5,-370"/>
<text text-anchor="middle" x="173.62" y="-346.57" font-family="Times New Roman,serif" font-size="14.00">Detailed Cultural Practices and Traditions</text>
</g>
<!-- CulturalPracticesTraditions&#45;&gt;CulturalNormsSpecific -->
<g id="edge26" class="edge">
<title>CulturalPracticesTraditions&#45;&gt;CulturalNormsSpecific</title>
<path fill="none" stroke="black" d="M297.64,-352C327.39,-352 359.42,-352 389.92,-352"/>
<polygon fill="black" stroke="black" points="389.63,-355.5 399.63,-352 389.63,-348.5 389.63,-355.5"/>
</g>
<!-- GeneticBiologicalFactors -->
<g id="node29" class="node">
<title>GeneticBiologicalFactors</title>
<polygon fill="none" stroke="black" points="328.62,-316 18.62,-316 18.62,-280 328.62,-280 328.62,-316"/>
<text text-anchor="middle" x="173.62" y="-292.57" font-family="Times New Roman,serif" font-size="14.00">Genetic and Biological Factors within Demographics</text>
</g>
<!-- GeneticBiologicalFactors&#45;&gt;DemographicSpecific -->
<g id="edge27" class="edge">
<title>GeneticBiologicalFactors&#45;&gt;DemographicSpecific</title>
<path fill="none" stroke="black" d="M328.96,-298C347.88,-298 367.15,-298 385.92,-298"/>
<polygon fill="black" stroke="black" points="385.9,-301.5 395.9,-298 385.9,-294.5 385.9,-301.5"/>
</g>
<!-- IndividualInteractionsInfluence -->
<g id="node30" class="node">
<title>IndividualInteractionsInfluence</title>
<polygon fill="none" stroke="black" points="319.62,-244 27.62,-244 27.62,-208 319.62,-208 319.62,-244"/>
<text text-anchor="middle" x="173.62" y="-220.57" font-family="Times New Roman,serif" font-size="14.00">Individual Interactions and Influence Mechanisms</text>
</g>
<!-- IndividualInteractionsInfluence&#45;&gt;IndividualInteractionsInfluence -->
<g id="edge28" class="edge">
<title>IndividualInteractionsInfluence&#45;&gt;IndividualInteractionsInfluence</title>
<path fill="none" stroke="black" d="M108.86,-244.15C98.9,-253.54 120.48,-262 173.62,-262 205.59,-262 226.14,-258.94 235.27,-254.45"/>
<polygon fill="black" stroke="black" points="238.84,-255.74 238.39,-245.15 232.14,-253.71 238.84,-255.74"/>
</g>
</g>
</svg>
