<?xml version="1.0" encoding="UTF-8" standalone="no"?>
<!DOCTYPE svg PUBLIC "-//W3C//DTD SVG 1.1//EN"
 "http://www.w3.org/Graphics/SVG/1.1/DTD/svg11.dtd">
<!-- Generated by graphviz version 8.1.0 (20230707.0739)
 -->
<!-- Title: G Pages: 1 -->
<svg width="2504pt" height="188pt"
 viewBox="0.00 0.00 2504.02 188.00" xmlns="http://www.w3.org/2000/svg" xmlns:xlink="http://www.w3.org/1999/xlink">
<g id="graph0" class="graph" transform="scale(1 1) rotate(0) translate(4 184)">
<title>G</title>
<polygon fill="white" stroke="none" points="-4,4 -4,-184 2500.02,-184 2500.02,4 -4,4"/>
<!-- class -->
<g id="node1" class="node">
<title>class</title>
<ellipse fill="none" stroke="black" cx="381.56" cy="-162" rx="29.11" ry="18"/>
<text text-anchor="middle" x="381.56" y="-156.57" font-family="Times New Roman,serif" font-size="14.00">class</text>
</g>
<!-- Collection -->
<g id="node2" class="node">
<title>Collection</title>
<ellipse fill="none" stroke="black" cx="185.56" cy="-90" rx="48.57" ry="18"/>
<text text-anchor="middle" x="185.56" y="-84.58" font-family="Times New Roman,serif" font-size="14.00">Collection</text>
</g>
<!-- Nonna_flat -->
<g id="node26" class="node">
<title>Nonna_flat</title>
<ellipse fill="none" stroke="black" cx="51.56" cy="-18" rx="51.56" ry="18"/>
<text text-anchor="middle" x="51.56" y="-12.57" font-family="Times New Roman,serif" font-size="14.00">Nonna_flat</text>
</g>
<!-- Collection&#45;&gt;Nonna_flat -->
<g id="edge7" class="edge">
<title>Collection&#45;&gt;Nonna_flat</title>
<path fill="none" stroke="black" d="M158.12,-74.67C138.2,-64.26 111.01,-50.06 89.09,-38.6"/>
<polygon fill="black" stroke="black" points="90.91,-35.08 80.43,-33.56 87.67,-41.29 90.91,-35.08"/>
</g>
<!-- energy_stream -->
<g id="node27" class="node">
<title>energy_stream</title>
<ellipse fill="none" stroke="black" cx="185.56" cy="-18" rx="64.54" ry="18"/>
<text text-anchor="middle" x="185.56" y="-12.57" font-family="Times New Roman,serif" font-size="14.00">energy_stream</text>
</g>
<!-- Collection&#45;&gt;energy_stream -->
<g id="edge8" class="edge">
<title>Collection&#45;&gt;energy_stream</title>
<path fill="none" stroke="black" d="M185.56,-71.7C185.56,-64.24 185.56,-55.32 185.56,-46.97"/>
<polygon fill="black" stroke="black" points="189.06,-47.1 185.56,-37.1 182.06,-47.1 189.06,-47.1"/>
</g>
<!-- collectible -->
<g id="node3" class="node">
<title>collectible</title>
<ellipse fill="none" stroke="black" cx="634.56" cy="-162" rx="48.07" ry="18"/>
<text text-anchor="middle" x="634.56" y="-156.57" font-family="Times New Roman,serif" font-size="14.00">collectible</text>
</g>
<!-- Func -->
<g id="node4" class="node">
<title>Func</title>
<ellipse fill="none" stroke="black" cx="458.56" cy="-162" rx="29.61" ry="18"/>
<text text-anchor="middle" x="458.56" y="-156.57" font-family="Times New Roman,serif" font-size="14.00">Func</text>
</g>
<!-- Func&#45;&gt;Collection -->
<g id="edge1" class="edge">
<title>Func&#45;&gt;Collection</title>
<path fill="none" stroke="black" d="M435.76,-150.16C430.51,-147.92 424.91,-145.72 419.56,-144 347.29,-120.72 326.48,-125.34 252.56,-108 246.87,-106.66 240.91,-105.22 235,-103.76"/>
<polygon fill="black" stroke="black" points="236.03,-100.16 225.48,-101.13 234.33,-106.95 236.03,-100.16"/>
</g>
<!-- Anatomy -->
<g id="node14" class="node">
<title>Anatomy</title>
<ellipse fill="none" stroke="black" cx="306.56" cy="-90" rx="44.58" ry="18"/>
<text text-anchor="middle" x="306.56" y="-84.58" font-family="Times New Roman,serif" font-size="14.00">Anatomy</text>
</g>
<!-- Func&#45;&gt;Anatomy -->
<g id="edge2" class="edge">
<title>Func&#45;&gt;Anatomy</title>
<path fill="none" stroke="black" d="M435.48,-150.37C411.41,-139.28 373.28,-121.72 344.72,-108.57"/>
<polygon fill="black" stroke="black" points="346.61,-105.13 336.06,-104.12 343.68,-111.48 346.61,-105.13"/>
</g>
<!-- Tensor -->
<g id="node16" class="node">
<title>Tensor</title>
<ellipse fill="none" stroke="black" cx="600.56" cy="-90" rx="37.09" ry="18"/>
<text text-anchor="middle" x="600.56" y="-84.58" font-family="Times New Roman,serif" font-size="14.00">Tensor</text>
</g>
<!-- Func&#45;&gt;Tensor -->
<g id="edge3" class="edge">
<title>Func&#45;&gt;Tensor</title>
<path fill="none" stroke="black" d="M481.06,-149.91C503.81,-138.7 539.27,-121.21 565.67,-108.2"/>
<polygon fill="black" stroke="black" points="566.87,-111.02 574.29,-103.46 563.78,-104.74 566.87,-111.02"/>
</g>
<!-- Palm -->
<g id="node18" class="node">
<title>Palm</title>
<ellipse fill="none" stroke="black" cx="885.56" cy="-90" rx="29.11" ry="18"/>
<text text-anchor="middle" x="885.56" y="-84.58" font-family="Times New Roman,serif" font-size="14.00">Palm</text>
</g>
<!-- Func&#45;&gt;Palm -->
<g id="edge4" class="edge">
<title>Func&#45;&gt;Palm</title>
<path fill="none" stroke="black" d="M486.91,-156.35C561.25,-144.17 761.9,-111.27 846.79,-97.36"/>
<polygon fill="black" stroke="black" points="847.2,-100.67 856.5,-95.6 846.07,-93.76 847.2,-100.67"/>
</g>
<!-- Wormhole -->
<g id="node20" class="node">
<title>Wormhole</title>
<ellipse fill="none" stroke="black" cx="1066.56" cy="-90" rx="50.07" ry="18"/>
<text text-anchor="middle" x="1066.56" y="-84.58" font-family="Times New Roman,serif" font-size="14.00">Wormhole</text>
</g>
<!-- Func&#45;&gt;Wormhole -->
<g id="edge5" class="edge">
<title>Func&#45;&gt;Wormhole</title>
<path fill="none" stroke="black" d="M486.89,-156.64C510.98,-153.01 546.49,-147.83 577.56,-144 731.01,-125.06 769.91,-125.13 923.56,-108 951.61,-104.87 982.72,-101.2 1008.75,-98.07"/>
<polygon fill="black" stroke="black" points="1009.06,-101.44 1018.57,-96.76 1008.22,-94.49 1009.06,-101.44"/>
</g>
<!-- BoundaryThirdMega -->
<g id="node22" class="node">
<title>BoundaryThirdMega</title>
<ellipse fill="none" stroke="black" cx="457.56" cy="-90" rx="87.99" ry="18"/>
<text text-anchor="middle" x="457.56" y="-84.58" font-family="Times New Roman,serif" font-size="14.00">BoundaryThirdMega</text>
</g>
<!-- Func&#45;&gt;BoundaryThirdMega -->
<g id="edge6" class="edge">
<title>Func&#45;&gt;BoundaryThirdMega</title>
<path fill="none" stroke="black" d="M458.32,-143.7C458.21,-136.24 458.08,-127.32 457.96,-118.97"/>
<polygon fill="black" stroke="black" points="461.45,-119.05 457.81,-109.1 454.45,-119.15 461.45,-119.05"/>
</g>
<!-- method -->
<g id="node5" class="node">
<title>method</title>
<ellipse fill="none" stroke="black" cx="779.56" cy="-162" rx="38.59" ry="18"/>
<text text-anchor="middle" x="779.56" y="-156.57" font-family="Times New Roman,serif" font-size="14.00">method</text>
</g>
<!-- mantle -->
<g id="node6" class="node">
<title>mantle</title>
<ellipse fill="none" stroke="black" cx="890.56" cy="-162" rx="34.6" ry="18"/>
<text text-anchor="middle" x="890.56" y="-156.57" font-family="Times New Roman,serif" font-size="14.00">mantle</text>
</g>
<!-- ceta -->
<g id="node7" class="node">
<title>ceta</title>
<ellipse fill="none" stroke="black" cx="980.56" cy="-162" rx="27" ry="18"/>
<text text-anchor="middle" x="980.56" y="-156.57" font-family="Times New Roman,serif" font-size="14.00">ceta</text>
</g>
<!-- hover -->
<g id="node8" class="node">
<title>hover</title>
<ellipse fill="none" stroke="black" cx="1062.56" cy="-162" rx="31.6" ry="18"/>
<text text-anchor="middle" x="1062.56" y="-156.57" font-family="Times New Roman,serif" font-size="14.00">hover</text>
</g>
<!-- float -->
<g id="node9" class="node">
<title>float</title>
<ellipse fill="none" stroke="black" cx="1141.56" cy="-162" rx="27.11" ry="18"/>
<text text-anchor="middle" x="1141.56" y="-156.57" font-family="Times New Roman,serif" font-size="14.00">float</text>
</g>
<!-- MagmusSolar -->
<g id="node10" class="node">
<title>MagmusSolar</title>
<ellipse fill="none" stroke="black" cx="1249.56" cy="-162" rx="62.04" ry="18"/>
<text text-anchor="middle" x="1249.56" y="-156.57" font-family="Times New Roman,serif" font-size="14.00">MagmusSolar</text>
</g>
<!-- at_flat_organism -->
<g id="node13" class="node">
<title>at_flat_organism</title>
<ellipse fill="none" stroke="black" cx="1249.56" cy="-90" rx="72.52" ry="18"/>
<text text-anchor="middle" x="1249.56" y="-84.58" font-family="Times New Roman,serif" font-size="14.00">at_flat_organism</text>
</g>
<!-- MagmusSolar&#45;&gt;at_flat_organism -->
<g id="edge9" class="edge">
<title>MagmusSolar&#45;&gt;at_flat_organism</title>
<path fill="none" stroke="black" d="M1249.56,-143.7C1249.56,-136.24 1249.56,-127.32 1249.56,-118.97"/>
<polygon fill="black" stroke="black" points="1253.06,-119.1 1249.56,-109.1 1246.06,-119.1 1253.06,-119.1"/>
</g>
<!-- solar_magmus -->
<g id="node11" class="node">
<title>solar_magmus</title>
<ellipse fill="none" stroke="black" cx="1394.56" cy="-162" rx="64.54" ry="18"/>
<text text-anchor="middle" x="1394.56" y="-156.57" font-family="Times New Roman,serif" font-size="14.00">solar_magmus</text>
</g>
<!-- nebula -->
<g id="node12" class="node">
<title>nebula</title>
<ellipse fill="none" stroke="black" cx="1511.56" cy="-162" rx="34.6" ry="18"/>
<text text-anchor="middle" x="1511.56" y="-156.57" font-family="Times New Roman,serif" font-size="14.00">nebula</text>
</g>
<!-- water_boundary -->
<g id="node28" class="node">
<title>water_boundary</title>
<ellipse fill="none" stroke="black" cx="339.56" cy="-18" rx="71.02" ry="18"/>
<text text-anchor="middle" x="339.56" y="-12.57" font-family="Times New Roman,serif" font-size="14.00">water_boundary</text>
</g>
<!-- Anatomy&#45;&gt;water_boundary -->
<g id="edge10" class="edge">
<title>Anatomy&#45;&gt;water_boundary</title>
<path fill="none" stroke="black" d="M314.55,-72.05C318.23,-64.26 322.68,-54.82 326.8,-46.08"/>
<polygon fill="black" stroke="black" points="330.32,-47.81 331.42,-37.28 323.99,-44.83 330.32,-47.81"/>
</g>
<!-- grey_neuro -->
<g id="node15" class="node">
<title>grey_neuro</title>
<ellipse fill="none" stroke="black" cx="1616.56" cy="-162" rx="52.56" ry="18"/>
<text text-anchor="middle" x="1616.56" y="-156.57" font-family="Times New Roman,serif" font-size="14.00">grey_neuro</text>
</g>
<!-- linearize_3d_to_2d_flat_ocean_chest_flush -->
<g id="node29" class="node">
<title>linearize_3d_to_2d_flat_ocean_chest_flush</title>
<ellipse fill="none" stroke="black" cx="600.56" cy="-18" rx="172.32" ry="18"/>
<text text-anchor="middle" x="600.56" y="-12.57" font-family="Times New Roman,serif" font-size="14.00">linearize_3d_to_2d_flat_ocean_chest_flush</text>
</g>
<!-- Tensor&#45;&gt;linearize_3d_to_2d_flat_ocean_chest_flush -->
<g id="edge11" class="edge">
<title>Tensor&#45;&gt;linearize_3d_to_2d_flat_ocean_chest_flush</title>
<path fill="none" stroke="black" d="M600.56,-71.7C600.56,-64.24 600.56,-55.32 600.56,-46.97"/>
<polygon fill="black" stroke="black" points="604.06,-47.1 600.56,-37.1 597.06,-47.1 604.06,-47.1"/>
</g>
<!-- white_mass -->
<g id="node17" class="node">
<title>white_mass</title>
<ellipse fill="none" stroke="black" cx="1741.56" cy="-162" rx="54.06" ry="18"/>
<text text-anchor="middle" x="1741.56" y="-156.57" font-family="Times New Roman,serif" font-size="14.00">white_mass</text>
</g>
<!-- trapezoid_ce_ef_ce_ef -->
<g id="node30" class="node">
<title>trapezoid_ce_ef_ce_ef</title>
<ellipse fill="none" stroke="black" cx="886.56" cy="-18" rx="95.97" ry="18"/>
<text text-anchor="middle" x="886.56" y="-12.57" font-family="Times New Roman,serif" font-size="14.00">trapezoid_ce_ef_ce_ef</text>
</g>
<!-- Palm&#45;&gt;trapezoid_ce_ef_ce_ef -->
<g id="edge12" class="edge">
<title>Palm&#45;&gt;trapezoid_ce_ef_ce_ef</title>
<path fill="none" stroke="black" d="M885.81,-71.7C885.92,-64.24 886.04,-55.32 886.16,-46.97"/>
<polygon fill="black" stroke="black" points="889.68,-47.15 886.32,-37.1 882.68,-47.05 889.68,-47.15"/>
</g>
<!-- feet_sweat -->
<g id="node19" class="node">
<title>feet_sweat</title>
<ellipse fill="none" stroke="black" cx="1863.56" cy="-162" rx="50.07" ry="18"/>
<text text-anchor="middle" x="1863.56" y="-156.57" font-family="Times New Roman,serif" font-size="14.00">feet_sweat</text>
</g>
<!-- hole_spread_dictation -->
<g id="node31" class="node">
<title>hole_spread_dictation</title>
<ellipse fill="none" stroke="black" cx="1093.56" cy="-18" rx="92.98" ry="18"/>
<text text-anchor="middle" x="1093.56" y="-12.57" font-family="Times New Roman,serif" font-size="14.00">hole_spread_dictation</text>
</g>
<!-- Wormhole&#45;&gt;hole_spread_dictation -->
<g id="edge13" class="edge">
<title>Wormhole&#45;&gt;hole_spread_dictation</title>
<path fill="none" stroke="black" d="M1073.24,-71.7C1076.21,-63.98 1079.79,-54.71 1083.11,-46.11"/>
<polygon fill="black" stroke="black" points="1086.63,-47.69 1086.97,-37.1 1080.1,-45.17 1086.63,-47.69"/>
</g>
<!-- multi -->
<g id="node21" class="node">
<title>multi</title>
<ellipse fill="none" stroke="black" cx="1960.56" cy="-162" rx="28.61" ry="18"/>
<text text-anchor="middle" x="1960.56" y="-156.57" font-family="Times New Roman,serif" font-size="14.00">multi</text>
</g>
<!-- BoundaryThirdMega&#45;&gt;water_boundary -->
<g id="edge14" class="edge">
<title>BoundaryThirdMega&#45;&gt;water_boundary</title>
<path fill="none" stroke="black" d="M429.9,-72.59C413.8,-63.04 393.33,-50.9 375.94,-40.58"/>
<polygon fill="black" stroke="black" points="378.03,-37.16 367.65,-35.07 374.46,-43.18 378.03,-37.16"/>
</g>
<!-- mess_man -->
<g id="node23" class="node">
<title>mess_man</title>
<ellipse fill="none" stroke="black" cx="2057.56" cy="-162" rx="50.07" ry="18"/>
<text text-anchor="middle" x="2057.56" y="-156.57" font-family="Times New Roman,serif" font-size="14.00">mess_man</text>
</g>
<!-- water_substance -->
<g id="node24" class="node">
<title>water_substance</title>
<ellipse fill="none" stroke="black" cx="2198.56" cy="-162" rx="72.52" ry="18"/>
<text text-anchor="middle" x="2198.56" y="-156.57" font-family="Times New Roman,serif" font-size="14.00">water_substance</text>
</g>
<!-- AOE_M_Alien_Starcraft -->
<g id="node25" class="node">
<title>AOE_M_Alien_Starcraft</title>
<ellipse fill="none" stroke="black" cx="2392.56" cy="-162" rx="103.46" ry="18"/>
<text text-anchor="middle" x="2392.56" y="-156.57" font-family="Times New Roman,serif" font-size="14.00">AOE_M_Alien_Starcraft</text>
</g>
</g>
</svg>
