<?xml version="1.0" encoding="UTF-8" standalone="no"?>
<!DOCTYPE svg PUBLIC "-//W3C//DTD SVG 1.1//EN"
 "http://www.w3.org/Graphics/SVG/1.1/DTD/svg11.dtd">
<!-- Generated by graphviz version 8.1.0 (20230707.0739)
 -->
<!-- Title: square_layout Pages: 1 -->
<svg width="1442pt" height="1031pt"
 viewBox="0.00 0.00 1442.13 1031.00" xmlns="http://www.w3.org/2000/svg" xmlns:xlink="http://www.w3.org/1999/xlink">
<g id="graph0" class="graph" transform="scale(1 1) rotate(0) translate(4 1027)">
<title>square_layout</title>
<polygon fill="white" stroke="none" points="-4,4 -4,-1027 1438.13,-1027 1438.13,4 -4,4"/>
<g id="clust1" class="cluster">
<title>cluster_super_macroscopic_level</title>
<polygon fill="none" stroke="lightblue" stroke-dasharray="5,2" points="32.45,-8 32.45,-192 550.68,-192 550.68,-8 32.45,-8"/>
<text text-anchor="middle" x="291.56" y="-174.7" font-family="Times New Roman,serif" font-size="14.00">1. Super Macroscopic Level</text>
</g>
<g id="clust2" class="cluster">
<title>cluster_super_meso_level</title>
<polygon fill="none" stroke="lightblue" stroke-dasharray="5,2" points="919.38,-367 919.38,-605 1426.13,-605 1426.13,-367 919.38,-367"/>
<text text-anchor="middle" x="1172.76" y="-587.7" font-family="Times New Roman,serif" font-size="14.00">2. Super Meso Level</text>
</g>
<g id="clust3" class="cluster">
<title>cluster_super_microscopic_level</title>
<polygon fill="none" stroke="lightblue" stroke-dasharray="5,2" points="606.61,-191 606.61,-699 899.38,-699 899.38,-191 606.61,-191"/>
<text text-anchor="middle" x="752.99" y="-681.7" font-family="Times New Roman,serif" font-size="14.00">3. Super Microscopic Level</text>
</g>
<g id="clust4" class="cluster">
<title>cluster_super_molecular_level</title>
<polygon fill="none" stroke="lightblue" stroke-dasharray="5,2" points="292.83,-218 292.83,-564 586.61,-564 586.61,-218 292.83,-218"/>
<text text-anchor="middle" x="439.72" y="-546.7" font-family="Times New Roman,serif" font-size="14.00">4. Super Molecular Level</text>
</g>
<g id="clust5" class="cluster">
<title>cluster_super_atomic_level</title>
<polygon fill="none" stroke="lightblue" stroke-dasharray="5,2" points="8,-200 8,-564 272.83,-564 272.83,-200 8,-200"/>
<text text-anchor="middle" x="140.42" y="-546.7" font-family="Times New Roman,serif" font-size="14.00">5. Super Atomic Level</text>
</g>
<!-- GlobalSystemDynamics -->
<g id="node1" class="node">
<title>GlobalSystemDynamics</title>
<ellipse fill="none" stroke="black" cx="140.42" cy="-88" rx="99.97" ry="18"/>
<text text-anchor="middle" x="140.42" y="-82.58" font-family="Times New Roman,serif" font-size="14.00">GlobalSystemDynamics</text>
</g>
<!-- EnvironmentalInfluences -->
<g id="node2" class="node">
<title>EnvironmentalInfluences</title>
<ellipse fill="none" stroke="black" cx="439.72" cy="-34" rx="101.46" ry="18"/>
<text text-anchor="middle" x="439.72" y="-28.57" font-family="Times New Roman,serif" font-size="14.00">EnvironmentalInfluences</text>
</g>
<!-- GlobalSystemDynamics&#45;&gt;EnvironmentalInfluences -->
<g id="edge1" class="edge">
<title>GlobalSystemDynamics&#45;&gt;EnvironmentalInfluences</title>
<path fill="none" stroke="black" d="M212.25,-75.13C255.66,-67.25 311.39,-57.13 356.71,-48.9"/>
<polygon fill="black" stroke="black" points="357.18,-52.19 366.4,-46.95 355.93,-45.3 357.18,-52.19"/>
</g>
<!-- SocietalImpact -->
<g id="node3" class="node">
<title>SocietalImpact</title>
<ellipse fill="none" stroke="black" cx="439.72" cy="-88" rx="66.03" ry="18"/>
<text text-anchor="middle" x="439.72" y="-82.58" font-family="Times New Roman,serif" font-size="14.00">SocietalImpact</text>
</g>
<!-- GlobalSystemDynamics&#45;&gt;SocietalImpact -->
<g id="edge2" class="edge">
<title>GlobalSystemDynamics&#45;&gt;SocietalImpact</title>
<path fill="none" stroke="black" d="M240.83,-88C280.62,-88 325.72,-88 362.8,-88"/>
<polygon fill="black" stroke="black" points="362.54,-91.5 372.54,-88 362.54,-84.5 362.54,-91.5"/>
</g>
<!-- HighLevelCharacteristics -->
<g id="node4" class="node">
<title>HighLevelCharacteristics</title>
<ellipse fill="none" stroke="black" cx="439.72" cy="-142" rx="102.96" ry="18"/>
<text text-anchor="middle" x="439.72" y="-136.57" font-family="Times New Roman,serif" font-size="14.00">HighLevelCharacteristics</text>
</g>
<!-- GlobalSystemDynamics&#45;&gt;HighLevelCharacteristics -->
<g id="edge3" class="edge">
<title>GlobalSystemDynamics&#45;&gt;HighLevelCharacteristics</title>
<path fill="none" stroke="black" d="M212.25,-100.87C255.5,-108.72 310.99,-118.8 356.21,-127.01"/>
<polygon fill="black" stroke="black" points="355.42,-130.61 365.88,-128.95 356.67,-123.72 355.42,-130.61"/>
</g>
<!-- EconomicSubsystem -->
<g id="node5" class="node">
<title>EconomicSubsystem</title>
<ellipse fill="none" stroke="black" cx="1016.87" cy="-555" rx="89.49" ry="18"/>
<text text-anchor="middle" x="1016.87" y="-549.58" font-family="Times New Roman,serif" font-size="14.00">EconomicSubsystem</text>
</g>
<!-- TechnologicalInfrastructure -->
<g id="node6" class="node">
<title>TechnologicalInfrastructure</title>
<ellipse fill="none" stroke="black" cx="1280.25" cy="-501" rx="112.94" ry="18"/>
<text text-anchor="middle" x="1280.25" y="-495.57" font-family="Times New Roman,serif" font-size="14.00">TechnologicalInfrastructure</text>
</g>
<!-- EconomicSubsystem&#45;&gt;TechnologicalInfrastructure -->
<g id="edge4" class="edge">
<title>EconomicSubsystem&#45;&gt;TechnologicalInfrastructure</title>
<path fill="none" stroke="black" d="M1078.61,-541.59C1098.86,-537.18 1121.57,-532.3 1142.36,-528 1159.72,-524.4 1178.35,-520.66 1196.11,-517.14"/>
<polygon fill="black" stroke="black" points="1196.6,-520.41 1205.73,-515.04 1195.24,-513.54 1196.6,-520.41"/>
</g>
<!-- PoliticalStructures -->
<g id="node7" class="node">
<title>PoliticalStructures</title>
<ellipse fill="none" stroke="black" cx="1280.25" cy="-447" rx="78.01" ry="18"/>
<text text-anchor="middle" x="1280.25" y="-441.57" font-family="Times New Roman,serif" font-size="14.00">PoliticalStructures</text>
</g>
<!-- EconomicSubsystem&#45;&gt;PoliticalStructures -->
<g id="edge5" class="edge">
<title>EconomicSubsystem&#45;&gt;PoliticalStructures</title>
<path fill="none" stroke="black" d="M1039.37,-537.3C1063.11,-518.68 1103.18,-489.91 1142.36,-474 1160.35,-466.69 1180.49,-461.32 1199.68,-457.37"/>
<polygon fill="black" stroke="black" points="1200.07,-460.67 1209.22,-455.33 1198.73,-453.8 1200.07,-460.67"/>
</g>
<!-- CulturalSocialInfluences -->
<g id="node8" class="node">
<title>CulturalSocialInfluences</title>
<ellipse fill="none" stroke="black" cx="1280.25" cy="-393" rx="100.46" ry="18"/>
<text text-anchor="middle" x="1280.25" y="-387.57" font-family="Times New Roman,serif" font-size="14.00">CulturalSocialInfluences</text>
</g>
<!-- EconomicSubsystem&#45;&gt;CulturalSocialInfluences -->
<g id="edge6" class="edge">
<title>EconomicSubsystem&#45;&gt;CulturalSocialInfluences</title>
<path fill="none" stroke="black" d="M1029.1,-536.74C1048.34,-507.11 1090.61,-448.96 1142.36,-420 1154.32,-413.31 1167.67,-408.25 1181.23,-404.44"/>
<polygon fill="black" stroke="black" points="1181.81,-407.65 1190.62,-401.76 1180.06,-400.87 1181.81,-407.65"/>
</g>
<!-- InteractionsAmongGlobalSystems -->
<g id="node9" class="node">
<title>InteractionsAmongGlobalSystems</title>
<ellipse fill="none" stroke="black" cx="1280.25" cy="-555" rx="137.89" ry="18"/>
<text text-anchor="middle" x="1280.25" y="-549.58" font-family="Times New Roman,serif" font-size="14.00">InteractionsAmongGlobalSystems</text>
</g>
<!-- EconomicSubsystem&#45;&gt;InteractionsAmongGlobalSystems -->
<g id="edge7" class="edge">
<title>EconomicSubsystem&#45;&gt;InteractionsAmongGlobalSystems</title>
<path fill="none" stroke="black" d="M1106.72,-555C1114.65,-555 1122.8,-555 1131.05,-555"/>
<polygon fill="black" stroke="black" points="1130.93,-558.5 1140.93,-555 1130.93,-551.5 1130.93,-558.5"/>
</g>
<!-- EconomicSubsystemMarket -->
<g id="node10" class="node">
<title>EconomicSubsystemMarket</title>
<ellipse fill="none" stroke="black" cx="752.99" cy="-649" rx="115.43" ry="18"/>
<text text-anchor="middle" x="752.99" y="-643.58" font-family="Times New Roman,serif" font-size="14.00">EconomicSubsystemMarket</text>
</g>
<!-- EconomicSubsystemMarket&#45;&gt;EconomicSubsystem -->
<g id="edge8" class="edge">
<title>EconomicSubsystemMarket&#45;&gt;EconomicSubsystem</title>
<path fill="none" stroke="black" d="M842.93,-637.42C861.89,-633.59 881.56,-628.56 899.38,-622 928.88,-611.14 959.6,-593.15 982.08,-578.54"/>
<polygon fill="black" stroke="black" points="983.78,-580.96 990.19,-572.52 979.91,-575.12 983.78,-580.96"/>
</g>
<!-- EconomicSubsystemLabor -->
<g id="node11" class="node">
<title>EconomicSubsystemLabor</title>
<ellipse fill="none" stroke="black" cx="752.99" cy="-595" rx="111.94" ry="18"/>
<text text-anchor="middle" x="752.99" y="-589.58" font-family="Times New Roman,serif" font-size="14.00">EconomicSubsystemLabor</text>
</g>
<!-- EconomicSubsystemLabor&#45;&gt;EconomicSubsystem -->
<g id="edge9" class="edge">
<title>EconomicSubsystemLabor&#45;&gt;EconomicSubsystem</title>
<path fill="none" stroke="black" d="M835.78,-582.51C866.92,-577.75 902.41,-572.33 933.6,-567.57"/>
<polygon fill="black" stroke="black" points="934.08,-570.88 943.44,-565.91 933.02,-563.96 934.08,-570.88"/>
</g>
<!-- TechnologicalInfrastructureInfo -->
<g id="node12" class="node">
<title>TechnologicalInfrastructureInfo</title>
<ellipse fill="none" stroke="black" cx="752.99" cy="-541" rx="128.41" ry="18"/>
<text text-anchor="middle" x="752.99" y="-535.58" font-family="Times New Roman,serif" font-size="14.00">TechnologicalInfrastructureInfo</text>
</g>
<!-- TechnologicalInfrastructureInfo&#45;&gt;TechnologicalInfrastructure -->
<g id="edge10" class="edge">
<title>TechnologicalInfrastructureInfo&#45;&gt;TechnologicalInfrastructure</title>
<path fill="none" stroke="black" d="M866.09,-532.14C883.91,-530.74 902.15,-529.32 919.38,-528 1001.97,-521.66 1095.24,-514.66 1166.13,-509.38"/>
<polygon fill="black" stroke="black" points="1166.15,-512.82 1175.86,-508.58 1165.63,-505.84 1166.15,-512.82"/>
</g>
<!-- TechnologicalInfrastructureComm -->
<g id="node13" class="node">
<title>TechnologicalInfrastructureComm</title>
<ellipse fill="none" stroke="black" cx="752.99" cy="-487" rx="138.39" ry="18"/>
<text text-anchor="middle" x="752.99" y="-481.57" font-family="Times New Roman,serif" font-size="14.00">TechnologicalInfrastructureComm</text>
</g>
<!-- TechnologicalInfrastructureComm&#45;&gt;TechnologicalInfrastructure -->
<g id="edge11" class="edge">
<title>TechnologicalInfrastructureComm&#45;&gt;TechnologicalInfrastructure</title>
<path fill="none" stroke="black" d="M890.38,-489.72C955.73,-491.11 1035.1,-492.95 1106.36,-495 1123.26,-495.49 1141.1,-496.05 1158.63,-496.63"/>
<polygon fill="black" stroke="black" points="1158.39,-500.16 1168.5,-496.99 1158.62,-493.16 1158.39,-500.16"/>
</g>
<!-- PoliticalStructuresGov -->
<g id="node14" class="node">
<title>PoliticalStructuresGov</title>
<ellipse fill="none" stroke="black" cx="752.99" cy="-433" rx="94.48" ry="18"/>
<text text-anchor="middle" x="752.99" y="-427.57" font-family="Times New Roman,serif" font-size="14.00">PoliticalStructuresGov</text>
</g>
<!-- PoliticalStructuresGov&#45;&gt;PoliticalStructures -->
<g id="edge12" class="edge">
<title>PoliticalStructuresGov&#45;&gt;PoliticalStructures</title>
<path fill="none" stroke="black" d="M846.99,-435.48C944.45,-438.08 1096.38,-442.13 1191.73,-444.67"/>
<polygon fill="black" stroke="black" points="1191.41,-448.19 1201.5,-444.95 1191.59,-441.19 1191.41,-448.19"/>
</g>
<!-- PoliticalStructuresIntl -->
<g id="node15" class="node">
<title>PoliticalStructuresIntl</title>
<ellipse fill="none" stroke="black" cx="752.99" cy="-379" rx="89.99" ry="18"/>
<text text-anchor="middle" x="752.99" y="-373.57" font-family="Times New Roman,serif" font-size="14.00">PoliticalStructuresIntl</text>
</g>
<!-- PoliticalStructuresIntl&#45;&gt;PoliticalStructures -->
<g id="edge13" class="edge">
<title>PoliticalStructuresIntl&#45;&gt;PoliticalStructures</title>
<path fill="none" stroke="black" d="M829.53,-388.78C928.27,-401.56 1100.4,-423.85 1200.64,-436.82"/>
<polygon fill="black" stroke="black" points="1199.94,-440.39 1210.3,-438.2 1200.84,-433.45 1199.94,-440.39"/>
</g>
<!-- SocialInfluencesCultural -->
<g id="node16" class="node">
<title>SocialInfluencesCultural</title>
<ellipse fill="none" stroke="black" cx="752.99" cy="-271" rx="100.46" ry="18"/>
<text text-anchor="middle" x="752.99" y="-265.57" font-family="Times New Roman,serif" font-size="14.00">SocialInfluencesCultural</text>
</g>
<!-- SocialInfluencesCultural&#45;&gt;CulturalSocialInfluences -->
<g id="edge14" class="edge">
<title>SocialInfluencesCultural&#45;&gt;CulturalSocialInfluences</title>
<path fill="none" stroke="black" d="M825.43,-283.89C849,-288.24 875.34,-293.21 899.38,-298 991.62,-316.36 1015.19,-318.9 1106.36,-342 1143.99,-351.54 1185.76,-363.81 1218.81,-373.92"/>
<polygon fill="black" stroke="black" points="1217.63,-377.53 1228.22,-377.13 1219.69,-370.84 1217.63,-377.53"/>
</g>
<!-- SocialInfluencesDemographic -->
<g id="node17" class="node">
<title>SocialInfluencesDemographic</title>
<ellipse fill="none" stroke="black" cx="752.99" cy="-217" rx="121.42" ry="18"/>
<text text-anchor="middle" x="752.99" y="-211.57" font-family="Times New Roman,serif" font-size="14.00">SocialInfluencesDemographic</text>
</g>
<!-- SocialInfluencesDemographic&#45;&gt;CulturalSocialInfluences -->
<g id="edge15" class="edge">
<title>SocialInfluencesDemographic&#45;&gt;CulturalSocialInfluences</title>
<path fill="none" stroke="black" d="M833.81,-230.76C855.17,-234.73 878.21,-239.28 899.38,-244 992.17,-264.69 1018.03,-262.84 1106.36,-298 1155.8,-317.68 1208.92,-348.47 1243.04,-369.63"/>
<polygon fill="black" stroke="black" points="1240.8,-372.99 1251.13,-375.33 1244.52,-367.06 1240.8,-372.99"/>
</g>
<!-- InteractionsLocalizedMicro -->
<g id="node18" class="node">
<title>InteractionsLocalizedMicro</title>
<ellipse fill="none" stroke="black" cx="752.99" cy="-325" rx="112.44" ry="18"/>
<text text-anchor="middle" x="752.99" y="-319.57" font-family="Times New Roman,serif" font-size="14.00">InteractionsLocalizedMicro</text>
</g>
<!-- InteractionsLocalizedMicro&#45;&gt;CulturalSocialInfluences -->
<g id="edge16" class="edge">
<title>InteractionsLocalizedMicro&#45;&gt;CulturalSocialInfluences</title>
<path fill="none" stroke="black" d="M841.91,-336.38C937.48,-348.75 1089.53,-368.44 1186.83,-381.04"/>
<polygon fill="black" stroke="black" points="1186.17,-384.61 1196.53,-382.42 1187.06,-377.67 1186.17,-384.61"/>
</g>
<!-- MarketDynamicsSpecific -->
<g id="node19" class="node">
<title>MarketDynamicsSpecific</title>
<ellipse fill="none" stroke="black" cx="439.72" cy="-514" rx="103.96" ry="18"/>
<text text-anchor="middle" x="439.72" y="-508.57" font-family="Times New Roman,serif" font-size="14.00">MarketDynamicsSpecific</text>
</g>
<!-- MarketDynamicsSpecific&#45;&gt;EconomicSubsystemMarket -->
<g id="edge17" class="edge">
<title>MarketDynamicsSpecific&#45;&gt;EconomicSubsystemMarket</title>
<path fill="none" stroke="black" d="M462.23,-532.06C492.45,-556.43 550.13,-599.42 606.61,-622 620.55,-627.58 635.72,-632.01 650.81,-635.54"/>
<polygon fill="black" stroke="black" points="649.72,-639.1 660.24,-637.84 651.23,-632.27 649.72,-639.1"/>
</g>
<!-- InfoSystemsIndividual -->
<g id="node20" class="node">
<title>InfoSystemsIndividual</title>
<ellipse fill="none" stroke="black" cx="439.72" cy="-460" rx="93.98" ry="18"/>
<text text-anchor="middle" x="439.72" y="-454.57" font-family="Times New Roman,serif" font-size="14.00">InfoSystemsIndividual</text>
</g>
<!-- InfoSystemsIndividual&#45;&gt;TechnologicalInfrastructureInfo -->
<g id="edge18" class="edge">
<title>InfoSystemsIndividual&#45;&gt;TechnologicalInfrastructureInfo</title>
<path fill="none" stroke="black" d="M529.51,-465.58C549.36,-469.7 569.56,-476.36 586.61,-487 599.27,-494.91 593.94,-506.09 606.61,-514 615.51,-519.56 625.27,-524.03 635.4,-527.62"/>
<polygon fill="black" stroke="black" points="634.03,-531.18 644.62,-530.93 636.18,-524.52 634.03,-531.18"/>
</g>
<!-- GovPoliciesSpecific -->
<g id="node21" class="node">
<title>GovPoliciesSpecific</title>
<ellipse fill="none" stroke="black" cx="439.72" cy="-406" rx="86.49" ry="18"/>
<text text-anchor="middle" x="439.72" y="-400.57" font-family="Times New Roman,serif" font-size="14.00">GovPoliciesSpecific</text>
</g>
<!-- GovPoliciesSpecific&#45;&gt;PoliticalStructuresGov -->
<g id="edge19" class="edge">
<title>GovPoliciesSpecific&#45;&gt;PoliticalStructuresGov</title>
<path fill="none" stroke="black" d="M520.07,-412.88C561.25,-416.46 611.9,-420.85 655.35,-424.62"/>
<polygon fill="black" stroke="black" points="654.96,-428.18 665.23,-425.56 655.57,-421.21 654.96,-428.18"/>
</g>
<!-- CulturalNormsSpecific -->
<g id="node22" class="node">
<title>CulturalNormsSpecific</title>
<ellipse fill="none" stroke="black" cx="439.72" cy="-298" rx="95.47" ry="18"/>
<text text-anchor="middle" x="439.72" y="-292.57" font-family="Times New Roman,serif" font-size="14.00">CulturalNormsSpecific</text>
</g>
<!-- CulturalNormsSpecific&#45;&gt;SocialInfluencesCultural -->
<g id="edge20" class="edge">
<title>CulturalNormsSpecific&#45;&gt;SocialInfluencesCultural</title>
<path fill="none" stroke="black" d="M527.01,-290.51C565.41,-287.18 610.9,-283.24 650.88,-279.77"/>
<polygon fill="black" stroke="black" points="651.07,-283.18 660.73,-278.83 650.47,-276.21 651.07,-283.18"/>
</g>
<!-- DemographicSpecific -->
<g id="node23" class="node">
<title>DemographicSpecific</title>
<ellipse fill="none" stroke="black" cx="439.72" cy="-244" rx="90.98" ry="18"/>
<text text-anchor="middle" x="439.72" y="-238.57" font-family="Times New Roman,serif" font-size="14.00">DemographicSpecific</text>
</g>
<!-- DemographicSpecific&#45;&gt;SocialInfluencesDemographic -->
<g id="edge21" class="edge">
<title>DemographicSpecific&#45;&gt;SocialInfluencesDemographic</title>
<path fill="none" stroke="black" d="M523.73,-236.8C558.15,-233.81 598.68,-230.3 635.97,-227.06"/>
<polygon fill="black" stroke="black" points="636.24,-230.47 645.9,-226.12 635.64,-223.49 636.24,-230.47"/>
</g>
<!-- InteractionsMolecularComponents -->
<g id="node24" class="node">
<title>InteractionsMolecularComponents</title>
<ellipse fill="none" stroke="black" cx="439.72" cy="-352" rx="138.89" ry="18"/>
<text text-anchor="middle" x="439.72" y="-346.57" font-family="Times New Roman,serif" font-size="14.00">InteractionsMolecularComponents</text>
</g>
<!-- InteractionsMolecularComponents&#45;&gt;InteractionsLocalizedMicro -->
<g id="edge22" class="edge">
<title>InteractionsMolecularComponents&#45;&gt;InteractionsLocalizedMicro</title>
<path fill="none" stroke="black" d="M556.63,-341.95C584.63,-339.52 614.47,-336.93 642.18,-334.53"/>
<polygon fill="black" stroke="black" points="642.43,-337.93 652.09,-333.58 641.83,-330.96 642.43,-337.93"/>
</g>
<!-- EconomicIndicatorsMetrics -->
<g id="node25" class="node">
<title>EconomicIndicatorsMetrics</title>
<ellipse fill="none" stroke="black" cx="140.42" cy="-514" rx="113.94" ry="18"/>
<text text-anchor="middle" x="140.42" y="-508.57" font-family="Times New Roman,serif" font-size="14.00">EconomicIndicatorsMetrics</text>
</g>
<!-- EconomicIndicatorsMetrics&#45;&gt;MarketDynamicsSpecific -->
<g id="edge23" class="edge">
<title>EconomicIndicatorsMetrics&#45;&gt;MarketDynamicsSpecific</title>
<path fill="none" stroke="black" d="M254.66,-514C277.61,-514 301.76,-514 324.73,-514"/>
<polygon fill="black" stroke="black" points="324.55,-517.5 334.55,-514 324.55,-510.5 324.55,-517.5"/>
</g>
<!-- InfoSystemsSourceCode -->
<g id="node26" class="node">
<title>InfoSystemsSourceCode</title>
<ellipse fill="none" stroke="black" cx="140.42" cy="-460" rx="104.46" ry="18"/>
<text text-anchor="middle" x="140.42" y="-454.57" font-family="Times New Roman,serif" font-size="14.00">InfoSystemsSourceCode</text>
</g>
<!-- InfoSystemsSourceCode&#45;&gt;InfoSystemsIndividual -->
<g id="edge24" class="edge">
<title>InfoSystemsSourceCode&#45;&gt;InfoSystemsIndividual</title>
<path fill="none" stroke="black" d="M244.98,-460C273.96,-460 305.46,-460 334.47,-460"/>
<polygon fill="black" stroke="black" points="334.46,-463.5 344.46,-460 334.46,-456.5 334.46,-463.5"/>
</g>
<!-- LegislativeTextsFrameworks -->
<g id="node27" class="node">
<title>LegislativeTextsFrameworks</title>
<ellipse fill="none" stroke="black" cx="140.42" cy="-406" rx="116.93" ry="18"/>
<text text-anchor="middle" x="140.42" y="-400.57" font-family="Times New Roman,serif" font-size="14.00">LegislativeTextsFrameworks</text>
</g>
<!-- LegislativeTextsFrameworks&#45;&gt;GovPoliciesSpecific -->
<g id="edge25" class="edge">
<title>LegislativeTextsFrameworks&#45;&gt;GovPoliciesSpecific</title>
<path fill="none" stroke="black" d="M257.64,-406C285.55,-406 315.07,-406 341.99,-406"/>
<polygon fill="black" stroke="black" points="341.95,-409.5 351.95,-406 341.95,-402.5 341.95,-409.5"/>
</g>
<!-- CulturalPracticesTraditions -->
<g id="node28" class="node">
<title>CulturalPracticesTraditions</title>
<ellipse fill="none" stroke="black" cx="140.42" cy="-352" rx="111.44" ry="18"/>
<text text-anchor="middle" x="140.42" y="-346.57" font-family="Times New Roman,serif" font-size="14.00">CulturalPracticesTraditions</text>
</g>
<!-- CulturalPracticesTraditions&#45;&gt;CulturalNormsSpecific -->
<g id="edge26" class="edge">
<title>CulturalPracticesTraditions&#45;&gt;CulturalNormsSpecific</title>
<path fill="none" stroke="black" d="M216.05,-338.44C259.51,-330.55 314.31,-320.6 358.66,-312.54"/>
<polygon fill="black" stroke="black" points="359.2,-315.82 368.41,-310.59 357.94,-308.93 359.2,-315.82"/>
</g>
<!-- GeneticBiologicalFactors -->
<g id="node29" class="node">
<title>GeneticBiologicalFactors</title>
<ellipse fill="none" stroke="black" cx="140.42" cy="-298" rx="104.46" ry="18"/>
<text text-anchor="middle" x="140.42" y="-292.57" font-family="Times New Roman,serif" font-size="14.00">GeneticBiologicalFactors</text>
</g>
<!-- GeneticBiologicalFactors&#45;&gt;DemographicSpecific -->
<g id="edge27" class="edge">
<title>GeneticBiologicalFactors&#45;&gt;DemographicSpecific</title>
<path fill="none" stroke="black" d="M213.76,-284.86C258.24,-276.78 315.22,-266.43 360.7,-258.17"/>
<polygon fill="black" stroke="black" points="361.19,-261.46 370.41,-256.23 359.94,-254.57 361.19,-261.46"/>
</g>
<!-- IndividualInteractionsInfluence -->
<g id="node30" class="node">
<title>IndividualInteractionsInfluence</title>
<ellipse fill="none" stroke="black" cx="140.42" cy="-226" rx="124.42" ry="18"/>
<text text-anchor="middle" x="140.42" y="-220.57" font-family="Times New Roman,serif" font-size="14.00">IndividualInteractionsInfluence</text>
</g>
<!-- IndividualInteractionsInfluence&#45;&gt;IndividualInteractionsInfluence -->
<g id="edge28" class="edge">
<title>IndividualInteractionsInfluence&#45;&gt;IndividualInteractionsInfluence</title>
<path fill="none" stroke="black" d="M87.8,-242.66C76.11,-252.62 93.65,-262 140.42,-262 168.91,-262 186.56,-258.52 193.35,-253.54"/>
<polygon fill="black" stroke="black" points="196.82,-253.56 193.03,-243.66 189.82,-253.76 196.82,-253.56"/>
</g>
<!-- Phenomena -->
<g id="node31" class="node">
<title>Phenomena</title>
<polygon fill="none" stroke="black" stroke-width="2" points="835.62,-942 670.37,-942 670.37,-906 835.62,-906 835.62,-942"/>
<text text-anchor="middle" x="752.99" y="-918.58" font-family="Times New Roman,serif" font-size="14.00">SuperScientificPhenomena</text>
</g>
<!-- validate -->
<g id="node32" class="node">
<title>validate</title>
<ellipse fill="none" stroke="black" cx="752.99" cy="-841" rx="44.58" ry="18"/>
<text text-anchor="middle" x="752.99" y="-835.58" font-family="Times New Roman,serif" font-size="14.00">validate()</text>
</g>
<!-- Circuit -->
<g id="node33" class="node">
<title>Circuit</title>
<polygon fill="none" stroke="black" stroke-width="2" points="805.24,-799 700.74,-799 700.74,-763 805.24,-763 805.24,-799"/>
<text text-anchor="middle" x="752.99" y="-775.58" font-family="Times New Roman,serif" font-size="14.00">QuantumCircuit</text>
</g>
<!-- fry -->
<g id="node34" class="node">
<title>fry</title>
<ellipse fill="none" stroke="black" stroke-width="2" cx="140.42" cy="-951" rx="27.11" ry="18"/>
<text text-anchor="middle" x="140.42" y="-945.58" font-family="Times New Roman,serif" font-size="14.00">fry()</text>
</g>
<!-- get_status -->
<g id="node35" class="node">
<title>get_status</title>
<ellipse fill="none" stroke="black" stroke-width="2" cx="752.99" cy="-725" rx="54.06" ry="18"/>
<text text-anchor="middle" x="752.99" y="-719.58" font-family="Times New Roman,serif" font-size="14.00">get_status()</text>
</g>
<!-- main -->
<g id="node36" class="node">
<title>main</title>
<ellipse fill="none" stroke="green" stroke-width="2" cx="140.42" cy="-897" rx="34.1" ry="18"/>
<text text-anchor="middle" x="140.42" y="-891.58" font-family="Times New Roman,serif" font-size="14.00">main()</text>
</g>
<!-- super_reductionism_pyramid -->
<g id="node37" class="node">
<title>super_reductionism_pyramid</title>
<ellipse fill="none" stroke="black" stroke-width="2" cx="439.72" cy="-1005" rx="125.41" ry="18"/>
<text text-anchor="middle" x="439.72" y="-999.58" font-family="Times New Roman,serif" font-size="14.00">super_reductionism_pyramid()</text>
</g>
<!-- main&#45;&gt;super_reductionism_pyramid -->
<g id="edge29" class="edge">
<title>main&#45;&gt;super_reductionism_pyramid</title>
<path fill="none" stroke="black" d="M174.7,-895.32C203.86,-895.64 245.7,-900.71 272.83,-924 292.25,-940.67 273.25,-961.52 292.83,-978 300.06,-984.09 308.22,-988.98 316.88,-992.9"/>
<polygon fill="black" stroke="black" points="315.28,-996.43 325.86,-996.93 317.9,-989.94 315.28,-996.43"/>
</g>
<!-- super_relativity -->
<g id="node38" class="node">
<title>super_relativity</title>
<ellipse fill="none" stroke="black" stroke-width="2" cx="439.72" cy="-951" rx="73.02" ry="18"/>
<text text-anchor="middle" x="439.72" y="-945.58" font-family="Times New Roman,serif" font-size="14.00">super_relativity()</text>
</g>
<!-- main&#45;&gt;super_relativity -->
<g id="edge30" class="edge">
<title>main&#45;&gt;super_relativity</title>
<path fill="none" stroke="black" d="M173.23,-902.78C219.75,-911.23 307.5,-927.17 369.36,-938.4"/>
<polygon fill="black" stroke="black" points="368.36,-941.96 378.82,-940.3 369.61,-935.07 368.36,-941.96"/>
</g>
<!-- super_string_theory -->
<g id="node39" class="node">
<title>super_string_theory</title>
<ellipse fill="none" stroke="black" stroke-width="2" cx="439.72" cy="-897" rx="90.98" ry="18"/>
<text text-anchor="middle" x="439.72" y="-891.58" font-family="Times New Roman,serif" font-size="14.00">super_string_theory()</text>
</g>
<!-- main&#45;&gt;super_string_theory -->
<g id="edge31" class="edge">
<title>main&#45;&gt;super_string_theory</title>
<path fill="none" stroke="black" d="M174.94,-897C214.18,-897 280.98,-897 337.53,-897"/>
<polygon fill="black" stroke="black" points="337.33,-900.5 347.33,-897 337.33,-893.5 337.33,-900.5"/>
</g>
<!-- scientific_phenomena_validate -->
<g id="node40" class="node">
<title>scientific_phenomena_validate</title>
<polygon fill="none" stroke="lightblue" stroke-width="2" points="507.72,-860.75 371.72,-860.75 371.72,-821.25 507.72,-821.25 507.72,-860.75"/>
<text text-anchor="middle" x="439.72" y="-843.45" font-family="Times New Roman,serif" font-size="14.00">Scientific Phenomena</text>
<text text-anchor="middle" x="439.72" y="-827.7" font-family="Times New Roman,serif" font-size="14.00">.validate()</text>
</g>
<!-- main&#45;&gt;scientific_phenomena_validate -->
<g id="edge32" class="edge">
<title>main&#45;&gt;scientific_phenomena_validate</title>
<path fill="none" stroke="green" d="M172.95,-891.06C217.22,-882.72 299.22,-867.28 360.48,-855.74"/>
<polygon fill="green" stroke="green" points="361.1,-858.99 370.28,-853.7 359.8,-852.12 361.1,-858.99"/>
</g>
<!-- quantum_circuit_fry -->
<g id="node41" class="node">
<title>quantum_circuit_fry</title>
<polygon fill="none" stroke="lightblue" stroke-width="2" points="493.84,-802.75 385.59,-802.75 385.59,-763.25 493.84,-763.25 493.84,-802.75"/>
<text text-anchor="middle" x="439.72" y="-785.45" font-family="Times New Roman,serif" font-size="14.00">Quantum Circuit</text>
<text text-anchor="middle" x="439.72" y="-769.7" font-family="Times New Roman,serif" font-size="14.00">.fry()</text>
</g>
<!-- main&#45;&gt;quantum_circuit_fry -->
<g id="edge33" class="edge">
<title>main&#45;&gt;quantum_circuit_fry</title>
<path fill="none" stroke="green" d="M161.95,-882.67C190.16,-863.67 243.06,-830.39 292.83,-812 318.8,-802.41 348.59,-795.76 374.46,-791.28"/>
<polygon fill="green" stroke="green" points="374.99,-794.58 384.29,-789.49 373.85,-787.67 374.99,-794.58"/>
</g>
<!-- super_reductionism_pyramid&#45;&gt;Phenomena -->
<g id="edge34" class="edge">
<title>super_reductionism_pyramid&#45;&gt;Phenomena</title>
<path fill="none" stroke="black" d="M524.84,-991.4C545.17,-987.57 566.76,-983.05 586.61,-978 621.72,-969.06 660.23,-956.65 691.25,-945.97"/>
<polygon fill="black" stroke="black" points="692.17,-949.01 700.47,-942.43 689.88,-942.4 692.17,-949.01"/>
</g>
<!-- super_relativity&#45;&gt;Phenomena -->
<g id="edge35" class="edge">
<title>super_relativity&#45;&gt;Phenomena</title>
<path fill="none" stroke="black" d="M509.03,-945.07C553.12,-941.25 611.04,-936.23 659.26,-932.04"/>
<polygon fill="black" stroke="black" points="659.37,-935.46 669.03,-931.11 658.76,-928.49 659.37,-935.46"/>
</g>
<!-- super_string_theory&#45;&gt;Phenomena -->
<g id="edge36" class="edge">
<title>super_string_theory&#45;&gt;Phenomena</title>
<path fill="none" stroke="black" d="M523.73,-904.2C565.48,-907.82 616.23,-912.22 659.26,-915.96"/>
<polygon fill="black" stroke="black" points="658.76,-919.51 669.03,-916.89 659.37,-912.54 658.76,-919.51"/>
</g>
<!-- scientific_phenomena_validate&#45;&gt;Phenomena -->
<g id="edge37" class="edge">
<title>scientific_phenomena_validate&#45;&gt;Phenomena</title>
<path fill="none" stroke="black" d="M507.92,-852.62C532.79,-857.37 561.12,-863.33 586.61,-870 621.52,-879.14 659.88,-891.51 690.85,-902.11"/>
<polygon fill="black" stroke="black" points="689.46,-905.67 700.06,-905.62 691.75,-899.06 689.46,-905.67"/>
</g>
<!-- scientific_phenomena_validate&#45;&gt;validate -->
<g id="edge40" class="edge">
<title>scientific_phenomena_validate&#45;&gt;validate</title>
<path fill="none" stroke="green" d="M507.88,-841C564.44,-841 644.35,-841 697.14,-841"/>
<polygon fill="green" stroke="green" points="696.97,-844.5 706.97,-841 696.97,-837.5 696.97,-844.5"/>
</g>
<!-- quantum_circuit_fry&#45;&gt;Circuit -->
<g id="edge38" class="edge">
<title>quantum_circuit_fry&#45;&gt;Circuit</title>
<path fill="none" stroke="black" d="M494.23,-782.66C548.53,-782.31 632.52,-781.77 689.76,-781.4"/>
<polygon fill="black" stroke="black" points="689.5,-784.9 699.47,-781.33 689.45,-777.9 689.5,-784.9"/>
</g>
<!-- quantum_circuit_get_status -->
<g id="node42" class="node">
<title>quantum_circuit_get_status</title>
<polygon fill="none" stroke="lightblue" stroke-width="2" points="493.84,-744.75 385.59,-744.75 385.59,-705.25 493.84,-705.25 493.84,-744.75"/>
<text text-anchor="middle" x="439.72" y="-727.45" font-family="Times New Roman,serif" font-size="14.00">Quantum Circuit</text>
<text text-anchor="middle" x="439.72" y="-711.7" font-family="Times New Roman,serif" font-size="14.00">.get_status()</text>
</g>
<!-- quantum_circuit_get_status&#45;&gt;Circuit -->
<g id="edge39" class="edge">
<title>quantum_circuit_get_status&#45;&gt;Circuit</title>
<path fill="none" stroke="black" d="M494.23,-734.63C548.53,-744.4 632.52,-759.51 689.76,-769.8"/>
<polygon fill="black" stroke="black" points="689.01,-773.41 699.47,-771.73 690.25,-766.52 689.01,-773.41"/>
</g>
<!-- quantum_circuit_get_status&#45;&gt;get_status -->
<g id="edge41" class="edge">
<title>quantum_circuit_get_status&#45;&gt;get_status</title>
<path fill="none" stroke="green" d="M494.23,-725C547.96,-725 630.75,-725 687.94,-725"/>
<polygon fill="green" stroke="green" points="687.66,-728.5 697.66,-725 687.66,-721.5 687.66,-728.5"/>
</g>
</g>
</svg>
